<svg width="149" height="186" viewBox="0 0 149 186" fill="none" xmlns="http://www.w3.org/2000/svg">
<path d="M146.037 110.845C145.409 109.695 129.625 84.4982 114.467 71.952C116.767 64.1107 127.847 20.4082 88.1238 5.45742C87.7056 5.35286 77.3566 1.90267 64.2896 1.90267C51.2226 1.90267 56.2403 2.21633 52.268 2.94818C50.1772 3.36639 47.982 3.7846 45.8913 4.51645C44.8459 4.83011 43.8005 5.24831 42.7552 5.56197C41.9189 5.87562 40.6645 6.60748 39.8282 6.71203C39.8282 5.56197 39.8282 4.51645 39.41 3.36639C38.9919 2.32088 38.0511 1.37992 37.0057 1.06626C36.0649 0.752608 35.1241 1.06626 34.1832 1.48447C33.347 1.90267 32.6152 2.63453 32.0925 3.47094C31.6744 3.9937 31.3608 4.621 30.9426 5.14376C29.6882 6.71203 28.3292 6.18927 27.1793 4.93466C25.6113 3.26184 23.5206 0.648057 20.9072 1.17081C19.9664 1.37992 19.1301 2.11177 18.6074 2.94818C17.7711 4.30735 17.4575 5.98017 17.7711 7.54844C18.0847 9.11671 19.0255 11.5214 16.8303 12.2532C15.8895 12.5669 14.7396 12.2532 13.7987 12.2532C12.7534 12.3578 11.708 12.6715 10.9763 13.2988C10.0354 14.0306 9.51277 15.0761 9.40823 16.2262C9.19916 18.0036 10.14 19.6764 11.3944 20.8265C11.9171 21.3492 18.921 25.6358 19.1301 25.3222C17.353 28.3541 15.7849 31.6998 14.426 35.3591L13.3806 38.182L16.4121 37.7638C16.4121 37.7638 19.9664 37.241 25.6113 37.241C31.2562 37.241 33.556 37.4501 38.4692 38.0774L23.416 62.1242L25.1932 77.9114L0 102.481L15.1577 107.918L13.7987 110.322L6.16762 123.287C6.48123 123.287 7.00391 123.287 7.63112 123.287C10.6627 123.6 13.5897 124.646 16.0985 126.528L11.708 150.888L5.33133 183.195C5.33133 183.195 24.2523 187.377 44.8459 185.495L48.4001 185.076C74.4296 181.731 101.504 167.826 94.605 122.45L111.853 126.214L115.721 127.051C117.812 127.469 120.007 127.991 122.098 128.41C128.893 129.873 137.151 131.233 143.528 127.26C149.591 123.6 148.964 116.282 145.932 110.845H146.037ZM17.7711 137.401L19.2346 129.142C22.8934 132.696 25.6113 136.878 27.1793 139.806C24.2523 139.178 21.1163 138.447 17.7711 137.401ZM79.7609 82.198V95.6852C76.4158 114.4 65.544 145.556 29.7927 140.224C30.7336 135.937 30.629 131.546 30.629 131.546C29.6882 121.091 21.5344 114.818 16.9348 111.995L20.3845 106.036L6.6903 101.122L29.1655 79.2706L27.3884 62.9606L42.5461 38.7047C47.2502 39.5411 52.268 40.6912 57.5993 42.4686C58.0174 42.8868 58.5401 43.2004 58.9583 43.6186C64.6032 50.6236 71.398 61.8105 76.1021 69.861C77.5657 73.2066 78.9246 76.4477 80.179 79.3752C79.97 80.2116 79.8654 81.1525 79.8654 82.198H79.7609ZM89.9009 103.736C87.6011 99.8672 84.9877 91.5031 83.3151 82.4071L83.9423 80.8389C86.7648 73.5203 89.0646 68.5018 90.9462 65.0516C91.4689 64.1107 91.8871 63.2743 92.3052 62.647C92.8279 61.8105 93.246 61.0787 93.6642 60.4514C95.964 57.1057 97.0093 57.0012 97.2184 57.0012C97.4275 57.0012 97.8456 57.6285 98.1592 58.4649C98.2638 58.9877 98.3683 59.8241 98.4728 60.8696C98.7864 66.7244 98.891 71.8475 98.7864 76.2386C98.4728 82.6162 97.4275 90.2485 95.2322 98.6126C94.8141 100.285 94.2914 101.958 93.7687 103.736C93.7687 103.945 93.6642 104.154 93.5596 104.363C93.246 104.781 92.9324 105.304 92.5143 105.722L92.3052 105.931C92.3052 105.931 92.2007 106.036 92.0961 106.036C91.7825 106.036 91.3644 105.722 91.0508 105.304C90.7372 104.886 90.319 104.363 89.9009 103.736ZM144.26 121.928C142.901 124.123 140.496 124.855 138.196 125.587C135.479 126.423 132.552 126.528 129.729 126.319C125.652 125.9 121.68 124.75 117.707 123.914C116.662 123.705 115.617 123.496 114.571 123.182L112.585 122.764L110.599 122.346L93.5596 118.686L91.4689 111.577L91.1553 110.427V110.009C91.678 110.009 92.2007 109.904 92.6188 109.695C92.6188 109.695 92.7234 109.695 92.8279 109.695C93.037 109.695 93.246 109.59 93.4551 109.486C93.9778 109.277 94.8141 108.754 95.6504 107.918C95.8594 107.604 96.173 107.395 96.3821 106.977C96.5912 106.663 96.9048 106.245 97.1139 105.827C97.532 105.199 97.8456 104.363 98.2638 103.526C98.4728 103.004 98.7864 102.272 98.9955 101.54C98.9955 101.54 98.9955 101.54 98.9955 101.435C99.2046 100.913 99.3091 100.39 99.5182 99.8672C99.7273 99.3444 99.8318 98.7171 99.9363 98.0898C100.25 96.9398 100.459 95.6852 100.668 94.326C100.982 92.3395 101.295 90.1439 101.504 87.7393C101.713 84.9164 101.923 81.8844 102.027 78.3296V78.1205C102.55 70.1746 102.027 64.0061 101.713 60.3468C101.713 60.0332 101.713 59.615 101.713 59.3013V59.0922C101.713 58.674 101.609 58.2558 101.4 57.8376C101.295 57.1057 101.191 56.6875 101.191 56.583V56.3739C100.041 52.9237 98.1592 52.1918 96.6957 52.1918C94.5005 52.1918 92.8279 53.9692 92.5143 54.3874C91.678 55.4329 90.9463 56.4784 90.2145 57.5239C78.2974 47.2779 65.7531 41.3185 54.3587 37.9729C50.3863 36.8228 46.5185 35.8818 42.9643 35.3591C36.1694 34.209 30.2109 33.7908 25.6113 33.7908C21.0117 33.7908 20.489 33.8954 18.8165 34.1045C19.8618 31.4907 21.1163 29.086 22.4752 26.995C23.416 27.3086 24.2523 27.7268 25.1932 28.0405C28.5383 29.3997 32.4061 30.2361 35.9604 29.7133C39.201 29.2951 41.7098 27.4132 43.3824 24.5903C44.0096 23.4402 44.5323 22.2902 44.5323 20.931C44.5323 19.4673 43.696 18.2127 42.8597 17.1672C41.9189 15.9125 41.2917 14.867 40.769 13.4033C40.769 13.1942 39.9327 10.8941 40.1418 10.7895C48.0865 6.81658 56.763 5.66652 64.2896 5.66652C76.8339 5.66652 86.9739 9.01216 86.9739 9.01216C103.804 15.2852 112.899 27.7268 114.049 46.0233C114.99 59.8241 110.808 72.0566 110.704 72.1611L110.285 73.3112L111.331 74.1476C126.279 85.9619 142.796 112.622 143.005 112.832C145.096 116.909 145.514 119.941 144.26 122.137V121.928Z" fill="#0E0E0E"/>
<path d="M44.8283 19.4213C44.1677 17.5524 42.705 16.1507 41.9029 14.3752C41.1008 12.5997 40.5346 10.5439 40.393 8.48813C40.2043 6.33887 40.7233 3.62895 39.4494 1.71331C38.3641 0.0780057 36.0993 -0.482669 34.3535 0.451789C32.8436 1.2928 32.0415 2.97483 30.9563 4.32979C30.626 4.7503 30.2485 5.12408 29.7295 5.31097C28.5027 5.7782 27.6534 4.84374 26.9456 3.95601C26.0019 2.74121 24.728 1.47969 23.3596 0.732126C22.2272 0.124729 20.8589 -0.0621631 19.7265 0.451789C18.9244 0.825572 18.311 1.52642 17.8863 2.27398C17.3201 3.30189 16.9898 4.51668 17.037 5.73148C17.0842 7.08644 17.6032 8.39468 17.6976 9.70292C17.6976 10.357 17.6032 11.0579 17.1314 11.4784C16.6124 11.8989 15.9046 11.8055 15.244 11.7587C14.1588 11.6653 13.0736 11.6653 11.9883 11.9456C10.8559 12.226 9.7235 12.8334 9.11011 13.8145C8.63827 14.5621 8.44954 15.4498 8.44954 16.3376C8.44954 17.5056 8.68546 18.6737 9.39322 19.6082C11.2806 22.0845 14.725 23.5796 17.4617 24.9346C20.5286 26.4764 23.7371 27.8781 27.04 28.906C30.2957 29.9339 33.8345 30.4479 37.2317 29.5602C39.5909 28.9528 41.8557 27.3642 43.3656 25.4953C44.6868 23.8132 45.5361 21.5238 44.8283 19.4213Z" fill="#FFC52A"/>
</svg>
