<svg width="32" height="39" viewBox="0 0 32 39" fill="none" xmlns="http://www.w3.org/2000/svg">
<path d="M30.6091 23.233C30.4776 22.9919 27.1691 17.7107 23.9921 15.081C24.4741 13.4375 26.7966 4.27753 18.4706 1.14386C18.383 1.12195 16.2138 0.398795 13.475 0.398795C10.7362 0.398795 11.7879 0.464536 10.9553 0.617932C10.5171 0.705587 10.0569 0.793243 9.61874 0.946639C9.39963 1.01238 9.18053 1.10004 8.96142 1.16578C8.78614 1.23152 8.52321 1.38491 8.34793 1.40683C8.34793 1.16578 8.34793 0.946639 8.26028 0.705587C8.17264 0.48645 7.97545 0.289226 7.75634 0.223484C7.55914 0.157743 7.36195 0.223484 7.16475 0.311139C6.98947 0.398795 6.8361 0.552191 6.72654 0.727501C6.6389 0.83707 6.57317 0.968553 6.48553 1.07812C6.2226 1.40683 5.93776 1.29726 5.69675 1.03429C5.36809 0.683674 4.92988 0.135829 4.38211 0.245398C4.18492 0.289226 4.00963 0.442622 3.90008 0.617932C3.7248 0.902811 3.65906 1.25343 3.7248 1.58214C3.79053 1.91085 3.98772 2.41486 3.5276 2.56826C3.33041 2.634 3.08939 2.56826 2.89219 2.56826C2.67309 2.59017 2.45398 2.65591 2.30061 2.7874C2.10341 2.94079 1.99386 3.15993 1.97195 3.40098C1.92813 3.77352 2.12532 4.12414 2.38825 4.36519C2.4978 4.47476 3.96581 5.37322 4.00963 5.30748C3.63715 5.94298 3.3085 6.64422 3.02366 7.41121L2.80455 8.00288L3.43996 7.91522C3.43996 7.91522 4.18492 7.80565 5.36809 7.80565C6.55126 7.80565 7.03329 7.84948 8.06309 7.98096L4.90797 13.0211L5.28045 16.3301L0 21.4799L3.17703 22.6194L2.89219 23.1234L1.29272 25.8407C1.35846 25.8407 1.46801 25.8407 1.59947 25.8407C2.23488 25.9064 2.84837 26.1256 3.37423 26.52L2.45398 31.6259L1.11744 38.3973C1.11744 38.3973 5.08325 39.2738 9.39963 38.8794L10.1446 38.7917C15.6003 38.0905 21.2752 35.176 19.8291 25.6654L23.4443 26.4543L24.255 26.6296C24.6932 26.7172 25.1533 26.8268 25.5915 26.9145C27.0157 27.2213 28.7467 27.5061 30.0832 26.6734C31.354 25.9064 31.2226 24.3725 30.5871 23.233H30.6091ZM3.7248 28.7991L4.03154 27.0679C4.79841 27.8129 5.36809 28.6895 5.69675 29.3031C5.08325 29.1716 4.42593 29.0182 3.7248 28.7991ZM16.7178 17.2286V20.0555C16.0166 23.978 13.7379 30.5083 6.24451 29.3907C6.44171 28.4923 6.4198 27.5719 6.4198 27.5719C6.2226 25.3805 4.51358 24.0657 3.54951 23.474L4.27256 22.2249L1.40228 21.195L6.11305 16.615L5.74057 13.1964L8.9176 8.11245C9.90357 8.28776 10.9553 8.52881 12.0727 8.90134C12.1604 8.989 12.2699 9.05474 12.3576 9.14239C13.5407 10.6106 14.9649 12.9554 15.9509 14.6428C16.2576 15.344 16.5425 16.0233 16.8054 16.6369C16.7616 16.8122 16.7397 17.0094 16.7397 17.2286H16.7178ZM18.8431 21.7428C18.3611 20.932 17.8133 19.1789 17.4627 17.2724L17.5942 16.9437C18.1858 15.4097 18.6678 14.3579 19.0622 13.6347C19.1717 13.4375 19.2594 13.2622 19.347 13.1307C19.4566 12.9554 19.5442 12.802 19.6319 12.6705C20.1139 11.9693 20.333 11.9474 20.3768 11.9474C20.4206 11.9474 20.5083 12.0788 20.574 12.2542C20.5959 12.3637 20.6178 12.539 20.6398 12.7582C20.7055 13.9853 20.7274 15.0591 20.7055 15.9795C20.6398 17.3162 20.4206 18.9159 19.9605 20.669C19.8729 21.0197 19.7633 21.3703 19.6538 21.7428C19.6538 21.7866 19.6319 21.8305 19.61 21.8743C19.5442 21.962 19.4785 22.0715 19.3909 22.1592L19.347 22.203C19.347 22.203 19.3251 22.2249 19.3032 22.2249C19.2375 22.2249 19.1498 22.1592 19.0841 22.0715C19.0184 21.9839 18.9307 21.8743 18.8431 21.7428ZM30.2366 25.5558C29.9517 26.016 29.4478 26.1694 28.9658 26.3228C28.3961 26.4981 27.7826 26.52 27.191 26.4762C26.3365 26.3885 25.5039 26.1475 24.6713 25.9722C24.4522 25.9284 24.2331 25.8845 24.014 25.8188L23.5977 25.7311L23.1814 25.6435L19.61 24.8765L19.1717 23.3864L19.106 23.1453V23.0576C19.2156 23.0576 19.3251 23.0357 19.4128 22.9919C19.4128 22.9919 19.4347 22.9919 19.4566 22.9919C19.5004 22.9919 19.5442 22.97 19.588 22.9481C19.6976 22.9042 19.8729 22.7947 20.0482 22.6194C20.092 22.5536 20.1577 22.5098 20.2015 22.4221C20.2454 22.3564 20.3111 22.2687 20.3549 22.1811C20.4426 22.0496 20.5083 21.8743 20.5959 21.699C20.6398 21.5894 20.7055 21.436 20.7493 21.2826C20.7493 21.2826 20.7493 21.2826 20.7493 21.2607C20.7931 21.1511 20.815 21.0416 20.8589 20.932C20.9027 20.8224 20.9246 20.691 20.9465 20.5595C21.0122 20.3184 21.0561 20.0555 21.0999 19.7706C21.1656 19.3542 21.2313 18.894 21.2752 18.39C21.319 17.7983 21.3628 17.1628 21.3847 16.4178V16.3739C21.4943 14.7085 21.3847 13.4156 21.319 12.6486C21.319 12.5829 21.319 12.4952 21.319 12.4295V12.3856C21.319 12.298 21.2971 12.2103 21.2532 12.1227C21.2313 11.9693 21.2094 11.8816 21.2094 11.8597V11.8159C20.9684 11.0927 20.574 10.9393 20.2673 10.9393C19.8071 10.9393 19.4566 11.3119 19.3909 11.3995C19.2156 11.6187 19.0622 11.8378 18.9088 12.0569C16.411 9.90938 13.7817 8.66029 11.3935 7.95905C10.5609 7.718 9.7502 7.52077 9.00524 7.41121C7.58106 7.17015 6.33215 7.0825 5.36809 7.0825C4.40402 7.0825 4.29447 7.10441 3.9439 7.14824C4.16301 6.6004 4.42593 6.09638 4.71077 5.6581C4.90797 5.72384 5.08325 5.8115 5.28045 5.87724C5.98158 6.16212 6.79228 6.33743 7.53723 6.22786C8.21646 6.14021 8.74232 5.74576 9.09288 5.15409C9.22435 4.91303 9.3339 4.67198 9.3339 4.3871C9.3339 4.08031 9.15862 3.81734 8.98333 3.59821C8.78614 3.33524 8.65467 3.1161 8.54512 2.80931C8.54512 2.76548 8.36984 2.28338 8.41366 2.26147C10.0789 1.42874 11.8974 1.18769 13.475 1.18769C16.1043 1.18769 18.2296 1.88893 18.2296 1.88893C21.7572 3.20376 23.6634 5.8115 23.9044 9.64641C24.1016 12.539 23.2252 15.1029 23.2033 15.1249L23.1156 15.3659L23.3348 15.5412C26.468 18.0175 29.9298 23.6055 29.9737 23.6493C30.4119 24.504 30.4995 25.1395 30.2366 25.5996V25.5558Z" fill="#FCF8EC"/>
<path d="M9.39593 4.07067C9.25748 3.67895 8.9509 3.38516 8.78277 3.01302C8.61465 2.64089 8.49597 2.20999 8.4663 1.7791C8.42674 1.32862 8.53553 0.760622 8.26851 0.359107C8.04105 0.0163499 7.56634 -0.101167 7.20042 0.0946943C6.88396 0.270969 6.71583 0.623519 6.48837 0.907517C6.41914 0.995655 6.34002 1.074 6.23124 1.11317C5.97411 1.2111 5.79609 1.01524 5.64775 0.829173C5.44995 0.574554 5.18293 0.310141 4.89613 0.153453C4.65878 0.0261429 4.37198 -0.0130293 4.13463 0.0946943C3.9665 0.173039 3.83794 0.319934 3.74893 0.476623C3.63025 0.69207 3.56103 0.94669 3.57092 1.20131C3.58081 1.48531 3.68959 1.75951 3.70937 2.03372C3.70937 2.17082 3.68959 2.31772 3.5907 2.40585C3.48191 2.49399 3.33356 2.47441 3.19511 2.46461C2.96765 2.44503 2.74018 2.44503 2.51272 2.50378C2.27537 2.56254 2.03802 2.68985 1.90945 2.89551C1.81055 3.05219 1.771 3.23826 1.771 3.42433C1.771 3.66916 1.82044 3.91398 1.96879 4.10984C2.36438 4.62888 3.08632 4.94225 3.65992 5.22625C4.30275 5.54942 4.97525 5.84321 5.66753 6.05866C6.34991 6.27411 7.09164 6.38183 7.80369 6.19576C8.29818 6.06845 8.77288 5.73549 9.08935 5.34377C9.36626 4.99122 9.54428 4.51136 9.39593 4.07067Z" fill="#FCF8EC"/>
</svg>
