<svg width="195" height="118" viewBox="0 0 195 118" fill="none" xmlns="http://www.w3.org/2000/svg">
<path d="M126.589 9.86711V43.0005C126.589 57.4719 114.79 69.2386 100.289 69.2386H94.7377C80.2367 69.2386 68.438 57.4719 68.438 43.0005V9.86711L55.1455 2.88721V43.0005C55.1455 64.8166 72.8704 82.4999 94.7377 82.4999H100.289C122.157 82.4999 139.881 64.8166 139.881 43.0005V2.88721L126.589 9.86711Z" fill="#24428E"/>
<path d="M110.05 17.6033V63.1928C115.312 60.8662 121.769 52.703 121.769 46.2436V11.9535L110.05 17.6033Z" fill="#24428E"/>
<path d="M85.5565 17.6033V57.9346V63.1884C80.2948 60.8618 73.838 52.6985 73.838 46.2391V11.9535L85.5565 17.6033Z" fill="#24428E"/>
<path d="M98.4877 23.1552V37.5643H99.2146C99.6382 37.5643 99.9815 37.9068 99.9815 38.325V44.3529C99.9815 44.7755 99.6382 45.1136 99.2146 45.1136H96.2716C95.8479 45.1136 95.5046 44.7711 95.5046 44.3529V38.325C95.5046 37.9024 95.8479 37.5643 96.2716 37.5643H96.9984V23.1552L91.7545 20.6239V65.4216H103.736V20.6283L98.4922 23.1596L98.4877 23.1552Z" fill="#24428E"/>
<path d="M98.0999 0.395928L121.773 11.9579V0H73.838V11.9535L98.0999 0.395928Z" fill="#24428E"/>
<path d="M4.22283 103.03C3.25075 103.03 2.4927 102.763 1.95315 102.23C1.41361 101.696 1.1416 100.94 1.1416 99.9608C1.1416 99.3158 1.27983 98.7108 1.55184 98.1458C1.81938 97.5897 2.18949 97.1493 2.66661 96.829C3.14373 96.5087 3.67436 96.3441 4.2585 96.3441C4.5305 96.3441 4.79805 96.3841 5.05667 96.4687C5.3153 96.5532 5.56055 96.6733 5.80134 96.8334C6.11793 97.0559 6.3944 97.3317 6.62627 97.6609C6.85814 97.9901 7.03204 98.3549 7.1569 98.7464C7.28175 99.1378 7.34418 99.5427 7.34418 99.9564C7.34418 100.953 7.08109 101.714 6.55938 102.239C6.03767 102.763 5.25733 103.026 4.22283 103.026V103.03ZM2.92077 95.2186C2.71566 95.2186 2.54175 95.1563 2.3946 95.0317C2.24745 94.9072 2.17611 94.707 2.17611 94.4223C2.17611 94.1376 2.24745 93.9374 2.3946 93.8128C2.54175 93.6883 2.71566 93.626 2.92077 93.626C3.15265 93.626 3.33101 93.6927 3.46478 93.8306C3.59855 93.9685 3.66544 94.1643 3.66544 94.4178C3.66544 94.6714 3.59855 94.8716 3.46478 95.005C3.33101 95.143 3.15265 95.2097 2.92077 95.2097V95.2186ZM4.24958 102.012C4.87831 102.012 5.35097 101.843 5.66757 101.5C5.98416 101.162 6.14469 100.65 6.14469 99.9697C6.14469 99.4314 6.06888 98.9688 5.91728 98.5818C5.76567 98.1947 5.54717 97.8922 5.26179 97.6831C4.97195 97.4696 4.63306 97.3673 4.23174 97.3673C3.87056 97.3673 3.54505 97.4785 3.26412 97.6965C2.97874 97.9189 2.75579 98.2214 2.58634 98.6084C2.4169 98.9955 2.33218 99.4492 2.33218 99.9742C2.33218 100.655 2.4927 101.162 2.8093 101.505C3.12589 101.847 3.60747 102.016 4.24066 102.016L4.24958 102.012ZM5.2172 95.2186C4.98533 95.2186 4.80696 95.1519 4.67319 95.0139C4.53942 94.876 4.47253 94.6803 4.47253 94.4267C4.47253 94.1732 4.53942 93.973 4.67319 93.8395C4.80696 93.7016 4.98533 93.6349 5.2172 93.6349C5.44907 93.6349 5.64081 93.706 5.77013 93.8529C5.89944 93.9997 5.96187 94.1909 5.96187 94.4267C5.96187 94.6625 5.89944 94.8582 5.77013 95.0006C5.64081 95.1474 5.45799 95.2186 5.2172 95.2186Z" fill="#24428E"/>
<path d="M9.0253 106.078C8.81126 106.078 8.59277 106.046 8.36981 105.984C8.14686 105.922 7.91053 105.829 7.67419 105.708L8.01754 104.823C8.23158 104.921 8.40548 104.983 8.54817 105.01C8.69086 105.037 8.83801 105.05 8.99854 105.05C9.3954 105.05 9.70754 104.89 9.93495 104.565C10.1624 104.245 10.2738 103.818 10.2738 103.288V96.4819H11.3886V103.222C11.3886 103.813 11.2994 104.325 11.1166 104.752C10.9338 105.179 10.6662 105.508 10.314 105.74C9.9617 105.971 9.52917 106.082 9.0253 106.082V106.078Z" fill="#24428E"/>
<path d="M13.8411 92.8385H15.0227V102.901H13.8411V92.8385Z" fill="#24428E"/>
<path d="M16.949 101.865H21.368C21.3234 101.531 21.2654 101.211 21.1896 100.913C21.1138 100.615 21.0291 100.326 20.931 100.054C20.6813 99.3469 20.3469 98.7152 19.9143 98.1591C19.4863 97.6031 18.9422 97.1093 18.2868 96.6778L18.7104 95.6724C19.3926 96.0238 19.9857 96.4954 20.494 97.0737C21.0023 97.6565 21.426 98.3504 21.7693 99.1512C22.1082 99.9564 22.3534 100.868 22.5051 101.892V102.897H16.9446V101.865H16.949Z" fill="#24428E"/>
<path d="M23.7848 105.784L24.4091 105.691C24.2842 105.611 24.1772 105.499 24.0835 105.361C23.9899 105.219 23.9453 105.05 23.9453 104.859C23.9453 104.49 24.0657 104.196 24.302 103.987C24.5384 103.778 24.8728 103.671 25.2964 103.671C25.4748 103.671 25.6353 103.684 25.7825 103.715C25.9296 103.747 26.0589 103.796 26.1749 103.867L25.9742 104.463C25.885 104.409 25.7869 104.369 25.6754 104.343C25.564 104.316 25.4436 104.303 25.3098 104.303C25.1136 104.303 24.9531 104.356 24.8193 104.467C24.6855 104.579 24.6186 104.748 24.6186 104.979C24.6186 105.121 24.6499 105.241 24.7167 105.344C24.7836 105.446 24.8817 105.531 25.0155 105.602C25.0779 105.593 25.2028 105.575 25.3945 105.544C25.5863 105.513 25.7735 105.486 25.9653 105.464C26.157 105.442 26.2819 105.433 26.3443 105.433V106.082C26.2462 106.082 26.0812 106.095 25.8538 106.113C25.6219 106.136 25.3678 106.167 25.0913 106.207C24.8148 106.247 24.5518 106.282 24.3154 106.313C24.0746 106.345 23.9007 106.371 23.7848 106.398V105.789V105.784ZM27.3654 101.865C27.41 101.865 27.4323 101.883 27.4323 101.918V102.83C27.4323 102.875 27.41 102.897 27.3654 102.897H24.4314V92.8341H25.613V101.865H27.3654Z" fill="#24428E"/>
<path d="M27.2317 102.901C27.1871 102.901 27.1648 102.879 27.1648 102.835V101.923C27.1648 101.887 27.1871 101.869 27.2317 101.869H28.9841V92.8385H30.1658V102.901H27.2317Z" fill="#24428E"/>
<path d="M32.8188 92.8385H34.0005V102.901H32.8188V92.8385Z" fill="#24428E"/>
<path d="M38.58 106.078C38.1296 106.078 37.706 106.02 37.3047 105.904C36.9079 105.788 36.5333 105.624 36.1899 105.401L36.7206 104.516C37.0015 104.667 37.2958 104.792 37.6035 104.894C37.9067 104.997 38.2411 105.046 38.6068 105.046C39.2087 105.046 39.6814 104.885 40.0203 104.561C40.3592 104.24 40.5331 103.813 40.5331 103.284V102.901H39.231C38.2857 102.901 37.5544 102.643 37.0416 102.127C36.5288 101.611 36.2702 100.864 36.2702 99.8851C36.2702 99.1867 36.4218 98.5861 36.7206 98.079C37.0193 97.5718 37.4429 97.1804 37.9869 96.9001C38.531 96.6198 39.1686 96.4819 39.9044 96.4819H41.6434V103.222C41.6434 104.12 41.3758 104.823 40.8408 105.326C40.3057 105.829 39.5521 106.082 38.58 106.082V106.078ZM40.5197 101.865V97.5096H39.9489C39.1597 97.5096 38.5488 97.7186 38.1118 98.1324C37.6748 98.5461 37.4563 99.1244 37.4563 99.8673C37.4563 100.557 37.6079 101.06 37.9067 101.384C38.2054 101.705 38.6647 101.869 39.2756 101.869H40.5242L40.5197 101.865Z" fill="#24428E"/>
<path d="M50.6284 102.901C49.8659 102.901 49.2639 102.67 48.818 102.212C48.3721 101.754 48.1492 101.126 48.1492 100.33C48.1492 100.134 48.1625 99.9163 48.1893 99.6761C48.2161 99.4359 48.2562 99.1957 48.3097 98.9599C48.3632 98.7241 48.4212 98.5195 48.4836 98.346H49.5449C49.4824 98.6618 49.4334 98.9821 49.3977 99.298C49.362 99.6138 49.3442 99.9297 49.3442 100.237C49.3442 100.722 49.4601 101.113 49.6876 101.416C49.915 101.718 50.2182 101.865 50.5883 101.865H55.3506V96.4775H56.4787V101.865H58.2445C58.2891 101.865 58.3114 101.883 58.3114 101.918V102.83C58.3114 102.875 58.2891 102.897 58.2445 102.897H50.6284V102.901ZM52.8223 105.548C52.5904 105.548 52.412 105.482 52.2783 105.344C52.1445 105.206 52.0776 105.01 52.0776 104.756C52.0776 104.503 52.1445 104.303 52.2783 104.165C52.412 104.027 52.5904 103.96 52.8223 103.96C53.0542 103.96 53.2459 104.031 53.3752 104.178C53.5045 104.325 53.5669 104.516 53.5669 104.752C53.5669 104.988 53.5045 105.184 53.3752 105.326C53.2459 105.473 53.0631 105.544 52.8223 105.544V105.548Z" fill="#24428E"/>
<path d="M58.1152 102.901C58.0706 102.901 58.0483 102.879 58.0483 102.835V101.923C58.0483 101.887 58.0706 101.869 58.1152 101.869H60.6614V96.4819H61.843V102.901H58.1152ZM58.9803 105.548C58.7752 105.548 58.6013 105.486 58.4541 105.361C58.307 105.237 58.2356 105.037 58.2356 104.752C58.2356 104.467 58.307 104.267 58.4541 104.142C58.6013 104.018 58.7752 103.956 58.9803 103.956C59.2122 103.956 59.3905 104.022 59.5243 104.16C59.6581 104.298 59.725 104.494 59.725 104.752C59.725 105.01 59.6581 105.206 59.5243 105.339C59.3905 105.477 59.2122 105.544 58.9803 105.544V105.548ZM61.2723 105.548C61.0404 105.548 60.862 105.482 60.7283 105.344C60.5945 105.206 60.5276 105.01 60.5276 104.756C60.5276 104.503 60.5945 104.303 60.7283 104.165C60.862 104.027 61.0404 103.96 61.2723 103.96C61.5041 103.96 61.6959 104.031 61.8207 104.178C61.9456 104.325 62.0125 104.516 62.0125 104.752C62.0125 104.988 61.95 105.183 61.8207 105.326C61.6914 105.473 61.5086 105.544 61.2723 105.544V105.548Z" fill="#24428E"/>
<path d="M63.97 106.078C63.756 106.078 63.5375 106.046 63.3145 105.984C63.0916 105.922 62.8552 105.829 62.6189 105.708L62.9622 104.823C63.1763 104.921 63.3502 104.983 63.4929 105.01C63.6356 105.037 63.7827 105.05 63.9432 105.05C64.3401 105.05 64.6522 104.89 64.8797 104.565C65.1071 104.245 65.2185 103.818 65.2185 103.288V96.4819H66.3333V103.222C66.3333 103.813 66.2441 104.325 66.0613 104.752C65.8785 105.179 65.6109 105.508 65.2587 105.74C64.9064 105.971 64.4739 106.082 63.97 106.082V106.078Z" fill="#24428E"/>
<path d="M68.0546 101.865H72.4735C72.4111 101.451 72.3308 101.055 72.2327 100.686C72.1346 100.317 72.0142 99.9652 71.876 99.6405C71.6174 99.031 71.2874 98.4838 70.8816 97.9989C70.4759 97.514 69.9809 97.0736 69.3968 96.6732L69.8204 95.6678C70.5026 96.0282 71.1001 96.5042 71.6129 97.0825C72.1257 97.6653 72.5493 98.3548 72.8793 99.1556C73.2093 99.9563 73.4501 100.859 73.6017 101.865H75.0732C75.1177 101.865 75.14 101.883 75.14 101.918V102.83C75.14 102.875 75.1177 102.897 75.0732 102.897H68.0546V101.865Z" fill="#24428E"/>
<path d="M74.9438 102.901C74.8993 102.901 74.877 102.879 74.877 102.835V101.923C74.877 101.887 74.8993 101.869 74.9438 101.869H77.0931V96.482H78.2748V101.869H80.2635C80.3081 101.869 80.3304 101.887 80.3304 101.923V102.835C80.3304 102.879 80.3081 102.901 80.2635 102.901H74.9438ZM76.5224 95.2186C76.3172 95.2186 76.1433 95.1563 75.9962 95.0317C75.849 94.9072 75.7777 94.707 75.7777 94.4223C75.7777 94.1376 75.849 93.9374 75.9962 93.8128C76.1433 93.6883 76.3172 93.626 76.5224 93.626C76.7542 93.626 76.9326 93.6927 77.0664 93.8306C77.2001 93.9685 77.267 94.1643 77.267 94.4178C77.267 94.6714 77.2001 94.8716 77.0664 95.005C76.9326 95.143 76.7542 95.2097 76.5224 95.2097V95.2186ZM78.8188 95.2186C78.5869 95.2186 78.4085 95.1519 78.2748 95.0139C78.141 94.876 78.0741 94.6803 78.0741 94.4267C78.0741 94.1732 78.141 93.973 78.2748 93.8395C78.4085 93.7016 78.5869 93.6349 78.8188 93.6349C79.0506 93.6349 79.2424 93.706 79.3717 93.8529C79.501 93.9997 79.5634 94.1909 79.5634 94.4267C79.5634 94.6625 79.501 94.8582 79.3717 95.0006C79.2424 95.1474 79.0596 95.2186 78.8188 95.2186Z" fill="#24428E"/>
<path d="M80.1342 102.901C80.0896 102.901 80.0673 102.879 80.0673 102.835V101.923C80.0673 101.887 80.0896 101.869 80.1342 101.869H81.8866V92.8385H83.0682V101.869H84.7939C84.8385 101.869 84.8608 101.887 84.8608 101.923V102.835C84.8608 102.879 84.8385 102.901 84.7939 102.901H80.1342Z" fill="#24428E"/>
<path d="M84.6558 102.901C84.6112 102.901 84.5889 102.879 84.5889 102.835V101.923C84.5889 101.887 84.6112 101.869 84.6558 101.869H86.4082V92.8385H87.5898V102.901H84.6558Z" fill="#24428E"/>
<path d="M97.373 103.03C96.4009 103.03 95.6428 102.763 95.1033 102.23C94.5637 101.696 94.2917 100.94 94.2917 99.9608C94.2917 99.3158 94.43 98.7108 94.702 98.1458C94.9695 97.5897 95.3396 97.1493 95.8168 96.829C96.2939 96.5087 96.8245 96.3441 97.4086 96.3441C97.6806 96.3441 97.9482 96.3841 98.2068 96.4687C98.461 96.5532 98.7107 96.6733 98.9515 96.8334C99.2681 97.0559 99.5445 97.3317 99.7764 97.6609C100.008 97.9901 100.182 98.3549 100.307 98.7464C100.432 99.1378 100.494 99.5427 100.494 99.9564C100.494 100.953 100.236 101.714 99.7095 102.239C99.1878 102.763 98.4075 103.026 97.373 103.026V103.03ZM96.0709 95.2186C95.8658 95.2186 95.6919 95.1563 95.5447 95.0317C95.3976 94.9072 95.3263 94.707 95.3263 94.4223C95.3263 94.1376 95.3976 93.9374 95.5447 93.8128C95.6919 93.6883 95.8658 93.626 96.0709 93.626C96.3028 93.626 96.4812 93.6927 96.6149 93.8306C96.7487 93.9685 96.8156 94.1643 96.8156 94.4178C96.8156 94.6714 96.7487 94.8716 96.6149 95.005C96.4812 95.143 96.3028 95.2097 96.0709 95.2097V95.2186ZM97.3997 102.012C98.0285 102.012 98.5011 101.843 98.8177 101.5C99.1343 101.162 99.2948 100.65 99.2948 99.9697C99.2948 99.4314 99.219 98.9688 99.0674 98.5818C98.9158 98.1947 98.6973 97.8922 98.4119 97.6831C98.1266 97.4696 97.7832 97.3673 97.3819 97.3673C97.0207 97.3673 96.6952 97.4785 96.4143 97.6965C96.1289 97.9189 95.9059 98.2214 95.7365 98.6084C95.567 98.9955 95.4823 99.4492 95.4823 99.9742C95.4823 100.655 95.6428 101.162 95.9594 101.505C96.276 101.847 96.7576 102.016 97.3908 102.016L97.3997 102.012ZM98.3673 95.2186C98.1355 95.2186 97.9571 95.1519 97.8233 95.0139C97.6896 94.876 97.6227 94.6803 97.6227 94.4267C97.6227 94.1732 97.6896 93.973 97.8233 93.8395C97.9571 93.7016 98.1355 93.6349 98.3673 93.6349C98.5992 93.6349 98.791 93.706 98.9203 93.8529C99.0496 93.9997 99.112 94.1909 99.112 94.4267C99.112 94.6625 99.0496 94.8582 98.9203 95.0006C98.791 95.1474 98.6081 95.2186 98.3673 95.2186Z" fill="#24428E"/>
<path d="M101.948 101.865H106.367C106.305 101.451 106.224 101.055 106.126 100.686C106.028 100.317 105.908 99.9652 105.769 99.6405C105.511 99.031 105.181 98.4838 104.775 97.9989C104.369 97.514 103.874 97.0736 103.29 96.6732L103.714 95.6678C104.396 96.0282 104.994 96.5042 105.506 97.0825C106.019 97.6653 106.443 98.3548 106.773 99.1556C107.103 99.9563 107.343 100.859 107.495 101.865H108.967C109.011 101.865 109.033 101.883 109.033 101.918V102.83C109.033 102.875 109.011 102.897 108.967 102.897H101.948V101.865Z" fill="#24428E"/>
<path d="M108.837 102.901C108.793 102.901 108.77 102.879 108.77 102.835V101.923C108.77 101.887 108.793 101.869 108.837 101.869H114.532C114.416 101.754 114.309 101.589 114.206 101.371C114.103 101.153 114.01 100.886 113.93 100.561C113.845 100.241 113.769 99.8674 113.698 99.4448C113.635 99.0756 113.559 98.7553 113.466 98.4928C113.372 98.2303 113.261 98.0124 113.136 97.8522C113.007 97.6876 112.85 97.572 112.663 97.4963C112.476 97.4207 112.266 97.3851 112.026 97.3851C111.727 97.3851 111.415 97.4296 111.089 97.5186C110.768 97.6075 110.438 97.741 110.099 97.9145L109.635 97.0025C110.014 96.7534 110.402 96.5844 110.79 96.4909C111.178 96.3975 111.593 96.353 112.039 96.353C112.315 96.353 112.565 96.3753 112.788 96.4242C113.011 96.4731 113.216 96.5443 113.39 96.6422C113.631 96.7757 113.836 96.9447 114.014 97.1538C114.193 97.3629 114.335 97.6253 114.451 97.9501C114.567 98.2748 114.665 98.6708 114.746 99.1468C114.817 99.605 114.897 100.014 114.991 100.37C115.084 100.726 115.191 101.033 115.307 101.282C115.428 101.536 115.557 101.731 115.7 101.869H116.587C116.632 101.869 116.654 101.887 116.654 101.923V102.835C116.654 102.879 116.632 102.901 116.587 102.901H108.837Z" fill="#24428E"/>
<path d="M116.453 102.901C116.409 102.901 116.386 102.879 116.386 102.835V101.923C116.386 101.887 116.409 101.869 116.453 101.869H118.603V96.482H119.784V101.869H121.773C121.818 101.869 121.84 101.887 121.84 101.923V102.835C121.84 102.879 121.818 102.901 121.773 102.901H116.453ZM118.036 95.2186C117.831 95.2186 117.657 95.1563 117.51 95.0317C117.363 94.9072 117.292 94.707 117.292 94.4223C117.292 94.1376 117.363 93.9374 117.51 93.8128C117.657 93.6883 117.831 93.626 118.036 93.626C118.268 93.626 118.447 93.6927 118.58 93.8306C118.714 93.9685 118.781 94.1643 118.781 94.4178C118.781 94.6714 118.714 94.8716 118.58 95.005C118.447 95.143 118.264 95.2097 118.036 95.2097V95.2186ZM120.328 95.2186C120.096 95.2186 119.918 95.1519 119.784 95.0139C119.651 94.876 119.584 94.6803 119.584 94.4267C119.584 94.1732 119.651 93.973 119.784 93.8395C119.918 93.7061 120.096 93.6349 120.328 93.6349C120.56 93.6349 120.752 93.706 120.877 93.8529C121.006 93.9997 121.069 94.1909 121.069 94.4267C121.069 94.6625 121.006 94.8582 120.877 95.0006C120.747 95.1474 120.565 95.2186 120.328 95.2186Z" fill="#24428E"/>
<path d="M123.289 101.865C123.12 101.433 122.995 101.029 122.919 100.655C122.839 100.281 122.799 99.9297 122.799 99.6005C122.799 99.2135 122.839 98.8398 122.919 98.4883C122.999 98.1369 123.12 97.8032 123.276 97.4963C123.601 97.2205 123.976 97.0069 124.395 96.8468C124.814 96.6866 125.251 96.6066 125.701 96.6066C125.978 96.6066 126.237 96.6377 126.477 96.7C126.723 96.7623 126.95 96.8512 127.16 96.9669C127.574 97.216 127.895 97.563 128.123 98.0123C128.35 98.4616 128.462 98.9688 128.462 99.5338C128.462 99.8185 128.439 100.09 128.395 100.348C128.35 100.61 128.279 100.859 128.181 101.095C128.368 101.38 128.578 101.576 128.809 101.691C129.046 101.807 129.353 101.865 129.746 101.865H129.813C129.857 101.865 129.88 101.883 129.88 101.918V102.83C129.88 102.875 129.857 102.897 129.813 102.897H129.746C129.278 102.897 128.876 102.835 128.546 102.706C128.216 102.577 127.895 102.354 127.583 102.038C127.298 102.332 126.972 102.545 126.602 102.688C126.232 102.83 125.84 102.901 125.434 102.901H121.639C121.595 102.901 121.572 102.879 121.572 102.835V101.923C121.572 101.887 121.595 101.869 121.639 101.869H123.285L123.289 101.865ZM123.994 99.3781C123.994 99.7829 124.029 100.188 124.101 100.584C124.172 100.98 124.306 101.411 124.498 101.869H125.438C125.835 101.869 126.17 101.78 126.442 101.598C126.709 101.416 126.919 101.153 127.057 100.802C127.2 100.455 127.271 100.028 127.271 99.5249C127.271 98.9688 127.119 98.515 126.812 98.1591C126.509 97.8077 126.138 97.6298 125.701 97.6298C125.421 97.6298 125.144 97.6831 124.872 97.781C124.6 97.8833 124.359 98.0123 124.15 98.1725C124.078 98.3593 124.034 98.5462 124.016 98.7419C123.998 98.9377 123.989 99.1467 123.989 99.3781H123.994Z" fill="#24428E"/>
<path d="M129.688 102.901C129.643 102.901 129.621 102.879 129.621 102.835V101.923C129.621 101.887 129.643 101.869 129.688 101.869H131.44V92.8385H132.622V102.901H129.688Z" fill="#24428E"/>
<path d="M135.275 92.8385H136.457V102.901H135.275V92.8385Z" fill="#24428E"/>
<path d="M142.013 102.901C141.304 102.901 140.697 102.781 140.194 102.537C139.69 102.292 139.306 101.945 139.039 101.491C138.776 101.037 138.642 100.486 138.642 99.8407C138.642 99.1423 138.789 98.5417 139.088 98.039C139.382 97.5363 139.806 97.1493 140.35 96.8824C140.894 96.611 141.536 96.4775 142.28 96.4775H143.154V95.6412H144.283V101.865H145.794C145.839 101.865 145.861 101.883 145.861 101.918V102.83C145.861 102.875 145.839 102.897 145.794 102.897H142.013V102.901ZM143.154 101.865V97.5096H142.316C141.518 97.5096 140.903 97.7143 140.47 98.1191C140.038 98.5239 139.819 99.0933 139.819 99.8274C139.819 100.49 140.006 100.993 140.385 101.344C140.76 101.691 141.295 101.869 141.986 101.869H143.154V101.865ZM141.326 94.4267C141.121 94.4267 140.947 94.3644 140.8 94.2399C140.653 94.1153 140.582 93.9151 140.582 93.6304C140.582 93.3457 140.653 93.1455 140.8 93.021C140.947 92.8964 141.121 92.8341 141.326 92.8341C141.558 92.8341 141.736 92.9008 141.87 93.0387C142.004 93.1767 142.071 93.3724 142.071 93.626C142.071 93.8795 142.004 94.0797 141.87 94.2132C141.736 94.3511 141.554 94.4178 141.326 94.4178V94.4267ZM143.623 94.4267C143.391 94.4267 143.212 94.36 143.079 94.2221C142.945 94.0842 142.878 93.8884 142.878 93.6349C142.878 93.3813 142.945 93.1811 143.079 93.0476C143.212 92.9142 143.391 92.843 143.623 92.843C143.855 92.843 144.046 92.9142 144.171 93.061C144.3 93.2078 144.363 93.3991 144.363 93.6349C144.363 93.8706 144.3 94.0664 144.171 94.2087C144.042 94.3555 143.859 94.4267 143.623 94.4267Z" fill="#24428E"/>
<path d="M145.665 102.901C145.62 102.901 145.598 102.879 145.598 102.835V101.923C145.598 101.887 145.62 101.869 145.665 101.869H147.814V96.4819H148.996V101.869H150.984C151.029 101.869 151.051 101.887 151.051 101.923V102.835C151.051 102.879 151.029 102.901 150.984 102.901H145.665ZM147.297 105.548C147.092 105.548 146.918 105.486 146.771 105.361C146.623 105.237 146.552 105.037 146.552 104.752C146.552 104.467 146.623 104.267 146.771 104.142C146.918 104.018 147.092 103.956 147.297 103.956C147.529 103.956 147.707 104.022 147.841 104.16C147.975 104.298 148.041 104.494 148.041 104.752C148.041 105.01 147.975 105.206 147.841 105.339C147.707 105.477 147.524 105.544 147.297 105.544V105.548ZM149.593 105.548C149.361 105.548 149.183 105.482 149.049 105.344C148.915 105.206 148.849 105.01 148.849 104.756C148.849 104.503 148.915 104.303 149.049 104.165C149.183 104.027 149.361 103.96 149.593 103.96C149.825 103.96 150.017 104.031 150.142 104.178C150.271 104.325 150.333 104.516 150.333 104.752C150.333 104.988 150.271 105.183 150.142 105.326C150.012 105.473 149.83 105.544 149.593 105.544V105.548Z" fill="#24428E"/>
<path d="M152.501 101.865C152.331 101.433 152.206 101.029 152.13 100.655C152.05 100.281 152.01 99.9297 152.01 99.6005C152.01 99.2135 152.05 98.8398 152.13 98.4883C152.211 98.1369 152.331 97.8032 152.487 97.4963C152.813 97.2205 153.187 97.0069 153.606 96.8468C154.026 96.6866 154.463 96.6066 154.913 96.6066C155.189 96.6066 155.448 96.6377 155.689 96.7C155.934 96.7623 156.161 96.8512 156.371 96.9669C156.786 97.216 157.107 97.563 157.334 98.0123C157.562 98.4616 157.673 98.9688 157.673 99.5338C157.673 99.8185 157.651 100.09 157.606 100.348C157.562 100.61 157.49 100.859 157.392 101.095C157.579 101.38 157.789 101.576 158.021 101.691C158.257 101.807 158.565 101.865 158.957 101.865H159.024C159.069 101.865 159.091 101.883 159.091 101.918V102.83C159.091 102.875 159.069 102.897 159.024 102.897H158.957C158.489 102.897 158.088 102.835 157.758 102.706C157.428 102.577 157.107 102.354 156.795 102.038C156.509 102.332 156.184 102.545 155.814 102.688C155.444 102.83 155.051 102.901 154.645 102.901H150.851C150.806 102.901 150.784 102.879 150.784 102.835V101.923C150.784 101.887 150.806 101.869 150.851 101.869H152.496L152.501 101.865ZM153.201 99.3781C153.201 99.7829 153.236 100.188 153.308 100.584C153.379 100.98 153.513 101.411 153.705 101.869H154.645C155.042 101.869 155.377 101.78 155.649 101.598C155.916 101.416 156.126 101.153 156.264 100.802C156.407 100.455 156.478 100.028 156.478 99.5249C156.478 98.9688 156.326 98.515 156.019 98.1591C155.716 97.8077 155.345 97.6298 154.908 97.6298C154.628 97.6298 154.351 97.6831 154.079 97.781C153.807 97.8833 153.566 98.0123 153.357 98.1725C153.285 98.3593 153.241 98.5462 153.223 98.7419C153.205 98.9377 153.196 99.1467 153.196 99.3781H153.201Z" fill="#24428E"/>
<path d="M158.895 102.901C158.85 102.901 158.828 102.879 158.828 102.835V101.923C158.828 101.887 158.85 101.869 158.895 101.869H161.441V96.4819H162.623V102.901H158.895ZM159.76 105.548C159.555 105.548 159.381 105.486 159.234 105.361C159.087 105.237 159.015 105.037 159.015 104.752C159.015 104.467 159.087 104.267 159.234 104.142C159.381 104.018 159.555 103.956 159.76 103.956C159.992 103.956 160.17 104.022 160.304 104.16C160.438 104.298 160.505 104.494 160.505 104.752C160.505 105.01 160.438 105.206 160.304 105.339C160.17 105.473 159.992 105.544 159.76 105.544V105.548ZM162.052 105.548C161.82 105.548 161.642 105.482 161.508 105.344C161.374 105.206 161.307 105.01 161.307 104.756C161.307 104.503 161.374 104.303 161.508 104.165C161.642 104.027 161.82 103.96 162.052 103.96C162.284 103.96 162.476 104.031 162.605 104.178C162.734 104.325 162.797 104.516 162.797 104.752C162.797 104.988 162.734 105.183 162.605 105.326C162.476 105.473 162.293 105.544 162.052 105.544V105.548Z" fill="#24428E"/>
<path d="M164.522 101.865H168.941C168.897 101.531 168.839 101.211 168.763 100.913C168.687 100.615 168.602 100.326 168.504 100.054C168.255 99.3469 167.92 98.7152 167.488 98.1591C167.059 97.6031 166.515 97.1093 165.86 96.6778L166.284 95.6724C166.966 96.0238 167.559 96.4954 168.067 97.0737C168.576 97.6565 168.999 98.3504 169.343 99.1512C169.681 99.9564 169.927 100.868 170.078 101.892V102.897H164.518V101.865H164.522Z" fill="#24428E"/>
<path d="M174.939 101.865C174.983 101.865 175.006 101.883 175.006 101.918V102.83C175.006 102.875 174.983 102.897 174.939 102.897H172.005V92.8341H173.186V101.865H174.939Z" fill="#24428E"/>
<path d="M174.809 102.901C174.765 102.901 174.742 102.879 174.742 102.835V101.923C174.742 101.887 174.765 101.869 174.809 101.869H180.397V99.4314C180.397 98.7686 180.196 98.2837 179.799 97.9767C179.402 97.6698 178.787 97.5141 177.953 97.5141H175.697V96.4286C175.839 96.1305 176.009 95.8325 176.209 95.5433C176.41 95.2542 176.633 94.9606 176.878 94.6714C177.382 94.0975 177.944 93.5859 178.564 93.1366C179.184 92.6873 179.786 92.3492 180.37 92.1312L180.793 93.1366C180.388 93.2968 179.977 93.5014 179.567 93.7505C179.157 94.0041 178.769 94.2799 178.408 94.5869C178.047 94.8894 177.726 95.2052 177.445 95.5344C177.164 95.8636 176.95 96.1795 176.803 96.4864H177.957C179.117 96.4864 180 96.7267 180.611 97.2027C181.221 97.6787 181.525 98.3593 181.525 99.2401V102.906H174.809V102.901Z" fill="#24428E"/>
<path d="M183.103 92.3715L183.727 92.278C183.576 92.1802 183.464 92.0601 183.384 91.9221C183.304 91.7798 183.264 91.6241 183.264 91.4461C183.264 91.068 183.389 90.7744 183.634 90.5653C183.884 90.3562 184.209 90.2539 184.615 90.2539C184.958 90.2539 185.252 90.3206 185.489 90.4541L185.288 91.0502C185.199 90.9968 185.101 90.9568 184.989 90.9301C184.878 90.9034 184.758 90.8901 184.624 90.8901C184.428 90.8901 184.267 90.9434 184.133 91.0547C183.999 91.1659 183.933 91.3349 183.933 91.5663C183.933 91.7175 183.968 91.8421 184.044 91.9488C184.12 92.0556 184.214 92.1357 184.329 92.1891L184.53 92.149C184.646 92.1312 184.78 92.1134 184.927 92.0912C185.079 92.0689 185.221 92.0512 185.36 92.0378C185.498 92.0245 185.596 92.02 185.658 92.02V92.6695C185.489 92.6784 185.31 92.6918 185.114 92.714C184.918 92.7362 184.713 92.7585 184.49 92.7852C184.267 92.8119 184.04 92.843 183.808 92.8786C183.571 92.9142 183.335 92.9498 183.099 92.9854V92.3759L183.103 92.3715ZM183.843 93.6304H185.025V101.865H186.777C186.822 101.865 186.844 101.883 186.844 101.918V102.83C186.844 102.875 186.822 102.897 186.777 102.897H183.843V93.6304Z" fill="#24428E"/>
<path d="M186.644 102.901C186.599 102.901 186.577 102.879 186.577 102.835V101.923C186.577 101.887 186.599 101.869 186.644 101.869H188.396V92.8385H189.578V102.901H186.644Z" fill="#24428E"/>
<path d="M192.231 92.8385H193.413V102.901H192.231V92.8385Z" fill="#24428E"/>
<path d="M1.59189 114.019L0.878439 116.007H0L2.36331 109.383H3.44687L5.91274 116.007H4.97633L4.24058 114.019H1.59189ZM4.01763 113.267C3.38444 111.523 3.03663 110.598 2.89394 110.095H2.88502C2.7245 110.655 2.3321 111.776 1.82376 113.267H4.01763Z" fill="#24428E"/>
<path d="M10.6349 114.53C10.4298 115.362 9.86351 116.123 8.6328 116.123C7.29954 116.123 6.47461 115.166 6.47461 113.618C6.47461 112.252 7.25049 111.065 8.69523 111.065C10.14 111.065 10.5725 112.057 10.6349 112.679H9.80554C9.68515 112.186 9.37747 111.763 8.67739 111.763C7.82125 111.763 7.33521 112.497 7.33521 113.591C7.33521 114.686 7.80341 115.429 8.64618 115.429C9.25262 115.429 9.60488 115.108 9.80108 114.53H10.6349Z" fill="#24428E"/>
<path d="M15.2768 114.953C15.2768 115.393 15.3169 115.865 15.3437 116.007H14.5455C14.5054 115.9 14.4786 115.669 14.4652 115.375C14.2958 115.696 13.9078 116.123 12.9714 116.123C11.8299 116.123 11.3439 115.38 11.3439 114.646C11.3439 113.569 12.1911 113.075 13.6314 113.075H14.4563V112.666C14.4563 112.239 14.3181 111.719 13.4129 111.719C12.6058 111.719 12.4676 112.119 12.3784 112.497H11.5713C11.6337 111.83 12.0484 111.065 13.4396 111.065C14.6213 111.065 15.2768 111.549 15.2768 112.648V114.957V114.953ZM14.4608 113.654H13.676C12.7128 113.654 12.1956 113.921 12.1956 114.601C12.1956 115.104 12.5389 115.469 13.1364 115.469C14.3002 115.469 14.4608 114.686 14.4608 113.809V113.654Z" fill="#24428E"/>
<path d="M20.7392 109.014V114.641C20.7392 115.095 20.7392 115.54 20.7481 116.007H19.9454C19.9231 115.878 19.9053 115.509 19.9053 115.322C19.6645 115.825 19.174 116.123 18.3803 116.123C17.1362 116.123 16.3693 115.117 16.3693 113.645C16.3693 112.172 17.1942 111.065 18.5319 111.065C19.3881 111.065 19.7715 111.412 19.9009 111.683V109.018H20.7347L20.7392 109.014ZM17.2388 113.618C17.2388 114.784 17.7962 115.415 18.5542 115.415C19.6868 115.415 19.9365 114.583 19.9365 113.525C19.9365 112.466 19.7136 111.772 18.6211 111.772C17.765 111.772 17.2388 112.448 17.2388 113.618Z" fill="#24428E"/>
<path d="M22.6611 113.743C22.6655 114.726 23.1605 115.424 23.9854 115.424C24.7524 115.424 24.9976 115.033 25.1537 114.677H25.9965C25.8047 115.295 25.2875 116.123 23.9587 116.123C22.4381 116.123 21.8138 114.89 21.8138 113.645C21.8138 112.208 22.5407 111.065 24.0122 111.065C25.5728 111.065 26.0856 112.315 26.0856 113.342C26.0856 113.489 26.0856 113.614 26.0723 113.743H22.6611ZM25.2384 113.155C25.2295 112.359 24.8282 111.723 24.0033 111.723C23.1783 111.723 22.777 112.315 22.6923 113.155H25.2384Z" fill="#24428E"/>
<path d="M27.1647 112.421C27.1647 112.003 27.1647 111.567 27.1558 111.176H27.9629C27.9762 111.323 27.9985 111.674 27.9941 111.919C28.2126 111.487 28.6362 111.06 29.4031 111.06C30.0898 111.06 30.558 111.407 30.7453 111.923C31.0039 111.465 31.4632 111.06 32.2882 111.06C33.1131 111.06 33.8132 111.523 33.8132 112.831V116.003H32.9927V112.929C32.9927 112.368 32.792 111.776 32.034 111.776C31.2759 111.776 30.9058 112.373 30.9058 113.227V115.998H30.0854V112.951C30.0854 112.328 29.907 111.776 29.149 111.776C28.3909 111.776 27.9985 112.404 27.9985 113.325V115.998H27.1691V112.413L27.1647 112.421Z" fill="#24428E"/>
<path d="M35.4809 111.18C36.2613 113.494 36.6938 114.775 36.8231 115.264H36.832C36.9881 114.717 37.3359 113.614 38.1252 111.18H38.9679L37.2289 116.234C36.7384 117.649 36.3727 118.005 35.3828 118.005C35.2312 118.005 35.0484 117.996 34.8611 117.973V117.248C34.986 117.266 35.1242 117.275 35.2624 117.275C35.8733 117.275 36.1097 117.004 36.395 116.198L34.5802 111.185H35.4854L35.4809 111.18Z" fill="#24428E"/>
<path d="M43.1906 109.383V113.369C43.1906 114.935 44.0512 115.358 44.9029 115.358C45.8973 115.358 46.6018 114.899 46.6018 113.369V109.383H47.4892V113.325C47.4892 115.473 46.2986 116.092 44.8851 116.092C43.4716 116.092 42.2988 115.424 42.2988 113.387V109.383H43.1906Z" fill="#24428E"/>
<path d="M48.8715 112.395C48.8715 111.977 48.8715 111.554 48.8625 111.176H49.6741C49.6964 111.318 49.7098 111.825 49.7053 111.968C49.8971 111.554 50.2939 111.06 51.2303 111.06C52.1667 111.06 52.849 111.612 52.849 112.897V116.003H52.0151V113.004C52.0151 112.275 51.7297 111.781 50.9895 111.781C50.0754 111.781 49.7098 112.475 49.7098 113.445V116.003H48.8759V112.39L48.8715 112.395Z" fill="#24428E"/>
<path d="M54.2715 109.014H55.1053V110.055H54.2715V109.014ZM54.2715 111.18H55.1053V116.011H54.2715V111.18Z" fill="#24428E"/>
<path d="M55.9614 111.18H56.7997V109.757H57.6336V111.18H58.7038V111.861H57.6336V114.69C57.6336 115.157 57.7495 115.402 58.1865 115.402C58.3024 115.402 58.4763 115.398 58.6101 115.362V115.989C58.405 116.065 58.1196 116.078 57.8878 116.078C57.1342 116.078 56.7997 115.691 56.7997 114.886V111.861H55.9614V111.18Z" fill="#24428E"/>
<path d="M60.0594 113.743C60.0638 114.726 60.5588 115.424 61.3837 115.424C62.1507 115.424 62.3959 115.033 62.552 114.677H63.3948C63.203 115.295 62.6858 116.123 61.357 116.123C59.8364 116.123 59.2122 114.89 59.2122 113.645C59.2122 112.208 59.939 111.065 61.4105 111.065C62.9712 111.065 63.484 112.315 63.484 113.342C63.484 113.489 63.484 113.614 63.4706 113.743H60.0594ZM62.6367 113.155C62.6278 112.359 62.2265 111.723 61.4016 111.723C60.5766 111.723 60.1753 112.315 60.0906 113.155H62.6367Z" fill="#24428E"/>
<path d="M68.6342 109.014V114.641C68.6342 115.095 68.6342 115.54 68.6431 116.007H67.8405C67.8182 115.878 67.8003 115.509 67.8003 115.322C67.5595 115.825 67.069 116.123 66.2753 116.123C65.0312 116.123 64.2643 115.117 64.2643 113.645C64.2643 112.172 65.0892 111.065 66.4269 111.065C67.2831 111.065 67.6666 111.412 67.7959 111.683V109.018H68.6297L68.6342 109.014ZM65.1338 113.618C65.1338 114.784 65.6912 115.415 66.4492 115.415C67.5818 115.415 67.8315 114.583 67.8315 113.525C67.8315 112.466 67.6086 111.772 66.5161 111.772C65.66 111.772 65.1338 112.448 65.1338 113.618Z" fill="#24428E"/>
<path d="M72.6205 116.007V111.856H71.8402V111.176H72.6205V110.597C72.6205 109.708 72.9594 108.916 74.0296 108.916C74.208 108.916 74.4488 108.943 74.5647 108.978V109.686C74.4488 109.659 74.2704 109.641 74.1411 109.641C73.6417 109.641 73.4544 109.939 73.4544 110.646V111.171H74.422V111.852H73.4544V116.003H72.6205V116.007Z" fill="#24428E"/>
<path d="M79.2958 113.583C79.2958 114.975 78.4976 116.123 77.0172 116.123C75.6304 116.123 74.7921 115.051 74.7921 113.6C74.7921 112.15 75.6126 111.065 77.0707 111.065C78.4129 111.065 79.2958 112.07 79.2958 113.583ZM75.6527 113.591C75.6527 114.65 76.1834 115.424 77.0529 115.424C77.9224 115.424 78.4352 114.69 78.4352 113.596C78.4352 112.501 77.9402 111.763 77.0306 111.763C76.1209 111.763 75.6483 112.493 75.6483 113.596L75.6527 113.591Z" fill="#24428E"/>
<path d="M80.3883 112.488C80.3883 111.812 80.3839 111.434 80.3794 111.176H81.1999C81.2132 111.309 81.2266 111.692 81.2266 112.163C81.4808 111.509 82.056 111.087 82.8586 111.065V111.896C81.8643 111.928 81.2266 112.444 81.2266 113.663V116.007H80.3928V112.488H80.3883Z" fill="#24428E"/>
<path d="M87.6655 110.135H85.5206V109.383H90.7021V110.135H88.5528V116.007H87.6655V110.135Z" fill="#24428E"/>
<path d="M90.7423 112.488C90.7423 111.812 90.7379 111.434 90.7334 111.176H91.5539C91.5673 111.309 91.5806 111.692 91.5806 112.163C91.8348 111.509 92.41 111.087 93.2126 111.065V111.896C92.2183 111.928 91.5806 112.444 91.5806 113.663V116.007H90.7468V112.488H90.7423Z" fill="#24428E"/>
<path d="M97.5468 114.953C97.5468 115.393 97.5869 115.865 97.6137 116.007H96.8155C96.7754 115.9 96.7486 115.669 96.7352 115.375C96.5658 115.696 96.1779 116.123 95.2415 116.123C94.0999 116.123 93.6139 115.38 93.6139 114.646C93.6139 113.569 94.4611 113.075 95.9014 113.075H96.7263V112.666C96.7263 112.239 96.5881 111.719 95.6829 111.719C94.8758 111.719 94.7376 112.119 94.6484 112.497H93.8413C93.9037 111.83 94.3184 111.065 95.7097 111.065C96.8913 111.065 97.5468 111.549 97.5468 112.648V114.957V114.953ZM96.7308 113.654H95.946C94.9828 113.654 94.4656 113.921 94.4656 114.601C94.4656 115.104 94.8089 115.469 95.4064 115.469C96.5703 115.469 96.7308 114.686 96.7308 113.809V113.654Z" fill="#24428E"/>
<path d="M98.9871 109.014H99.8209V110.055H98.9871V109.014ZM98.9871 111.18H99.8209V116.011H98.9871V111.18Z" fill="#24428E"/>
<path d="M101.257 112.395C101.257 111.977 101.257 111.554 101.248 111.176H102.059C102.082 111.318 102.095 111.825 102.091 111.968C102.282 111.554 102.679 111.06 103.616 111.06C104.552 111.06 105.234 111.612 105.234 112.897V116.003H104.4V113.004C104.4 112.275 104.115 111.781 103.375 111.781C102.461 111.781 102.095 112.475 102.095 113.445V116.003H101.261V112.39L101.257 112.395Z" fill="#24428E"/>
<path d="M106.652 109.014H107.486V110.055H106.652V109.014ZM106.652 111.18H107.486V116.011H106.652V111.18Z" fill="#24428E"/>
<path d="M108.917 112.395C108.917 111.977 108.917 111.554 108.909 111.176H109.72C109.742 111.318 109.756 111.825 109.751 111.968C109.943 111.554 110.34 111.06 111.276 111.06C112.213 111.06 112.895 111.612 112.895 112.897V116.003H112.061V113.004C112.061 112.275 111.776 111.781 111.036 111.781C110.121 111.781 109.756 112.475 109.756 113.445V116.003H108.922V112.39L108.917 112.395Z" fill="#24428E"/>
<path d="M118.308 115.571C118.308 117.119 117.666 118 116.088 118C114.621 118 114.17 117.181 114.081 116.523H114.933C115.076 117.052 115.499 117.333 116.123 117.333C117.22 117.333 117.497 116.639 117.497 115.527V115.135C117.238 115.678 116.797 115.985 115.985 115.985C114.795 115.985 113.983 115.015 113.983 113.6C113.983 112.025 114.902 111.065 116.074 111.065C116.997 111.065 117.39 111.496 117.501 111.816C117.51 111.598 117.532 111.278 117.541 111.176H118.331C118.331 111.456 118.313 112.106 118.313 112.568V115.567L118.308 115.571ZM114.844 113.565C114.844 114.583 115.374 115.273 116.164 115.273C117.207 115.273 117.515 114.575 117.515 113.502C117.515 112.43 117.229 111.772 116.195 111.772C115.298 111.772 114.844 112.519 114.844 113.565Z" fill="#24428E"/>
<path d="M125.751 114.953C125.751 115.393 125.791 115.865 125.817 116.007H125.019C124.984 115.9 124.952 115.669 124.939 115.375C124.77 115.696 124.382 116.123 123.445 116.123C122.304 116.123 121.818 115.38 121.818 114.646C121.818 113.569 122.665 113.075 124.105 113.075H124.93V112.666C124.93 112.239 124.792 111.719 123.887 111.719C123.08 111.719 122.941 112.119 122.852 112.497H122.045C122.107 111.83 122.522 111.065 123.913 111.065C125.095 111.065 125.751 111.549 125.751 112.648V114.957V114.953ZM124.935 113.654H124.15C123.187 113.654 122.669 113.921 122.669 114.601C122.669 115.104 123.013 115.469 123.61 115.469C124.774 115.469 124.935 114.686 124.935 113.809V113.654Z" fill="#24428E"/>
<path d="M127.195 112.395C127.195 111.977 127.195 111.554 127.186 111.176H127.998C128.02 111.318 128.033 111.825 128.029 111.968C128.221 111.554 128.618 111.06 129.554 111.06C130.49 111.06 131.173 111.612 131.173 112.897V116.003H130.339V113.004C130.339 112.275 130.053 111.781 129.313 111.781C128.399 111.781 128.034 112.475 128.034 113.445V116.003H127.2V112.39L127.195 112.395Z" fill="#24428E"/>
<path d="M136.622 109.014V114.641C136.622 115.095 136.622 115.54 136.631 116.007H135.828C135.806 115.878 135.788 115.509 135.788 115.322C135.547 115.825 135.061 116.123 134.267 116.123C133.023 116.123 132.256 115.117 132.256 113.645C132.256 112.172 133.081 111.065 134.419 111.065C135.275 111.065 135.659 111.412 135.788 111.683V109.018H136.622V109.014ZM133.121 113.618C133.121 114.784 133.679 115.415 134.437 115.415C135.569 115.415 135.819 114.583 135.819 113.525C135.819 112.466 135.596 111.772 134.504 111.772C133.652 111.772 133.121 112.448 133.121 113.618Z" fill="#24428E"/>
<path d="M146.298 113.182C146.298 111.95 146.311 110.7 146.338 110.006H146.302C146.017 111.078 144.942 113.925 144.18 116.007H143.391C142.815 114.312 141.701 111.122 141.402 109.993H141.371C141.424 110.758 141.446 112.23 141.446 113.365V116.007H140.617V109.383H141.932C142.686 111.438 143.609 114.094 143.837 114.935H143.854C144.01 114.299 145.098 111.385 145.879 109.383H147.154V116.007H146.293V113.182H146.298Z" fill="#24428E"/>
<path d="M152.197 114.953C152.197 115.393 152.237 115.865 152.264 116.007H151.466C151.43 115.9 151.399 115.669 151.386 115.375C151.216 115.696 150.828 116.123 149.892 116.123C148.75 116.123 148.264 115.38 148.264 114.646C148.264 113.569 149.112 113.075 150.552 113.075H151.377V112.666C151.377 112.239 151.239 111.719 150.333 111.719C149.526 111.719 149.388 112.119 149.299 112.497H148.492C148.554 111.83 148.969 111.065 150.36 111.065C151.542 111.065 152.197 111.549 152.197 112.648V114.957V114.953ZM151.386 113.654H150.601C149.638 113.654 149.121 113.921 149.121 114.601C149.121 115.104 149.464 115.469 150.061 115.469C151.225 115.469 151.386 114.686 151.386 113.809V113.654Z" fill="#24428E"/>
<path d="M153.647 112.395C153.647 111.977 153.646 111.554 153.638 111.176H154.449C154.471 111.318 154.485 111.825 154.48 111.968C154.672 111.554 155.069 111.06 156.005 111.06C156.942 111.06 157.624 111.612 157.624 112.897V116.003H156.79V113.004C156.79 112.275 156.505 111.781 155.765 111.781C154.85 111.781 154.485 112.475 154.485 113.445V116.003H153.651V112.39L153.647 112.395Z" fill="#24428E"/>
<path d="M162.591 114.953C162.591 115.393 162.631 115.865 162.658 116.007H161.86C161.824 115.9 161.793 115.669 161.78 115.375C161.61 115.696 161.222 116.123 160.286 116.123C159.144 116.123 158.658 115.38 158.658 114.646C158.658 113.569 159.506 113.075 160.946 113.075H161.771V112.666C161.771 112.239 161.633 111.719 160.727 111.719C159.92 111.719 159.782 112.119 159.693 112.497H158.886C158.948 111.83 159.363 111.065 160.754 111.065C161.936 111.065 162.591 111.549 162.591 112.648V114.957V114.953ZM161.78 113.654H160.995C160.032 113.654 159.515 113.921 159.515 114.601C159.515 115.104 159.858 115.469 160.455 115.469C161.619 115.469 161.78 114.686 161.78 113.809V113.654Z" fill="#24428E"/>
<path d="M168.027 115.571C168.027 117.119 167.385 118 165.806 118C164.339 118 163.889 117.181 163.8 116.523H164.651C164.794 117.052 165.218 117.333 165.842 117.333C166.939 117.333 167.215 116.639 167.215 115.527V115.135C166.957 115.678 166.515 115.985 165.704 115.985C164.513 115.985 163.702 115.015 163.702 113.6C163.702 112.025 164.62 111.065 165.793 111.065C166.716 111.065 167.108 111.496 167.22 111.816C167.229 111.598 167.251 111.278 167.26 111.176H168.049C168.049 111.456 168.031 112.106 168.031 112.568V115.567L168.027 115.571ZM164.562 113.565C164.562 114.583 165.093 115.273 165.882 115.273C166.926 115.273 167.233 114.575 167.233 113.502C167.233 112.43 166.948 111.772 165.913 111.772C165.017 111.772 164.562 112.519 164.562 113.565Z" fill="#24428E"/>
<path d="M169.958 113.743C169.962 114.726 170.457 115.424 171.282 115.424C172.049 115.424 172.294 115.033 172.45 114.677H173.293C173.101 115.295 172.584 116.123 171.255 116.123C169.735 116.123 169.115 114.89 169.115 113.645C169.115 112.208 169.842 111.065 171.313 111.065C172.874 111.065 173.387 112.315 173.387 113.342C173.387 113.489 173.387 113.614 173.373 113.743H169.962H169.958ZM172.535 113.155C172.526 112.359 172.125 111.723 171.295 111.723C170.466 111.723 170.069 112.315 169.985 113.155H172.531H172.535Z" fill="#24428E"/>
<path d="M174.462 112.421C174.462 112.003 174.462 111.567 174.453 111.176H175.26C175.273 111.323 175.295 111.674 175.291 111.919C175.514 111.487 175.933 111.06 176.7 111.06C177.387 111.06 177.855 111.407 178.038 111.923C178.296 111.465 178.756 111.06 179.581 111.06C180.406 111.06 181.106 111.523 181.106 112.831V116.003H180.285V112.929C180.285 112.368 180.084 111.776 179.326 111.776C178.568 111.776 178.198 112.373 178.198 113.227V115.998H177.378V112.951C177.378 112.328 177.199 111.776 176.441 111.776C175.683 111.776 175.291 112.404 175.291 113.325V115.998H174.462V112.413V112.421Z" fill="#24428E"/>
<path d="M183.036 113.743C183.041 114.726 183.536 115.424 184.361 115.424C185.128 115.424 185.373 115.033 185.529 114.677H186.372C186.18 115.295 185.663 116.123 184.334 116.123C182.813 116.123 182.193 114.89 182.193 113.645C182.193 112.208 182.92 111.065 184.392 111.065C185.952 111.065 186.465 112.315 186.465 113.342C186.465 113.489 186.465 113.614 186.452 113.743H183.041H183.036ZM185.614 113.155C185.605 112.359 185.203 111.723 184.378 111.723C183.553 111.723 183.152 112.315 183.067 113.155H185.614Z" fill="#24428E"/>
<path d="M187.54 112.395C187.54 111.977 187.54 111.554 187.531 111.176H188.343C188.365 111.318 188.378 111.825 188.374 111.968C188.566 111.554 188.962 111.06 189.899 111.06C190.835 111.06 191.517 111.612 191.517 112.897V116.003H190.684V113.004C190.684 112.275 190.398 111.781 189.658 111.781C188.744 111.781 188.378 112.475 188.378 113.445V116.003H187.544V112.39L187.54 112.395Z" fill="#24428E"/>
<path d="M192.262 111.18H193.1V109.757H193.934V111.18H195.004V111.861H193.934V114.69C193.934 115.157 194.05 115.402 194.487 115.402C194.603 115.402 194.777 115.398 194.911 115.362V115.989C194.706 116.065 194.416 116.078 194.188 116.078C193.435 116.078 193.1 115.691 193.1 114.886V111.861H192.262V111.18Z" fill="#24428E"/>
</svg>
