<svg width="167" height="133" viewBox="0 0 167 133" fill="none" xmlns="http://www.w3.org/2000/svg">
<path d="M159.976 80.4787L156.464 76.9725C137.319 57.86 106.164 57.86 87.019 76.9725L83.5069 80.4787L76.4825 73.4662L79.9947 69.96C103.023 46.97 140.473 46.9838 163.488 69.96L167 73.4662L159.976 80.4787Z" fill="#3A3A3F"/>
<path d="M83.4931 80.4787L79.981 76.9725C60.8362 57.86 29.6812 57.86 10.5365 76.9725L7.02433 80.4787L0 73.4662L3.51217 69.96C26.5272 46.9838 63.9903 46.97 87.0053 69.96L90.5174 73.4662L83.4931 80.4787Z" fill="#3A3A3F"/>
<path d="M45.2587 41.305C51.2832 41.305 56.1671 36.4294 56.1671 30.415C56.1671 24.4006 51.2832 19.525 45.2587 19.525C39.2342 19.525 34.3503 24.4006 34.3503 30.415C34.3503 36.4294 39.2342 41.305 45.2587 41.305Z" fill="#3A3A3F"/>
<path d="M82.405 25.8775C89.563 25.8775 95.3656 20.0846 95.3656 12.9387C95.3656 5.79288 89.563 0 82.405 0C75.2471 0 69.4445 5.79288 69.4445 12.9387C69.4445 20.0846 75.2471 25.8775 82.405 25.8775Z" fill="#0646CD"/>
<path d="M121.741 41.305C127.766 41.305 132.65 36.4294 132.65 30.415C132.65 24.4006 127.766 19.525 121.741 19.525C115.717 19.525 110.833 24.4006 110.833 30.415C110.833 36.4294 115.717 41.305 121.741 41.305Z" fill="#3A3A3F"/>
<path d="M141.451 101.172H131.52V96.2087C131.52 69.1762 109.497 47.1899 82.4188 47.1899C55.3407 47.1899 33.3174 69.1762 33.3174 96.2087V101.172H23.3869V96.2087C23.3869 63.7037 49.8727 37.2625 82.4326 37.2625C114.992 37.2625 141.478 63.7037 141.478 96.2087V101.172H141.451Z" fill="#0646CD"/>
<path d="M31.761 117.466H26.596L25.6181 119.776H23.8138L28.3314 109.56H30.0944L34.5707 119.776H32.7251L31.7472 117.466H31.761ZM31.0998 115.94L29.1716 111.403L27.2434 115.94H31.0998Z" fill="#0646CD"/>
<path d="M37.587 108.941V119.763H35.9067V108.941H37.587Z" fill="#0646CD"/>
<path d="M43.3993 114.758V115.913H39.8045V114.758H43.3993Z" fill="#0646CD"/>
<path d="M47.6277 109.56L51.1674 116.394L54.6796 109.56H56.6767V119.776H55.079V112.118L51.7045 118.718H50.6027L47.2145 112.118V119.776H45.6168V109.56H47.6139H47.6277Z" fill="#0646CD"/>
<path d="M63.9351 119.776V118.828C63.3842 119.515 62.489 119.845 61.3596 119.845C59.6792 119.845 58.6325 118.814 58.6325 117.439C58.6325 116.064 59.693 115.115 61.5662 115.101H63.9214V114.868C63.9214 113.891 63.2878 113.3 62.062 113.3C61.3182 113.3 60.5469 113.561 59.7619 114.084L59.0732 112.915C60.1613 112.269 60.9464 111.939 62.4201 111.939C64.4172 111.939 65.5466 112.956 65.5604 114.661V119.749H63.9214L63.9351 119.776ZM63.9076 117.04V116.325H61.8003C60.6984 116.325 60.1888 116.614 60.1888 117.356C60.1888 118.058 60.7535 118.511 61.6901 118.511C62.8884 118.511 63.8112 117.879 63.8938 117.04H63.9076Z" fill="#0646CD"/>
<path d="M70.0229 113.286C69.3618 113.286 68.8797 113.506 68.8797 114.056C68.8797 115.486 73.0117 114.716 72.9979 117.535C72.9979 119.13 71.5793 119.845 70.0229 119.845C68.8797 119.845 67.6677 119.46 66.8964 118.759L67.5024 117.563C68.1773 118.168 69.2516 118.525 70.1055 118.525C70.8217 118.525 71.3727 118.278 71.3727 117.7C71.3727 116.105 67.282 116.999 67.2958 114.194C67.2958 112.613 68.6731 111.953 70.1606 111.953C71.1385 111.953 72.1715 112.241 72.8739 112.736L72.2541 113.974C71.5655 113.548 70.7116 113.286 70.0229 113.286Z" fill="#0646CD"/>
<path d="M82.226 114.95V119.776H80.5456V115.418C80.5456 114.249 79.8432 113.534 78.6725 113.534C77.2814 113.548 76.455 114.579 76.455 115.954V119.776H74.7747V108.955H76.455V113.534C77.0059 112.434 77.9976 111.953 79.3336 111.953C81.1516 111.953 82.226 113.094 82.226 114.95Z" fill="#0646CD"/>
<path d="M91.8947 108.941V119.763H90.2144V118.429C89.6635 119.336 88.7269 119.831 87.4873 119.831C85.2561 119.831 83.7548 118.209 83.7548 115.844C83.7548 113.479 85.2561 111.925 87.446 111.925C88.6994 111.925 89.6359 112.434 90.2144 113.341V108.941H91.8947ZM90.2144 115.926C90.2144 114.428 89.2365 113.369 87.8316 113.369C86.4268 113.369 85.4489 114.428 85.4351 115.926C85.4489 117.398 86.413 118.456 87.8316 118.456C89.2503 118.456 90.2144 117.411 90.2144 115.926Z" fill="#0646CD"/>
<path d="M105.503 114.758H107.004V118.566C105.971 119.35 104.428 119.914 103.023 119.914C99.9934 119.914 97.6519 117.604 97.6519 114.661C97.6519 111.719 100.035 109.45 103.134 109.45C104.594 109.45 106.054 110.014 107.059 110.908L106.081 112.159C105.296 111.43 104.194 110.99 103.134 110.99C101.04 110.99 99.4011 112.613 99.4011 114.648C99.4011 116.683 101.054 118.333 103.147 118.333C103.905 118.333 104.773 118.071 105.503 117.618V114.744V114.758Z" fill="#0646CD"/>
<path d="M113.711 111.953V113.561C112.141 113.479 111.15 114.386 111.026 115.72V119.776H109.345V112.008H111.026V113.548C111.549 112.503 112.486 111.939 113.711 111.939V111.953Z" fill="#0646CD"/>
<path d="M122.485 115.871C122.485 118.223 120.832 119.831 118.436 119.831C116.039 119.831 114.373 118.223 114.373 115.871C114.373 113.52 116.025 111.953 118.436 111.953C120.846 111.953 122.485 113.548 122.485 115.871ZM116.053 115.913C116.053 117.411 117.031 118.443 118.436 118.443C119.841 118.443 120.805 117.425 120.805 115.913C120.805 114.4 119.827 113.383 118.436 113.383C117.045 113.383 116.053 114.414 116.053 115.913Z" fill="#0646CD"/>
<path d="M131.3 112.008V119.776H129.62V118.264C129.096 119.35 128.118 119.831 126.837 119.845C125.061 119.845 123.986 118.704 123.986 116.848V112.021H125.667V116.38C125.667 117.549 126.355 118.264 127.485 118.264C128.834 118.236 129.62 117.205 129.62 115.844V112.021H131.3V112.008Z" fill="#0646CD"/>
<path d="M141.974 115.926C141.974 118.25 140.514 119.831 138.297 119.831C137.057 119.831 136.12 119.336 135.556 118.429V122.595H133.875V112.008H135.556V113.355C136.12 112.448 137.057 111.953 138.269 111.953C140.473 111.953 141.988 113.561 141.988 115.926H141.974ZM140.266 115.858C140.266 114.414 139.288 113.341 137.897 113.341C136.506 113.341 135.528 114.386 135.528 115.858C135.528 117.329 136.506 118.401 137.897 118.401C139.288 118.401 140.266 117.356 140.266 115.858Z" fill="#0646CD"/>
<path d="M27.7392 126.706C27.7392 127.944 26.9403 128.645 25.5493 128.645H24.0755V130.419H23.442V124.823H25.5493C26.9403 124.823 27.7392 125.51 27.7392 126.706ZM27.1194 126.72C27.1194 125.868 26.5409 125.414 25.5217 125.414H24.0755V128.054H25.5217C26.5272 128.054 27.1194 127.6 27.1194 126.72Z" fill="#0646CD"/>
<path d="M30.8657 126.198V126.803C29.9705 126.789 29.4195 127.339 29.3507 128.191V130.433H28.7309V126.225H29.3507V127.16C29.6261 126.541 30.1495 126.211 30.8657 126.198Z" fill="#0646CD"/>
<path d="M35.5624 128.315C35.5624 129.566 34.6671 130.446 33.4275 130.446C32.1879 130.446 31.2927 129.566 31.2927 128.315C31.2927 127.064 32.1742 126.198 33.4275 126.198C34.6809 126.198 35.5624 127.064 35.5624 128.315ZM31.9125 128.315C31.9125 129.264 32.5323 129.896 33.4275 129.896C34.3228 129.896 34.9426 129.264 34.9426 128.315C34.9426 127.366 34.309 126.734 33.4275 126.734C32.546 126.734 31.9125 127.38 31.9125 128.315Z" fill="#0646CD"/>
<path d="M36.0031 131.464C36.4301 131.464 36.6505 131.161 36.6505 130.556V126.225H37.2703V130.653C37.2703 131.533 36.8433 132.014 36.1133 132C35.8792 132 35.645 131.959 35.4384 131.863L35.5899 131.381C35.7139 131.436 35.8516 131.464 35.9893 131.478L36.0031 131.464ZM37.3667 125.015C37.3667 125.249 37.1876 125.441 36.9535 125.441C36.7193 125.441 36.5403 125.263 36.5403 125.015C36.5403 124.768 36.7193 124.575 36.9535 124.575C37.1876 124.575 37.3667 124.768 37.3667 125.015Z" fill="#0646CD"/>
<path d="M42.3388 128.549H38.8955C39.0057 129.374 39.5979 129.924 40.4243 129.924C40.9477 129.924 41.4022 129.731 41.7328 129.388L42.0771 129.745C41.6777 130.185 41.0854 130.446 40.383 130.446C39.1434 130.446 38.2895 129.58 38.2895 128.315C38.2895 127.05 39.1572 126.198 40.383 126.184C41.7465 126.184 42.4214 127.119 42.3526 128.549H42.3388ZM41.7879 128.054C41.7465 127.243 41.1956 126.706 40.383 126.706C39.5704 126.706 38.9919 127.229 38.9093 128.054H41.7879Z" fill="#0646CD"/>
<path d="M45.121 126.748C44.2533 126.748 43.6197 127.38 43.6197 128.315C43.6197 129.25 44.2395 129.896 45.121 129.896C45.6719 129.896 46.1264 129.704 46.4294 129.36L46.7875 129.731C46.4156 130.185 45.8234 130.46 45.0934 130.46C43.8676 130.46 42.9999 129.594 42.9999 128.329C42.9999 127.064 43.8676 126.198 45.0934 126.198C45.7821 126.198 46.333 126.431 46.7187 126.816L46.3743 127.243C46.0575 126.926 45.6306 126.748 45.121 126.748Z" fill="#0646CD"/>
<path d="M50.1069 130.13C49.8176 130.336 49.4871 130.446 49.1565 130.446C48.5367 130.446 48.0822 130.089 48.0822 129.25V126.83H47.4762V126.349H48.0822V125.249H48.702V126.349H50.038V126.83H48.702V129.154C48.702 129.663 48.9086 129.869 49.2667 129.869C49.4871 129.869 49.7074 129.786 49.9416 129.649L50.1206 130.13H50.1069Z" fill="#0646CD"/>
<path d="M57.0623 130.515L56.1258 129.594C55.6161 130.144 55.0239 130.446 54.3903 130.446C53.4538 130.446 52.7238 129.8 52.7238 128.92C52.7238 128.109 53.3436 127.683 54.0047 127.339C53.619 126.83 53.4262 126.418 53.4262 126.005C53.4262 125.304 53.9771 124.809 54.7897 124.809C55.6024 124.809 56.0844 125.276 56.0844 125.923C56.0844 126.679 55.3958 127.078 54.6933 127.449C55.0377 127.848 55.4922 128.315 56.0707 128.879C56.2773 128.576 56.4701 128.205 56.6354 127.793L57.0623 128.109C56.8833 128.535 56.6629 128.92 56.4288 129.236L57.3929 130.185L57.0623 130.515ZM55.7677 129.25C55.1479 128.631 54.6382 128.109 54.2664 127.669C53.7154 127.971 53.2472 128.315 53.2472 128.879C53.2472 129.511 53.7568 129.965 54.4041 129.965C54.8862 129.965 55.3545 129.704 55.7677 129.25ZM54.4179 127.119C55.0377 126.803 55.5748 126.5 55.5748 125.923C55.5748 125.51 55.2718 125.221 54.7897 125.221C54.2664 125.221 53.9358 125.565 53.9358 126.005C53.9358 126.335 54.1011 126.679 54.4179 127.119Z" fill="#0646CD"/>
<path d="M61.883 125.386C61.1667 125.386 60.6847 125.689 60.6847 126.17C60.6847 127.641 63.8387 126.871 63.8387 128.92C63.8387 129.855 63.0124 130.46 61.8141 130.46C61.0015 130.46 60.1888 130.116 59.6655 129.594L59.9547 129.044C60.4781 129.553 61.1943 129.841 61.8279 129.841C62.6405 129.841 63.1363 129.511 63.1363 128.948C63.1363 127.435 59.9822 128.233 59.9822 126.211C59.9822 125.331 60.7535 124.768 61.9243 124.768C62.5716 124.768 63.2327 124.974 63.701 125.29L63.4255 125.854C62.9159 125.524 62.3237 125.386 61.883 125.386Z" fill="#0646CD"/>
<path d="M68.742 126.211V130.419H68.1222V129.47C67.8467 130.13 67.282 130.433 66.5245 130.446C65.5328 130.446 64.9406 129.828 64.9406 128.81V126.225H65.5604V128.659C65.5604 129.415 66.0011 129.855 66.7311 129.855C67.5988 129.841 68.1222 129.195 68.1222 128.288V126.225H68.742V126.211Z" fill="#0646CD"/>
<path d="M74.5956 128.329C74.5956 129.58 73.783 130.446 72.5847 130.446C71.8272 130.446 71.2487 130.103 70.9457 129.525V131.973H70.3259V126.211H70.9457V127.119C71.2625 126.541 71.841 126.198 72.5709 126.198C73.7692 126.198 74.5956 127.078 74.5956 128.329ZM73.962 128.315C73.962 127.408 73.3422 126.734 72.4608 126.734C71.5793 126.734 70.9457 127.394 70.9457 128.315C70.9457 129.236 71.5655 129.896 72.4608 129.896C73.356 129.896 73.962 129.236 73.962 128.315Z" fill="#0646CD"/>
<path d="M80.0222 128.329C80.0222 129.58 79.2096 130.446 78.0114 130.446C77.2538 130.446 76.6754 130.103 76.3723 129.525V131.973H75.7525V126.211H76.3723V127.119C76.6891 126.541 77.2676 126.198 77.9976 126.198C79.1958 126.198 80.0222 127.078 80.0222 128.329ZM79.3887 128.315C79.3887 127.408 78.7689 126.734 77.8874 126.734C77.0059 126.734 76.3723 127.394 76.3723 128.315C76.3723 129.236 76.9921 129.896 77.8874 129.896C78.7827 129.896 79.3887 129.236 79.3887 128.315Z" fill="#0646CD"/>
<path d="M81.799 124.493V130.433H81.1792V124.493H81.799Z" fill="#0646CD"/>
<path d="M83.438 132C83.0937 132 82.8044 131.904 82.5427 131.698L82.8044 131.203C82.9973 131.34 83.1901 131.409 83.3967 131.409C83.7272 131.409 84.0027 131.203 84.168 130.804L84.347 130.405L82.5978 126.225H83.2589L84.6638 129.731L85.9998 126.225H86.6472L84.7051 131.038C84.4434 131.684 84.0027 132.014 83.438 132.014V132Z" fill="#0646CD"/>
<path d="M90.2006 124.823L92.3355 128.906L94.4566 124.823H95.2416V130.419H94.6356V125.758L92.5145 129.828H92.1427L90.0078 125.758V130.419H89.4156V124.823H90.1869H90.2006Z" fill="#0646CD"/>
<path d="M99.4975 130.419V129.759C99.167 130.213 98.6298 130.433 97.955 130.433C97.0872 130.433 96.5225 129.883 96.5225 129.154C96.5225 128.425 97.101 127.958 98.1065 127.944H99.4975V127.683C99.4975 127.064 99.1119 126.693 98.3681 126.693C97.8999 126.693 97.4729 126.871 97.0321 127.174L96.7705 126.734C97.3214 126.376 97.7759 126.17 98.4921 126.17C99.5389 126.17 100.117 126.72 100.117 127.614V130.391H99.5113L99.4975 130.419ZM99.4838 128.975V128.466H98.1753C97.4729 128.466 97.101 128.686 97.101 129.154C97.101 129.621 97.4729 129.924 98.0651 129.924C98.7813 129.924 99.3185 129.58 99.4838 128.975Z" fill="#0646CD"/>
<path d="M105.365 127.834V130.419H104.745V127.985C104.745 127.229 104.291 126.789 103.547 126.789C102.707 126.789 102.197 127.353 102.128 128.164V130.419H101.508V126.211H102.128V127.133C102.431 126.5 102.996 126.184 103.767 126.184C104.773 126.184 105.365 126.803 105.365 127.82V127.834Z" fill="#0646CD"/>
<path d="M109.387 130.419V129.759C109.056 130.213 108.519 130.433 107.844 130.433C106.976 130.433 106.412 129.883 106.412 129.154C106.412 128.425 106.99 127.958 107.996 127.944H109.387V127.683C109.387 127.064 109.001 126.693 108.257 126.693C107.789 126.693 107.362 126.871 106.921 127.174L106.66 126.734C107.211 126.376 107.665 126.17 108.381 126.17C109.428 126.17 110.006 126.72 110.006 127.614V130.391H109.4L109.387 130.419ZM109.387 128.975V128.466H108.078C107.376 128.466 107.004 128.686 107.004 129.154C107.004 129.621 107.376 129.924 107.968 129.924C108.684 129.924 109.221 129.58 109.387 128.975Z" fill="#0646CD"/>
<path d="M115.089 126.211V129.979C115.089 131.216 114.249 131.986 112.968 131.986C112.307 131.986 111.756 131.766 111.232 131.368L111.522 130.914C111.935 131.258 112.375 131.45 112.94 131.45C113.863 131.45 114.455 130.886 114.455 129.993V129.36C114.166 129.924 113.615 130.24 112.899 130.24C111.756 130.24 110.971 129.401 110.971 128.205C110.971 127.009 111.742 126.198 112.871 126.184C113.588 126.184 114.138 126.5 114.441 127.064V126.211H115.061H115.089ZM114.455 128.219C114.455 127.339 113.849 126.706 113.009 126.706C112.169 126.706 111.563 127.339 111.563 128.219C111.563 129.085 112.169 129.718 113.009 129.718C113.849 129.718 114.455 129.085 114.455 128.219Z" fill="#0646CD"/>
<path d="M120.144 128.549H116.7C116.81 129.374 117.403 129.924 118.229 129.924C118.752 129.924 119.207 129.731 119.538 129.388L119.882 129.745C119.482 130.185 118.89 130.446 118.188 130.446C116.948 130.446 116.094 129.58 116.094 128.315C116.094 127.05 116.962 126.198 118.188 126.184C119.551 126.184 120.226 127.119 120.157 128.549H120.144ZM119.593 128.054C119.551 127.243 119 126.706 118.188 126.706C117.375 126.706 116.797 127.229 116.714 128.054H119.593Z" fill="#0646CD"/>
<path d="M128.215 127.834V130.419H127.595V127.985C127.595 127.229 127.154 126.775 126.424 126.775C125.556 126.803 125.047 127.435 125.047 128.343V130.419H124.413V127.985C124.413 127.229 123.986 126.775 123.243 126.775C122.375 126.803 121.851 127.435 121.851 128.343V130.419H121.232V126.211H121.851V127.16C122.127 126.5 122.705 126.198 123.463 126.184C124.262 126.184 124.799 126.583 124.978 127.284C125.24 126.555 125.832 126.198 126.645 126.184C127.636 126.184 128.215 126.803 128.215 127.82V127.834Z" fill="#0646CD"/>
<path d="M133.256 128.549H129.812C129.923 129.374 130.515 129.924 131.341 129.924C131.865 129.924 132.319 129.731 132.65 129.388L132.994 129.745C132.595 130.185 132.002 130.446 131.3 130.446C130.06 130.446 129.206 129.58 129.206 128.315C129.206 127.05 130.074 126.198 131.3 126.184C132.663 126.184 133.338 127.119 133.269 128.549H133.256ZM132.691 128.054C132.65 127.243 132.099 126.706 131.286 126.706C130.473 126.706 129.895 127.229 129.812 128.054H132.691Z" fill="#0646CD"/>
<path d="M138.2 127.834V130.419H137.58V127.985C137.58 127.229 137.126 126.789 136.382 126.789C135.542 126.789 135.032 127.353 134.964 128.164V130.419H134.344V126.211H134.964V127.133C135.267 126.5 135.831 126.184 136.603 126.184C137.608 126.184 138.2 126.803 138.2 127.82V127.834Z" fill="#0646CD"/>
<path d="M141.781 130.13C141.492 130.336 141.161 130.446 140.831 130.446C140.211 130.446 139.757 130.089 139.757 129.25V126.83H139.151V126.349H139.757V125.249H140.376V126.349H141.712V126.83H140.376V129.154C140.376 129.663 140.583 129.869 140.941 129.869C141.161 129.869 141.382 129.786 141.616 129.649L141.795 130.13H141.781Z" fill="#0646CD"/>
</svg>
