<svg width="187" height="101" viewBox="0 0 187 101" fill="none" xmlns="http://www.w3.org/2000/svg">
<path d="M187 21.6195C185.691 28.9971 179.578 45.8412 151.189 26.6772C149.857 25.7756 148.471 24.7971 147.028 23.7306L145.908 22.84L131.741 11.6692C131.741 11.6692 115.377 -3.78961 100.966 10.0859C98.2593 12.6917 96.3733 16.2211 95.0643 19.8714C94.5096 21.3996 94.0658 22.9389 93.6886 24.4562C92.6236 28.7552 89.7724 34.8134 82.517 35.8469C79.2886 36.3087 75.1839 35.7699 69.9697 33.6259C65.4988 31.7788 60.2181 28.7662 53.9722 24.1813C53.7725 24.0384 53.5728 23.8845 53.362 23.7306L38.0634 11.6692C38.0634 11.6692 32.7383 6.63353 25.4829 4.88535C23.4194 4.39058 21.2006 4.15969 18.893 4.39058C12.636 5.00629 5.82434 9.01941 0 20.2892V15.4624C0 15.4624 3.99384 6.51258 16.6853 1.50992C16.6853 1.50992 17.9722 0.784259 20.4129 0.344464C22.1325 0.0256129 24.4289 -0.150305 27.2579 0.168546C32.6385 0.773264 39.9383 3.17015 48.8024 9.83304C51.6203 11.9441 54.5824 14.4839 57.6998 17.5294C57.6998 17.5294 61.4273 20.7949 66.4862 23.9944C71.312 27.051 77.3583 30.0416 82.5059 30.0746C87.2097 30.0966 91.1814 27.6447 92.8122 20.4981C94.565 12.8017 99.402 7.02935 106.424 3.31308C107.634 2.67538 108.943 2.07066 110.363 1.50992C110.363 1.50992 115.599 -1.43671 124.94 0.905201C131.175 2.46647 139.252 6.38065 148.815 15.1216C149.658 15.8912 150.512 16.6938 151.377 17.5404C151.377 17.5404 152.298 18.409 153.829 19.7174C161.284 26.0505 183.339 42.4768 185.491 17.4305L187 21.6305V21.6195Z" fill="#1A3A61"/>
<path d="M67.258 86.0728H64.1428V100.302H66.0741C66.0741 99.4117 66.0741 96.7241 66.1413 96.2806V95.2187C66.1413 95.2187 67.2368 93.0152 68.4649 93.3969C71.2496 93.3969 73.3771 91.6405 73.3771 89.3099C73.3771 87.2178 71.2249 86.0728 67.258 86.0728ZM66.0724 94.367V86.3696H66.53C69.6099 86.3696 71.2479 87.3768 71.2479 89.3099C71.2479 91.9338 68.2475 91.7925 66.0724 94.3652V94.367Z" fill="#19518D"/>
<path d="M56.7604 86.0728L51.4559 100.299H52.5196L56.8187 88.8363L60.9039 100.304H62.9165L57.8223 86.0728H56.7604Z" fill="#19518D"/>
<path d="M79.1587 86.0728H78.0967L74.7041 95.1727L74.2394 96.4149L72.7922 100.299H73.856L75.0822 97.0316L75.501 95.9113L78.155 88.8363L80.544 95.5438L80.7843 96.2188L82.2403 100.304H84.2529L79.1587 86.0728Z" fill="#19518D"/>
<path d="M80.7843 96.2189C80.5758 97.4045 79.6022 100.112 75.0805 97.0317C74.8684 96.8868 74.6476 96.7295 74.4179 96.5581L74.2394 96.415L71.9829 94.6197C71.9829 94.6197 69.3766 92.1354 67.0813 94.3653C66.6502 94.7841 66.3498 95.3513 66.1413 95.9379C66.0529 96.1835 65.9823 96.4309 65.9222 96.6747C65.7526 97.3656 65.2984 98.3392 64.1428 98.5053C63.6286 98.5795 62.9749 98.493 62.1444 98.1484C61.4323 97.8516 60.5912 97.3674 59.5964 96.6306C59.5646 96.6076 59.5328 96.5829 59.4992 96.5581L57.0625 94.6197C57.0625 94.6197 56.2144 93.8105 55.0588 93.5295C54.7301 93.45 54.3767 93.4129 54.0092 93.45C53.0126 93.5489 51.9277 94.1939 51 96.0051V95.2293C51 95.2293 51.6361 93.791 53.6575 92.987C53.6575 92.987 53.8625 92.8704 54.2513 92.7997C54.5251 92.7485 54.8909 92.7202 55.3415 92.7715C56.1985 92.8687 57.3611 93.2539 58.773 94.3247C59.2218 94.6639 59.6936 95.0721 60.1901 95.5615C60.1901 95.5615 60.7838 96.0863 61.5895 96.6005C62.3582 97.0917 63.3212 97.5724 64.1411 97.5777C64.8903 97.5812 65.5229 97.1872 65.7826 96.0386C66.0618 94.8017 66.8322 93.8741 67.9507 93.2768C68.1433 93.1743 68.3518 93.0772 68.578 92.987C68.578 92.987 69.412 92.5135 70.8998 92.8899C71.8928 93.1408 73.1792 93.7698 74.7023 95.1746C74.8366 95.2983 74.9727 95.4272 75.1105 95.5633C75.1105 95.5633 75.2572 95.7029 75.501 95.9132C76.6884 96.931 80.2012 99.5708 80.544 95.5456L80.7843 96.2206V96.2189Z" fill="#19518D"/>
<path d="M135.51 83.7634C135.66 83.7334 135.874 83.7157 136.079 83.7157C136.395 83.7157 136.6 83.774 136.741 83.903C136.856 84.0055 136.921 84.161 136.921 84.3377C136.921 84.6398 136.731 84.8413 136.49 84.9225V84.9332C136.667 84.995 136.773 85.1576 136.828 85.3961C136.902 85.7159 136.957 85.9368 137.004 86.0251H136.699C136.662 85.9598 136.61 85.7636 136.545 85.4774C136.478 85.1611 136.354 85.0427 136.086 85.0321H135.806V86.0251H135.511V83.7634H135.51ZM135.806 84.8077H136.109C136.425 84.8077 136.626 84.6345 136.626 84.373C136.626 84.0762 136.413 83.9472 136.1 83.9436C135.957 83.9436 135.854 83.9578 135.806 83.9701V84.8077Z" fill="#19518D"/>
<path d="M136.114 86.7389C135.084 86.7389 134.244 85.9014 134.244 84.8695C134.244 83.8376 135.082 83 136.114 83C137.146 83 137.983 83.8376 137.983 84.8695C137.983 85.9014 137.146 86.7389 136.114 86.7389ZM136.114 83.2668C135.23 83.2668 134.509 83.986 134.509 84.8712C134.509 85.7565 135.229 86.4757 136.114 86.4757C136.999 86.4757 137.718 85.7565 137.718 84.8712C137.718 83.986 136.999 83.2668 136.114 83.2668Z" fill="#19518D"/>
<path d="M102.852 100.27H100.863L97.5335 89.0959L94.1816 98.3108H93.1196L89.8118 89.1984L86.8185 100.27H85.5781L89.6051 86.0726H90.667L94.1233 95.5507L97.5795 86.0726H98.6414L102.852 100.27Z" fill="#19518D"/>
<path d="M106.45 86.0726H104.518V100.286H106.45V86.0726Z" fill="#19518D"/>
<path d="M116.933 86.2705V100.286H115.892L109.355 89.4988V100.286H108.114V86.0726H109.157L115.695 96.8583V86.2705H116.933Z" fill="#19518D"/>
<path d="M127.791 86.6646V86.0726H118.359V86.6646L122.109 86.4278V100.286H124.04V86.4278L127.791 86.6646Z" fill="#19518D"/>
<path d="M132.808 86.0604H131.746L126.441 100.286H127.505C127.505 100.286 128.624 97.5917 128.624 97.5882C129.007 96.6623 129.648 95.7558 130.55 95.2575C131.566 94.6956 132.698 95.0508 133.539 95.7717C134.382 96.4944 134.93 97.5369 135.34 98.5494C135.359 98.5971 135.889 100.29 135.889 100.29H137.9L132.808 86.0586V86.0604ZM131.785 93.6602C131.361 93.6195 130.931 93.6425 130.52 93.7326C130.421 93.7538 130.322 93.7821 130.225 93.8157C130.179 93.8316 129.963 93.8881 129.947 93.9358L131.804 88.8257L133.886 94.5401C133.863 94.4783 133.704 94.3935 133.651 94.3546C133.562 94.291 133.472 94.2291 133.38 94.1726C133.2 94.063 133.009 93.9694 132.811 93.8952C132.484 93.7732 132.136 93.6937 131.785 93.6602Z" fill="#19518D"/>
</svg>
