<svg width="149" height="113" viewBox="0 0 149 113" fill="none" xmlns="http://www.w3.org/2000/svg">
<path d="M32.7518 36.9968V37.128C31.9178 37.0343 31.065 36.9968 30.2123 36.9968H32.7518Z" fill="#00FFAD"/>
<path d="M46.4336 43.1162C51.5784 38.6087 54.8301 31.9834 54.8301 24.6177C54.8301 20.1196 53.6213 15.9026 51.5034 12.2666C50.6319 10.7579 49.6011 9.3616 48.4297 8.07777C48.4203 8.05903 48.4016 8.04028 48.3735 8.01217C46.0213 5.4445 43.1444 3.37349 39.8926 1.98657C37.6717 1.03072 35.2727 0.393491 32.7706 0.140472C31.9366 0.046761 31.0838 0.00927734 30.2311 0.00927734H12.2667V12.2573H29.9406C36.6784 12.2573 42.376 17.5238 42.5821 24.2616C42.7883 31.2524 37.1657 37.0156 30.2123 37.0156H0V86.2606H30.203C39.6303 86.2606 47.8393 80.9378 51.9719 73.1224C50.154 69.6926 49.1231 65.7848 49.1231 61.6428C49.1231 57.5008 50.154 53.5837 51.9719 50.1539C50.5663 47.4831 48.6733 45.1029 46.4243 43.1349L46.4336 43.1162ZM29.9406 73.9939H12.2667V49.2542H30.203C30.8027 49.2542 31.4118 49.273 32.0116 49.3667C38.0091 50.2382 42.6102 55.4298 42.5821 61.6615C42.554 68.5212 36.7908 73.9845 29.9312 73.9845L29.9406 73.9939Z" fill="black"/>
<path d="M32.7518 36.9968V37.128C31.9178 37.0343 31.065 36.9968 30.2123 36.9968H32.7518Z" fill="black"/>
<path d="M113.83 24.6269C113.83 29.1344 112.612 33.3513 110.494 36.9967C109.145 39.3114 107.439 41.3824 105.434 43.1348C102.191 45.9836 98.1994 47.9983 93.795 48.8324C92.3144 49.1135 90.7775 49.2634 89.2126 49.2634H73.7597C66.9375 49.2634 61.3805 54.8111 61.3805 61.6426C61.3805 68.4741 66.9375 74.0218 73.7597 74.0218H93.795V86.2604H73.7597C64.323 86.2604 56.1139 80.9376 51.9813 73.1222C50.1633 69.6924 49.1325 65.7846 49.1325 61.6426C49.1325 57.5006 50.1633 53.5835 51.9813 50.1537C56.1139 42.3476 64.323 37.0248 73.7503 37.0248H89.2032C96.0253 37.0248 101.582 31.4678 101.582 24.6456C101.582 17.8235 96.269 12.5101 89.653 12.2758H51.494C50.6225 10.7671 49.5917 9.37079 48.4203 8.08695C48.4109 8.06821 48.3922 8.04947 48.3641 8.02135C45.6277 4.78833 42.554 2.98909 39.8832 1.99576C37.6623 1.03991 35.2633 0.402676 32.7612 0.149657V0.027832H89.2219C89.3719 0.027832 89.5218 0.027832 89.6717 0.027832C98.5555 0.18714 106.296 5.06947 110.504 12.2571C112.631 15.9024 113.849 20.1288 113.849 24.6456L113.83 24.6269Z" fill="#FCF8EC"/>
<path d="M140.229 43.1163C145.373 38.6088 148.625 31.9835 148.625 24.6178C148.625 11.2453 137.923 0.337359 124.645 0H89.2219C89.3719 0 89.5218 0 89.6717 0C98.5555 0.159308 106.296 5.04163 110.504 12.2292H124.017C130.839 12.2292 136.396 17.7769 136.396 24.6084C136.396 31.4399 130.848 36.9876 124.017 36.9876H110.513C109.164 39.3023 107.458 41.3733 105.453 43.1257C102.21 45.9745 98.2181 47.9892 93.8137 48.8233V86.242H124.017C137.595 86.242 148.635 75.1935 148.635 61.6148C148.635 54.2491 145.383 47.6238 140.238 43.1163H140.229ZM123.726 73.994H106.052V49.2543H123.989C124.588 49.2543 125.197 49.2731 125.797 49.3668C131.795 50.2383 136.396 55.4299 136.368 61.6616C136.34 68.5213 130.576 73.9846 123.717 73.9846L123.726 73.994Z" fill="black"/>
<path d="M48.3641 8.01217C46.012 5.4445 43.1351 3.37349 39.8833 1.98657C42.5541 2.98928 45.6278 4.78852 48.3641 8.01217Z" fill="#00FFAD"/>
<path d="M89.6531 12.2383V12.257C89.5031 12.257 89.3626 12.2477 89.2032 12.2477H89.6531V12.2383Z" fill="#00FFAD"/>
<path d="M89.6531 12.2383V12.257C89.5031 12.257 89.3626 12.2477 89.2032 12.2477H89.6531V12.2383Z" fill="#00FFAD"/>
<path d="M32.7518 36.9968V37.128C31.9178 37.0343 31.065 36.9968 30.2123 36.9968H32.7518Z" fill="black"/>
<path d="M11.0041 112.206H8.34892L6.87303 101.893H6.82239L5.31755 112.206H2.66239L0 94.8948H2.6841L4.18893 106.37H4.23957L5.70823 94.8948H8.02336L9.49925 106.37H9.54989L11.0547 94.8948H13.6665L11.0113 112.206H11.0041Z" fill="#0E0E0E"/>
<path d="M18.1447 112.206H15.533V94.8948H18.1447V112.206Z" fill="#0E0E0E"/>
<path d="M29.4382 112.206H26.8771L23.455 100.73H23.4044V112.206H20.9446V94.8948H23.8457L26.9205 105.207H26.9711V94.8948H29.431V112.206H29.4382Z" fill="#0E0E0E"/>
<path d="M46.9899 112.206H44.3348L42.8589 101.893H42.8082L41.3034 112.206H38.6482L35.9858 94.8948H38.6699L40.1748 106.37H40.2254L41.7013 94.8948H44.0164L45.4923 106.37H45.543L47.0478 94.8948H49.6596L47.0044 112.206H46.9899Z" fill="#0E0E0E"/>
<path d="M54.1307 112.206H51.5189V94.8948H54.1307V112.206Z" fill="#0E0E0E"/>
<path d="M65.4312 112.206H62.8701L59.4481 100.73H59.3974V112.206H56.9376V94.8948H59.8388L62.9135 105.207H62.9642V94.8948H65.424V112.206H65.4312Z" fill="#0E0E0E"/>
<path d="M79.85 98.5285V98.9718L77.3396 99.2189V98.5794C77.3396 97.591 76.8693 97.0678 76.0084 97.0678C75.1474 97.0678 74.6772 97.5838 74.6772 98.5794V98.8047C74.6772 99.8221 75.1185 100.687 76.8693 102.169C79.2568 104.197 80.1394 105.629 80.1394 107.707V108.572C80.1394 111.043 78.6852 112.453 76.1024 112.453C73.5196 112.453 72.0654 111.043 72.0654 108.572V107.409L74.5759 107.162V108.398C74.5759 109.488 75.0679 110.033 76.0518 110.033C77.0357 110.033 77.5277 109.488 77.5277 108.398V107.831C77.5277 106.741 77.014 105.876 75.2632 104.393C72.8757 102.366 72.0654 100.934 72.0654 98.9064V98.5358C72.0654 96.0649 73.469 94.655 75.9577 94.655C78.4465 94.655 79.85 96.0649 79.85 98.5358V98.5285Z" fill="#0E0E0E"/>
<path d="M84.3356 112.206H81.7239V94.8948H84.3356V112.206Z" fill="#0E0E0E"/>
<path d="M94.1822 97.3657H91.4041V112.198H88.7923V97.3657H86.0142V94.8948H94.1895V97.3657H94.1822Z" fill="#0E0E0E"/>
<path d="M103.783 108.318C103.783 111.036 102.235 112.445 99.724 112.445C97.2136 112.445 95.7087 111.036 95.7087 108.318V94.8948H98.2192V108.245C98.2192 109.509 98.7835 109.975 99.6951 109.975C100.607 109.975 101.171 109.502 101.171 108.245V94.8948H103.783V108.318Z" fill="#0E0E0E"/>
<path d="M114.686 112.206H112.03L111.466 108.274H108.587L108.022 112.206H105.411L108.384 94.8948H111.705L114.686 112.206ZM109.983 98.6011L108.927 105.898H111.119L110.063 98.6011H109.99H109.983Z" fill="#0E0E0E"/>
<path d="M122.738 97.3657H119.96V112.198H117.348V97.3657H114.57V94.8948H122.745V97.3657H122.738Z" fill="#0E0E0E"/>
<path d="M127.021 112.206H124.409V94.8948H127.021V112.206Z" fill="#0E0E0E"/>
<path d="M137.974 99.0227V108.071C137.974 110.789 136.375 112.445 133.764 112.445C131.152 112.445 129.553 110.789 129.553 108.071V99.0227C129.553 96.3047 131.152 94.6477 133.764 94.6477C136.375 94.6477 137.974 96.3047 137.974 99.0227ZM132.165 99.0517V108.049C132.165 109.335 132.729 110.025 133.764 110.025C134.798 110.025 135.363 109.335 135.363 108.049V99.0517C135.363 97.7654 134.798 97.075 133.764 97.075C132.729 97.075 132.165 97.7654 132.165 99.0517Z" fill="#0E0E0E"/>
<path d="M149 112.206H146.439L143.017 100.73H142.966V112.206H140.506V94.8948H143.408L146.482 105.207H146.533V94.8948H148.993V112.206H149Z" fill="#0E0E0E"/>
</svg>
