<svg width="82" height="176" viewBox="0 0 82 176" fill="none" xmlns="http://www.w3.org/2000/svg">
<path d="M62.9022 121.106C63.3505 126.012 64.8349 130.709 65.8909 135.506C66.399 137.805 66.7875 140.144 66.8971 142.503C66.9469 143.632 66.9369 144.762 66.8473 145.882C66.7975 146.516 66.7178 147.151 66.5982 147.785C66.5385 148.102 66.4787 148.409 66.4089 148.726C65.4924 152.235 66.3492 149.767 68.9792 141.323C68.1523 143.395 67.4948 145.545 66.7775 147.666C66.4289 148.697 66.0702 149.727 65.7514 150.758C65.7215 150.847 65.4227 151.779 65.612 151.293C66.7178 148.518 67.6243 145.654 68.5708 142.82C69.1386 141.135 69.7364 139.45 70.0651 137.706C70.623 134.772 70.5035 131.74 70.0651 128.796C69.1785 122.721 66.9768 116.924 66.4089 110.789C66.4289 111.047 65.8909 112.196 65.861 112.286C65.4326 113.495 65.0142 114.714 64.6058 115.933C64.1873 117.152 63.7789 118.371 63.3804 119.59C63.2409 119.996 62.8623 120.69 62.9022 121.116V121.106Z" fill="#DEDEAE"/>
<path d="M61.7565 141.918C61.7565 141.918 61.5772 142.513 61.5573 142.592C61.2285 143.622 60.8798 144.653 60.5312 145.684C60.5212 145.733 60.5013 145.783 60.4814 145.823C59.9932 147.289 59.525 148.786 59.0069 150.253C58.7977 150.847 58.5686 151.442 58.3295 152.027C56.9646 155.347 53.956 157.586 50.4094 158.151C46.6636 158.756 42.9676 157.2 40.3475 154.544C37.5082 151.66 36.1434 147.735 36.1334 143.732C36.1334 142.126 36.3326 140.521 36.7112 138.965C36.7909 138.628 36.8706 138.301 36.9603 137.974C36.9702 137.934 36.9902 137.894 37.0001 137.845C37.1894 137.191 37.3787 136.537 37.5879 135.882C37.7573 135.327 37.9366 134.782 38.1159 134.227C38.7236 132.364 39.3712 130.521 40.0386 128.678C40.5666 127.092 40.7958 126.458 40.736 126.775C40.8157 126.547 40.9054 126.329 40.9851 126.101C41.0249 126.002 41.0448 125.962 41.0448 125.962C41.0448 126.002 40.8755 126.567 40.8456 126.636C40.6862 127.151 40.5168 127.657 40.3475 128.172C40.3475 128.172 40.3475 128.182 40.3475 128.192C40.2777 128.469 40.208 128.737 40.1482 129.014C40.0586 129.411 39.9789 129.807 39.9191 130.204C39.7896 130.997 39.7099 131.799 39.68 132.602C39.68 132.691 39.68 132.78 39.68 132.87C39.6401 134.515 39.8095 136.17 40.2279 137.755C41.0847 140.976 43.0273 143.89 45.767 145.813C48.3871 147.656 51.6647 148.429 54.8128 147.656C56.865 147.151 58.8176 146.041 60.2124 144.465C60.84 143.751 61.358 142.949 61.7167 142.067C61.7565 141.967 61.7765 141.928 61.7864 141.928L61.7565 141.918Z" fill="#DEDEAE"/>
<path d="M26.6791 142.562C26.9282 141.858 26.4899 143.097 26.719 142.443C26.8086 142.195 26.8684 142.037 26.9083 141.928C27.0976 141.432 27.2868 140.937 27.4961 140.451L27.4164 140.63C28.4524 138.211 29.877 135.585 32.2979 134.297C34.3999 133.177 37.03 133.385 38.9727 134.713C38.9727 134.713 39.6103 132.979 39.5206 133.217C39.949 132.007 40.3674 130.788 40.7758 129.569C41.1943 128.35 41.6027 127.131 42.0012 125.913C42.061 125.744 42.5591 124.446 42.4794 124.386C39.9091 122.632 36.5219 122.989 34.2704 125.08C31.4611 127.696 30.3054 131.74 29.0801 135.238C28.2233 137.666 27.3964 140.094 26.5895 142.542C26.5397 142.691 26.0814 144.059 26.1113 144.068C26.1412 144.078 26.6991 142.453 26.6592 142.572L26.6791 142.562Z" fill="#DEDEAE"/>
<path d="M27.4462 152.532C27.0278 155.079 26.4799 157.616 25.8523 160.133C25.4239 161.838 24.9656 163.523 24.4874 165.188C24.079 166.605 23.5609 168.002 23.0329 169.4C22.3854 171.302 21.7279 173.205 21.0803 175.108C23.013 167.368 23.6207 159.658 18.0916 153.216C15.7903 150.53 13.0307 148.27 10.7792 145.535C8.02964 142.195 6.9039 138.588 6.95371 134.287C6.97363 132.652 8.13923 130.63 8.65727 129.104C9.00595 128.073 9.78301 126.636 10.2014 125.348C10.3608 124.852 10.4704 124.376 10.4704 123.96C10.4206 128.271 11.5563 131.869 14.296 135.208C16.5375 137.944 19.307 140.203 21.6083 142.889C22.3256 143.731 22.9433 144.594 23.4613 145.476C23.9495 146.308 24.3579 147.151 24.6966 148.013C24.6966 148.013 24.7265 148.102 24.7365 148.142C24.7365 148.122 24.7365 148.112 24.7365 148.092C24.6966 147.597 24.6568 147.101 24.607 146.605C23.7701 138.509 21.0803 130.442 17.6732 123.078C14.2163 115.606 9.27493 108.995 5.41951 101.731C1.72348 94.7638 -0.298874 87.2022 0.0398456 79.2837C0.378565 71.1472 3.42704 63.2089 6.30616 55.677C6.346 55.5778 6.36593 55.5382 6.36593 55.5382C6.36593 55.5778 6.18661 56.1427 6.16668 56.2121C5.86781 57.2527 5.48924 58.2735 5.14056 59.3042C5.06086 59.5619 4.9712 59.8096 4.8915 60.0673C4.8915 60.0772 4.8915 60.0871 4.88154 60.097C4.68229 60.8304 4.51294 61.5737 4.3635 62.317C4.1244 63.4864 3.93512 64.6558 3.80561 65.8352C3.52666 68.1939 3.45693 70.5823 3.57648 72.9509C3.81557 77.4106 4.77196 81.8208 6.4257 85.9832C9.84279 94.6053 15.8003 101.919 19.9645 110.165C24.1686 118.499 27.4363 127.855 28.2233 137.191C28.2333 137.339 28.2532 137.488 28.2532 137.637C28.2831 138.003 28.303 138.36 28.3229 138.717C28.572 143.345 28.2133 147.963 27.4462 152.522V152.532Z" fill="#DEDEAE"/>
<path d="M61.358 113.812C58.9472 121.631 56.3171 129.49 52.4218 136.715C52.7605 136.091 52.9996 135.377 53.2088 134.634C52.9797 135.268 52.7406 135.902 52.5015 136.537C52.8303 135.575 53.159 134.604 53.4778 133.643V133.633C53.6073 133.147 53.7468 132.671 53.8962 132.225C54.4541 130.58 54.9921 128.905 55.5998 127.27C50.9773 139.401 54.2748 133.613 52.2126 128.668C51.3559 126.606 50.0109 124.842 48.397 123.306C44.9102 119.966 40.4869 117.845 36.7112 114.872C32.9853 111.949 30.0364 108.153 29.7575 103.277C29.4786 98.3812 31.9691 93.3467 33.5631 88.8473C33.583 88.7879 33.603 88.7383 33.6229 88.6789C33.8122 88.1239 33.9417 87.7671 34.0214 87.5689C34.131 87.2914 34.131 87.331 34.0513 87.5986C33.9815 87.8266 33.862 88.2131 33.7026 88.6987C33.5631 89.1446 33.4137 89.5807 33.2642 90.0168C32.7761 91.4835 32.268 92.9503 31.7699 94.417C32.4473 92.4746 32.8757 91.2457 33.1447 90.542V90.5321C34.1509 87.886 32.8259 92.9305 33.8719 96.2505C34.5593 98.4109 35.8146 100.324 37.3588 101.969C40.726 105.546 45.1991 107.747 49.1044 110.64C51.6248 112.514 54.0058 114.823 55.4006 117.617C56.088 119.005 56.5363 120.521 56.6359 122.156C56.7156 123.554 56.4466 124.842 56.0581 126.131C57.0643 124.267 57.9908 122.365 58.8376 120.412C58.9372 120.036 59.0169 119.659 59.0966 119.272C59.9334 115.13 60.1028 110.868 59.6146 106.676C58.5785 97.7668 54.1055 89.987 49.3136 82.574C44.1431 74.5564 38.3052 67.0245 32.7562 59.2745C27.7152 52.2282 23.1425 44.0817 25.1948 35.1524C25.2446 34.9344 25.2944 34.7263 25.3541 34.5082C26.0515 31.872 27.3068 29.3548 28.1536 26.7582C28.3628 26.1141 28.5521 25.4699 28.7015 24.8158C28.5122 25.6483 28.3827 26.4708 28.293 27.2835C27.4662 35.5885 32.0389 43.1204 36.8308 49.7307C41.1544 55.6968 45.6076 61.5737 49.7718 67.6587C50.4194 68.6102 51.0669 69.5616 51.6946 70.5229C56.1477 77.2719 60.6308 84.3777 62.424 92.3358C64.0379 99.5011 63.48 106.815 61.3282 113.802L61.358 113.812Z" fill="#DEDEAE"/>
<path d="M49.7918 67.6686C45.6275 61.5836 41.1743 55.7067 36.8507 49.7406C32.0588 43.1303 27.4861 35.5984 28.313 27.2934C28.3927 26.4807 28.5222 25.6483 28.7214 24.8257C28.572 25.4798 28.3827 26.124 28.1735 26.7681C27.9842 27.3529 27.775 27.9277 27.5459 28.5025C25.5135 33.8145 26.5696 41.3762 29.6678 46.1629C29.6878 46.2026 50.8976 77.9656 50.8976 77.9656L49.8017 67.6686H49.7918Z" fill="url(#paint0_linear_78_3)"/>
<path d="M78.6028 121.473C76.172 132.969 70.6928 143.692 66.5086 154.603C66.2197 155.366 65.9706 156.209 65.592 156.932C65.3529 157.388 65.7116 156.506 65.7514 156.407C66.5185 154.048 67.4849 151.739 68.3715 149.42C69.4375 146.645 70.5433 143.88 71.679 141.125C72.1672 139.956 72.6454 138.776 73.1335 137.607C73.3726 136.774 73.6715 135.942 73.9006 135.109C75.375 129.787 76.0724 124.257 75.9728 118.737C75.6042 98.4208 63.0217 80.5126 52.103 64.2099C46.3348 55.5977 39.8792 47.2729 34.8582 38.1949C30.2755 29.9197 27.4164 20.4155 29.9866 11.0303C30.943 7.55173 32.8757 4.34073 33.8421 0.87207C33.8421 0.891891 33.8321 0.921623 33.8221 0.961265C33.3639 2.66587 33.0849 4.35064 32.9654 6.03542C32.2282 15.9063 36.8108 25.3906 42.1606 33.6559C47.341 41.6735 52.9199 49.4334 58.2099 57.3915C59.1663 58.8285 60.1127 60.2754 61.0392 61.7223C66.927 70.8994 72.9143 80.4234 76.5905 90.7303C80.0972 100.561 80.7647 111.275 78.6128 121.473H78.6028Z" fill="#DEDEAE"/>
<path d="M60.1227 144.197C60.6507 146.615 61.1688 149.034 61.6968 151.452C61.9458 152.621 62.2048 153.791 62.4539 154.96C62.683 156.021 62.7926 157.259 63.4501 158.151C63.4202 158.112 64.0678 156.457 63.9981 156.655C64.4264 155.446 64.8449 154.227 65.2533 153.008C65.6618 151.789 66.0802 150.57 66.4787 149.351C66.5484 149.123 67.0665 147.983 66.9569 147.825C66.2994 146.923 66.1898 145.694 65.9606 144.633C65.7116 143.464 65.4526 142.294 65.2035 141.125C64.6755 138.707 64.1575 136.289 63.6295 133.871C63.6693 134.059 63.0716 135.377 63.0815 135.367C62.6531 136.576 62.2347 137.795 61.8263 139.014C61.4178 140.233 60.9994 141.452 60.6009 142.671L60.3319 143.484C60.2522 143.722 60.1725 143.959 60.1227 144.197Z" fill="#DEDEAE"/>
<path d="M33.7026 88.6987C33.5631 89.1446 33.4137 89.5807 33.2642 90.0168C33.3738 89.5708 33.4735 89.1843 33.5731 88.8473C33.8022 87.995 33.9815 87.4995 33.9815 87.4995L34.0313 87.5689L34.0612 87.5986C33.9915 87.8266 33.8719 88.2131 33.7126 88.6987H33.7026Z" fill="url(#paint1_linear_78_3)"/>
<path d="M55.4105 117.617L53.5874 123.266C51.2463 117.261 43.904 112.018 39.162 109.134C34.6291 106.379 31.9393 101.354 32.2979 96.0819C32.4374 94.0107 32.796 92.0583 33.1347 90.5519V90.542C34.1409 87.8959 32.8159 92.9403 33.862 96.2603C34.5494 98.4208 35.8046 100.334 37.3488 101.979C40.7161 105.556 45.1892 107.756 49.0944 110.65C51.6149 112.523 53.9959 114.833 55.3906 117.627L55.4105 117.617Z" fill="url(#paint2_linear_78_3)"/>
<path d="M51.8042 94.1594C52.2525 94.8333 52.3621 95.6856 52.0931 96.4487C52.0034 96.7163 51.9137 96.9938 51.8241 97.2614C51.4256 98.4903 51.0072 99.6994 50.5987 100.918C50.1803 102.137 49.7718 103.356 49.3435 104.565C49.214 104.922 49.0944 105.279 48.9649 105.626C48.9151 105.774 48.8553 105.923 48.7955 106.062C48.8055 104.496 47.4805 103.446 46.2452 102.702C46.1157 102.623 45.9862 102.554 45.8566 102.474C44.183 101.493 42.4396 100.631 40.726 99.7093C40.6663 99.6795 41.1544 98.3416 41.2042 98.1831C41.3238 97.8164 41.4433 97.4398 41.5728 97.0731C41.8518 96.2208 42.1407 95.3685 42.4296 94.5261C42.8381 93.317 43.2565 92.1079 43.6749 90.8989C43.6749 90.8989 43.6749 90.8989 43.6749 90.889C43.7446 90.7106 44.2228 89.3826 44.2228 89.3826C46.0559 90.3736 47.9487 91.2953 49.732 92.3755C50.4891 92.8314 51.2861 93.4062 51.7842 94.1495L51.8042 94.1594Z" fill="#EFECE1"/>
<path d="M53.5974 167.546C55.4304 168.537 57.3233 169.459 59.1066 170.539C60.3319 171.283 61.6669 172.333 61.6569 173.899C61.7167 173.76 61.7765 173.612 61.8263 173.463C61.9558 173.106 62.0853 172.759 62.2048 172.403C62.6332 171.193 63.0516 169.974 63.4601 168.755C63.8785 167.537 64.287 166.318 64.6855 165.099L64.9544 164.286C65.2234 163.523 65.1238 162.67 64.6755 161.997C64.1774 161.253 63.3804 160.678 62.6233 160.223C60.84 159.142 58.9472 158.221 57.1141 157.23C57.1141 157.23 56.4765 158.974 56.5662 158.726C56.1378 159.935 55.7194 161.154 55.3109 162.373C54.8925 163.592 54.484 164.811 54.0855 166.03C54.0357 166.189 53.5476 167.527 53.6073 167.556L53.5974 167.546Z" fill="#EFECE1"/>
<path d="M20.4527 89.7789C23.023 90.651 25.3143 94.1395 24.5073 96.8252C24.4177 97.1325 24.8361 96.6964 24.8062 96.7162C25.1549 96.4784 25.5434 95.8342 25.7825 95.5072C26.3703 94.7143 27.1872 93.7728 27.4761 92.8016C28.3229 90.0267 26.1113 86.449 23.4314 85.5372C23.0728 85.4183 21.9271 87.2716 21.7478 87.5292C21.6382 87.6779 20.3132 89.7393 20.4527 89.7888V89.7789Z" fill="#EFECE1"/>
<path d="M26.0316 95.1503C28.2731 91.9096 30.2656 88.4806 30.3851 84.4272C30.5146 80.3243 28.5222 76.8358 26.2906 73.5455C23.7203 69.7399 21.0803 65.9838 19.058 61.8512C16.9061 57.4509 14.5849 51.7722 17.0954 47.0648C17.5736 46.1629 16.3681 47.5603 16.2984 47.6396C15.5612 48.5513 14.8837 49.5523 14.3358 50.5929C10.59 57.6194 15.7604 66.2118 19.5262 72.1481C23.5908 78.5602 31.1522 86.9147 25.6431 94.8729C25.5135 95.0612 24.1288 96.9739 24.348 97.1324C24.5671 97.291 25.9917 95.1999 26.0316 95.1404V95.1503Z" fill="#EFECE1"/>
<path d="M21.2696 65.2704C21.1999 65.4884 22.4252 64.1109 22.5448 63.9523C23.1425 63.1496 23.9196 62.218 24.2384 61.2468C25.2446 58.1943 23.4713 55.8257 21.3294 53.7842C18.5997 51.1777 16.8961 48.8785 18.5598 44.9936C18.9583 44.0719 17.8525 45.4594 17.7628 45.5684C17.0555 46.4405 16.2386 47.4712 15.8003 48.5217C14.6147 51.2966 14.4255 53.8734 16.5375 56.2717L21.2696 65.2605V65.2704Z" fill="#EFECE1"/>
<path d="M21.967 151.918C20.1438 146.259 18.0318 145.159 14.824 141.858C12.0644 139.024 10.8091 135.248 10.311 131.333C10.0321 129.104 10.0819 126.963 10.2114 125.338C10.3708 124.842 10.4804 124.366 10.4804 123.95C10.4306 128.261 11.5663 131.859 14.3059 135.199C16.5474 137.934 19.317 140.193 21.6183 142.879C22.3356 143.722 22.9532 144.584 23.4713 145.466L24.7066 148.003" fill="url(#paint3_linear_78_3)"/>
<path d="M59.8338 147.735C59.5648 148.578 59.2859 149.42 58.997 150.253C58.7878 150.847 58.5586 151.442 58.3195 152.027C56.9547 155.347 53.9461 157.586 50.3995 158.151C46.6536 158.756 42.9576 157.2 40.3375 154.544C37.4982 151.66 36.1334 147.735 36.1234 143.732C36.1234 142.126 36.3227 140.521 36.7013 138.965C36.4422 139.718 36.1732 140.471 35.8943 141.224C36.3028 139.975 36.6614 138.856 36.9902 137.855C37.1794 137.201 37.3687 136.546 37.5779 135.892C37.7672 135.347 37.9665 134.802 38.1657 134.257C38.2056 134.138 38.2454 134.029 38.2952 133.91C38.2952 133.89 38.3052 133.871 38.3152 133.851C38.5542 133.147 38.7236 132.632 38.8432 132.295C38.8531 132.245 38.873 132.196 38.883 132.166C39.0125 131.819 39.0424 131.76 38.9926 131.968C39.0823 131.73 39.1719 131.492 39.2616 131.244C39.411 130.848 39.2516 131.383 39.162 131.651C39.152 131.68 39.142 131.71 39.1321 131.73C39.1221 131.75 39.1221 131.77 39.1221 131.779C38.9627 132.285 38.7933 132.8 38.624 133.296C38.624 133.306 38.624 133.316 38.614 133.326C38.5443 133.603 38.4746 133.871 38.4148 134.148C38.4048 134.217 38.3849 134.277 38.3749 134.346C38.3052 134.673 38.2454 135 38.1856 135.337C38.0561 136.13 37.9764 136.933 37.9465 137.736C37.8768 139.46 38.0462 141.204 38.4845 142.889C39.3413 146.11 41.2839 149.014 44.0236 150.946C46.6437 152.79 49.9213 153.563 53.0694 152.79C56.0481 152.056 58.7878 150.064 59.9733 147.19C60.1725 146.705 59.8637 147.636 59.8338 147.725V147.735Z" fill="url(#paint4_linear_78_3)"/>
<path d="M26.9282 162.115C28.8709 162.879 30.8534 163.582 32.7562 164.434C34.0612 165.019 35.5058 165.911 35.6851 167.467C35.7349 167.318 35.7748 167.17 35.8046 167.011C35.8943 166.645 35.974 166.278 36.0537 165.911C36.3326 164.653 36.6016 163.404 36.8706 162.145C37.1396 160.887 37.3986 159.628 37.6576 158.369L37.827 157.537C38.0063 156.754 37.7971 155.911 37.2791 155.297C36.7013 154.613 35.8345 154.138 35.0276 153.771C33.1248 152.919 31.1323 152.215 29.1996 151.452C29.1996 151.452 28.7712 153.255 28.831 153.008C28.5521 154.266 28.2831 155.515 28.0141 156.774C27.7451 158.032 27.4861 159.291 27.2271 160.55C27.1972 160.708 26.8684 162.096 26.9382 162.115H26.9282Z" fill="#EFECE1"/>
<path d="M32.5171 170.648C34.4597 171.411 36.4422 172.115 38.345 172.967C39.6501 173.552 41.0946 174.444 41.274 176C41.3238 175.851 41.3636 175.703 41.3935 175.544C41.4832 175.177 41.5629 174.811 41.6426 174.444C41.9215 173.185 42.1905 171.937 42.4595 170.678C42.7285 169.419 42.9875 168.161 43.2465 166.902L43.4159 166.07C43.5952 165.287 43.386 164.444 42.8679 163.83C42.2901 163.146 41.4234 162.67 40.6165 162.304C38.7136 161.451 36.7212 160.748 34.7885 159.985C34.7885 159.985 34.3601 161.788 34.4199 161.541C34.1409 162.799 33.8719 164.048 33.603 165.307C33.334 166.565 33.075 167.824 32.8159 169.082C32.7861 169.241 32.4573 170.628 32.527 170.648H32.5171Z" fill="#EFECE1"/>
<path d="M35.6552 0C31.9791 14.1323 40.477 27.4024 48.2077 38.5715C56.1577 50.1371 64.2969 61.5936 71.3104 73.7735C74.7673 79.8883 77.8656 86.2607 79.8481 93.0494C83.9626 106.696 81.8107 121.364 76.451 134.336C73.8907 140.877 70.902 147.22 68.3217 153.731C70.7724 147.161 73.6316 140.748 76.0425 134.178C81.1931 121.215 83.1457 106.765 79.0711 93.2674C77.0985 86.5977 73.9903 80.2748 70.5433 74.2096C63.6095 62.0296 55.4603 50.5929 47.6499 38.958C39.9689 27.67 31.6404 14.1224 35.6552 0Z" fill="#DEDEAE"/>
<path d="M7.87025 55.2806C4.86162 63.1496 4.3635 73.6051 7.11311 82.1479C9.83283 90.9881 15.601 98.3813 20.1538 106.349C26.8883 118.4 31.4411 132.265 30.0863 146.17C29.8472 150.233 28.4923 155.783 27.6256 159.787C27.6853 159.588 26.5496 163.572 26.5496 163.572C25.7925 166.278 23.551 171.996 22.6444 174.702C24.079 170.321 26.2209 164.117 27.2071 159.687C27.1573 159.876 28.562 152.938 28.562 152.928C31.7998 137.012 27.237 120.7 19.4166 106.766C14.9136 98.7678 9.08565 91.2854 6.51537 82.3263C3.76576 73.5754 4.69226 63.1496 7.87025 55.2806Z" fill="#DEDEAE"/>
<defs>
<linearGradient id="paint0_linear_78_3" x1="26.4998" y1="51.3956" x2="50.8976" y2="51.3956" gradientUnits="userSpaceOnUse">
<stop stop-color="#959884"/>
<stop offset="1" stop-color="#9A9C85" stop-opacity="0"/>
</linearGradient>
<linearGradient id="paint1_linear_78_3" x1="33.2244" y1="88.3815" x2="34.0372" y2="89.1687" gradientUnits="userSpaceOnUse">
<stop stop-color="#959884"/>
<stop offset="1" stop-color="#9A9C85" stop-opacity="0"/>
</linearGradient>
<linearGradient id="paint2_linear_78_3" x1="31.5607" y1="95.1107" x2="56.1825" y2="119.004" gradientUnits="userSpaceOnUse">
<stop stop-color="#959884"/>
<stop offset="1" stop-color="#9A9C85" stop-opacity="0"/>
</linearGradient>
<linearGradient id="paint3_linear_78_3" x1="7.46179" y1="129.51" x2="25.5415" y2="147.067" gradientUnits="userSpaceOnUse">
<stop stop-color="#959884"/>
<stop offset="1" stop-color="#9A9C85" stop-opacity="0"/>
</linearGradient>
<linearGradient id="paint4_linear_78_3" x1="48.7457" y1="163.523" x2="48.1049" y2="147.329" gradientUnits="userSpaceOnUse">
<stop stop-color="#959884"/>
<stop offset="1" stop-color="#9A9C85" stop-opacity="0"/>
</linearGradient>
</defs>
</svg>
