<svg width="133" height="157" viewBox="0 0 133 157" fill="none" xmlns="http://www.w3.org/2000/svg">
<path d="M16.538 146.517V136H13.5917V149.08H22.4784V146.517H16.538Z" fill="white"/>
<path d="M24.5169 136V149.08H27.4609V136H24.5169Z" fill="white"/>
<path d="M39.4304 136L36.5547 141.856L33.6607 136H29.9613V149.08H32.6664V139.853L36.5182 147.331L40.3541 139.922V149.08H43.1298V136H39.4304Z" fill="white"/>
<path d="M52.5307 136H49.1726L44.4994 149.08H47.564L48.5742 146.17H52.9584L53.9503 149.08H57.1355L52.5307 136ZM49.3773 143.851L50.7834 138.928L52.1689 143.851H49.3773Z" fill="white"/>
<path d="M55.4747 136V138.562H59.3265V149.08H62.2728V138.562H66.1246V136H55.4747Z" fill="white"/>
<path d="M79.9665 139.975C79.6412 139.185 79.1839 138.49 78.5969 137.893C78.0099 137.295 77.3251 136.829 76.5424 136.498C75.7575 136.164 74.9157 136 74.0148 136C73.1138 136 72.272 136.164 71.4871 136.498C70.7044 136.829 70.0196 137.295 69.4326 137.893C69.3257 138.002 69.2233 138.115 69.1255 138.231C68.6841 138.747 68.3292 139.329 68.063 139.975C67.9106 140.341 67.7945 140.724 67.7149 141.117C67.7035 141.166 67.6944 141.212 67.6876 141.261C67.6831 141.27 67.6808 141.28 67.6808 141.291C67.6671 141.365 67.6535 141.439 67.6444 141.516C67.6285 141.627 67.6148 141.738 67.6057 141.852C67.5966 141.937 67.5898 142.023 67.5875 142.111C67.5852 142.146 67.583 142.183 67.5807 142.218C67.5761 142.324 67.5739 142.431 67.5739 142.54C67.5739 142.649 67.5761 142.755 67.5807 142.862C67.583 142.897 67.5852 142.934 67.5875 142.968C67.5875 143.056 67.5966 143.142 67.6057 143.228C67.6148 143.341 67.6285 143.453 67.6444 143.564C67.6535 143.638 67.6671 143.714 67.6808 143.788C67.6808 143.798 67.6831 143.809 67.6876 143.819C67.6944 143.867 67.7035 143.914 67.7149 143.962C67.7263 144.029 67.7399 144.094 67.7559 144.159C67.7718 144.224 67.7877 144.286 67.8059 144.351C67.8764 144.608 67.9606 144.861 68.063 145.104C68.3292 145.751 68.6841 146.332 69.1255 146.849C69.2233 146.964 69.3257 147.078 69.4326 147.187C70.0196 147.785 70.7044 148.25 71.4871 148.581C72.272 148.915 73.1138 149.08 74.0148 149.08C74.9157 149.08 75.7575 148.915 76.5424 148.581C77.3251 148.25 78.0099 147.785 78.5969 147.187C79.1839 146.589 79.6412 145.894 79.9665 145.104C80.2941 144.312 80.4557 143.457 80.4557 142.54C80.4557 141.622 80.2941 140.768 79.9665 139.975ZM77.1294 143.881C76.9588 144.296 76.7199 144.659 76.4128 144.972C76.1056 145.285 75.7461 145.528 75.3366 145.702C74.9271 145.876 74.488 145.961 74.0148 145.961C73.5415 145.961 73.1024 145.876 72.6929 145.702C72.2834 145.528 71.9239 145.285 71.619 144.972C71.3096 144.659 71.0707 144.296 70.9001 143.881C70.7295 143.466 70.6453 143.019 70.6453 142.54C70.6453 142.06 70.7295 141.613 70.9001 141.198C71.0707 140.786 71.3096 140.422 71.619 140.107C71.9239 139.797 72.2834 139.554 72.6929 139.38C73.1024 139.204 73.5438 139.118 74.0148 139.118C74.4857 139.118 74.9271 139.204 75.3366 139.38C75.7461 139.554 76.1056 139.797 76.4128 140.107C76.7199 140.422 76.9588 140.786 77.1294 141.198C77.3001 141.613 77.3842 142.06 77.3842 142.54C77.3842 143.019 77.3001 143.466 77.1294 143.881Z" fill="white"/>
<path d="M85.7067 146.418V136H82.6444V149.08H91.8792V146.418H85.7067Z" fill="white"/>
<path d="M105.268 139.975C104.943 139.185 104.486 138.49 103.899 137.893C103.312 137.295 102.627 136.829 101.844 136.498C101.062 136.164 100.218 136 99.3166 136C98.4156 136 97.5738 136.164 96.7912 136.498C96.0085 136.829 95.3237 137.295 94.7367 137.893C94.6298 138.002 94.5251 138.115 94.4296 138.231C93.9859 138.747 93.631 139.329 93.3648 139.975C93.2147 140.341 93.0986 140.724 93.0167 141.117C93.0054 141.166 92.9963 141.212 92.9894 141.261C92.9849 141.27 92.9826 141.28 92.9826 141.291C92.969 141.365 92.9553 141.439 92.9462 141.516C92.9303 141.627 92.9166 141.738 92.9075 141.852C92.8984 141.937 92.8916 142.023 92.8893 142.111C92.887 142.155 92.8848 142.202 92.8825 142.246C92.8779 142.343 92.8757 142.44 92.8757 142.54C92.8757 142.639 92.8779 142.737 92.8825 142.834C92.8825 142.878 92.887 142.924 92.8893 142.968C92.8916 143.056 92.8984 143.142 92.9075 143.228C92.9166 143.341 92.9303 143.453 92.9462 143.564C92.9553 143.638 92.969 143.714 92.9826 143.788C92.9826 143.798 92.9826 143.809 92.9894 143.819C92.9963 143.867 93.0054 143.914 93.0167 143.962C93.0986 144.356 93.2147 144.738 93.3648 145.104C93.631 145.751 93.9859 146.332 94.4296 146.849C94.5251 146.964 94.6298 147.078 94.7367 147.187C95.3237 147.785 96.0085 148.25 96.7912 148.581C97.5738 148.915 98.4156 149.08 99.3166 149.08C100.218 149.08 101.062 148.915 101.844 148.581C102.627 148.25 103.312 147.785 103.899 147.187C104.486 146.589 104.943 145.894 105.268 145.104C105.596 144.312 105.76 143.457 105.76 142.54C105.76 141.622 105.596 140.768 105.268 139.975ZM102.431 143.881C102.261 144.296 102.022 144.659 101.715 144.97C101.407 145.283 101.048 145.526 100.638 145.702C100.229 145.873 99.7898 145.961 99.3166 145.961C98.8434 145.961 98.4043 145.873 97.9947 145.702C97.5852 145.526 97.2257 145.283 96.9209 144.97C96.6137 144.659 96.3748 144.296 96.2019 143.881C96.0336 143.466 95.9471 143.019 95.9471 142.54C95.9471 142.06 96.0336 141.611 96.2019 141.198C96.3748 140.784 96.6137 140.42 96.9209 140.107C97.2257 139.795 97.5852 139.551 97.9947 139.378C98.4043 139.204 98.8456 139.118 99.3166 139.118C99.7875 139.118 100.229 139.204 100.638 139.378C101.048 139.551 101.407 139.795 101.715 140.107C102.022 140.42 102.261 140.784 102.431 141.198C102.602 141.611 102.688 142.06 102.688 142.54C102.688 143.019 102.602 143.466 102.431 143.881Z" fill="white"/>
<path d="M113.695 141.597V144.226H116.808C116.701 144.636 116.512 145 116.239 145.32C115.966 145.642 115.636 145.892 115.252 146.073C114.867 146.253 114.435 146.344 113.962 146.344C113.463 146.344 113.006 146.249 112.592 146.054C112.176 145.862 111.814 145.595 111.507 145.257C111.197 144.919 110.956 144.518 110.786 144.053C110.613 143.587 110.526 143.082 110.526 142.54C110.526 141.998 110.61 141.497 110.776 141.046C110.943 140.592 111.175 140.193 111.47 139.85C111.766 139.505 112.121 139.239 112.528 139.053C112.938 138.866 113.379 138.771 113.855 138.771C114.471 138.771 115.04 138.905 115.563 139.169C116.084 139.436 116.542 139.834 116.933 140.364L119.085 138.463C118.505 137.677 117.747 137.07 116.817 136.644C115.886 136.213 114.899 136 113.855 136C112.94 136 112.089 136.164 111.302 136.498C110.513 136.829 109.825 137.295 109.238 137.893C108.649 138.49 108.19 139.185 107.857 139.975C107.525 140.768 107.361 141.622 107.361 142.54C107.361 143.457 107.525 144.312 107.857 145.104C108.19 145.894 108.656 146.589 109.254 147.187C109.853 147.785 110.547 148.25 111.336 148.581C112.126 148.915 112.983 149.08 113.907 149.08C114.831 149.08 115.636 148.917 116.389 148.591C117.142 148.266 117.798 147.808 118.357 147.215C118.915 146.622 119.345 145.924 119.647 145.12C119.948 144.319 120.1 143.441 120.1 142.484V141.597H113.695Z" fill="white"/>
<path d="M129.674 136L126.489 141.198L123.34 136H119.816L124.869 143.881V149.08H127.929V143.863L133 136H129.674Z" fill="white"/>
<path d="M70.6453 142.54C70.6453 143.473 70.4792 144.344 70.147 145.148C69.8922 145.776 69.5464 146.339 69.1255 146.849C68.6841 146.332 68.3292 145.751 68.063 145.104C67.9606 144.861 67.8764 144.608 67.8059 144.351C67.7877 144.286 67.7718 144.224 67.7559 144.159C67.7399 144.094 67.7263 144.029 67.7149 143.962C67.7035 143.913 67.6944 143.867 67.6876 143.818C67.6831 143.809 67.6808 143.798 67.6808 143.788C67.6671 143.714 67.6535 143.638 67.6444 143.564C67.6285 143.452 67.6148 143.341 67.6057 143.228C67.5966 143.142 67.5898 143.056 67.5875 142.968C67.5852 142.934 67.583 142.896 67.5807 142.862C67.5761 142.755 67.5739 142.649 67.5739 142.54C67.5739 142.431 67.5761 142.324 67.5807 142.218C67.583 142.183 67.5852 142.146 67.5875 142.111C67.5875 142.023 67.5966 141.937 67.6057 141.852C67.6148 141.738 67.6285 141.627 67.6444 141.516C67.6535 141.439 67.6671 141.365 67.6808 141.291C67.6808 141.279 67.6831 141.27 67.6876 141.261C67.6944 141.212 67.7035 141.166 67.7149 141.117C67.7945 140.723 67.9106 140.341 68.063 139.975C68.3292 139.329 68.6841 138.747 69.1255 138.231C69.5464 138.738 69.8899 139.306 70.147 139.931C70.4792 140.735 70.6453 141.606 70.6453 142.54Z" fill="#B1DC00"/>
<path d="M8.83663 144.97C8.52949 145.283 8.17002 145.526 7.76049 145.7C7.35552 145.876 6.91187 145.961 6.44091 145.961C5.96996 145.961 5.52858 145.876 5.11906 145.7C4.70953 145.526 4.35006 145.283 4.04292 144.97C3.73578 144.657 3.49689 144.296 3.32625 143.881C3.16472 143.48 3.07599 143.052 3.07144 142.591V142.558C3.07144 142.558 3.06916 142.544 3.06916 142.54C3.06916 142.535 3.06916 142.528 3.07144 142.521V142.489C3.07599 142.025 3.16472 141.597 3.32625 141.201C3.49689 140.786 3.73578 140.42 4.04292 140.107C4.35006 139.795 4.70953 139.551 5.11906 139.378C5.52858 139.206 5.96769 139.116 6.44091 139.116C6.91414 139.116 7.35552 139.206 7.76049 139.378C8.17002 139.551 8.52949 139.795 8.83663 140.107C8.93902 140.212 9.03685 140.323 9.12103 140.439L11.4212 138.344C11.2983 138.187 11.1618 138.036 11.0208 137.893C10.4338 137.295 9.74896 136.832 8.96632 136.496C8.18595 136.164 7.34187 136 6.44091 136C5.53996 136 4.69588 136.164 3.91324 136.496C3.13059 136.832 2.44577 137.295 1.85879 137.893C1.75186 138.002 1.6472 138.115 1.55164 138.231C1.10799 138.747 0.753071 139.329 0.486879 139.975C0.32762 140.364 0.207038 140.768 0.125133 141.187C0.104656 141.296 0.0864552 141.405 0.0705293 141.516C0.0546033 141.627 0.0409525 141.738 0.0318519 141.852C0.0227514 141.937 0.015926 142.023 0.0136508 142.111C0.0113757 142.155 0.00910055 142.202 0.00682541 142.246C0.00227514 142.343 0 142.44 0 142.54C0 142.639 0 142.737 0.00682541 142.834C0.00910055 142.878 0.0113757 142.924 0.0136508 142.968C0.015926 143.056 0.0227514 143.142 0.0318519 143.228C0.0409525 143.323 0.050053 143.418 0.0637038 143.51C0.0932806 143.74 0.134233 143.967 0.188836 144.187C0.197937 144.226 0.207038 144.266 0.218413 144.305C0.227514 144.344 0.236614 144.384 0.250265 144.421C0.316244 144.653 0.393599 144.88 0.486879 145.102C0.753071 145.751 1.10799 146.332 1.55164 146.849C1.64947 146.964 1.75186 147.076 1.85879 147.185C2.44577 147.785 3.13059 148.25 3.91324 148.581C4.69588 148.913 5.53768 149.082 6.44091 149.082C7.34414 149.082 8.18595 148.913 8.96632 148.581C9.74896 148.25 10.4338 147.785 11.0208 147.185C11.1618 147.041 11.2961 146.893 11.4212 146.737L9.12103 144.639C9.03685 144.754 8.93902 144.866 8.83663 144.97Z" fill="white"/>
<path d="M3.07144 142.489V142.591C3.06461 143.506 2.89853 144.358 2.57318 145.148C2.31837 145.776 1.97254 146.339 1.55164 146.849C1.10799 146.332 0.753071 145.751 0.486879 145.102C0.393599 144.879 0.316244 144.652 0.250265 144.421C0.236614 144.384 0.227514 144.344 0.218413 144.305C0.207038 144.266 0.197937 144.226 0.188836 144.187C0.134233 143.967 0.0932807 143.74 0.0637039 143.51C0.050053 143.418 0.0409525 143.323 0.0318519 143.228C0.0227514 143.142 0.015926 143.056 0.0136508 142.968C0.0113757 142.924 0.00910055 142.878 0.00682541 142.834C0.00227514 142.737 0 142.639 0 142.54C0 142.44 0 142.343 0.00682541 142.246C0.00910055 142.201 0.0113757 142.155 0.0136508 142.111C0.015926 142.023 0.0227514 141.937 0.0318519 141.852C0.0409525 141.738 0.0546033 141.627 0.0705293 141.516C0.0864552 141.405 0.104656 141.296 0.125133 141.187C0.207038 140.768 0.32762 140.364 0.486879 139.975C0.753071 139.329 1.10799 138.747 1.55164 138.231C1.97254 138.738 2.31609 139.306 2.57318 139.931C2.89853 140.721 3.06461 141.574 3.07144 142.489Z" fill="#B1DC00"/>
<path d="M95.9471 142.54C95.9471 143.473 95.781 144.344 95.4511 145.148C95.194 145.776 94.8505 146.339 94.4296 146.849C93.9859 146.332 93.631 145.751 93.3648 145.104C93.2147 144.738 93.0986 144.356 93.0167 143.962C93.0054 143.913 92.9963 143.867 92.9894 143.818C92.9849 143.809 92.9826 143.798 92.9826 143.788C92.969 143.714 92.9553 143.638 92.9462 143.564C92.9303 143.452 92.9166 143.341 92.9075 143.228C92.8984 143.142 92.8916 143.056 92.8893 142.968C92.887 142.924 92.8848 142.878 92.8825 142.834C92.8779 142.737 92.8757 142.639 92.8757 142.54C92.8757 142.44 92.8779 142.343 92.8825 142.246C92.8825 142.201 92.887 142.155 92.8893 142.111C92.8916 142.023 92.8984 141.937 92.9075 141.852C92.9166 141.738 92.9303 141.627 92.9462 141.516C92.9553 141.439 92.969 141.365 92.9826 141.291C92.9826 141.279 92.9826 141.27 92.9894 141.261C92.9963 141.212 93.0054 141.166 93.0167 141.117C93.0986 140.723 93.2147 140.341 93.3648 139.975C93.631 139.329 93.9859 138.747 94.4296 138.231C94.8482 138.738 95.194 139.306 95.4511 139.931C95.781 140.735 95.9471 141.606 95.9471 142.54Z" fill="#B1DC00"/>
<path d="M114.335 151.297L112.703 154.76L111.063 151.297H109.816V157H110.704V152.51L112.694 156.592L114.681 152.536V157H115.584V151.297H114.335Z" fill="#B1DC00"/>
<path d="M117.889 156.168V154.53H120.016V153.717H117.889V152.128H120.935V151.297H116.928V157H120.967V156.168H117.889Z" fill="#B1DC00"/>
<path d="M125.897 151.297L125.913 155.443L122.992 151.297H122.057V157H122.96L122.944 152.74L125.945 157H126.8V151.297H125.897Z" fill="#B1DC00"/>
<path d="M130.832 151.297H129.719L127.519 157H128.52L129.096 155.404H131.391L131.969 157H133L130.832 151.297ZM129.376 154.637L130.247 152.225L131.128 154.637H129.376Z" fill="#B1DC00"/>
<path d="M93.9166 78.1724C91.1733 80.9032 87.9712 83.0145 84.3101 84.536C80.679 86.0625 76.7237 86.8109 72.524 86.8109C68.3243 86.8109 64.374 86.0625 60.713 84.536C57.0519 83.0145 53.8498 80.9032 51.1065 78.1724C48.3632 75.4466 46.2384 72.2895 44.7022 68.6815C43.2208 65.1379 42.4477 61.3068 42.4228 57.2181C42.4178 57.1437 42.4178 57.0743 42.4178 57C42.4178 56.9257 42.4178 56.8513 42.4228 56.777C42.4477 52.6634 43.2208 48.8324 44.7022 45.3135C46.2384 41.7055 48.3632 38.5237 51.1065 35.7978C53.8498 33.072 57.0519 30.9607 60.713 29.4342C64.374 27.9375 68.2994 27.1643 72.524 27.1643C76.7487 27.1643 80.679 27.9375 84.3101 29.4342C87.9712 30.9607 91.1733 33.072 93.9166 35.7978C94.8293 36.7048 95.6922 37.6712 96.4454 38.6872L117 20.424C115.898 19.0611 114.686 17.7527 113.424 16.4939C108.177 11.2801 102.067 7.2458 95.0737 4.33162C88.1058 1.44222 80.5693 0 72.524 0C64.4787 0 56.9472 1.44222 49.9493 4.33162C42.9565 7.2458 36.8465 11.2801 31.5993 16.4939C30.6417 17.4454 29.7189 18.4267 28.8411 19.4328C24.8957 23.9429 21.7335 29.008 19.3593 34.648C16.9801 40.298 15.5736 46.3246 15.1397 52.713C15.1147 53.1491 15.0898 53.5853 15.0698 54.0263C15.02 55.0126 15 55.9989 15 57C15 58.0011 15.02 58.9923 15.0698 59.9737C15.3841 66.8478 16.8156 73.3105 19.3593 79.3222C21.7335 84.9672 24.9057 90.0571 28.856 94.5622C29.7289 95.5633 30.6467 96.5347 31.5993 97.4764C36.8465 102.69 42.9565 106.754 49.9493 109.644C56.9472 112.528 64.4538 114 72.524 114C80.5942 114 88.1058 112.528 95.0737 109.644C102.067 106.754 108.177 102.69 113.424 97.4764C114.686 96.2225 115.873 94.9389 117 93.576L96.4454 75.288C95.6922 76.304 94.8293 77.2654 93.9166 78.1724Z" fill="white"/>
<path d="M42.4228 56.777V57.2181C42.3978 65.2717 40.9165 72.7901 37.9837 79.7485C35.6843 85.2151 32.6168 90.1414 28.856 94.5622C24.9057 90.0572 21.7335 84.9673 19.3593 79.3223C16.8156 73.3105 15.3841 66.8478 15.0698 59.9737C15.02 58.9924 15 58.0012 15 57C15 55.9989 15.02 55.0126 15.0698 54.0264C15.0898 53.5853 15.1147 53.1491 15.1397 52.713C15.5736 46.3246 16.9801 40.298 19.3593 34.6481C21.7335 29.008 24.8957 23.9429 28.8411 19.4329C32.6068 23.8537 35.6793 28.7999 37.9837 34.2813C40.9165 41.2099 42.3978 48.7234 42.4228 56.777Z" fill="#B1DC00"/>
</svg>
