<svg width="200" height="82" viewBox="0 0 200 82" fill="none" xmlns="http://www.w3.org/2000/svg">
<path d="M88.1575 28.0938H81.8744V26.2203H84.0021V16.8442H81.8744V14.9707H88.1575V16.8442H86.0297V26.2203H88.1575V28.0938Z" fill="#3E3E3E"/>
<path d="M96.0418 18.0413C96.9338 18.0413 97.6213 18.2234 98.1129 18.5834C98.6003 18.9476 98.944 19.4334 99.1398 20.0449C99.3356 20.6563 99.4313 21.3372 99.4313 22.0875V28.0896H97.4951V22.2219C97.4951 21.7449 97.4342 21.3199 97.308 20.9469C97.1818 20.5739 96.9686 20.279 96.6684 20.0665C96.3681 19.854 95.9461 19.7673 95.4065 19.802C94.9061 19.802 94.458 19.9104 94.0707 20.1229C93.6834 20.3354 93.3745 20.6173 93.1483 20.9686C92.922 21.3199 92.8089 21.7058 92.8089 22.1308V28.0939H90.8726V18.2494H92.8089V19.8063C93.1091 19.3423 93.5486 18.9346 94.1273 18.579C94.706 18.2234 95.3456 18.0456 96.0461 18.0456L96.0418 18.0413Z" fill="#3E3E3E"/>
<path d="M105.223 28.0938H103.286V20.1228H101.237V18.2493H103.286V15.7383H105.223V18.2493H107.52V20.1228H105.223V28.0938Z" fill="#3E3E3E"/>
<path d="M117.676 26.7972H117.658C117.258 27.1832 116.705 27.5301 116.001 27.8294C115.3 28.1286 114.565 28.2804 113.799 28.2804C112.772 28.2804 111.863 28.0636 111.079 27.6342C110.296 27.2049 109.683 26.6107 109.243 25.8518C108.804 25.0972 108.586 24.2342 108.586 23.2758C108.586 22.1742 108.817 21.2331 109.282 20.4525C109.748 19.6719 110.361 19.0734 111.127 18.6528C111.893 18.2321 112.729 18.0239 113.629 18.0239C114.456 18.0239 115.209 18.2278 115.887 18.6354C116.566 19.0431 117.106 19.6025 117.506 20.3137C117.906 21.025 118.107 21.8576 118.107 22.8074L118.089 23.6314H110.527C110.64 24.5204 111.005 25.223 111.628 25.7391C112.25 26.2595 113.037 26.5153 113.99 26.5153C114.678 26.5153 115.239 26.3896 115.666 26.1294C116.092 25.8735 116.444 25.6263 116.719 25.3878L117.68 26.7929L117.676 26.7972ZM113.634 19.8063C112.894 19.8063 112.246 19.9798 111.697 20.3224C111.145 20.665 110.784 21.2548 110.605 22.0962H116.135V21.9661C116.096 21.5411 115.957 21.1681 115.713 20.8428C115.47 20.5176 115.165 20.266 114.8 20.0839C114.434 19.9018 114.047 19.8107 113.634 19.8107V19.8063Z" fill="#3E3E3E"/>
<path d="M125.747 20.331C125.621 20.2703 125.469 20.2139 125.286 20.1706C125.103 20.1272 124.912 20.1055 124.712 20.1055C124.311 20.1055 123.915 20.2096 123.528 20.4134C123.141 20.6216 122.815 20.9121 122.558 21.2938C122.301 21.6754 122.171 22.1264 122.171 22.6512V28.0895H120.213V18.245H122.171V20.1012C122.445 19.5027 122.862 19.0083 123.424 18.618C123.981 18.232 124.568 18.0369 125.182 18.0369C125.647 18.0369 126.004 18.0976 126.252 18.2233L125.743 20.3223L125.747 20.331Z" fill="#3E3E3E"/>
<path d="M132.97 18.0413C133.862 18.0413 134.55 18.2234 135.041 18.5834C135.529 18.9476 135.872 19.4334 136.068 20.0449C136.264 20.6563 136.36 21.3372 136.36 22.0875V28.0896H134.423V22.2219C134.423 21.7449 134.363 21.3199 134.236 20.9469C134.11 20.5739 133.897 20.279 133.597 20.0665C133.297 19.854 132.874 19.7673 132.335 19.802C131.835 19.802 131.386 19.9104 130.999 20.1229C130.612 20.3354 130.303 20.6173 130.077 20.9686C129.85 21.3199 129.737 21.7058 129.737 22.1308V28.0939H127.801V18.2494H129.737V19.8063C130.037 19.3423 130.477 18.9346 131.056 18.579C131.634 18.2234 132.274 18.0456 132.975 18.0456L132.97 18.0413Z" fill="#3E3E3E"/>
<path d="M148.191 18.2492V28.0937H146.233V26.5759C145.932 26.9878 145.484 27.3738 144.897 27.7381C144.309 28.1024 143.622 28.2802 142.847 28.2802C142.021 28.2802 141.264 28.0634 140.58 27.6254C139.897 27.1873 139.353 26.5802 138.953 25.8082C138.553 25.032 138.353 24.1473 138.353 23.1455C138.353 22.1437 138.561 21.259 138.975 20.4914C139.388 19.7237 139.958 19.1209 140.685 18.6916C141.411 18.2622 142.238 18.0454 143.169 18.0454C143.857 18.0454 144.466 18.1972 144.984 18.4964C145.506 18.7957 145.919 19.147 146.237 19.5459V18.2536H148.195L148.191 18.2492ZM143.3 26.4978C143.9 26.4978 144.427 26.3503 144.879 26.0554C145.332 25.7605 145.68 25.3616 145.932 24.8542C146.185 24.3467 146.307 23.7743 146.307 23.1368C146.307 22.4993 146.18 21.9485 145.932 21.4498C145.68 20.9511 145.332 20.5521 144.879 20.2572C144.427 19.9623 143.9 19.8148 143.3 19.8148C142.699 19.8148 142.208 19.9579 141.755 20.2442C141.303 20.5304 140.955 20.925 140.702 21.4238C140.45 21.9225 140.328 22.4906 140.328 23.1281C140.328 23.7656 140.454 24.3381 140.702 24.8455C140.955 25.3529 141.303 25.7519 141.755 26.0468C142.208 26.3417 142.721 26.4891 143.3 26.4891V26.4978Z" fill="#3E3E3E"/>
<path d="M154.06 28.0938H152.124V20.1228H150.075V18.2493H152.124V15.7383H154.06V18.2493H156.358V20.1228H154.06V28.0938Z" fill="#3E3E3E"/>
<path d="M159.421 16.1113C158.981 16.1113 158.655 15.9986 158.442 15.7731C158.229 15.5476 158.12 15.2527 158.12 14.8927C158.12 14.5805 158.224 14.2986 158.442 14.047C158.655 13.7955 158.981 13.6741 159.421 13.6741C159.86 13.6741 160.187 13.7868 160.4 14.0123C160.613 14.2379 160.718 14.5328 160.718 14.8927C160.718 15.205 160.613 15.4868 160.4 15.7384C160.187 15.9899 159.86 16.1113 159.421 16.1113ZM160.417 28.0939H158.481V18.2494H160.417V28.0939Z" fill="#3E3E3E"/>
<path d="M172.814 23.1628C172.814 24.1646 172.592 25.0493 172.148 25.8169C171.704 26.5845 171.1 27.1873 170.342 27.6254C169.585 28.0634 168.732 28.2802 167.793 28.2802C166.853 28.2802 166 28.0634 165.234 27.6254C164.468 27.1873 163.864 26.5845 163.42 25.8169C162.976 25.0493 162.75 24.1646 162.75 23.1628C162.75 22.161 162.972 21.2763 163.42 20.5087C163.864 19.7411 164.468 19.1383 165.234 18.7003C166 18.2622 166.853 18.0454 167.793 18.0454C168.732 18.0454 169.581 18.2622 170.342 18.7003C171.1 19.1383 171.704 19.7411 172.148 20.5087C172.592 21.2763 172.814 22.161 172.814 23.1628ZM170.838 23.1628C170.851 22.4993 170.721 21.9138 170.451 21.4108C170.181 20.9033 169.816 20.5087 169.35 20.2311C168.885 19.9493 168.367 19.8105 167.788 19.8105C167.21 19.8105 166.687 19.9493 166.217 20.2311C165.748 20.513 165.378 20.9077 165.108 21.4108C164.838 21.9182 164.708 22.4993 164.721 23.1628C164.708 23.8133 164.838 24.3901 165.108 24.8975C165.378 25.4049 165.748 25.7996 166.217 26.0901C166.687 26.3764 167.21 26.5195 167.788 26.5195C168.367 26.5195 168.885 26.3764 169.35 26.0901C169.816 25.8039 170.181 25.4049 170.451 24.8975C170.721 24.3901 170.851 23.8133 170.838 23.1628Z" fill="#3E3E3E"/>
<path d="M180.098 18.0413C180.99 18.0413 181.677 18.2234 182.169 18.5834C182.656 18.9476 183 19.4334 183.196 20.0449C183.392 20.6563 183.487 21.3372 183.487 22.0875V28.0896H181.551V22.2219C181.551 21.7449 181.49 21.3199 181.364 20.9469C181.238 20.5739 181.025 20.279 180.724 20.0665C180.424 19.854 180.002 19.7673 179.462 19.802C178.962 19.802 178.514 19.9104 178.127 20.1229C177.739 20.3354 177.43 20.6173 177.204 20.9686C176.978 21.3199 176.865 21.7058 176.865 22.1308V28.0939H174.929V18.2494H176.865V19.8063C177.165 19.3423 177.604 18.9346 178.183 18.579C178.762 18.2234 179.402 18.0456 180.102 18.0456L180.098 18.0413Z" fill="#3E3E3E"/>
<path d="M195.314 18.2492V28.0937H193.356V26.5759C193.056 26.9878 192.607 27.3738 192.02 27.7381C191.433 28.1024 190.745 28.2802 189.971 28.2802C189.144 28.2802 188.387 28.0634 187.704 27.6254C187.02 27.1873 186.477 26.5802 186.076 25.8082C185.676 25.032 185.476 24.1473 185.476 23.1455C185.476 22.1437 185.685 21.259 186.098 20.4914C186.511 19.7237 187.081 19.1209 187.808 18.6916C188.535 18.2622 189.361 18.0454 190.293 18.0454C190.98 18.0454 191.589 18.1972 192.107 18.4964C192.629 18.7957 193.042 19.147 193.36 19.5459V18.2536H195.318L195.314 18.2492ZM190.423 26.4978C191.024 26.4978 191.55 26.3503 192.003 26.0554C192.455 25.7605 192.803 25.3616 193.056 24.8542C193.308 24.3467 193.43 23.7743 193.43 23.1368C193.43 22.4993 193.304 21.9485 193.056 21.4498C192.803 20.9511 192.455 20.5521 192.003 20.2572C191.55 19.9623 191.024 19.8148 190.423 19.8148C189.823 19.8148 189.331 19.9579 188.878 20.2442C188.426 20.5304 188.078 20.925 187.825 21.4238C187.573 21.9225 187.451 22.4906 187.451 23.1281C187.451 23.7656 187.577 24.3381 187.825 24.8455C188.073 25.3529 188.426 25.7519 188.878 26.0468C189.331 26.3417 189.844 26.4891 190.423 26.4891V26.4978Z" fill="#3E3E3E"/>
<path d="M198.064 28.0938V14.2205H200V28.0938H198.064Z" fill="#3E3E3E"/>
<path d="M92.8263 44.6775C92.5608 44.9767 92.1953 45.2673 91.7254 45.5405C91.2555 45.8137 90.716 46.0392 90.1068 46.217C89.4976 46.3905 88.8493 46.4816 88.1618 46.4816C86.9826 46.4816 85.921 46.204 84.9724 45.6489C84.0238 45.0938 83.2711 44.3089 82.7141 43.2941C82.1572 42.2836 81.8787 41.0953 81.8787 39.7336C81.8787 38.7708 82.0484 37.8818 82.3878 37.0708C82.7272 36.2598 83.1971 35.5529 83.7976 34.9501C84.398 34.3516 85.0899 33.8833 85.8687 33.5537C86.6476 33.2241 87.47 33.0549 88.3315 33.0549C89.0451 33.0549 89.7152 33.1633 90.333 33.3845C90.9553 33.6014 91.4992 33.8833 91.9691 34.2302C92.439 34.5728 92.8045 34.9414 93.0699 35.3274L91.7167 36.7325C91.2511 36.2555 90.7377 35.8652 90.1721 35.5529C89.6064 35.2407 88.9929 35.0845 88.3272 35.0845C87.5744 35.0845 86.8608 35.271 86.1907 35.6483C85.5207 36.0213 84.9768 36.559 84.5634 37.2529C84.15 37.9468 83.9412 38.7751 83.9412 39.7379C83.9412 40.7874 84.15 41.6634 84.5721 42.3617C84.9942 43.0599 85.5511 43.5846 86.2473 43.9272C86.9435 44.2698 87.6919 44.4433 88.4969 44.4433C89.2366 44.4433 89.8892 44.2959 90.4549 44.001C91.0205 43.7061 91.4687 43.3851 91.8081 43.0339L92.8219 44.6818L92.8263 44.6775Z" fill="#3E3E3E"/>
<path d="M104.566 41.3554C104.566 42.3572 104.344 43.2419 103.9 44.0095C103.456 44.7772 102.851 45.38 102.094 45.818C101.337 46.256 100.484 46.4728 99.5445 46.4728C98.6046 46.4728 97.7518 46.256 96.986 45.818C96.2202 45.38 95.6154 44.7772 95.1715 44.0095C94.7277 43.2419 94.5058 42.3572 94.5058 41.3554C94.5058 40.3536 94.7277 39.4689 95.1715 38.7013C95.6154 37.9337 96.2202 37.3309 96.986 36.8929C97.7518 36.4549 98.6046 36.238 99.5445 36.238C100.484 36.238 101.333 36.4549 102.094 36.8929C102.851 37.3309 103.456 37.9337 103.9 38.7013C104.344 39.4689 104.566 40.3536 104.566 41.3554ZM102.59 41.3554C102.603 40.6919 102.473 40.1064 102.203 39.6034C101.933 39.096 101.568 38.7013 101.102 38.4238C100.637 38.1419 100.119 38.0031 99.5401 38.0031C98.9614 38.0031 98.4393 38.1419 97.9694 38.4238C97.4994 38.7057 97.1296 39.1003 96.8598 39.6034C96.59 40.1108 96.4595 40.6919 96.4726 41.3554C96.4595 42.006 96.59 42.5827 96.8598 43.0901C97.1296 43.5975 97.4994 43.9922 97.9694 44.2828C98.4393 44.569 98.9614 44.7121 99.5401 44.7121C100.119 44.7121 100.637 44.569 101.102 44.2828C101.568 43.9965 101.933 43.5975 102.203 43.0901C102.473 42.5827 102.603 42.006 102.59 41.3554Z" fill="#3E3E3E"/>
<path d="M111.693 36.2771C112.507 36.2771 113.159 36.4636 113.651 36.8322C114.138 37.2008 114.491 37.7039 114.704 38.3414C114.878 38.0292 115.135 37.7126 115.474 37.396C115.814 37.0751 116.209 36.8105 116.658 36.598C117.11 36.3855 117.593 36.2771 118.107 36.2771C118.959 36.2771 119.625 36.4636 120.099 36.8322C120.578 37.2008 120.913 37.6952 121.105 38.3154C121.3 38.9355 121.396 39.6251 121.396 40.3884V46.2951H119.438V40.5011C119.438 39.7769 119.299 39.1871 119.025 38.7404C118.751 38.2894 118.228 38.0638 117.463 38.0638C116.697 38.0638 116.136 38.2937 115.666 38.7491C115.196 39.2044 114.961 39.7595 114.961 40.41V46.2994H113.003V40.4664C113.003 39.7682 112.85 39.1914 112.55 38.7404C112.25 38.2894 111.754 38.0638 111.062 38.0638C110.583 38.0638 110.157 38.1723 109.783 38.3848C109.409 38.5973 109.113 38.8748 108.9 39.2174C108.686 39.56 108.578 39.946 108.578 40.371V46.2951H106.619V36.4506H108.578V38.0248C108.878 37.5738 109.304 37.1705 109.848 36.8149C110.392 36.4592 111.005 36.2814 111.684 36.2814L111.693 36.2771Z" fill="#3E3E3E"/>
<path d="M129.15 36.2771C130.029 36.2771 130.816 36.4939 131.513 36.9233C132.209 37.3526 132.757 37.9511 133.157 38.7144C133.558 39.4776 133.758 40.358 133.758 41.3598C133.758 42.3616 133.558 43.2246 133.157 43.9922C132.757 44.7598 132.209 45.3626 131.521 45.8007C130.834 46.2387 130.059 46.4555 129.206 46.4555C128.506 46.4555 127.866 46.3037 127.296 46.0045C126.726 45.7053 126.278 45.3626 125.952 44.9723V50.4107H123.994V36.4245H125.952V37.8687C126.239 37.4567 126.674 37.0881 127.248 36.7628C127.827 36.4376 128.458 36.2771 129.15 36.2771ZM128.889 38.0552C128.301 38.0552 127.775 38.1983 127.318 38.4845C126.861 38.7707 126.504 39.1611 126.248 39.6554C125.991 40.1498 125.86 40.7136 125.86 41.3511C125.86 41.9886 125.987 42.5394 126.248 43.0381C126.504 43.5369 126.861 43.9358 127.318 44.2264C127.775 44.5213 128.297 44.6688 128.889 44.6688C129.481 44.6688 129.998 44.5213 130.451 44.2264C130.903 43.9315 131.256 43.5369 131.513 43.0381C131.769 42.5394 131.9 41.9756 131.9 41.3511C131.9 40.7266 131.769 40.1498 131.513 39.6554C131.256 39.1611 130.899 38.7707 130.451 38.4845C129.998 38.1983 129.481 38.0552 128.889 38.0552Z" fill="#3E3E3E"/>
<path d="M145.066 36.4465V46.291H143.108V44.7731C142.808 45.1851 142.36 45.5711 141.773 45.9354C141.185 46.2997 140.498 46.4775 139.723 46.4775C138.896 46.4775 138.139 46.2606 137.456 45.8226C136.773 45.3846 136.229 44.7775 135.829 44.0055C135.429 43.2292 135.228 42.3445 135.228 41.3427C135.228 40.3409 135.437 39.4562 135.851 38.6886C136.264 37.921 136.834 37.3182 137.561 36.8889C138.287 36.4595 139.114 36.2427 140.045 36.2427C140.733 36.2427 141.342 36.3945 141.86 36.6937C142.382 36.9929 142.795 37.3442 143.113 37.7432V36.4508H145.071L145.066 36.4465ZM140.176 44.6951C140.776 44.6951 141.303 44.5476 141.755 44.2527C142.208 43.9578 142.556 43.5588 142.808 43.0514C143.061 42.544 143.182 41.9716 143.182 41.3341C143.182 40.6965 143.056 40.1458 142.808 39.647C142.556 39.1483 142.208 38.7493 141.755 38.4544C141.303 38.1595 140.776 38.0121 140.176 38.0121C139.575 38.0121 139.084 38.1552 138.631 38.4414C138.179 38.7276 137.83 39.1223 137.578 39.621C137.326 40.1198 137.204 40.6879 137.204 41.3254C137.204 41.9629 137.33 42.5353 137.578 43.0427C137.826 43.5501 138.179 43.9491 138.631 44.244C139.084 44.5389 139.597 44.6864 140.176 44.6864V44.6951Z" fill="#3E3E3E"/>
<path d="M153.477 39.0312C153.125 38.6799 152.729 38.3937 152.281 38.1682C151.833 37.9427 151.424 37.8299 151.049 37.8299C150.784 37.8299 150.527 37.8603 150.27 37.9253C150.014 37.9861 149.796 38.1032 149.622 38.2723C149.448 38.4414 149.357 38.6886 149.357 39.0139C149.37 39.4649 149.574 39.7815 149.966 39.9723C150.362 40.1588 150.854 40.3279 151.441 40.4797C151.954 40.6185 152.455 40.7876 152.946 40.9958C153.434 41.2039 153.838 41.5032 154.16 41.8978C154.478 42.2925 154.639 42.8432 154.639 43.5588C154.639 44.1703 154.465 44.6951 154.121 45.1331C153.777 45.5711 153.329 45.905 152.785 46.1349C152.242 46.3647 151.667 46.4818 151.062 46.4818C150.349 46.4818 149.644 46.3517 148.948 46.0958C148.251 45.84 147.66 45.3976 147.168 44.7731L148.486 43.6499C148.826 44.0359 149.209 44.3394 149.644 44.5606C150.079 44.7818 150.605 44.8902 151.232 44.8902C151.471 44.8902 151.711 44.8512 151.946 44.7688C152.185 44.6864 152.389 44.5563 152.559 44.3741C152.729 44.192 152.812 43.9448 152.812 43.6325C152.812 43.3203 152.72 43.0991 152.537 42.93C152.355 42.7609 152.115 42.6221 151.815 42.518C151.515 42.4139 151.18 42.3142 150.819 42.2274C150.279 42.0756 149.748 41.8935 149.231 41.6723C148.708 41.4555 148.278 41.1389 147.934 40.7356C147.59 40.3279 147.416 39.7771 147.416 39.0746C147.416 38.4891 147.581 37.9861 147.916 37.5654C148.247 37.1447 148.682 36.8238 149.222 36.5896C149.761 36.3598 150.34 36.2427 150.954 36.2427C151.567 36.2427 152.185 36.3684 152.872 36.6156C153.564 36.8672 154.134 37.2662 154.582 37.8169L153.473 39.0356L153.477 39.0312Z" fill="#3E3E3E"/>
<path d="M162.489 39.0312C162.136 38.6799 161.74 38.3937 161.292 38.1682C160.844 37.9427 160.435 37.8299 160.061 37.8299C159.795 37.8299 159.538 37.8603 159.282 37.9253C159.025 37.9861 158.807 38.1032 158.633 38.2723C158.459 38.4414 158.368 38.6886 158.368 39.0139C158.381 39.4649 158.586 39.7815 158.977 39.9723C159.373 40.1588 159.865 40.3279 160.452 40.4797C160.966 40.6185 161.466 40.7876 161.958 40.9958C162.445 41.2039 162.85 41.5032 163.172 41.8978C163.489 42.2925 163.65 42.8432 163.65 43.5588C163.65 44.1703 163.476 44.6951 163.133 45.1331C162.789 45.5711 162.341 45.905 161.797 46.1349C161.253 46.3647 160.678 46.4818 160.074 46.4818C159.36 46.4818 158.655 46.3517 157.959 46.0958C157.263 45.84 156.671 45.3976 156.179 44.7731L157.498 43.6499C157.837 44.0359 158.22 44.3394 158.655 44.5606C159.09 44.7818 159.617 44.8902 160.243 44.8902C160.483 44.8902 160.722 44.8512 160.957 44.7688C161.196 44.6864 161.401 44.5563 161.57 44.3741C161.74 44.192 161.823 43.9448 161.823 43.6325C161.823 43.3203 161.731 43.0991 161.549 42.93C161.366 42.7609 161.127 42.6221 160.826 42.518C160.526 42.4139 160.191 42.3142 159.83 42.2274C159.29 42.0756 158.76 41.8935 158.242 41.6723C157.72 41.4555 157.289 41.1389 156.945 40.7356C156.601 40.3279 156.427 39.7771 156.427 39.0746C156.427 38.4891 156.593 37.9861 156.928 37.5654C157.258 37.1447 157.694 36.8238 158.233 36.5896C158.773 36.3598 159.351 36.2427 159.965 36.2427C160.578 36.2427 161.196 36.3684 161.884 36.6156C162.576 36.8672 163.146 37.2662 163.594 37.8169L162.484 39.0356L162.489 39.0312Z" fill="#3E3E3E"/>
<path d="M91.7472 65.0214L90.5289 61.8209H85.1203L83.902 65.0214H81.87L86.8695 52.1455H88.9015L93.8662 65.0214H91.7428H91.7472ZM86.8391 57.3323L85.86 59.9083H89.8109L88.7971 57.2586C88.6361 56.8292 88.4751 56.3652 88.3185 55.8708C88.1575 55.3721 87.9965 54.8733 87.8398 54.3703C87.6658 54.8863 87.5004 55.4024 87.3307 55.9142C87.1654 56.4302 87 56.903 86.8434 57.3323H86.8391Z" fill="#3E3E3E"/>
<path d="M96.5117 60.1815C96.5117 60.819 96.6553 61.3871 96.9468 61.8815C97.234 62.3759 97.6169 62.7705 98.0912 63.0568C98.5655 63.343 99.0702 63.4904 99.6141 63.4904C100.228 63.4904 100.763 63.33 101.22 63.0134C101.677 62.6968 102.042 62.3629 102.325 62.0203L103.378 63.3083C103.143 63.6379 102.825 63.9501 102.416 64.2364C102.012 64.5269 101.55 64.7568 101.033 64.9346C100.515 65.1124 99.9752 65.1991 99.4096 65.1991C98.522 65.1991 97.7257 64.978 97.0121 64.5356C96.2985 64.0933 95.7372 63.4948 95.3238 62.7315C94.9105 61.9726 94.706 61.1182 94.706 60.1728C94.706 59.2274 94.9105 58.36 95.3238 57.6054C95.7372 56.8508 96.2985 56.2524 97.0121 55.81C97.7257 55.3677 98.5263 55.1465 99.4096 55.1465C100.293 55.1465 101.107 55.3286 101.807 55.6886C102.508 56.0485 103.03 56.5212 103.378 57.0937L102.325 58.3817C102.042 57.9654 101.637 57.6054 101.115 57.3062C100.593 57.007 100.084 56.8552 99.5923 56.8552C99.0136 56.8552 98.4915 56.9983 98.0216 57.2888C97.556 57.5794 97.1861 57.9697 96.9164 58.4641C96.6466 58.9585 96.5117 59.5266 96.5117 60.1641V60.1815Z" fill="#3E3E3E"/>
<path d="M114.191 55.3634V65.0214H112.272V63.5295C111.976 63.9328 111.541 64.3145 110.962 64.6701C110.383 65.0257 109.713 65.2035 108.952 65.2035C108.138 65.2035 107.398 64.991 106.728 64.5617C106.058 64.1323 105.527 63.5382 105.131 62.7793C104.74 62.0203 104.54 61.1486 104.54 60.1685C104.54 59.1884 104.744 58.3211 105.149 57.5665C105.553 56.8119 106.115 56.222 106.828 55.8014C107.542 55.3764 108.356 55.1682 109.265 55.1682C109.939 55.1682 110.536 55.3157 111.045 55.6106C111.554 55.9055 111.963 56.2481 112.272 56.6427V55.372H114.191V55.3634ZM109.391 63.4558C109.983 63.4558 110.501 63.3127 110.94 63.0221C111.38 62.7315 111.728 62.3412 111.976 61.8468C112.219 61.3525 112.346 60.7887 112.346 60.1642C112.346 59.5397 112.224 58.9976 111.976 58.5075C111.728 58.0175 111.384 57.6272 110.94 57.3409C110.496 57.0547 109.979 56.9073 109.391 56.9073C108.804 56.9073 108.321 57.0504 107.877 57.3323C107.433 57.6142 107.089 58.0001 106.841 58.4902C106.593 58.9802 106.472 59.5397 106.472 60.1642C106.472 60.7887 106.593 61.3525 106.841 61.8468C107.089 62.3412 107.433 62.7359 107.877 63.0221C108.321 63.3083 108.826 63.4558 109.391 63.4558Z" fill="#3E3E3E"/>
<path d="M125.926 51.4082V65.0213H124.024V63.6596C123.741 64.0412 123.324 64.3925 122.771 64.7178C122.218 65.043 121.592 65.2035 120.887 65.2035C120.012 65.2035 119.225 64.991 118.524 64.5616C117.824 64.1323 117.271 63.5382 116.862 62.7792C116.457 62.0203 116.253 61.1529 116.253 60.1858C116.253 59.2187 116.457 58.3384 116.862 57.5838C117.267 56.8292 117.815 56.2394 118.503 55.81C119.19 55.3807 119.965 55.1682 120.826 55.1682C121.514 55.1682 122.14 55.3113 122.697 55.5932C123.258 55.8751 123.698 56.2047 124.015 56.5863V51.4169H125.917L125.926 51.4082ZM121.148 63.5642C121.74 63.5642 122.253 63.4167 122.697 63.1218C123.141 62.8269 123.485 62.4236 123.733 61.9075C123.981 61.3915 124.102 60.8147 124.102 60.1772C124.102 59.5397 123.981 58.9499 123.733 58.4381C123.485 57.9307 123.141 57.5274 122.697 57.2325C122.253 56.9376 121.735 56.7901 121.148 56.7901C120.561 56.7901 120.06 56.9376 119.616 57.2325C119.173 57.5274 118.825 57.9307 118.572 58.4381C118.32 58.9455 118.194 59.5266 118.194 60.1772C118.194 60.8277 118.32 61.3915 118.572 61.9075C118.825 62.4236 119.173 62.8269 119.616 63.1218C120.06 63.4167 120.569 63.5642 121.148 63.5642Z" fill="#3E3E3E"/>
<path d="M136.869 63.7507H136.851C136.455 64.1323 135.916 64.4662 135.228 64.7611C134.541 65.056 133.819 65.2035 133.07 65.2035C132.061 65.2035 131.173 64.991 130.403 64.5703C129.633 64.1453 129.032 63.5642 128.606 62.8226C128.175 62.081 127.958 61.2397 127.958 60.2942C127.958 59.2144 128.184 58.2906 128.641 57.5274C129.098 56.7598 129.698 56.1743 130.451 55.7623C131.199 55.3503 132.022 55.1465 132.905 55.1465C133.719 55.1465 134.454 55.346 135.12 55.745C135.785 56.1439 136.312 56.6904 136.708 57.3929C137.099 58.0912 137.3 58.9065 137.3 59.8389L137.282 60.6499H129.863C129.972 61.5215 130.333 62.2111 130.943 62.7185C131.552 63.2259 132.322 63.4818 133.257 63.4818C133.932 63.4818 134.48 63.356 134.898 63.1045C135.315 62.8529 135.659 62.6101 135.933 62.3759L136.873 63.755L136.869 63.7507ZM132.901 56.8899C132.174 56.8899 131.543 57.059 130.999 57.3973C130.46 57.7355 130.103 58.3123 129.929 59.1363H135.355V59.0062C135.315 58.5899 135.181 58.2213 134.941 57.9047C134.702 57.5881 134.402 57.3366 134.045 57.1588C133.688 56.9809 133.305 56.8899 132.901 56.8899Z" fill="#3E3E3E"/>
<path d="M144.288 55.1986C145.088 55.1986 145.728 55.3808 146.206 55.7407C146.685 56.1007 147.029 56.5951 147.242 57.2196C147.416 56.9116 147.668 56.6037 147.999 56.2915C148.33 55.9792 148.717 55.719 149.161 55.5109C149.605 55.3027 150.079 55.1986 150.584 55.1986C151.419 55.1986 152.072 55.3808 152.542 55.7407C153.007 56.1007 153.338 56.5864 153.529 57.1935C153.721 57.8007 153.817 58.4772 153.817 59.2275V65.0214H151.898V59.3359C151.898 58.6247 151.763 58.0479 151.493 57.6055C151.223 57.1632 150.71 56.942 149.962 56.942C149.213 56.942 148.661 57.1675 148.199 57.6142C147.738 58.0609 147.507 58.603 147.507 59.2405V65.0171H145.589V59.2969C145.589 58.6117 145.441 58.0479 145.145 57.6055C144.849 57.1632 144.362 56.942 143.687 56.942C143.217 56.942 142.799 57.0461 142.434 57.2543C142.064 57.4624 141.777 57.7356 141.568 58.0739C141.359 58.4122 141.255 58.7895 141.255 59.2058V65.0171H139.336V55.3591H141.255V56.903C141.551 56.4606 141.964 56.066 142.499 55.7147C143.034 55.3634 143.635 55.1899 144.301 55.1899L144.288 55.1986Z" fill="#3E3E3E"/>
<path d="M157.889 69.2496L159.478 65.6284L159.534 65.4983L155.031 55.3633H157.245L160.274 62.4626C160.309 62.5363 160.348 62.6274 160.383 62.7401C160.417 62.8486 160.461 62.9743 160.513 63.1088C160.561 62.9743 160.609 62.8442 160.652 62.7141C160.696 62.584 160.739 62.4583 160.792 62.3368L163.32 55.3676H165.569L161.583 65.0256L159.943 69.254H157.894L157.889 69.2496Z" fill="#3E3E3E"/>
<path d="M35.0253 26.5022L48.2659 59.6785C48.0832 48.5113 57.1118 39.3607 68.3161 39.3564H68.6555L35.0253 26.5022ZM51.7947 37.3268C48.6836 37.3268 46.1773 39.8681 46.2296 42.9646L42.5572 33.7576L51.8861 37.3268H51.7947Z" fill="#F28C16"/>
<path d="M15.0882 73.7642L12.1251 70.8109C-4.03953 54.6998 -4.03953 28.4883 12.1251 12.3772L15.0882 9.42383L21.0145 15.3305L18.0514 18.2839C5.1545 31.1337 5.1545 52.05 18.0514 64.8999L21.0145 67.8532L15.0882 73.7599V73.7642Z" fill="#14467E"/>
<path d="M25.7442 11.3538C28.7193 11.3538 31.131 8.95007 31.131 5.9849C31.131 3.01972 28.7193 0.615967 25.7442 0.615967C22.7692 0.615967 20.3575 3.01972 20.3575 5.9849C20.3575 8.95007 22.7692 11.3538 25.7442 11.3538Z" fill="#14467E"/>
<path d="M66.6844 56.5084L71.5925 61.4003L69.1385 63.8419C63.9432 69.02 57.3816 72.021 50.5981 72.8493L46.904 81.3841L43.1011 72.8754C36.2306 72.0991 29.5689 69.085 24.3127 63.8419C11.951 51.5254 11.951 31.4852 24.3127 19.1644C29.5515 13.9429 36.1871 10.9332 43.0315 10.1396L46.7517 1.5354L50.6112 10.1656C57.386 10.9896 63.9432 13.9906 69.1385 19.1644L71.5925 21.6103L66.6844 26.5022L64.2304 24.0563C54.5795 14.433 38.8717 14.433 29.2165 24.0563C19.5656 33.6753 19.5656 49.331 29.2165 58.9543C38.8717 68.5776 54.5795 68.5776 64.2304 58.9543L66.6844 56.5084Z" fill="#F28C16"/>
</svg>
