<svg width="198" height="88" viewBox="0 0 198 88" fill="none" xmlns="http://www.w3.org/2000/svg">
<path d="M12.8214 65.9464C11.8289 65.417 10.7232 65.1586 9.49199 65.1586C8.63137 65.1586 7.7142 65.3098 6.73422 65.6061C5.75424 65.9086 4.86849 66.3183 4.08953 66.8477C3.7189 67.4843 3.41109 68.247 3.16609 69.1357C2.92738 70.0244 2.80802 70.8815 2.80802 71.7072C2.80802 72.4005 2.87084 73.1001 3.01532 73.8123C3.15981 74.5246 3.36711 75.2305 3.64352 75.9175C2.87712 75.9553 2.2238 76.1381 1.68356 76.4658C1.14331 76.7936 0.728703 77.2537 0.433453 77.8462C0.144484 78.4323 0 79.1319 0 79.9387V87.8676H3.55557V81.0102C3.55557 80.2601 3.72518 79.7118 4.05812 79.3777C4.39107 79.0374 4.95644 78.8735 5.7354 78.8735H8.73188C10.0951 78.8735 11.3263 78.571 12.4319 77.9722C13.5313 77.3734 14.4045 76.5289 15.0389 75.4448C15.3342 74.9027 15.5666 74.3166 15.7237 73.6737C15.8807 73.0371 15.9624 72.369 15.9624 71.6505C15.9624 70.3773 15.686 69.2428 15.1394 68.247C14.5866 67.2574 13.814 66.4885 12.8277 65.9464H12.8214ZM11.8163 73.8565C11.4834 74.4994 11.0185 75.0036 10.4343 75.3628C9.84378 75.7221 9.15905 75.8923 8.37381 75.8923H7.00435C6.72166 75.1612 6.52064 74.4678 6.395 73.8123C6.27564 73.1569 6.21282 72.5266 6.21282 71.9278C6.21282 71.4047 6.23795 70.9004 6.30077 70.4214C6.35731 69.9424 6.45782 69.4823 6.60859 69.0348C7.07345 68.7323 7.54459 68.5054 8.02202 68.3415C8.49944 68.1839 8.97687 68.1083 9.44173 68.1083C10.2835 68.1083 10.9745 68.4297 11.5148 69.0663C12.055 69.7029 12.3251 70.5538 12.3251 71.6253C12.3251 72.4635 12.1555 73.2136 11.8226 73.8565H11.8163Z" fill="#005174"/>
<path d="M43.1254 78.8672H71.4946V75.8859H66.3999C65.6901 75.8859 65.0682 75.7095 64.5405 75.3502C64.0065 74.9972 63.5982 74.5056 63.3092 73.8753C63.0203 73.2451 62.8758 72.5139 62.8758 71.6694C62.8758 70.8248 63.0203 70.0936 63.3092 69.5201C63.5982 68.9465 64.0191 68.5116 64.5719 68.1965C65.1247 67.8877 65.7969 67.7301 66.601 67.7301C67.1601 67.7301 67.7192 67.7931 68.2782 67.9129C68.8373 68.0326 69.453 68.2469 70.1251 68.5432L71.1616 65.6502C70.6779 65.4043 70.0183 65.1964 69.1891 65.0199C68.3599 64.8434 67.5433 64.7552 66.7392 64.7552C65.2252 64.7552 63.9186 65.0262 62.8192 65.5682C61.7199 66.1103 60.8656 66.8918 60.2562 67.9003C59.6469 68.915 59.3453 70.1189 59.3453 71.5244C59.3453 72.161 59.4396 72.7597 59.628 73.3207C59.8165 73.8816 60.0678 74.3859 60.3819 74.8397C60.7022 75.2872 61.0792 75.6338 61.5315 75.8796H34.7014V57.5006H31.0892V75.8796H27.9232L24.4807 61.2949H20.6989L24.3111 75.8796H18.8521V78.8609H43.1317L43.1254 78.8672Z" fill="#005174"/>
<path d="M84.7746 85.7561C84.605 85.7561 84.3663 85.775 84.0584 85.8129C83.7506 85.8507 83.4114 85.8948 83.0533 85.9515C82.689 86.0082 82.3372 86.065 82.0042 86.1217C81.7216 85.9704 81.5143 85.7939 81.3761 85.586C81.2379 85.378 81.1688 85.1258 81.1688 84.8296C81.1688 84.401 81.3007 84.0607 81.5582 83.8212C81.8221 83.5754 82.1487 83.4556 82.5382 83.4556C82.8021 83.4556 83.0533 83.4808 83.292 83.5375C83.537 83.5943 83.7758 83.6888 84.0207 83.8212L84.5233 82.4472C84.2406 82.277 83.9265 82.1572 83.5684 82.0816C83.2167 82.006 82.8209 81.9681 82.3937 81.9681C81.4577 81.9681 80.7227 82.195 80.1825 82.6551C79.6422 83.1153 79.3721 83.7392 79.3721 84.5208C79.3721 84.9305 79.4852 85.296 79.7051 85.6175C79.9312 85.9389 80.2076 86.191 80.5468 86.3738L79.0329 86.6007V88.0062C79.2025 87.9495 79.5292 87.8865 80.0129 87.8235C80.4966 87.7604 81.0557 87.6848 81.6901 87.6155C82.3246 87.5398 82.9277 87.4768 83.4993 87.4201C84.071 87.3634 84.4919 87.3255 84.7746 87.3066V85.7624V85.7561Z" fill="#005174"/>
<path d="M96.7856 75.8922H93.5127H93.2301H89.8692V57.5132H86.2571V75.8922H83.091L79.6485 61.3075H75.8668L79.4789 75.8922H74.0199V78.8671H93.2301H93.4813H100.398V57.5132H96.7856V75.8922Z" fill="#005174"/>
<path d="M117.987 79.3146C117.987 80.2538 117.755 81.029 117.29 81.6341C116.825 82.2455 116.209 82.548 115.443 82.548C114.978 82.548 114.57 82.5039 114.212 82.4093C113.854 82.3085 113.445 82.1257 112.98 81.8421L111.605 84.2876C112.346 84.7729 113.075 85.1132 113.778 85.3086C114.476 85.504 115.217 85.6049 116.002 85.6049C117.139 85.6049 118.125 85.3527 118.955 84.8485C119.784 84.3443 120.418 83.6258 120.871 82.6993C121.317 81.7727 121.543 80.676 121.543 79.4029V65.045H117.987V79.3146Z" fill="#005174"/>
<path d="M158.091 62.5429C158.631 62.5429 159.052 62.3727 159.366 62.0261C159.674 61.6731 159.825 61.213 159.825 60.6331C159.825 60.0533 159.674 59.5932 159.366 59.2465C159.052 58.8999 158.631 58.7234 158.091 58.7234C157.551 58.7234 157.092 58.8936 156.772 59.2276C156.451 59.568 156.294 60.0344 156.294 60.6331C156.294 61.2319 156.451 61.7046 156.772 62.0387C157.092 62.379 157.532 62.5429 158.091 62.5429Z" fill="#005174"/>
<path d="M188.784 57.5132H185.166V75.8922H181.843V74.3165C181.843 72.6337 181.566 71.1903 181.001 69.9928C180.442 68.7889 179.644 67.875 178.608 67.2384C177.778 66.7279 176.811 66.4254 175.718 66.3245H175.68C175.498 66.3056 175.316 66.2993 175.128 66.293C175.09 66.293 175.052 66.293 175.014 66.293H174.901C174.864 66.293 174.826 66.293 174.788 66.293C174.6 66.293 174.418 66.3119 174.235 66.3245H174.198C173.105 66.4317 172.144 66.7279 171.302 67.2384C170.265 67.875 169.467 68.7889 168.908 69.9928C168.343 71.1903 168.067 72.6337 168.067 74.3165V75.8922H159.938V65.0451H156.319V75.8922H130.331V57.5132H126.713V78.8734H188.778V57.5132H188.784ZM178.878 75.8922H171.038V74.4047C171.038 73.4656 171.195 72.6652 171.515 72.0034C171.836 71.3416 172.301 70.8374 172.916 70.4844C173.488 70.1693 174.166 69.9991 174.958 69.9802C175.749 69.9991 176.434 70.1693 177.006 70.4844C177.621 70.8374 178.086 71.3416 178.407 72.0034C178.727 72.6652 178.884 73.4719 178.884 74.4047V75.8922H178.878Z" fill="#005174"/>
<path d="M198 57.5132H194.382V78.8734H198V57.5132Z" fill="#005174"/>
<path d="M174.989 62.5491C175.53 62.5491 175.957 62.3789 176.265 62.0323C176.572 61.6856 176.729 61.2192 176.729 60.6394C176.729 60.0595 176.579 59.5931 176.265 59.2464C175.957 58.8998 175.53 58.7296 174.989 58.7296C174.449 58.7296 173.99 58.8998 173.67 59.2338C173.35 59.5742 173.193 60.0406 173.193 60.6394C173.193 61.2381 173.35 61.7045 173.67 62.0449C173.99 62.3853 174.424 62.5491 174.989 62.5491Z" fill="#005174"/>
<path d="M103.099 4.4687C103.099 5.83011 102.741 6.9142 102.025 7.72726C101.309 8.53402 100.322 8.9374 99.0597 8.9374C97.797 8.9374 96.7354 8.54663 96.0004 7.75877C95.2591 6.97092 94.8948 5.87423 94.8948 4.4687C94.8948 3.06317 95.2654 1.97278 96.0004 1.17863C96.7417 0.390775 97.7593 0 99.0597 0C100.36 0 101.309 0.403381 102.025 1.21644C102.741 2.02951 103.099 3.11359 103.099 4.4687Z" fill="#005174"/>
<path d="M113.068 21.8897C111.762 19.085 109.909 16.9357 107.496 15.4482C105.561 14.2444 103.313 13.5385 100.775 13.3053C100.75 13.3053 100.718 13.3053 100.693 13.3053C100.272 13.2675 99.8386 13.2423 99.4052 13.2359C99.311 13.2359 99.2293 13.217 99.1351 13.217H98.8775C98.7833 13.217 98.7016 13.2296 98.6074 13.2359C98.1739 13.2359 97.7405 13.2675 97.3196 13.3053C97.2882 13.3053 97.263 13.3053 97.2316 13.3053C94.6875 13.5385 92.4448 14.2444 90.51 15.4482C88.104 16.942 86.2446 19.085 84.9442 21.8897C83.6438 24.6945 82.9905 28.0728 82.9905 32.0121V42.6638H115.022V32.0121C115.022 28.0665 114.369 24.6945 113.068 21.8897ZM89.8818 34.2496V32.2074C89.8818 30.0141 90.2524 28.1421 90.9937 26.5853C91.7287 25.0285 92.8154 23.8499 94.2477 23.0368C95.5732 22.2868 97.1625 21.9023 98.9969 21.8393C100.837 21.896 102.427 22.2868 103.752 23.0368C105.185 23.8499 106.271 25.0285 107 26.5853C107.741 28.1421 108.112 30.0141 108.112 32.2074V34.2496H89.8818Z" fill="#005174"/>
<path d="M134.289 34.2495C133.686 37.2055 132.725 40.0229 131.456 42.6638H66.5444C65.2755 40.0166 64.3143 37.1992 63.7113 34.2495H134.289Z" fill="#005174"/>
<path d="M166.075 18.858V34.2495L134.955 29.3648L134.05 29.2262L132.756 29.0245L131.902 28.8921L117.158 26.5727L131.87 24.2596L132.718 24.1209L134.006 23.9129L134.917 23.7742L166.075 18.858Z" fill="#FF7A00"/>
<path d="M166.075 14.402V17.5975L134.791 22.5326L133.887 22.6776L132.599 22.8793L131.751 23.0116L117.453 25.2617L131.631 22.0977L132.473 21.9086L133.748 21.625L134.647 21.4233L166.075 14.402Z" fill="#FF7A00"/>
<path d="M166.075 9.76941V12.9649L134.402 19.98L133.503 20.1754L132.228 20.459L131.393 20.6418L117.843 23.6482L131.223 19.7972L132.052 19.5577L133.309 19.1984L134.188 18.94L166.075 9.76941Z" fill="#FF7A00"/>
<path d="M80.8484 26.5727L66.0984 28.8921L65.2441 29.0245L63.95 29.2262L63.0454 29.3648L31.9247 34.2495V18.858L63.0894 23.7742L63.9877 23.9129L65.2818 24.1209L66.1298 24.2596L80.8484 26.5727Z" fill="#FF7A00"/>
<path d="M80.5343 25.2617L66.2492 23.0116L65.4011 22.8793L64.1133 22.6776L63.215 22.5326L31.9247 17.5975V14.402L63.3595 21.4233L64.2515 21.625L65.5268 21.9086L66.3685 22.0977L80.5343 25.2617Z" fill="#FF7A00"/>
</svg>
