<svg width="136" height="97" viewBox="0 0 136 97" fill="none" xmlns="http://www.w3.org/2000/svg">
<path d="M127.835 37.6774C137.713 30.1683 138.326 15.4351 128.999 7.24594C123.863 2.7346 117.132 0.00366211 109.765 0.00366211H72.2349V12.1046H109.765C118.201 12.1046 122.991 15.8701 122.991 21.4673C122.991 27.0644 118.201 30.83 109.765 30.83H72.2349V42.9309H109.765C118.201 42.9309 122.987 46.7001 122.987 52.2936C122.987 57.8908 118.201 61.6563 109.765 61.6563H37.3112V73.7645H109.765C117.132 73.7645 123.863 72.6239 128.999 68.1126C138.322 59.9234 137.713 45.1902 127.835 37.6811V37.6774Z" fill="#4B9674"/>
<path d="M65.6458 0H18.6573V12.1009H65.6458V0Z" fill="#4B9674"/>
<path d="M30.7404 73.7572L30.7404 0L18.6574 0L18.6574 73.7572H30.7404Z" fill="#4B9674"/>
<path d="M12.0865 73.7572L12.0865 0L0.00360203 0L0.00360203 73.7572H12.0865Z" fill="#4B9674"/>
<path d="M65.6458 30.8226H18.6573V42.9236H65.6458V30.8226Z" fill="#4B9674"/>
<path d="M2.86926 82.4949V96.0362H0V82.4949H2.86926Z" fill="#837768"/>
<path d="M7.89952 84.586V85.8363C8.61501 84.809 9.72111 84.257 11.1776 84.257C14.2294 84.257 15.9706 86.1032 15.9706 89.3057V96.0764H13.2255V89.3057C13.2255 87.5838 12.2618 86.5565 10.5607 86.5565C8.8596 86.5565 7.89587 87.5838 7.89587 89.3057V96.0764H5.15076V84.586H7.89587H7.89952Z" fill="#837768"/>
<path d="M19.5116 84.5861L22.8116 92.8118L26.1116 84.5861H29.0429L24.4324 96.0765H21.1945L16.584 84.5861H19.5153H19.5116Z" fill="#837768"/>
<path d="M31.6456 80.974C32.6093 80.974 33.0182 81.4054 33.0182 82.3705C33.0182 83.3357 32.6093 83.7671 31.6456 83.7671C30.6819 83.7671 30.2731 83.3357 30.2731 82.3705C30.2731 81.4054 30.6819 80.974 31.6456 80.974ZM33.0182 84.586V96.0764H30.2731V84.586H33.0182Z" fill="#837768"/>
<path d="M35.0296 88.0737C35.0296 85.5292 36.811 84.257 40.3556 84.257C43.9002 84.257 45.7838 85.6316 45.7838 88.3406H43.0387C43.0387 87.1926 42.137 86.5967 40.3556 86.5967C38.5742 86.5967 37.7747 87.0281 37.7747 87.869C37.7747 90.4537 46.0722 87.4778 46.0722 92.5887C46.0722 95.1332 44.2068 96.4054 40.5418 96.4054C36.8767 96.4054 34.785 95.0308 34.785 92.3218H37.5302C37.5302 93.4698 38.534 94.0657 40.5418 94.0657C42.3853 94.0657 43.327 93.6343 43.327 92.7934C43.327 90.2087 35.0296 93.1846 35.0296 88.0737Z" fill="#837768"/>
<path d="M49.2481 80.974C50.2118 80.974 50.6206 81.4054 50.6206 82.3705C50.6206 83.3357 50.2118 83.7671 49.2481 83.7671C48.2843 83.7671 47.8755 83.3357 47.8755 82.3705C47.8755 81.4054 48.2843 80.974 49.2481 80.974ZM50.6206 84.586V96.0764H47.8755V84.586H50.6206Z" fill="#837768"/>
<path d="M55.5815 81.3031V85.8985C56.3408 84.831 57.5893 84.2571 59.3086 84.2571C62.6488 84.2571 64.5543 86.1654 64.5543 89.5105V91.152C64.5543 94.4971 62.6488 96.4055 59.3086 96.4055C57.5893 96.4055 56.3372 95.8315 55.5815 94.764V96.0765H52.8364V81.3031H55.5815ZM61.8092 91.1484V89.5069C61.8092 87.6607 60.6812 86.5712 58.6954 86.5712C56.7095 86.5712 55.5815 87.5766 55.5815 89.2985V91.3495C55.5815 93.0714 56.7095 94.0767 58.6954 94.0767C60.6812 94.0767 61.8092 92.9909 61.8092 91.1411V91.1484Z" fill="#837768"/>
<path d="M69.1758 81.3031V96.0765H66.4307V81.3031H69.1758Z" fill="#837768"/>
<path d="M76.8782 94.0621C78.5793 94.0621 79.5613 93.426 79.5613 92.3183H82.3064C82.3064 94.9249 80.3206 96.4019 76.8782 96.4019C73.1511 96.4019 71.0193 94.4935 71.0193 91.1484V89.5069C71.0193 86.1618 73.1511 84.2534 76.8782 84.2534C80.6053 84.2534 82.5328 86.1618 82.5328 89.5069V91.1484H73.7644C73.7644 92.9946 74.8924 94.0621 76.8782 94.0621ZM79.7256 88.8123C79.481 87.3975 78.4771 86.5968 76.8782 86.5968C75.1589 86.5968 74.0711 87.3975 73.8265 88.8123H79.7256Z" fill="#837768"/>
<path d="M92.6408 88.0737V90.5341H84.0367V88.0737H92.6408Z" fill="#837768"/>
<path d="M105.633 82.4947V84.9552H97.4375V88.0334H104.198V90.4938H97.4375V96.0325H94.5682V82.4911H105.629L105.633 82.4947Z" fill="#837768"/>
<path d="M117.836 88.8963C118.698 89.5946 119.147 90.6182 119.147 91.8905C119.147 94.4752 117.241 96.0362 113.901 96.0362H107.1V82.4949H113.901C116.975 82.4949 118.734 83.8475 118.734 86.3518C118.734 87.4193 118.427 88.2602 117.832 88.8963H117.836ZM115.868 86.3518C115.868 85.4086 115.153 84.9553 113.901 84.9553H109.966V87.7447H113.901C115.149 87.7447 115.868 87.295 115.868 86.3482V86.3518ZM113.901 93.5758C115.416 93.5758 116.277 92.8995 116.277 91.8941C116.277 90.8888 115.416 90.2124 113.901 90.2124H109.966V93.5758H113.901Z" fill="#837768"/>
<path d="M124.447 82.4949L128.32 92.0769L132.193 82.4949H135.636V96.0362H132.766V87.646L129.386 96.0362H127.254L123.874 87.646V96.0362H121.005V82.4949H124.447Z" fill="#837768"/>
</svg>
