<svg width="182" height="118" viewBox="0 0 182 118" fill="none" xmlns="http://www.w3.org/2000/svg">
<path d="M16.4636 61.5994C15.1072 61.5994 13.9204 61.2844 12.9148 60.6542C11.9034 60.024 11.0264 59.1896 10.2898 58.151C9.54726 57.1124 8.89246 56.0096 8.32535 54.8426C7.85179 53.6464 7.40161 52.1819 6.97482 50.4489C6.54803 48.7159 6.15632 46.8429 5.79384 44.8298C5.43136 42.8168 5.1215 40.757 4.8701 38.6623C4.6187 36.5676 4.42577 34.5778 4.30299 32.6873C4.17437 30.7968 4.11591 29.128 4.11591 27.6809C4.11591 24.2792 4.43746 21.2042 5.08642 18.4442C5.73537 15.6901 6.66496 13.2453 7.88102 11.1214C9.09708 8.99745 10.5879 7.19446 12.3536 5.71238C14.6863 3.7285 17.475 2.28144 20.7081 1.36535C23.9412 0.455101 27.5134 -0.00585938 31.4305 -0.00585938C33.8919 -0.00585938 36.3825 0.215868 38.9081 0.653489C41.4338 1.09694 43.749 1.71545 45.8654 2.52067C47.9818 3.32589 49.6831 4.30033 50.9752 5.44981C52.2673 6.59929 52.9162 7.88298 52.9162 9.30087C52.9162 10.5262 52.6181 11.4831 52.0159 12.16C51.4137 12.8368 50.5776 13.3153 49.5077 13.6012C48.2157 13.8521 46.5319 13.9396 44.4681 13.8638C42.3985 13.7879 40.0891 13.7471 37.5342 13.7471C34.8215 13.7471 32.6173 14.0622 30.9336 14.6924C29.2439 15.3225 27.946 16.1861 27.0281 17.2889C26.461 17.8549 26.0109 18.5434 25.6776 19.3428C25.3444 20.148 25.0988 21.0524 24.9468 22.0619C24.789 23.0713 24.7071 24.1741 24.7071 25.3703C24.7071 26.0647 24.7773 26.6773 24.9176 27.2141C25.0579 27.751 25.2742 28.2061 25.5548 28.5854C25.8413 28.9646 26.1921 29.2564 26.6189 29.4606C27.0457 29.6648 27.5251 29.7698 28.063 29.7698C29.1329 29.7698 30.3372 29.7465 31.6585 29.6998C32.9857 29.6531 34.3011 29.6123 35.6107 29.5831C36.9203 29.5539 38.1247 29.5539 39.2297 29.5831C40.3347 29.6123 41.2175 29.694 41.8781 29.8224C42.948 30.1083 43.7607 30.5225 44.3161 31.0769C44.8657 31.6254 45.1463 32.3781 45.1463 33.3175C45.1463 33.9185 45.0411 34.5078 44.8364 35.0913C44.6318 35.6748 44.3102 36.235 43.8659 36.7659C43.2053 37.5536 42.188 38.1663 40.8141 38.6098C39.4402 39.0532 37.5751 39.4267 35.2073 39.7418C32.8395 40.0568 29.8578 40.4828 26.2623 41.0196C24.9702 41.1772 24.0932 41.6498 23.6372 42.4375C23.1812 43.2252 22.9532 44.2463 22.9532 45.5067C22.9532 46.0085 22.9707 46.6795 22.9999 47.5139C23.0292 48.3483 23.0643 49.2644 23.0935 50.2563C23.1227 51.2483 23.1403 52.2344 23.1403 53.2088C23.1403 54.1832 23.1227 55.0818 23.0935 55.9045C23.0643 56.7214 22.9824 57.3516 22.8596 57.7951C22.2574 59.2421 21.398 60.2457 20.2813 60.7942C19.1588 61.3427 17.8901 61.6228 16.4695 61.6228L16.4636 61.5994Z" fill="black"/>
<path d="M85.8961 63.3966C81.0377 63.3966 76.7931 62.7489 73.1625 61.4594C69.5318 60.1699 66.5092 58.256 64.1005 55.7178C61.6859 53.1855 59.8794 50.0638 58.6808 46.3644C57.4823 42.6651 56.8801 38.4231 56.8801 33.6326C56.8801 32.3722 56.9327 31.1469 57.0438 29.9449C57.1549 28.7487 57.3361 27.5993 57.5875 26.4964C57.8389 25.3936 58.1371 24.3842 58.4879 23.474C59.3415 21.1458 60.5459 19.4012 62.1069 18.2517C63.6679 17.1022 65.5563 16.5245 67.7604 16.5245C69.9645 16.5245 71.5547 16.8863 72.6129 17.6098C73.6711 18.3334 74.3785 19.2378 74.741 20.3289C75.1035 21.4142 75.314 22.4937 75.3783 23.5673C75.4075 24.2617 75.4309 25.0027 75.4485 25.7846C75.466 26.5723 75.4894 27.3659 75.5186 28.1711C75.5478 28.9763 75.5829 29.7523 75.6122 30.5109C75.6414 31.2694 75.6882 31.958 75.7525 32.5881C75.9746 35.8324 76.454 38.6215 77.1965 40.9496C77.939 43.2777 79.0499 45.0749 80.5349 46.3353C82.0199 47.5956 83.9726 48.2258 86.4047 48.2258C88.8368 48.2258 90.6726 47.7298 92.2044 46.7379C93.7362 45.7459 94.9639 44.2638 95.8993 42.2975C96.8289 40.3311 97.548 37.8804 98.0508 34.9513C98.2379 34.006 98.3899 33.0724 98.501 32.1388C98.6121 31.2111 98.7056 30.2892 98.7875 29.3731C98.8635 28.457 98.9687 27.5292 99.0973 26.584C99.2201 25.6387 99.3838 24.711 99.5709 23.7949C100.109 21.7176 101.015 20.0547 102.29 18.8118C103.57 17.569 105.452 16.9447 107.943 16.9447C110.089 16.9447 111.72 17.5573 112.842 18.7885C113.965 20.0197 114.76 21.6885 115.234 23.7949C115.362 24.7693 115.462 25.7846 115.543 26.8407C115.619 27.8968 115.678 28.9588 115.707 30.0266C115.736 31.1002 115.748 32.1855 115.73 33.2883C115.713 34.3911 115.678 35.4764 115.614 36.5501C115.391 42.6592 114.064 47.7006 111.638 51.6684C109.206 55.6361 105.821 58.5828 101.483 60.5025C97.1446 62.4222 91.9471 63.3849 85.8844 63.3849L85.8961 63.3966Z" fill="black"/>
<path d="M130.627 61.1268C128.546 61.1268 126.85 60.7009 125.541 59.849C124.231 58.9971 123.261 57.5967 122.629 55.642C122.442 54.9184 122.296 54.0899 122.203 53.1621C122.109 52.2344 122.051 51.1958 122.039 50.0463C122.021 48.8968 122.045 47.6481 122.109 46.2886C122.331 39.8935 123.664 34.4495 126.108 29.9449C128.552 25.4403 131.931 22.0035 136.24 19.6229C140.549 17.2481 145.571 16.0577 151.318 16.0577C157.065 16.0577 162.157 17.2072 166.513 19.5062C170.868 21.8052 174.253 25.2244 176.668 29.7582C179.083 34.2919 180.287 39.9168 180.287 46.6212C180.287 47.7531 180.246 48.8151 180.17 49.807C180.088 50.799 179.971 51.7209 179.813 52.5728C179.656 53.4247 179.468 54.2124 179.246 54.936C178.521 57.0132 177.469 58.5653 176.101 59.5864C174.727 60.6075 173.049 61.121 171.061 61.121C168.822 61.121 167.092 60.8001 165.875 60.1524C164.659 59.5047 163.782 58.5711 163.25 57.3399C162.713 56.1088 162.333 54.6325 162.116 52.8996C161.988 50.9449 161.853 49.2002 161.713 47.6539C161.573 46.1135 161.415 44.7248 161.239 43.4995C161.064 42.2741 160.883 41.1363 160.696 40.0977C160.508 39.0591 160.269 38.0496 159.988 37.0752C159.357 34.712 158.415 32.9441 157.17 31.7596C155.925 30.5809 154.13 29.9857 151.797 29.9857C149.587 29.9857 147.787 30.6101 146.401 31.8529C145.01 33.0958 143.893 34.8871 143.039 37.2152C142.63 38.2539 142.279 39.3567 141.999 40.5236C141.712 41.6906 141.461 42.9393 141.239 44.2813C141.016 45.6175 140.829 47.0588 140.671 48.605C140.514 50.1513 140.338 51.7851 140.151 53.5181C139.929 55.5311 139.362 57.0949 138.444 58.1918C137.526 59.2947 136.398 60.059 135.059 60.485C133.72 60.9109 132.241 61.121 130.633 61.121L130.627 61.1268Z" fill="black"/>
<path d="M19.1296 118C18.0655 118 17.2704 117.732 16.7384 117.206C16.2063 116.681 15.8205 115.841 15.5808 114.703C15.5282 114.067 15.4346 113.221 15.3001 112.159C15.1657 111.097 15.0254 109.907 14.8792 108.577C14.733 107.252 14.5752 105.887 14.3998 104.48C14.2244 103.074 14.0549 101.703 13.8795 100.361C13.7041 99.0248 13.5521 97.8053 13.4234 96.7024C13.289 95.6055 13.172 94.7069 13.0668 94.0184C13.0142 93.4874 12.8563 93.1198 12.5874 92.9039C12.3243 92.6938 11.9384 92.5888 11.4298 92.5888C11.0322 92.5888 10.4651 92.653 9.73433 92.7872C9.00352 92.9214 8.00378 93.1198 6.7234 93.3824C5.41965 93.6741 4.40821 93.9192 3.6774 94.1176C2.9466 94.316 2.35611 94.4152 1.90593 94.4152C1.3739 94.4152 0.923726 94.2284 0.549553 93.8608C0.175381 93.4874 -0.00585938 93.0148 -0.00585938 92.4313C-0.00585938 91.9528 0.198766 91.4919 0.613864 91.0367C1.02312 90.5874 1.68376 90.1907 2.58412 89.8406C3.0343 89.6538 3.83526 89.4088 4.97532 89.1054C6.11537 88.8019 7.3022 88.4985 8.52411 88.1893C9.74602 87.8859 10.7165 87.6408 11.4356 87.4541C11.7572 87.349 11.9852 87.1623 12.1314 86.8997C12.2775 86.6372 12.3535 86.2112 12.3535 85.6277C12.3535 84.7817 12.2951 83.9239 12.1723 83.0604C12.0554 82.1968 11.9326 81.3157 11.8157 80.4171C11.6987 79.5186 11.6344 78.5616 11.6344 77.5522C11.6344 74.6872 12.1781 72.2832 13.2656 70.3344C14.353 68.3855 15.9374 66.9092 18.0071 65.8998C20.0767 64.8904 22.5907 64.3885 25.5373 64.3885C27.0515 64.3885 28.4137 64.5344 29.6239 64.8262C30.8342 65.1179 31.8047 65.5089 32.5355 65.999C33.2663 66.4891 33.6346 67.0259 33.6346 67.6094C33.6346 68.0587 33.506 68.403 33.2546 68.6422C33.0032 68.8815 32.6641 69.0565 32.2373 69.1615C31.7345 69.2432 31.0739 69.2549 30.2671 69.2024C29.4544 69.1499 28.519 69.1382 27.4549 69.1615C24.2686 69.1615 22.0177 69.9492 20.7023 71.5305C19.3868 73.1118 18.732 75.4749 18.732 78.6316C18.732 79.1334 18.7496 79.6878 18.7905 80.2829C18.8314 80.8781 18.884 81.4674 18.9483 82.0509C19.0126 82.6344 19.0886 83.1771 19.1705 83.6789C19.2757 84.3966 19.4511 84.8809 19.6908 85.1318C19.9305 85.3827 20.2638 85.511 20.6847 85.511C20.8426 85.511 21.3278 85.4644 22.1405 85.371C22.9531 85.2776 23.9295 85.1609 25.0696 85.0151C26.2096 84.8692 27.3731 84.7292 28.5541 84.6008C29.735 84.4666 30.7815 84.3732 31.6819 84.3207C34.3128 84.1632 36.6806 84.0873 38.797 84.099C40.9076 84.1107 42.4686 84.1457 43.48 84.1982C44.5675 84.2799 45.4328 84.5541 46.07 85.0326C46.7073 85.511 47.175 86.1412 47.4673 86.9231C47.7596 87.705 47.9058 88.6269 47.9058 89.6889C47.9058 90.4299 47.8766 91.4393 47.824 92.7114C47.7713 93.9834 47.6953 95.3779 47.6018 96.8892C47.5082 98.4004 47.403 99.9642 47.2802 101.58C47.1633 103.197 47.0288 104.749 46.8827 106.237C46.7365 107.725 46.5904 109.043 46.4442 110.193C46.298 111.348 46.146 112.218 45.9882 112.795C45.614 114.201 45.0995 115.164 44.433 115.678C43.7665 116.197 42.948 116.454 41.96 116.454C41.0538 116.454 40.3347 116.255 39.7851 115.859C39.2355 115.462 38.8497 114.814 38.6099 113.91C38.3702 113.005 38.2533 111.844 38.2533 110.409C38.2533 109.668 38.2884 108.792 38.3527 107.783C38.417 106.774 38.493 105.694 38.5749 104.539C38.6567 103.383 38.7327 102.193 38.8146 100.962C38.8964 99.7308 38.9724 98.5054 39.0543 97.2859C39.1361 96.0664 39.2063 94.9111 39.2764 93.8258C39.3408 92.7405 39.3758 91.7719 39.3758 90.92C39.3758 90.3891 39.2647 90.0214 39.0367 89.8056C38.8087 89.5955 38.4462 89.4846 37.9435 89.4846C36.7215 89.4846 35.2073 89.5313 33.4008 89.6247C31.5942 89.718 29.7818 89.8347 27.9636 89.9806C26.1453 90.1265 24.5843 90.2899 23.2806 90.4766C22.0879 90.6108 21.2986 90.9609 20.9303 91.5327C20.5561 92.1045 20.3749 92.758 20.3749 93.4991C20.3749 94.0826 20.4158 94.8995 20.4918 95.9439C20.5736 96.9942 20.6789 98.1729 20.8133 99.4857C20.9478 100.799 21.0764 102.17 21.2109 103.599C21.3454 105.029 21.4682 106.429 21.5909 107.795C21.7079 109.16 21.7956 110.397 21.8482 111.512C21.9008 112.626 21.9125 113.542 21.8891 114.254C21.7546 115.631 21.4682 116.6 21.0355 117.16C20.597 117.714 19.9656 117.994 19.1413 117.994L19.1296 118ZM44.6376 73.6894C43.176 73.6894 42.0184 73.4969 41.1707 73.1118C40.3171 72.7267 39.7208 72.2249 39.3758 71.6005C39.0309 70.9762 38.8555 70.3227 38.8555 69.6342C38.8555 68.8114 39.101 68.1054 39.5922 67.5044C40.0833 66.9034 40.7439 66.4249 41.5682 66.0515C42.3926 65.6781 43.2871 65.4155 44.2576 65.258C45.2281 65.1004 46.1636 65.0187 47.0698 65.0187C47.976 65.0187 48.7945 65.1588 49.5428 65.4388C50.2853 65.7189 50.8758 66.1624 51.3143 66.7692C51.7528 67.3819 51.9691 68.1754 51.9691 69.1557C51.9691 70.1885 51.6417 71.0462 50.9927 71.7231C50.3438 72.3999 49.461 72.8959 48.3443 73.2168C47.2276 73.5319 45.994 73.6953 44.6376 73.6953V73.6894Z" fill="black"/>
<path d="M77.8338 116.29C76.6645 116.29 75.4484 116.104 74.1856 115.736C72.9228 115.368 71.8236 114.627 70.8765 113.53C69.9352 112.428 69.3564 110.817 69.1401 108.699C69.0349 107.876 68.9355 106.937 68.8419 105.875C68.7484 104.813 68.6607 103.664 68.5847 102.415C68.5028 101.166 68.4327 99.8767 68.3625 98.5347C68.2982 97.1985 68.2456 95.8156 68.2047 94.3977C68.1637 92.9798 68.1287 91.5561 68.1053 90.1207C68.076 88.9303 67.8948 88.1368 67.544 87.7517C67.1991 87.3666 66.6261 87.1507 65.831 87.0982C65.3282 87.0457 64.6559 86.999 63.8198 86.9581C62.9838 86.9173 62.1302 86.8765 61.2708 86.8356C60.4055 86.7948 59.6455 86.7656 58.979 86.7364C58.0728 86.6314 57.4063 86.3571 56.9678 85.9195C56.5293 85.4819 56.313 84.8634 56.313 84.0698C56.313 83.5389 56.4358 83.1246 56.693 82.8153C56.9444 82.5119 57.3186 82.2785 57.8097 82.121C58.3008 81.9634 58.8679 81.8584 59.5051 81.8001C60.9901 81.695 62.2004 81.6017 63.13 81.52C64.0595 81.4383 64.9248 81.3741 65.7199 81.3216C66.5969 81.2166 67.1991 80.989 67.5323 80.6447C67.8656 80.3005 68.0702 79.6645 68.1521 78.7367C68.2339 78.1766 68.2865 77.5114 68.3099 76.7295C68.3333 75.9476 68.3684 75.1657 68.4093 74.3838C68.4502 73.602 68.5087 72.9309 68.5905 72.3766C68.801 71.1863 69.1109 70.2877 69.5084 69.6925C69.906 69.0974 70.5725 68.7998 71.5021 68.7998C72.2738 68.7998 72.8701 68.9457 73.2969 69.2374C73.7237 69.5292 74.0336 69.9726 74.2324 70.5678C74.4311 71.163 74.5831 71.9273 74.6884 72.8551C74.7118 73.7303 74.741 74.5122 74.7702 75.2007C74.7936 75.8893 74.8228 76.5019 74.8521 77.0329C74.8755 77.5639 74.9047 78.0482 74.9339 78.4858C74.9573 78.9234 74.9865 79.3435 75.0158 79.7403C75.0976 80.5105 75.3256 81.0415 75.7115 81.3333C76.0974 81.625 76.6996 81.8117 77.5239 81.8876C78.243 81.9401 79.0732 82.0159 80.0145 82.1093C80.9558 82.2027 81.8678 82.2902 82.7448 82.366C83.6218 82.4477 84.3116 82.5236 84.8144 82.6053C85.8259 82.7395 86.6561 82.9845 87.305 83.3405C87.954 83.6964 88.2814 84.2741 88.2814 85.0676C88.2814 85.7853 88.0241 86.3455 87.5038 86.7598C86.9835 87.174 86.2644 87.4016 85.3348 87.4541C83.5575 87.4833 81.9263 87.4716 80.453 87.4366C78.9797 87.3958 77.8572 87.3899 77.0854 87.4191C76.4482 87.4424 75.9921 87.6117 75.7115 87.9151C75.4309 88.2185 75.2789 89.0354 75.2555 90.3599C75.2555 91.5269 75.2613 92.7172 75.273 93.9367C75.2847 95.1562 75.3198 96.3757 75.3724 97.5952C75.425 98.8147 75.4777 99.9992 75.5303 101.155C75.5829 102.31 75.6647 103.401 75.77 104.434C75.8752 105.467 75.9804 106.394 76.0857 107.217C76.3488 108.991 76.7873 110.17 77.4011 110.736C78.0092 111.307 78.7575 111.587 79.6345 111.587C80.909 111.587 81.8854 111.325 82.5636 110.794C83.2417 110.263 83.7972 109.738 84.2356 109.224C84.6741 108.705 85.1711 108.448 85.7323 108.448C86.2936 108.448 86.697 108.594 86.9484 108.886C87.1998 109.178 87.3284 109.604 87.3284 110.158C87.3284 110.876 87.0478 111.599 86.4924 112.328C85.9311 113.058 85.2003 113.723 84.2999 114.318C83.3996 114.913 82.3882 115.392 81.2715 115.748C80.1548 116.104 79.0148 116.285 77.8455 116.285L77.8338 116.29Z" fill="black"/>
<path d="M122.892 111.027C114.55 111.027 107.522 110.946 101.81 110.782C96.0981 110.619 91.5145 110.292 88.0709 109.796C84.6215 109.306 82.1426 108.6 80.6342 107.684C79.12 106.768 78.3717 105.554 78.3717 104.049C78.3717 102.216 79.0908 91.5268 80.5407 90.3774C81.9848 89.2337 84.5455 88.3468 88.2229 87.7225C91.9004 87.0981 96.9751 86.6722 103.441 86.4446C109.907 86.217 118.168 86.1003 128.219 86.1003C139.116 86.1003 148.067 86.182 155.06 86.3454C162.052 86.5088 167.501 86.8706 171.412 87.4249C175.318 87.985 178.06 88.8194 179.638 89.9339C181.217 91.0484 182 101.75 182 103.652C182 105.356 181.164 106.715 179.486 107.73C177.814 108.746 174.838 109.487 170.57 109.942C166.302 110.403 160.31 110.695 152.592 110.829C144.875 110.963 134.977 111.027 122.892 111.027Z" fill="#F0D731"/>
<path d="M91.421 107.065C90.9299 107.065 90.5498 106.949 90.2751 106.721C90.0003 106.488 89.784 106.155 89.6378 105.712C89.5852 105.519 89.5326 105.245 89.4858 104.895C89.439 104.545 89.3922 104.13 89.3513 103.652C89.3104 103.173 89.2812 102.648 89.2636 102.082C89.2461 101.516 89.2402 100.915 89.2402 100.285C89.2402 99.6549 89.2636 99.0481 89.3045 98.4121C89.3513 97.7761 89.4156 97.1459 89.5092 96.5216C89.6027 95.9031 89.7196 95.2962 89.86 94.7128C90.0003 94.1293 90.1698 93.5691 90.3686 93.044C90.5674 92.5188 90.7837 92.0345 91.0351 91.6027C91.3917 91.0017 91.8068 90.5408 92.2804 90.2257C92.7539 89.9106 93.2977 89.7531 93.8999 89.7531C94.502 89.7531 95.0165 89.9514 95.3849 90.3424C95.7532 90.7392 95.9403 91.2876 95.9403 91.9995C95.9403 92.2912 95.9227 92.6063 95.8818 92.9389C95.8409 93.2715 95.7941 93.6041 95.7415 93.9367C95.6889 94.2693 95.6304 94.5902 95.5719 94.8995C95.5135 95.2087 95.4667 95.4888 95.4316 95.728C95.3965 95.9673 95.379 96.1598 95.379 96.294C95.379 96.5099 95.4375 96.6149 95.5544 96.6149C95.6713 96.6149 95.8233 96.5332 96.0104 96.3757C96.1975 96.2182 96.4489 96.0314 96.7646 95.8156C97.0803 95.5997 97.4837 95.4188 97.9807 95.2554C98.4776 95.092 99.0915 95.0162 99.8282 95.0162C100.816 95.0162 101.635 95.1912 102.295 95.5355C102.95 95.8797 103.476 96.3465 103.868 96.9417C104.26 97.531 104.54 98.1904 104.71 98.9256C104.879 99.6549 104.961 100.413 104.961 101.195C104.961 101.557 104.944 101.942 104.903 102.351C104.862 102.759 104.809 103.162 104.733 103.553C104.663 103.949 104.575 104.311 104.482 104.65C104.383 104.988 104.277 105.268 104.16 105.502C103.927 105.928 103.617 106.248 103.219 106.458C102.822 106.674 102.33 106.779 101.734 106.779C101.255 106.779 100.881 106.686 100.612 106.499C100.343 106.313 100.144 106.056 100.009 105.729C99.9626 105.542 99.9392 105.309 99.9217 105.023C99.91 104.737 99.9042 104.422 99.91 104.066C99.91 103.71 99.9159 103.343 99.9159 102.958C99.9159 102.572 99.9042 102.187 99.8749 101.808C99.8574 101.429 99.8106 101.055 99.7346 100.699C99.6586 100.338 99.5417 100.023 99.3897 99.7425C99.2318 99.4624 99.0213 99.2407 98.7583 99.0714C98.4893 98.9022 98.1502 98.8205 97.7293 98.8205C97.2557 98.8205 96.8406 98.9022 96.4664 99.0598C96.0923 99.2173 95.7883 99.4274 95.531 99.6841C95.2796 99.9409 95.075 100.221 94.923 100.513C94.771 100.81 94.6716 101.096 94.6307 101.37C94.5488 101.861 94.4787 102.304 94.4085 102.707C94.3383 103.109 94.274 103.477 94.2039 103.809C94.1337 104.142 94.0577 104.457 93.9759 104.749C93.894 105.041 93.8005 105.327 93.6952 105.601C93.4789 106.079 93.1866 106.447 92.8066 106.698C92.4266 106.949 91.9647 107.077 91.4151 107.077L91.421 107.065Z" fill="black"/>
<path d="M115.099 107.147C114.012 107.147 112.971 107.03 111.96 106.797C110.954 106.564 110.054 106.19 109.258 105.677C108.469 105.169 107.844 104.504 107.382 103.687C106.92 102.87 106.686 101.878 106.686 100.705C106.686 99.4215 106.908 98.2837 107.353 97.3034C107.797 96.3232 108.411 95.5005 109.194 94.8353C109.978 94.1701 110.884 93.6683 111.919 93.3415C112.953 93.0089 114.064 92.8397 115.245 92.8397C116.368 92.8397 117.432 92.9798 118.437 93.254C119.443 93.5282 120.343 93.9542 121.133 94.5319C121.922 95.1095 122.536 95.8447 122.986 96.7433C123.436 97.6419 123.658 98.7097 123.658 99.9525C123.658 100.921 123.442 101.837 123.021 102.707C122.594 103.576 121.992 104.34 121.22 105.011C120.449 105.677 119.542 106.202 118.502 106.581C117.461 106.96 116.327 107.153 115.105 107.153L115.099 107.147ZM114.871 102.864C115.538 102.864 116.111 102.765 116.584 102.561C117.058 102.357 117.444 102.082 117.742 101.744C118.04 101.405 118.262 101.026 118.402 100.618C118.543 100.209 118.613 99.8008 118.613 99.3924C118.613 98.8497 118.508 98.3888 118.291 98.0095C118.075 97.6302 117.788 97.3151 117.432 97.0759C117.069 96.8367 116.672 96.6616 116.233 96.5507C115.795 96.4399 115.345 96.3815 114.894 96.3815C114.281 96.3815 113.708 96.5099 113.176 96.7608C112.644 97.0117 112.211 97.391 111.884 97.8986C111.556 98.4063 111.392 99.0364 111.392 99.8008C111.392 100.431 111.533 100.974 111.808 101.429C112.082 101.884 112.48 102.24 112.994 102.485C113.509 102.736 114.134 102.858 114.871 102.858V102.864Z" fill="black"/>
<path d="M133.533 107.334C132.165 107.334 130.966 107.153 129.949 106.791C128.932 106.429 128.078 105.887 127.394 105.175C126.716 104.463 126.207 103.582 125.868 102.543C125.529 101.499 125.36 100.308 125.36 98.9606C125.36 98.6046 125.377 98.2604 125.406 97.9219C125.436 97.5835 125.488 97.2626 125.558 96.9533C125.629 96.6441 125.716 96.3582 125.81 96.1014C126.049 95.4479 126.389 94.9578 126.827 94.631C127.266 94.3101 127.798 94.1467 128.417 94.1467C129.037 94.1467 129.487 94.2459 129.785 94.4501C130.084 94.6544 130.282 94.9111 130.388 95.2145C130.493 95.5179 130.551 95.8272 130.569 96.1248C130.575 96.3173 130.586 96.5274 130.586 96.7491C130.586 96.9708 130.598 97.1926 130.604 97.4201C130.61 97.6477 130.621 97.8636 130.627 98.0795C130.639 98.2895 130.651 98.4879 130.668 98.663C130.732 99.5791 130.867 100.361 131.077 101.02C131.288 101.674 131.598 102.181 132.019 102.537C132.434 102.893 132.989 103.068 133.673 103.068C134.357 103.068 134.872 102.928 135.304 102.648C135.737 102.368 136.082 101.954 136.345 101.4C136.608 100.845 136.807 100.157 136.953 99.3281C137.006 99.0597 137.047 98.7972 137.082 98.5346C137.111 98.272 137.14 98.0153 137.164 97.7585C137.187 97.5018 137.216 97.2392 137.251 96.9767C137.286 96.7083 137.333 96.4515 137.386 96.189C137.538 95.6055 137.795 95.1387 138.152 94.7827C138.514 94.4326 139.04 94.2576 139.742 94.2576C140.344 94.2576 140.806 94.4326 141.122 94.7769C141.437 95.1212 141.66 95.5938 141.794 96.189C141.829 96.4632 141.858 96.7491 141.882 97.0467C141.905 97.3443 141.917 97.6419 141.928 97.9453C141.934 98.2487 141.94 98.5521 141.934 98.8614C141.928 99.1706 141.917 99.4799 141.899 99.7774C141.835 101.499 141.461 102.917 140.777 104.037C140.093 105.157 139.14 105.986 137.918 106.523C136.696 107.065 135.234 107.334 133.527 107.334H133.533Z" fill="black"/>
<path d="M150.032 106.908C149.383 106.908 148.757 106.884 148.155 106.838C147.553 106.791 146.991 106.715 146.477 106.616C145.962 106.517 145.512 106.394 145.132 106.243C144.688 106.073 144.325 105.875 144.039 105.636C143.753 105.402 143.612 105.064 143.612 104.615C143.612 104.107 143.753 103.716 144.039 103.43C144.325 103.144 144.741 103.004 145.29 103.004C145.629 103.004 145.998 103.051 146.395 103.138C146.793 103.226 147.237 103.319 147.722 103.413C148.208 103.506 148.74 103.553 149.313 103.553C149.774 103.553 150.207 103.518 150.605 103.453C151.002 103.389 151.324 103.267 151.563 103.103C151.803 102.94 151.926 102.707 151.926 102.409C151.926 102.111 151.844 101.896 151.68 101.726C151.517 101.551 151.213 101.4 150.774 101.259C150.336 101.119 149.704 100.979 148.886 100.828C147.863 100.641 146.997 100.384 146.278 100.057C145.565 99.7307 145.015 99.3106 144.641 98.7913C144.261 98.2778 144.074 97.6593 144.074 96.9416C144.074 96.294 144.261 95.7396 144.635 95.2728C145.01 94.8061 145.518 94.4268 146.167 94.135C146.816 93.8433 147.547 93.6274 148.36 93.4815C149.172 93.3357 150.026 93.2656 150.914 93.2656C151.493 93.2656 152.078 93.3006 152.674 93.3648C153.271 93.429 153.82 93.5399 154.329 93.6857C154.837 93.8316 155.247 94.0183 155.557 94.2459C155.866 94.4735 156.024 94.7477 156.024 95.0628C156.024 95.4596 155.931 95.7805 155.744 96.0197C155.557 96.259 155.317 96.4282 155.03 96.5332C154.744 96.6324 154.44 96.6849 154.13 96.6849C153.674 96.6849 153.212 96.6382 152.733 96.5507C152.253 96.4632 151.797 96.4165 151.359 96.4165C150.996 96.4165 150.663 96.4515 150.365 96.5157C150.067 96.5799 149.833 96.6907 149.657 96.8366C149.482 96.9825 149.394 97.1809 149.394 97.4259C149.394 97.7819 149.622 98.0561 150.078 98.2545C150.534 98.4529 151.248 98.6454 152.218 98.8205C153.142 98.9897 153.937 99.2348 154.609 99.5499C155.282 99.8708 155.796 100.285 156.165 100.799C156.527 101.312 156.708 101.96 156.708 102.742C156.708 103.459 156.539 104.078 156.2 104.597C155.861 105.116 155.393 105.548 154.785 105.887C154.183 106.231 153.475 106.482 152.668 106.645C151.862 106.809 150.979 106.89 150.032 106.89V106.908Z" fill="black"/>
<path d="M165.659 107.45C164.122 107.45 162.783 107.217 161.643 106.744C160.503 106.272 159.614 105.554 158.983 104.591C158.351 103.623 158.035 102.397 158.035 100.904C158.035 99.6783 158.246 98.6046 158.661 97.6769C159.076 96.7491 159.655 95.9731 160.386 95.3429C161.116 94.7127 161.97 94.2401 162.941 93.925C163.911 93.6099 164.94 93.4524 166.033 93.4524C166.782 93.4524 167.507 93.5224 168.208 93.6566C168.91 93.7966 169.541 94.0184 170.102 94.3218C170.664 94.6252 171.108 95.0278 171.435 95.518C171.763 96.0081 171.927 96.6091 171.927 97.3093C171.927 97.9278 171.804 98.4471 171.564 98.8672C171.324 99.2815 170.997 99.6258 170.582 99.8825C170.167 100.145 169.699 100.349 169.167 100.501C168.641 100.653 168.074 100.775 167.483 100.874C167.121 100.974 166.665 101.061 166.121 101.149C165.577 101.236 165.045 101.295 164.519 101.341C163.993 101.388 163.566 101.405 163.227 101.405C162.958 101.405 162.771 101.44 162.666 101.505C162.561 101.569 162.508 101.691 162.508 101.872C162.508 102.03 162.555 102.216 162.642 102.427C162.73 102.637 162.859 102.835 163.028 103.016C163.321 103.354 163.671 103.576 164.075 103.693C164.478 103.809 164.969 103.868 165.548 103.868C166.127 103.868 166.752 103.78 167.343 103.611C167.933 103.436 168.506 103.267 169.062 103.098C169.617 102.928 170.155 102.847 170.681 102.847C171.207 102.847 171.628 102.946 171.938 103.138C172.248 103.331 172.412 103.716 172.412 104.282C172.412 104.778 172.231 105.221 171.868 105.612C171.506 106.003 171.009 106.336 170.383 106.61C169.758 106.884 169.038 107.094 168.226 107.235C167.413 107.375 166.56 107.445 165.659 107.445V107.45ZM164.806 99.4449C165.32 99.4449 165.817 99.3865 166.296 99.2698C166.776 99.1531 167.173 98.9664 167.483 98.698C167.793 98.4296 167.951 98.0795 167.951 97.636C167.951 97.0934 167.752 96.7083 167.361 96.4691C166.963 96.2357 166.437 96.119 165.782 96.119C165.384 96.119 164.993 96.189 164.613 96.3232C164.233 96.4632 163.894 96.6499 163.595 96.8892C163.291 97.1284 163.052 97.4026 162.87 97.7119C162.689 98.0212 162.596 98.3537 162.596 98.7097C162.596 98.9314 162.672 99.0948 162.824 99.194C162.976 99.299 163.215 99.3632 163.543 99.3924C163.87 99.4215 164.291 99.439 164.811 99.439L164.806 99.4449Z" fill="black"/>
<path d="M132.077 77.5989C128.885 77.5989 126.634 77.0796 125.33 76.0409C124.027 75.0023 123.372 73.8061 123.372 72.4466C123.372 70.702 123.997 69.2199 125.243 68.0004C126.494 66.7809 128.061 65.859 129.949 65.2346C131.837 64.6103 133.726 64.301 135.608 64.301C136.994 64.301 138.274 64.5169 139.438 64.9429C140.601 65.3747 141.548 66.0573 142.268 67.0026C142.987 67.942 143.349 69.1615 143.349 70.6611C143.349 72.3532 142.829 73.7011 141.788 74.7106C140.747 75.72 139.368 76.4552 137.649 76.9103C135.93 77.3655 134.071 77.5989 132.071 77.5989H132.077Z" fill="black"/>
<path d="M165.349 77.5989C162.157 77.5989 159.906 77.0796 158.603 76.0409C157.299 75.0023 156.644 73.8061 156.644 72.4466C156.644 70.702 157.27 69.2199 158.515 68.0004C159.766 66.7809 161.333 65.859 163.221 65.2346C165.11 64.6103 166.998 64.301 168.881 64.301C170.266 64.301 171.547 64.5169 172.71 64.9429C173.873 65.3747 174.821 66.0573 175.54 67.0026C176.259 67.942 176.621 69.1615 176.621 70.6611C176.621 72.3532 176.101 73.7011 175.06 74.7106C174.02 75.72 172.64 76.4552 170.921 76.9103C169.202 77.3655 167.343 77.5989 165.343 77.5989H165.349Z" fill="black"/>
</svg>
