<svg width="173" height="117" viewBox="0 0 173 117" fill="none" xmlns="http://www.w3.org/2000/svg">
<path d="M16.8879 116.296C14.215 116.296 11.8391 115.857 9.76018 114.98C7.68125 114.102 5.91281 112.894 4.45486 111.348C2.9969 109.802 1.88994 108.007 1.13397 105.955C0.377993 103.903 0 101.737 0 99.4484V98.4696C0 96.4177 0.357739 94.413 1.06647 92.4488C1.78194 90.4846 2.82816 88.723 4.21186 87.1435C5.59557 85.5708 7.28976 84.3221 9.29444 83.3974C11.2991 82.4794 13.594 82.0137 16.1792 82.0137C18.9399 82.0137 21.4103 82.5402 23.577 83.5931C25.7436 84.6461 27.4851 86.104 28.7945 87.9602C30.104 89.8164 30.86 91.9628 31.0692 94.3995H25.6289C25.4534 92.7931 24.9067 91.4431 24.0022 90.3429C23.0977 89.2427 21.9638 88.4057 20.6138 87.8252C19.2639 87.2448 17.7857 86.9545 16.1792 86.9545C14.5728 86.9545 13.1081 87.2448 11.7919 87.8252C10.4689 88.4057 9.33495 89.2224 8.38323 90.2754C7.43151 91.3284 6.70253 92.5906 6.1963 94.062C5.69007 95.5335 5.44033 97.1737 5.44033 98.9894C5.44033 101.008 5.71707 102.796 6.2638 104.335C6.81053 105.881 7.5935 107.184 8.60596 108.237C9.61843 109.29 10.8266 110.093 12.2373 110.646C13.648 111.193 15.2005 111.47 16.8947 111.47C19.2436 111.47 21.3023 110.984 23.0707 110.018C24.8392 109.053 26.1689 107.798 27.0599 106.252L25.6762 111.47V102.418H30.671V109.904C29.213 111.922 27.3231 113.495 24.9877 114.608C22.6522 115.722 19.9591 116.282 16.9014 116.282L16.8879 116.296ZM15.7742 103.505V99.3133H33.3776V103.505H15.7742Z" fill="#9C1048"/>
<path d="M38.5952 115.493V82.9586H43.8128V102.168H42.7463C42.7463 99.7926 43.0501 97.7474 43.6575 96.0397C44.265 94.332 45.2032 93.0225 46.4655 92.1181C47.7277 91.2136 49.3274 90.7614 51.2578 90.7614H51.4805C54.3019 90.7614 56.4349 91.7131 57.8793 93.6165C59.317 95.52 60.0393 98.2536 60.0393 101.817V115.499H54.8217V101.062C54.8217 99.3403 54.3222 97.9769 53.33 96.9847C52.331 95.9924 51.0485 95.493 49.4758 95.493C47.7817 95.493 46.4182 96.0599 45.372 97.1872C44.3325 98.3144 43.8128 99.7993 43.8128 101.642V115.506H38.5952V115.493Z" fill="#9C1048"/>
<path d="M73.9843 116.12C72.2293 116.12 70.7039 115.816 69.3944 115.209C68.085 114.602 67.0793 113.711 66.3638 112.536C65.6483 111.362 65.2973 109.958 65.2973 108.324C65.2973 106.603 65.7023 105.172 66.5258 104.045C67.3425 102.918 68.5102 102.067 70.0222 101.507C71.5341 100.947 73.3498 100.663 75.4625 100.663H81.4765V104.092H75.3275C73.7548 104.092 72.5466 104.47 71.7164 105.226C70.8861 105.982 70.4676 106.974 70.4676 108.189C70.4676 109.404 70.8861 110.383 71.7164 111.112C72.5466 111.841 73.748 112.205 75.3275 112.205C76.2455 112.205 77.1229 112.037 77.9599 111.692C78.7901 111.348 79.4853 110.781 80.0321 109.978C80.5788 109.175 80.8825 108.048 80.9433 106.59L82.2798 108.331C82.1313 110.025 81.7195 111.443 81.0513 112.59C80.3831 113.738 79.4583 114.608 78.2906 115.223C77.1162 115.83 75.6852 116.134 73.991 116.134L73.9843 116.12ZM81.7803 115.493V108.318H80.9366V100.204C80.9366 98.7193 80.5518 97.5921 79.7756 96.8159C78.9994 96.0464 77.8586 95.6549 76.3467 95.6549C75.5165 95.6549 74.5918 95.6684 73.586 95.7022C72.5736 95.7292 71.5881 95.7697 70.6229 95.8169C69.6577 95.8642 68.8004 95.9114 68.058 95.9722V91.4701C68.7127 91.4093 69.4349 91.3553 70.2179 91.3148C71.0076 91.2676 71.8244 91.2338 72.6681 91.2001C73.5118 91.1731 74.3218 91.1528 75.098 91.1528C77.5347 91.1528 79.5528 91.4633 81.1593 92.091C82.7657 92.712 83.9605 93.7042 84.7502 95.0542C85.5399 96.4042 85.9314 98.2131 85.9314 100.468V115.486H81.787L81.7803 115.493Z" fill="#9C1048"/>
<path d="M91.6282 115.492V110.633L104.109 95.7021V96.4176L103.265 95.2566L103.933 95.5671H91.5404V91.4633H109.232V96.3231L96.7513 111.254V110.633L97.6422 111.834L96.974 111.389H109.812V115.492H91.6282Z" fill="#9C1048"/>
<path d="M121.847 116.12C120.092 116.12 118.567 115.816 117.257 115.209C115.948 114.602 114.942 113.711 114.226 112.536C113.511 111.362 113.16 109.958 113.16 108.324C113.16 106.603 113.565 105.172 114.388 104.045C115.205 102.918 116.373 102.067 117.885 101.507C119.397 100.947 121.212 100.663 123.325 100.663H129.339V104.092H123.19C121.617 104.092 120.409 104.47 119.579 105.226C118.749 105.982 118.33 106.974 118.33 108.189C118.33 109.404 118.749 110.383 119.579 111.112C120.409 111.841 121.611 112.205 123.19 112.205C124.108 112.205 124.986 112.037 125.823 111.692C126.653 111.348 127.348 110.781 127.895 109.978C128.441 109.175 128.752 108.048 128.806 106.59L130.142 108.331C129.994 110.025 129.582 111.443 128.914 112.59C128.246 113.738 127.321 114.608 126.153 115.223C124.979 115.83 123.548 116.134 121.854 116.134L121.847 116.12ZM129.65 115.493V108.318H128.806V100.204C128.806 98.7193 128.421 97.5921 127.645 96.8159C126.869 96.0464 125.728 95.6549 124.216 95.6549C123.386 95.6549 122.461 95.6684 121.455 95.7022C120.443 95.7292 119.458 95.7697 118.492 95.8169C117.527 95.8642 116.67 95.9114 115.927 95.9722V91.4701C116.582 91.4093 117.304 91.3553 118.087 91.3148C118.877 91.2676 119.694 91.2338 120.537 91.2001C121.381 91.1731 122.191 91.1528 122.967 91.1528C125.404 91.1528 127.422 91.4633 129.029 92.091C130.635 92.712 131.83 93.7042 132.62 95.0542C133.409 96.4042 133.801 98.2131 133.801 100.468V115.486H129.656L129.65 115.493Z" fill="#9C1048"/>
<path d="M138.161 86.968V82.9586H146.585V86.968H138.161ZM141.327 115.493V82.9586H146.585V115.493H141.327Z" fill="#9C1048"/>
<path d="M160.935 116.12C159.18 116.12 157.654 115.816 156.345 115.209C155.036 114.602 154.03 113.711 153.314 112.536C152.599 111.362 152.248 109.958 152.248 108.324C152.248 106.603 152.653 105.172 153.476 104.045C154.293 102.918 155.461 102.067 156.973 101.507C158.485 100.947 160.3 100.663 162.413 100.663H168.427V104.092H162.278C160.705 104.092 159.497 104.47 158.667 105.226C157.837 105.982 157.418 106.974 157.418 108.189C157.418 109.404 157.837 110.383 158.667 111.112C159.497 111.841 160.699 112.205 162.278 112.205C163.196 112.205 164.074 112.037 164.91 111.692C165.741 111.348 166.436 110.781 166.983 109.978C167.529 109.175 167.84 108.048 167.894 106.59L169.23 108.331C169.082 110.025 168.67 111.443 168.002 112.59C167.334 113.738 166.409 114.608 165.241 115.223C164.067 115.83 162.636 116.134 160.942 116.134L160.935 116.12ZM168.738 115.493V108.318H167.894V100.204C167.894 98.7193 167.509 97.5921 166.733 96.8159C165.957 96.0464 164.816 95.6549 163.304 95.6549C162.474 95.6549 161.549 95.6684 160.543 95.7022C159.531 95.7292 158.545 95.7697 157.58 95.8169C156.615 95.8642 155.758 95.9114 155.015 95.9722V91.4701C155.67 91.4093 156.392 91.3553 157.175 91.3148C157.965 91.2676 158.782 91.2338 159.625 91.2001C160.469 91.1731 161.279 91.1528 162.055 91.1528C164.492 91.1528 166.51 91.4633 168.117 92.091C169.723 92.712 170.918 93.7042 171.708 95.0542C172.497 96.4042 172.889 98.2131 172.889 100.468V115.486H168.744L168.738 115.493Z" fill="#9C1048"/>
<path d="M124.587 72.2939C121.806 72.2939 119.552 70.0328 119.552 67.2586C119.552 64.4845 121.813 62.2233 124.587 62.2233C127.361 62.2233 129.623 64.4845 129.623 67.2586C129.623 70.0328 127.361 72.2939 124.587 72.2939ZM124.587 62.8915C122.184 62.8915 120.227 64.8489 120.227 67.2519C120.227 69.6548 122.184 71.6122 124.587 71.6122C126.99 71.6122 128.948 69.6548 128.948 67.2519C128.948 64.8489 126.99 62.8915 124.587 62.8915Z" fill="#9C1048"/>
<path d="M123.102 69.8033V64.7072H123.784V69.8033H123.102ZM123.528 67.9674V67.3599H124.891C125.1 67.3599 125.289 67.3126 125.438 67.2249C125.593 67.1371 125.708 67.0157 125.796 66.8604C125.877 66.7052 125.924 66.5297 125.924 66.3272C125.924 66.1247 125.883 65.9492 125.796 65.7939C125.715 65.6387 125.593 65.5172 125.438 65.4227C125.283 65.335 125.1 65.2877 124.891 65.2877H123.528V64.6937H124.763C125.134 64.6937 125.458 64.7477 125.735 64.8625C126.012 64.9705 126.228 65.146 126.383 65.3755C126.538 65.605 126.612 65.9087 126.612 66.2732V66.3812C126.612 66.7457 126.538 67.0427 126.376 67.2789C126.221 67.5084 126.005 67.6839 125.728 67.7919C125.451 67.8999 125.127 67.9606 124.756 67.9606H123.521L123.528 67.9674ZM126.234 69.8033L124.554 67.5489H125.35L127.058 69.8033H126.227H126.234Z" fill="#9C1048"/>
<path d="M62.9551 0.989356L60.2215 0.179395C57.9603 -0.495582 55.5844 0.793625 54.9094 3.04805L54.0454 5.94371C53.8835 6.48369 53.6945 7.37465 53.6337 7.93488C52.736 16.0009 57.6971 23.8036 65.7563 26.1998L94.6791 34.799L101.53 36.8442L102.374 34.0025C103.049 31.7413 101.76 29.3654 99.4984 28.6904L67.8217 19.2678C62.6582 17.7356 59.6815 12.329 61.126 7.15866L62.9619 0.98262L62.9551 0.989356Z" fill="#9C1048"/>
<path d="M93.8759 34.5694L95.9346 27.6374L88.8608 25.5315C83.6972 23.9993 80.7206 18.5927 82.165 13.4224L84.001 7.24633L81.2673 6.43635C79.0061 5.76138 76.6302 7.05058 75.9552 9.30501L75.0913 12.2007C74.9293 12.7406 74.7403 13.6316 74.6795 14.1918C73.7818 22.2578 78.7429 30.0606 86.8021 32.4567" fill="#9C1048"/>
<path d="M110.548 50.0198V54.1709C110.548 60.8127 105.168 66.1923 98.5265 66.1923H74.3555C67.7205 66.1923 62.3409 60.8127 62.3409 54.1777V48.8656C62.3409 42.2306 67.7205 36.851 74.3555 36.851H101.523V33.2534C101.523 30.3847 99.1947 28.056 96.326 28.056H74.3555C69.5362 28.056 65.0948 29.6962 61.5647 32.4569C59.9583 33.7056 58.5408 35.1905 57.3596 36.851C54.9567 40.2461 53.5392 44.3972 53.5392 48.8723V54.1777C53.5392 65.6725 62.8607 74.994 74.3555 74.994H98.5265C110.021 74.994 119.343 65.6725 119.343 54.1777V50.0266H110.548V50.0198Z" fill="#9C1048"/>
<path d="M97.9257 44.1002H119.343V52.8952H92.7284V49.3043C92.7284 46.4356 95.0571 44.107 97.9257 44.107V44.1002Z" fill="#9C1048"/>
<path d="M101.517 44.1002V56.891H92.7217V49.3043C92.7217 46.4356 95.0503 44.107 97.919 44.107H101.51L101.517 44.1002Z" fill="#9C1048"/>
</svg>
