<?xml version="1.0" encoding="UTF-8"?>
<svg xmlns="http://www.w3.org/2000/svg" version="1.1" viewBox="0 0 166.7 74.1">
  <defs>
    <style>
      .cls-1 {
        fill: #0d3760;
      }

      .cls-2 {
        fill: #fb0;
      }
    </style>
  </defs>
  <!-- Generator: Adobe Illustrator 28.7.0, SVG Export Plug-In . SVG Version: 1.2.0 Build 4)  -->
  <g>
    <g id="Layer_1">
      <g>
        <g>
          <g>
            <rect class="cls-1" x="35.5" y="30.4" width="9.3" height="43.7"/>
            <path class="cls-1" d="M121.8,52c-12.4,0-22.4-10-22.4-22.4s10-22.4,22.4-22.4,22.4,10,22.4,22.4-10,22.4-22.4,22.4ZM121.8,16.5c-7.2,0-13.1,5.9-13.1,13.1s5.9,13.1,13.1,13.1,13.1-5.9,13.1-13.1-5.9-13.1-13.1-13.1Z"/>
            <path class="cls-1" d="M141.4,52c-12.4,0-22.4-10-22.4-22.4s10-22.4,22.4-22.4v9.3c-7.2,0-13.1,5.9-13.1,13.1s5.9,13.1,13.1,13.1v9.3Z"/>
            <g>
              <circle class="cls-1" cx="88.1" cy="27.4" r="4.7"/>
              <circle class="cls-1" cx="88.1" cy="16.5" r="4.7"/>
            </g>
            <rect class="cls-1" x="92.7" y="42.7" width="29.1" height="9.3"/>
            <rect class="cls-1" x="35.5" y="42.7" width="47.9" height="9.3"/>
            <path class="cls-1" d="M83.4,35.5v7.2c0,5.2,4.2,9.3,9.3,9.3h0v-16.5h-9.3Z"/>
            <g>
              <path class="cls-1" d="M54.3,7.2c12.4,0,22.4,10,22.4,22.4s-10,22.4-22.4,22.4v-9.3c7.2,0,13.1-5.9,13.1-13.1s-5.9-13.1-13.1-13.1V7.2Z"/>
              <rect class="cls-1" x="48.1" y="7.2" width="6.2" height="9.3"/>
            </g>
            <path class="cls-1" d="M22.4,52C10,52,0,41.9,0,29.6S10,7.2,22.4,7.2s22.4,10,22.4,22.4-10,22.4-22.4,22.4ZM22.4,16.5c-7.2,0-13.1,5.9-13.1,13.1s5.9,13.1,13.1,13.1,13.1-5.9,13.1-13.1-5.9-13.1-13.1-13.1Z"/>
            <circle class="cls-2" cx="22.4" cy="29.6" r="13.1"/>
            <circle class="cls-1" cx="22.5" cy="29.6" r="4.7"/>
            <rect class="cls-1" x="17.8" y="37.7" width="9.3" height="36.4"/>
          </g>
          <circle class="cls-1" cx="59.6" cy="60.1" r="4.7"/>
        </g>
        <path class="cls-2" d="M144.3,7.2c12.4,0,22.4,10,22.4,22.4s-10,22.4-22.4,22.4v-9.3c7.2,0,13.1-5.9,13.1-13.1s-5.9-13.1-13.1-13.1V7.2Z"/>
        <g>
          <polygon class="cls-2" points="164.7 8.6 155 12.1 153.9 1.8 164.7 8.6"/>
          <polygon class="cls-2" points="156.2 0 165.4 5.8 164.7 8.6 153.9 1.8 156.2 0"/>
        </g>
      </g>
    </g>
  </g>
</svg>