<svg width="183" height="76" viewBox="0 0 183 76" fill="none" xmlns="http://www.w3.org/2000/svg">
<g clip-path="url(#clip0_119_53)">
<path d="M0 35.318C9.7601 35.318 17.6712 27.4124 17.6712 17.659C17.6712 7.90562 9.7601 0 0 0V35.318Z" fill="#0079E3"/>
<path d="M49.5027 48.2562V51.9401H31.6911V51.8699C31.6911 48.0418 28.5859 44.9349 24.7513 44.9349C20.9167 44.9349 17.8155 48.0379 17.8155 51.8699V51.9401H0V27.771H29.0033C40.3238 27.771 49.4988 36.9474 49.4988 48.2601L49.5027 48.2562Z" fill="#0079E3"/>
<path d="M20.6827 22.9021C25.7227 25.6815 32.0617 23.8494 34.8392 18.8128C37.6205 13.7763 35.7871 7.44168 30.7471 4.66614L20.6788 22.9021H20.6827Z" fill="#0079E3"/>
<path d="M71.0826 0.183228H53.2671V52.1194H71.0826V0.183228Z" fill="#0079E3"/>
<path d="M156.833 0C142.38 0 130.665 11.7064 130.665 26.1494C130.665 40.5923 142.38 52.2987 156.833 52.2987C171.286 52.2987 183 40.5923 183 26.1494C183 11.7064 171.282 0 156.833 0ZM156.833 34.936C151.976 34.936 148.04 31.0066 148.04 26.1494C148.04 21.2922 151.972 17.3627 156.833 17.3627C161.693 17.3627 165.625 21.3 165.625 26.1494C165.625 30.9988 161.685 34.936 156.833 34.936Z" fill="#0079E3"/>
<path d="M106.128 23.5453H100.936V23.5492H106.128V23.5453Z" fill="#0079E3"/>
<path d="M109.163 28.7456H126.979V52.2988H100.874C85.789 52.2598 73.7078 39.4736 74.8469 24.1457C75.8026 11.2776 86.2454 0.927818 99.1262 0.0624101C113.501 -0.904352 125.61 9.74952 126.979 23.5532H106.132V23.5493C103.265 23.5493 100.94 25.8726 100.94 28.7378V29.3927C100.94 32.2579 103.265 34.5813 106.132 34.5813H109.167V28.7495L109.163 28.7456Z" fill="#0079E3"/>
<path d="M106.128 23.5453H100.936V23.5492H106.128V23.5453Z" fill="#0079E3"/>
<path d="M52.2099 60.2356L46.5652 66.1141L46.733 60.2356H42.7619L42.321 75.6726H46.2922L46.4287 70.9401V70.9518L48.66 68.6324L51.9212 75.6726H56.0445L51.4492 65.7321L56.731 60.2356H52.2099Z" fill="#0079E3"/>
<path d="M61.8022 64.6444H57.8311V75.6686H61.8022V64.6444Z" fill="#0079E3"/>
<path d="M59.8206 59.5299C58.5645 59.5299 57.7258 60.368 57.7258 61.6233C57.7258 62.8785 58.5645 63.7166 59.8206 63.7166C61.0767 63.7166 61.9154 62.8785 61.9154 61.6233C61.9154 60.368 61.0767 59.5299 59.8206 59.5299Z" fill="#0079E3"/>
<path d="M70.4818 66.5429C69.8264 65.1434 68.7498 64.317 67.3883 64.317C65.0946 64.317 63.5693 66.6559 63.5693 70.1604C63.5693 73.665 65.0907 76.0039 67.3883 76.0039C68.2894 76.0039 69.0696 75.6375 69.6821 74.9865L69.6158 75.6725H73.5869L75.1551 59.1362H71.1839L70.4818 66.5429Z" fill="#0079E3"/>
<path d="M82.1729 68.5934C80.5384 68.11 80.3434 67.8449 80.3434 67.5993C80.3434 67.4005 80.5189 67.2446 81.1391 67.2446C82.0208 67.2446 83.6123 67.5525 84.5134 67.8176L85.5277 65.1512C84.3808 64.6445 82.9453 64.3131 81.1352 64.3131C78.6621 64.3131 76.6102 65.0616 76.6102 67.7085C76.6102 69.4939 77.7141 70.4645 79.8557 71.326C81.1782 71.8562 82.2626 72.0082 82.2626 72.4059C82.2626 72.6709 81.9544 72.8697 81.1157 72.8697C79.7933 72.8697 78.9741 72.628 77.1212 71.8562L76.4814 75.1619C76.4814 75.1619 78.2486 76 81.2913 76C84.334 76 85.8593 74.4563 85.8593 72.1642C85.8593 69.6069 83.6084 69.0105 82.1729 68.5934Z" fill="#0079E3"/>
<path d="M110.79 60.2356L108.29 68.5622L105.672 60.2356H101.303L98.8025 68.5622L96.185 60.2356H91.8159L96.6687 75.6726H101.038L103.538 67.3421L106.156 75.6726H110.525L115.159 60.2356H110.79Z" fill="#0079E3"/>
<path d="M120.765 72.5852C119.243 72.5852 118.206 71.6145 118.206 70.1605H124.935L125.11 68.7727C125.465 65.9933 123.082 64.317 120.035 64.317C116.528 64.317 114.164 66.656 114.164 70.1605C114.164 73.665 116.524 76.0039 120.429 76.0039C122.746 76.0039 124.002 75.388 125.68 74.6162L123.87 71.6379C122.282 72.3201 121.596 72.5852 120.757 72.5852H120.765Z" fill="#0079E3"/>
<path d="M132.109 64.3131C129.858 64.3131 128.488 64.929 127.583 65.3266L128.332 68.3244C129.877 67.7085 130.739 67.4863 131.754 67.4863C132.46 67.4863 133.782 67.6617 133.696 69.4471L133.63 70.7101C132.998 69.7823 131.855 69.2288 130.388 69.2288C128.094 69.2288 126.569 70.5737 126.569 72.6008C126.569 74.6278 128.091 75.9961 130.388 75.9961C131.703 75.9961 132.752 75.5556 133.415 74.7916L133.369 75.6648H137.34L137.671 69.3574C137.87 65.5644 136.216 64.3092 132.112 64.3092L132.109 64.3131Z" fill="#0079E3"/>
<path d="M146.581 64.3131C145.504 64.3131 144.264 64.7107 143.585 65.6346L143.624 64.6445H139.653L139.235 75.6687H143.207L143.499 67.993C144.045 67.2563 144.829 66.8041 145.567 66.8041C146.889 66.8041 147.334 67.3537 147.927 68.0398L149.14 64.929C148.676 64.6406 148.036 64.3131 146.581 64.3131Z" fill="#0079E3"/>
</g>
<defs>
<clipPath id="clip0_119_53">
<rect width="183" height="76" fill="white"/>
</clipPath>
</defs>
</svg>
