<svg width="179" height="143" viewBox="0 0 179 143" fill="none" xmlns="http://www.w3.org/2000/svg">
<g clip-path="url(#clip0_23_1797)">
<path d="M58.326 70.6497C58.3845 67.8347 60.778 65.0123 60.778 65.0123L87.6921 37.9324L60.5328 10.918C59.4861 9.96022 58.1137 9.39211 56.6498 9.45038C54.3331 9.54506 52.3312 10.8415 51.3687 12.7389C52.3312 12.0761 53.4877 11.6791 54.743 11.6099C54.743 11.6099 57.0743 11.599 58.465 12.9829L83.5236 37.9324L59.7533 61.9023C55.292 66.6147 58.3296 70.6497 58.3296 70.6497H58.326Z" fill="url(#paint0_linear_23_1797)"/>
<path d="M89.4817 36.1479L116.678 9.12985V9.12257C117.64 8.08103 118.211 6.71538 118.152 5.25869C118.057 2.95347 116.754 0.961438 114.848 0.00366211C115.514 0.961438 115.913 2.11223 115.982 3.36134C115.982 3.43782 115.989 3.51429 115.989 3.59805C115.989 4.86902 115.47 6.089 114.602 7.06499C114.43 7.25071 114.255 7.42916 114.064 7.60032L89.4817 31.9999L65.4296 8.33959C60.6938 3.88939 56.6388 6.92296 56.6388 6.92296C59.4751 6.97394 62.3115 9.36292 62.3115 9.36292L89.4817 36.1442V36.1479Z" fill="url(#paint1_linear_23_1797)"/>
<path d="M118.101 64.608L118.46 64.9649H118.467C119.514 65.9227 120.886 66.4908 122.35 66.4325C124.667 66.3378 126.669 65.0414 127.631 63.144C126.669 63.8068 125.512 64.2038 124.257 64.273C124.18 64.273 124.103 64.2802 124.019 64.2802C122.742 64.2802 121.516 63.7631 120.535 62.9L95.4874 37.9396L119.258 13.9806C123.719 9.2682 120.67 5.23315 120.67 5.23315C120.619 8.04822 118.218 10.8706 118.218 10.8706L91.3043 37.9396L118.101 64.6116V64.608Z" fill="url(#paint2_linear_23_1797)"/>
<path d="M93.6831 89.2333V48.0198L113.596 67.5504C118.335 71.9934 122.387 68.9598 122.387 68.9598C119.587 69.0982 116.725 66.5162 116.725 66.5162L89.4853 39.7349L62.359 66.7602C61.3929 67.809 60.8256 69.1674 60.8805 70.6313C60.9793 72.9329 62.2822 74.9249 64.1853 75.8864C63.5192 74.9249 63.1203 73.7705 63.0581 72.525C63.0581 72.4449 63.0507 72.3757 63.0507 72.2883C63.0507 71.0174 63.5631 69.7937 64.4341 68.8214L85.24 48.0125L85.4889 87.631C85.6755 94.1023 90.7004 94.8088 90.7004 94.8088C88.7314 92.7804 88.4313 89.1022 88.4313 89.1022L88.2191 45.1356L89.4853 43.8937L90.7516 45.1356V89.2333C90.8138 90.6427 91.3811 92.012 92.4608 92.9989C94.1626 94.5685 96.5012 95.0528 98.5323 94.3937C96.3291 93.7928 95.1726 92.6565 95.1726 92.6565C94.2687 91.757 93.7636 90.5225 93.6831 89.226V89.2333Z" fill="url(#paint3_linear_23_1797)"/>
<path d="M22.6211 123.123C21.7721 124.704 20.7839 125.764 19.6567 126.303C18.5295 126.842 17.1095 127.107 15.3967 127.107H10.5329C9.80823 127.107 9.35808 127.016 9.18973 126.831C9.00308 126.645 8.84205 125.931 8.70298 124.689C8.54927 123.506 8.47241 122.162 8.47241 120.658V110.636C8.47241 108.793 8.71762 107.402 9.21169 106.466C9.70576 105.559 10.5475 104.955 11.7369 104.645V104.234C11.6674 104.241 11.1111 104.27 10.0717 104.325C8.77617 104.416 7.60138 104.478 6.55103 104.51V128.794H17.2705C18.7052 128.794 20.0483 128.885 21.3 129.07C21.4061 128.455 21.655 127.643 22.0429 126.627C22.6285 125.028 22.9761 123.863 23.0859 123.123H22.6248H22.6211Z" fill="url(#paint4_linear_23_1797)"/>
<path d="M0 104.645C0.724637 104.813 1.40536 105.282 2.0385 106.051C2.657 106.805 2.96442 108.356 2.96442 110.705V121.718C2.96442 123.914 2.75582 125.512 2.3386 126.51C1.92139 127.493 1.14185 128.207 0 128.651V129.067C1.42 128.881 2.56917 128.79 3.45118 128.79H4.88581V104.507L0 104.23V104.645Z" fill="url(#paint5_linear_23_1797)"/>
<path d="M42.0473 128.651V129.067C44.148 128.914 45.9449 128.823 47.4418 128.79L35.7488 104.507C35.3462 104.507 34.4825 104.459 33.154 104.368C31.8877 104.277 30.8922 104.23 30.1676 104.23H29.3588V104.645C30.7312 104.707 31.9316 105.06 32.96 105.705C33.9848 106.349 34.7936 107.264 35.3791 108.447L27.6936 123.331C26.3029 126.018 24.7621 127.792 23.064 128.651V129.067C23.2799 129.067 23.7191 129.027 24.3851 128.95C25.3586 128.841 26.1748 128.79 26.8409 128.79C27.5655 128.79 28.3853 128.844 29.2966 128.95C29.9444 129.027 30.4018 129.067 30.6617 129.067V128.651C29.3661 128.16 28.7183 127.33 28.7183 126.164C28.7183 125.487 28.8794 124.828 29.2051 124.183C29.421 123.753 29.5381 123.531 29.5528 123.517L29.6699 123.218L31.8694 118.932H40.598L42.6584 123.218C43.4307 124.799 43.8149 125.982 43.8149 126.765C43.8149 127.825 43.2294 128.455 42.0546 128.655L42.0473 128.651ZM32.7624 117.202L36.3966 110.199L39.7526 117.202H32.7587H32.7624Z" fill="url(#paint6_linear_23_1797)"/>
<path d="M47.859 121.557L42.4169 110.337C42.3546 110.152 42.2851 109.991 42.2083 109.853C42.1314 109.609 41.7837 108.833 41.1652 107.526C40.6089 106.313 40.1771 105.308 39.8697 104.507H37.6006L49.2936 128.79C50.2817 128.79 51.8262 128.881 53.9232 129.067V128.652C51.7786 127.821 49.7547 125.458 47.8553 121.554L47.859 121.557Z" fill="url(#paint7_linear_23_1797)"/>
<path d="M77.1482 127.202C76.5297 126.448 76.2223 124.992 76.2223 122.825V117.227H87.9849V122.089C87.9849 124.547 87.6847 126.204 87.0809 127.067C86.4807 127.927 85.7085 128.458 84.7642 128.659V129.074C87.4798 128.906 89.1779 128.812 89.8587 128.797V104.514C88.1312 104.514 86.4331 104.423 84.7642 104.237V104.652C85.8585 104.929 86.6783 105.552 87.22 106.517C87.7287 107.5 87.9849 108.953 87.9849 110.873V115.272H76.2223V111.422C76.2223 109.117 76.4529 107.497 76.9177 106.561C77.3825 105.625 78.2206 104.987 79.4429 104.649V104.234C77.3898 104.419 75.6843 104.51 74.3265 104.51V128.794C75.8234 128.823 77.5289 128.917 79.4429 129.07V128.655C78.5463 128.44 77.785 127.956 77.1519 127.202H77.1482Z" fill="url(#paint8_linear_23_1797)"/>
<path d="M91.5714 128.79C91.9886 128.79 93.6611 128.881 96.5963 129.067V128.652C94.5139 128.207 93.4708 126.263 93.4708 122.821V112.406L93.5404 110.217C93.6172 107.053 94.6346 105.195 96.5963 104.642V104.227C94.9128 104.412 93.2403 104.503 91.5714 104.503V128.786V128.79Z" fill="url(#paint9_linear_23_1797)"/>
<path d="M70.5277 125.403C70.374 126.186 70.0483 126.871 69.5542 127.453C69.0309 128.054 68.3977 128.451 67.6548 128.651V129.067L72.6101 128.79V104.507C70.2642 104.445 68.6136 104.354 67.6548 104.23V104.645C68.5661 104.845 69.3053 105.352 69.8763 106.167C70.4618 106.983 70.7546 108.516 70.7546 110.774V121.393C70.7546 123.298 70.6778 124.635 70.5241 125.403H70.5277Z" fill="url(#paint10_linear_23_1797)"/>
<path d="M105.372 123.513L105.49 123.214L107.689 118.928H116.418L118.478 123.214C119.25 124.795 119.635 125.978 119.635 126.761C119.635 127.821 119.049 128.451 117.874 128.651V129.067C119.975 128.914 121.772 128.823 123.269 128.79L111.576 104.507C111.173 104.507 110.31 104.459 108.981 104.368C107.715 104.277 106.719 104.23 105.995 104.23H105.186V104.645C106.558 104.707 107.759 105.06 108.787 105.705C109.812 106.349 110.621 107.264 111.206 108.447L103.521 123.331C102.13 126.018 100.589 127.792 98.891 128.651V129.067C99.1069 129.067 99.5461 129.027 100.212 128.95C101.186 128.841 102.002 128.79 102.668 128.79C103.393 128.79 104.212 128.844 105.124 128.95C105.771 129.027 106.225 129.067 106.489 129.067V128.651C105.193 128.16 104.545 127.33 104.545 126.164C104.545 125.487 104.706 124.828 105.032 124.183C105.248 123.753 105.365 123.531 105.38 123.517L105.372 123.513ZM112.227 110.199L115.583 117.202H108.589L112.224 110.199H112.227Z" fill="url(#paint11_linear_23_1797)"/>
<path d="M129.754 128.652C127.609 127.821 125.585 125.458 123.686 121.554L118.244 110.334C118.182 110.148 118.112 109.988 118.035 109.849C117.958 109.605 117.611 108.83 116.992 107.522C116.436 106.309 116.004 105.304 115.697 104.503H113.428L125.121 128.786C126.109 128.786 127.653 128.877 129.75 129.063V128.648L129.754 128.652Z" fill="url(#paint12_linear_23_1797)"/>
<path d="M142.651 122.661V116.809L149.389 108.975C149.557 108.79 149.667 108.651 149.714 108.56C150.611 107.486 151.405 106.648 152.101 106.047C152.825 105.45 153.766 104.98 154.926 104.642V104.227C152.47 104.412 151.112 104.503 150.849 104.503C150.37 104.503 149.813 104.474 149.184 104.412C147.672 104.288 146.728 104.227 146.358 104.227V104.642C147.423 104.886 147.958 105.541 147.958 106.601C147.958 107.537 147.449 108.597 146.432 109.78L141.846 115.101L136.96 110.01C135.108 108.09 134.182 106.732 134.182 105.931C134.182 105.33 134.636 104.904 135.547 104.642V104.227C133.586 104.412 131.69 104.503 129.853 104.503H129.205L140.781 116.506V128.786H141.615C141.707 128.786 143.167 128.877 145.992 129.063V128.648C143.771 128.204 142.658 126.204 142.658 122.657L142.651 122.661Z" fill="url(#paint13_linear_23_1797)"/>
<path d="M136.192 127.133C135.606 127.916 134.801 128.422 133.783 128.652V129.067C135.544 128.881 137.095 128.79 138.439 128.79H138.995V117.177L126.976 104.503H126.237C124.74 104.503 123.349 104.412 122.068 104.227V104.642C124.337 105.257 126.877 107.031 129.684 109.962L137.048 117.705V122.748C137.048 124.915 136.762 126.372 136.192 127.126V127.133Z" fill="url(#paint14_linear_23_1797)"/>
<path d="M178.539 123.513C177.551 125.05 176.548 126.04 175.531 126.485C174.557 126.914 173.115 127.129 171.201 127.129H167.68C166.941 127.129 166.246 127.082 165.598 126.991C165.382 125.53 165.272 123.833 165.272 121.9V116.878H171.084C172.566 116.878 173.653 117.133 174.348 117.639C175.029 118.145 175.435 119.074 175.574 120.425H176.083C176.036 119.518 175.999 118.913 175.966 118.604C175.875 117.559 175.827 116.714 175.827 116.069C175.827 115.057 175.889 113.859 176.014 112.475H175.505C175.135 113.688 174.641 114.456 174.023 114.78C173.404 115.104 172.156 115.264 170.271 115.264H165.272V111.51L165.32 109.944C165.367 107.977 165.528 106.735 165.806 106.211C166.301 106.135 166.842 106.095 167.428 106.095H171.11C173.071 106.095 174.403 106.28 175.117 106.648C175.827 107.03 176.46 107.886 177.016 109.205H177.412V108.629C177.412 108.567 177.39 108.159 177.342 107.409C177.265 106.288 177.225 105.574 177.225 105.268C177.225 105.038 177.24 104.692 177.273 104.23C173.752 104.416 171.362 104.507 170.096 104.507H163.358V128.79H172.621C174.012 128.79 175.585 128.881 177.346 129.067C177.532 128.193 177.833 127.155 178.25 125.957C178.59 125.035 178.843 124.219 179.015 123.513H178.55H178.539Z" fill="url(#paint15_linear_23_1797)"/>
<path d="M156.727 104.23V104.645C157.561 104.831 158.278 105.337 158.879 106.167C159.482 106.998 159.782 108.524 159.782 110.752V120.407C159.782 122.989 159.698 124.678 159.526 125.476C159.373 126.23 159.072 126.896 158.622 127.479C158.19 128.047 157.557 128.44 156.723 128.655V129.07C158.469 128.885 159.61 128.793 160.148 128.793H161.678V104.51H160.913C159.061 104.387 157.663 104.296 156.723 104.234L156.727 104.23Z" fill="url(#paint16_linear_23_1797)"/>
<path d="M22.3393 135.188V135.407C22.7346 135.447 22.9944 135.513 23.1188 135.604C23.2799 135.727 23.364 135.968 23.364 136.332V141.729C23.364 142.082 23.2762 142.323 23.0969 142.446C22.9505 142.548 22.698 142.599 22.343 142.607V142.836H25.6075V142.607C25.2195 142.592 24.956 142.527 24.817 142.41C24.6376 142.272 24.5498 142.017 24.5498 141.649L24.5608 139.049L26.4419 139.085C26.8225 139.092 27.0897 139.187 27.2434 139.362C27.3678 139.508 27.452 139.777 27.4996 140.17H27.7887V137.49H27.4996C27.4301 137.923 27.3056 138.215 27.1263 138.368C26.947 138.521 26.6469 138.601 26.2223 138.601L24.5608 138.59V135.91C24.5608 135.724 24.7145 135.633 25.0256 135.633L26.7676 135.644C27.302 135.644 27.6533 135.72 27.8253 135.877C27.9571 136.001 28.1035 136.325 28.2681 136.849H28.5719L28.5243 135.196H22.343L22.3393 135.188Z" fill="url(#paint17_linear_23_1797)"/>
<path d="M35.478 135.028C34.3544 135.028 33.4395 135.422 32.7368 136.208C32.0634 136.962 31.7267 137.909 31.7267 139.042C31.7267 140.174 32.0707 141.121 32.7624 141.86C33.4651 142.625 34.3837 143.004 35.5146 143.004C36.6454 143.004 37.5897 142.621 38.3033 141.86C38.984 141.121 39.3244 140.174 39.3244 139.016C39.3244 137.858 38.9804 136.9 38.2887 136.161C37.575 135.407 36.6381 135.028 35.478 135.028ZM37.4762 141.394C37.0443 142.188 36.3929 142.585 35.5255 142.585C34.6582 142.585 33.9994 142.177 33.5749 141.361C33.2345 140.731 33.0625 139.934 33.0625 138.969C33.0625 138.004 33.2382 137.264 33.5859 136.634C34.0177 135.848 34.6618 135.454 35.5146 135.454C36.3673 135.454 37.0443 135.851 37.4762 136.645C37.8166 137.279 37.9886 138.073 37.9886 139.027C37.9886 139.981 37.8166 140.757 37.4762 141.398V141.394Z" fill="url(#paint18_linear_23_1797)"/>
<path d="M49.2058 141.558L47.2441 139.154C48.6312 138.863 49.3229 138.153 49.3229 137.028C49.3229 136.412 49.0045 135.935 48.3713 135.593C47.859 135.323 47.2661 135.188 46.5817 135.188H43.1781V135.407C43.6283 135.505 43.8588 135.56 43.8735 135.567C44.0601 135.658 44.1516 135.862 44.1516 136.179V141.842C44.1516 142.352 43.8259 142.607 43.1744 142.607V142.836H46.3914V142.607C45.9961 142.599 45.7216 142.53 45.5679 142.403C45.4142 142.275 45.3337 141.682 45.3337 140.618C45.3337 140.516 45.3374 140.298 45.3447 139.959C45.352 139.69 45.352 139.471 45.3447 139.3H45.9961L48.8983 142.836H50.6294V142.607C50.3183 142.599 50.0402 142.483 49.7913 142.261C49.7364 142.206 49.5388 141.973 49.1984 141.554L49.2058 141.558ZM45.3484 138.863V135.971C45.3484 135.731 45.5643 135.615 45.9998 135.615C47.3795 135.615 48.0676 136.143 48.0676 137.199C48.0676 137.876 47.7601 138.346 47.149 138.608C46.7464 138.779 46.1462 138.863 45.3484 138.863Z" fill="url(#paint19_linear_23_1797)"/>
<path d="M62.564 141.001L59.8924 135.188H57.5794V135.407C58.0039 135.454 58.2821 135.516 58.4028 135.593C58.5895 135.709 58.681 135.957 58.681 136.343V141.347C58.681 141.787 58.6078 142.1 58.4614 142.293C58.2894 142.501 57.9893 142.607 57.5538 142.607V142.836H60.295V142.607C59.8777 142.599 59.5813 142.487 59.4129 142.272C59.2739 142.086 59.2043 141.78 59.2043 141.347V136.514L62.1065 142.836H62.2822L65.232 136.259V141.736C65.232 142.075 65.1332 142.312 64.9429 142.443C64.7965 142.545 64.5403 142.596 64.178 142.603V142.832H67.4425V142.603C67.0692 142.596 66.8094 142.527 66.6593 142.395C66.5093 142.264 66.4324 142.017 66.4324 141.656V136.339C66.4324 135.979 66.5129 135.735 66.6776 135.611C66.7874 135.534 67.0399 135.465 67.4425 135.403V135.185H65.1185L62.564 140.997V141.001Z" fill="url(#paint20_linear_23_1797)"/>
<path d="M76.6322 142.228C76.2991 142.359 75.6733 142.425 74.7511 142.425C74.0081 142.425 73.6348 142.301 73.6348 142.053V139.023H75.5635C75.9515 139.023 76.2259 139.114 76.387 139.296C76.548 139.478 76.6468 139.77 76.6761 140.17H76.9542V137.49H76.6761C76.6212 137.876 76.537 138.146 76.4199 138.299C76.2662 138.506 76.01 138.612 75.655 138.612H73.6348V135.99C73.6348 135.727 73.8288 135.596 74.2167 135.596C75.0621 135.596 75.5708 135.604 75.7502 135.618C76.4858 135.68 76.9323 135.833 77.086 136.081C77.2178 136.412 77.3019 136.667 77.3422 136.845L77.6789 136.835L77.6313 135.192H71.417V135.411C71.8415 135.48 72.0977 135.545 72.1819 135.607C72.3539 135.717 72.4381 135.957 72.4381 136.336V141.7C72.4381 142.046 72.3576 142.283 72.2002 142.41C72.0428 142.538 71.7793 142.603 71.417 142.614V142.843H77.7008L78.2352 140.877H77.8875C77.5618 141.587 77.1446 142.039 76.6322 142.228Z" fill="url(#paint21_linear_23_1797)"/>
<path d="M87.1541 135.407C87.5786 135.462 87.8714 135.567 88.0324 135.724C88.1898 135.88 88.2703 136.172 88.2703 136.598V140.746L83.82 135.185H81.8218V135.403C82.0999 135.411 82.3158 135.465 82.4732 135.564C82.5647 135.625 82.7257 135.782 82.949 136.037V141.343C82.949 141.791 82.8795 142.104 82.7404 142.29C82.5684 142.497 82.2646 142.603 81.8218 142.603V142.832H84.563V142.603C84.1457 142.596 83.853 142.483 83.6919 142.268C83.5455 142.082 83.4723 141.776 83.4723 141.343V136.616L88.596 142.96H88.7937V136.718C88.7937 136.255 88.8669 135.939 89.0096 135.764C89.1523 135.589 89.4524 135.469 89.9099 135.4V135.181H87.1577V135.4L87.1541 135.407Z" fill="url(#paint22_linear_23_1797)"/>
<path d="M93.7746 135.028C93.5807 135.028 93.416 135.087 93.2806 135.207C93.1452 135.327 93.0793 135.484 93.0793 135.673C93.0793 136.081 93.3099 136.285 93.7746 136.285C93.8222 136.285 93.8844 136.277 93.9613 136.263C94.0381 136.248 94.093 136.241 94.126 136.241C94.2028 136.241 94.2431 136.299 94.2431 136.416C94.2431 136.809 93.9284 137.21 93.3025 137.618L93.405 137.847C93.7527 137.701 94.0601 137.461 94.3236 137.126C94.5871 136.791 94.7189 136.445 94.7189 136.092C94.7189 135.8 94.6347 135.549 94.4627 135.342C94.2907 135.134 94.0638 135.028 93.7783 135.028H93.7746Z" fill="url(#paint23_linear_23_1797)"/>
<path d="M102.939 139.107C102.313 138.721 101.687 138.342 101.069 137.964C100.395 137.523 100.058 137.057 100.058 136.565C100.058 136.234 100.176 135.975 100.406 135.786C100.637 135.596 100.922 135.502 101.255 135.502C101.79 135.502 102.258 135.706 102.661 136.114C103.034 136.492 103.268 136.951 103.371 137.49H103.685L103.429 135.028H103.162C103.133 135.291 103.008 135.422 102.792 135.422C102.606 135.422 102.335 135.356 101.973 135.225C101.614 135.094 101.332 135.028 101.131 135.028C100.542 135.028 100.047 135.207 99.6486 135.567C99.2496 135.924 99.0484 136.398 99.0484 136.984C99.0484 137.661 99.3704 138.248 100.011 138.739C100.6 139.1 101.193 139.468 101.79 139.839C102.423 140.261 102.741 140.742 102.741 141.274C102.741 141.674 102.609 141.995 102.346 142.239C102.082 142.483 101.749 142.603 101.347 142.603C100.333 142.603 99.5461 141.915 98.9898 140.535H98.7007L99.0484 142.996H99.3265C99.3338 142.742 99.4546 142.614 99.6852 142.614C99.8865 142.614 100.176 142.68 100.549 142.811C100.926 142.942 101.211 143.007 101.413 143.007C102.101 143.007 102.683 142.836 103.155 142.498C103.674 142.111 103.934 141.587 103.934 140.924C103.934 140.261 103.601 139.628 102.935 139.111L102.939 139.107Z" fill="url(#paint24_linear_23_1797)"/>
<path d="M122.27 135.407C122.804 135.454 123.071 135.625 123.071 135.928C123.071 136.168 123.009 136.452 122.885 136.784L121.443 140.666C121.102 139.817 120.762 138.976 120.422 138.135C119.88 136.78 119.609 136.008 119.609 135.822C119.609 135.56 119.902 135.422 120.491 135.407V135.188H117.391V135.407C117.779 135.454 118.035 135.538 118.156 135.662C118.259 135.764 118.401 136.037 118.584 136.481C118.701 136.78 118.822 137.086 118.943 137.395L117.699 140.633C117.38 139.839 117.062 139.041 116.747 138.24C116.191 136.824 115.913 136.004 115.913 135.789C115.913 135.56 116.165 135.432 116.667 135.407V135.188H113.808V135.407C114.288 135.469 114.683 135.848 114.994 136.54C115.188 137.1 115.382 137.665 115.576 138.226L117.259 142.964H117.435L119.214 138.098L120.978 142.687C121.018 142.811 121.044 142.902 121.058 142.964H121.256C121.373 142.501 121.538 141.962 121.754 141.347C121.948 140.815 122.142 140.283 122.336 139.752C122.98 137.971 123.419 136.765 123.66 136.135C123.759 135.88 123.873 135.709 123.99 135.615C124.111 135.524 124.305 135.454 124.575 135.407V135.188H122.262V135.407H122.27Z" fill="url(#paint25_linear_23_1797)"/>
<path d="M132.744 142.228C132.411 142.359 131.785 142.425 130.863 142.425C130.12 142.425 129.747 142.301 129.747 142.053V139.023H131.675C132.063 139.023 132.338 139.114 132.499 139.296C132.66 139.478 132.759 139.77 132.788 140.17H133.066V137.49H132.788C132.733 137.876 132.649 138.146 132.532 138.299C132.378 138.506 132.122 138.612 131.767 138.612H129.747V135.99C129.747 135.727 129.941 135.596 130.329 135.596C131.174 135.596 131.683 135.604 131.862 135.618C132.598 135.68 133.044 135.833 133.198 136.081C133.33 136.412 133.414 136.667 133.454 136.845L133.791 136.835L133.743 135.192H127.529V135.411C127.953 135.48 128.21 135.545 128.297 135.607C128.466 135.717 128.554 135.957 128.554 136.336V141.7C128.554 142.046 128.473 142.283 128.316 142.41C128.158 142.538 127.895 142.603 127.532 142.614V142.843H133.816L134.351 140.877H134.003C133.677 141.587 133.26 142.039 132.748 142.228H132.744Z" fill="url(#paint26_linear_23_1797)"/>
<path d="M144.594 141.744L141.656 135.05H141.41L138.669 141.478C138.351 142.232 137.981 142.61 137.553 142.61V142.84H139.866V142.61C139.339 142.61 139.075 142.457 139.075 142.148C139.075 141.995 139.16 141.696 139.332 141.259C139.456 140.957 139.58 140.655 139.705 140.345H142.724C142.856 140.585 142.995 140.891 143.141 141.27C143.328 141.733 143.42 142.042 143.42 142.195C143.42 142.388 143.324 142.512 143.13 142.567C143.039 142.596 142.863 142.614 142.607 142.614V142.843H145.579V142.614C145.308 142.599 145.096 142.508 144.938 142.348C144.84 142.239 144.722 142.039 144.591 141.747L144.594 141.744ZM139.899 139.857L141.224 136.714L142.56 139.857H139.899Z" fill="url(#paint27_linear_23_1797)"/>
<path d="M155.233 141.558L153.272 139.154C154.659 138.863 155.35 138.153 155.35 137.028C155.35 136.412 155.032 135.935 154.399 135.593C153.887 135.323 153.29 135.188 152.609 135.188H149.206V135.407C149.656 135.505 149.886 135.56 149.901 135.567C150.088 135.658 150.179 135.862 150.179 136.179V141.842C150.179 142.352 149.853 142.607 149.202 142.607V142.836H152.419V142.607C152.024 142.599 151.749 142.53 151.596 142.403C151.442 142.275 151.361 141.682 151.361 140.618C151.361 140.516 151.365 140.298 151.372 139.959C151.38 139.69 151.38 139.471 151.372 139.3H152.024L154.926 142.836H156.657V142.607C156.346 142.599 156.068 142.483 155.819 142.261C155.764 142.206 155.566 141.973 155.226 141.554L155.233 141.558ZM151.376 138.863V135.971C151.376 135.731 151.592 135.615 152.027 135.615C153.407 135.615 154.095 136.143 154.095 137.199C154.095 137.876 153.788 138.346 153.177 138.608C152.774 138.779 152.174 138.863 151.376 138.863Z" fill="url(#paint28_linear_23_1797)"/>
</g>
<defs>
<linearGradient id="paint0_linear_23_1797" x1="69.5322" y1="-27.3457" x2="69.5322" y2="160.353" gradientUnits="userSpaceOnUse">
<stop stop-color="#F8E67D"/>
<stop offset="0.05" stop-color="#D4B14B"/>
<stop offset="0.13" stop-color="#A56C0B"/>
<stop offset="0.17" stop-color="#B68522"/>
<stop offset="0.26" stop-color="#D2AF49"/>
<stop offset="0.34" stop-color="#E7CD65"/>
<stop offset="0.4" stop-color="#F3DF76"/>
<stop offset="0.45" stop-color="#F8E67D"/>
<stop offset="0.52" stop-color="#F4E077"/>
<stop offset="0.6" stop-color="#E9D068"/>
<stop offset="0.7" stop-color="#D7B550"/>
<stop offset="0.8" stop-color="#BE912D"/>
<stop offset="0.89" stop-color="#A56C0B"/>
<stop offset="0.9" stop-color="#B68522"/>
<stop offset="0.93" stop-color="#D2AF49"/>
<stop offset="0.96" stop-color="#E7CD65"/>
<stop offset="0.98" stop-color="#F3DF76"/>
<stop offset="1" stop-color="#F8E67D"/>
</linearGradient>
<linearGradient id="paint1_linear_23_1797" x1="87.3993" y1="-27.3458" x2="87.3993" y2="160.353" gradientUnits="userSpaceOnUse">
<stop stop-color="#F8E67D"/>
<stop offset="0.05" stop-color="#D4B14B"/>
<stop offset="0.13" stop-color="#A56C0B"/>
<stop offset="0.17" stop-color="#B68522"/>
<stop offset="0.26" stop-color="#D2AF49"/>
<stop offset="0.34" stop-color="#E7CD65"/>
<stop offset="0.4" stop-color="#F3DF76"/>
<stop offset="0.45" stop-color="#F8E67D"/>
<stop offset="0.52" stop-color="#F4E077"/>
<stop offset="0.6" stop-color="#E9D068"/>
<stop offset="0.7" stop-color="#D7B550"/>
<stop offset="0.8" stop-color="#BE912D"/>
<stop offset="0.89" stop-color="#A56C0B"/>
<stop offset="0.9" stop-color="#B68522"/>
<stop offset="0.93" stop-color="#D2AF49"/>
<stop offset="0.96" stop-color="#E7CD65"/>
<stop offset="0.98" stop-color="#F3DF76"/>
<stop offset="1" stop-color="#F8E67D"/>
</linearGradient>
<linearGradient id="paint2_linear_23_1797" x1="109.468" y1="-27.3458" x2="109.468" y2="160.353" gradientUnits="userSpaceOnUse">
<stop stop-color="#F8E67D"/>
<stop offset="0.05" stop-color="#D4B14B"/>
<stop offset="0.13" stop-color="#A56C0B"/>
<stop offset="0.17" stop-color="#B68522"/>
<stop offset="0.26" stop-color="#D2AF49"/>
<stop offset="0.34" stop-color="#E7CD65"/>
<stop offset="0.4" stop-color="#F3DF76"/>
<stop offset="0.45" stop-color="#F8E67D"/>
<stop offset="0.52" stop-color="#F4E077"/>
<stop offset="0.6" stop-color="#E9D068"/>
<stop offset="0.7" stop-color="#D7B550"/>
<stop offset="0.8" stop-color="#BE912D"/>
<stop offset="0.89" stop-color="#A56C0B"/>
<stop offset="0.9" stop-color="#B68522"/>
<stop offset="0.93" stop-color="#D2AF49"/>
<stop offset="0.96" stop-color="#E7CD65"/>
<stop offset="0.98" stop-color="#F3DF76"/>
<stop offset="1" stop-color="#F8E67D"/>
</linearGradient>
<linearGradient id="paint3_linear_23_1797" x1="91.63" y1="-27.3459" x2="91.63" y2="160.353" gradientUnits="userSpaceOnUse">
<stop stop-color="#F8E67D"/>
<stop offset="0.05" stop-color="#D4B14B"/>
<stop offset="0.13" stop-color="#A56C0B"/>
<stop offset="0.17" stop-color="#B68522"/>
<stop offset="0.26" stop-color="#D2AF49"/>
<stop offset="0.34" stop-color="#E7CD65"/>
<stop offset="0.4" stop-color="#F3DF76"/>
<stop offset="0.45" stop-color="#F8E67D"/>
<stop offset="0.52" stop-color="#F4E077"/>
<stop offset="0.6" stop-color="#E9D068"/>
<stop offset="0.7" stop-color="#D7B550"/>
<stop offset="0.8" stop-color="#BE912D"/>
<stop offset="0.89" stop-color="#A56C0B"/>
<stop offset="0.9" stop-color="#B68522"/>
<stop offset="0.93" stop-color="#D2AF49"/>
<stop offset="0.96" stop-color="#E7CD65"/>
<stop offset="0.98" stop-color="#F3DF76"/>
<stop offset="1" stop-color="#F8E67D"/>
</linearGradient>
<linearGradient id="paint4_linear_23_1797" x1="14.8185" y1="-27.3459" x2="14.8185" y2="160.353" gradientUnits="userSpaceOnUse">
<stop stop-color="#F8E67D"/>
<stop offset="0.05" stop-color="#D4B14B"/>
<stop offset="0.13" stop-color="#A56C0B"/>
<stop offset="0.17" stop-color="#B68522"/>
<stop offset="0.26" stop-color="#D2AF49"/>
<stop offset="0.34" stop-color="#E7CD65"/>
<stop offset="0.4" stop-color="#F3DF76"/>
<stop offset="0.45" stop-color="#F8E67D"/>
<stop offset="0.52" stop-color="#F4E077"/>
<stop offset="0.6" stop-color="#E9D068"/>
<stop offset="0.7" stop-color="#D7B550"/>
<stop offset="0.8" stop-color="#BE912D"/>
<stop offset="0.89" stop-color="#A56C0B"/>
<stop offset="0.9" stop-color="#B68522"/>
<stop offset="0.93" stop-color="#D2AF49"/>
<stop offset="0.96" stop-color="#E7CD65"/>
<stop offset="0.98" stop-color="#F3DF76"/>
<stop offset="1" stop-color="#F8E67D"/>
</linearGradient>
<linearGradient id="paint5_linear_23_1797" x1="2.44108" y1="-27.3459" x2="2.44108" y2="160.353" gradientUnits="userSpaceOnUse">
<stop stop-color="#F8E67D"/>
<stop offset="0.05" stop-color="#D4B14B"/>
<stop offset="0.13" stop-color="#A56C0B"/>
<stop offset="0.17" stop-color="#B68522"/>
<stop offset="0.26" stop-color="#D2AF49"/>
<stop offset="0.34" stop-color="#E7CD65"/>
<stop offset="0.4" stop-color="#F3DF76"/>
<stop offset="0.45" stop-color="#F8E67D"/>
<stop offset="0.52" stop-color="#F4E077"/>
<stop offset="0.6" stop-color="#E9D068"/>
<stop offset="0.7" stop-color="#D7B550"/>
<stop offset="0.8" stop-color="#BE912D"/>
<stop offset="0.89" stop-color="#A56C0B"/>
<stop offset="0.9" stop-color="#B68522"/>
<stop offset="0.93" stop-color="#D2AF49"/>
<stop offset="0.96" stop-color="#E7CD65"/>
<stop offset="0.98" stop-color="#F3DF76"/>
<stop offset="1" stop-color="#F8E67D"/>
</linearGradient>
<linearGradient id="paint6_linear_23_1797" x1="35.251" y1="-27.3459" x2="35.251" y2="160.353" gradientUnits="userSpaceOnUse">
<stop stop-color="#F8E67D"/>
<stop offset="0.05" stop-color="#D4B14B"/>
<stop offset="0.13" stop-color="#A56C0B"/>
<stop offset="0.17" stop-color="#B68522"/>
<stop offset="0.26" stop-color="#D2AF49"/>
<stop offset="0.34" stop-color="#E7CD65"/>
<stop offset="0.4" stop-color="#F3DF76"/>
<stop offset="0.45" stop-color="#F8E67D"/>
<stop offset="0.52" stop-color="#F4E077"/>
<stop offset="0.6" stop-color="#E9D068"/>
<stop offset="0.7" stop-color="#D7B550"/>
<stop offset="0.8" stop-color="#BE912D"/>
<stop offset="0.89" stop-color="#A56C0B"/>
<stop offset="0.9" stop-color="#B68522"/>
<stop offset="0.93" stop-color="#D2AF49"/>
<stop offset="0.96" stop-color="#E7CD65"/>
<stop offset="0.98" stop-color="#F3DF76"/>
<stop offset="1" stop-color="#F8E67D"/>
</linearGradient>
<linearGradient id="paint7_linear_23_1797" x1="45.7619" y1="-27.3458" x2="45.7619" y2="160.353" gradientUnits="userSpaceOnUse">
<stop stop-color="#F8E67D"/>
<stop offset="0.05" stop-color="#D4B14B"/>
<stop offset="0.13" stop-color="#A56C0B"/>
<stop offset="0.17" stop-color="#B68522"/>
<stop offset="0.26" stop-color="#D2AF49"/>
<stop offset="0.34" stop-color="#E7CD65"/>
<stop offset="0.4" stop-color="#F3DF76"/>
<stop offset="0.45" stop-color="#F8E67D"/>
<stop offset="0.52" stop-color="#F4E077"/>
<stop offset="0.6" stop-color="#E9D068"/>
<stop offset="0.7" stop-color="#D7B550"/>
<stop offset="0.8" stop-color="#BE912D"/>
<stop offset="0.89" stop-color="#A56C0B"/>
<stop offset="0.9" stop-color="#B68522"/>
<stop offset="0.93" stop-color="#D2AF49"/>
<stop offset="0.96" stop-color="#E7CD65"/>
<stop offset="0.98" stop-color="#F3DF76"/>
<stop offset="1" stop-color="#F8E67D"/>
</linearGradient>
<linearGradient id="paint8_linear_23_1797" x1="82.0926" y1="-27.3459" x2="82.0926" y2="160.353" gradientUnits="userSpaceOnUse">
<stop stop-color="#F8E67D"/>
<stop offset="0.05" stop-color="#D4B14B"/>
<stop offset="0.13" stop-color="#A56C0B"/>
<stop offset="0.17" stop-color="#B68522"/>
<stop offset="0.26" stop-color="#D2AF49"/>
<stop offset="0.34" stop-color="#E7CD65"/>
<stop offset="0.4" stop-color="#F3DF76"/>
<stop offset="0.45" stop-color="#F8E67D"/>
<stop offset="0.52" stop-color="#F4E077"/>
<stop offset="0.6" stop-color="#E9D068"/>
<stop offset="0.7" stop-color="#D7B550"/>
<stop offset="0.8" stop-color="#BE912D"/>
<stop offset="0.89" stop-color="#A56C0B"/>
<stop offset="0.9" stop-color="#B68522"/>
<stop offset="0.93" stop-color="#D2AF49"/>
<stop offset="0.96" stop-color="#E7CD65"/>
<stop offset="0.98" stop-color="#F3DF76"/>
<stop offset="1" stop-color="#F8E67D"/>
</linearGradient>
<linearGradient id="paint9_linear_23_1797" x1="94.0857" y1="-27.3457" x2="94.0857" y2="160.353" gradientUnits="userSpaceOnUse">
<stop stop-color="#F8E67D"/>
<stop offset="0.05" stop-color="#D4B14B"/>
<stop offset="0.13" stop-color="#A56C0B"/>
<stop offset="0.17" stop-color="#B68522"/>
<stop offset="0.26" stop-color="#D2AF49"/>
<stop offset="0.34" stop-color="#E7CD65"/>
<stop offset="0.4" stop-color="#F3DF76"/>
<stop offset="0.45" stop-color="#F8E67D"/>
<stop offset="0.52" stop-color="#F4E077"/>
<stop offset="0.6" stop-color="#E9D068"/>
<stop offset="0.7" stop-color="#D7B550"/>
<stop offset="0.8" stop-color="#BE912D"/>
<stop offset="0.89" stop-color="#A56C0B"/>
<stop offset="0.9" stop-color="#B68522"/>
<stop offset="0.93" stop-color="#D2AF49"/>
<stop offset="0.96" stop-color="#E7CD65"/>
<stop offset="0.98" stop-color="#F3DF76"/>
<stop offset="1" stop-color="#F8E67D"/>
</linearGradient>
<linearGradient id="paint10_linear_23_1797" x1="70.1325" y1="-0.000137069" x2="70.1325" y2="160.353" gradientUnits="userSpaceOnUse">
<stop stop-color="#F8E67D"/>
<stop offset="0.05" stop-color="#D4B14B"/>
<stop offset="0.13" stop-color="#A56C0B"/>
<stop offset="0.17" stop-color="#B68522"/>
<stop offset="0.26" stop-color="#D2AF49"/>
<stop offset="0.34" stop-color="#E7CD65"/>
<stop offset="0.4" stop-color="#F3DF76"/>
<stop offset="0.45" stop-color="#F8E67D"/>
<stop offset="0.52" stop-color="#F4E077"/>
<stop offset="0.6" stop-color="#E9D068"/>
<stop offset="0.7" stop-color="#D7B550"/>
<stop offset="0.8" stop-color="#BE912D"/>
<stop offset="0.89" stop-color="#A56C0B"/>
<stop offset="0.9" stop-color="#B68522"/>
<stop offset="0.93" stop-color="#D2AF49"/>
<stop offset="0.96" stop-color="#E7CD65"/>
<stop offset="0.98" stop-color="#F3DF76"/>
<stop offset="1" stop-color="#F8E67D"/>
</linearGradient>
<linearGradient id="paint11_linear_23_1797" x1="111.078" y1="-27.3459" x2="111.078" y2="160.353" gradientUnits="userSpaceOnUse">
<stop stop-color="#F8E67D"/>
<stop offset="0.05" stop-color="#D4B14B"/>
<stop offset="0.13" stop-color="#A56C0B"/>
<stop offset="0.17" stop-color="#B68522"/>
<stop offset="0.26" stop-color="#D2AF49"/>
<stop offset="0.34" stop-color="#E7CD65"/>
<stop offset="0.4" stop-color="#F3DF76"/>
<stop offset="0.45" stop-color="#F8E67D"/>
<stop offset="0.52" stop-color="#F4E077"/>
<stop offset="0.6" stop-color="#E9D068"/>
<stop offset="0.7" stop-color="#D7B550"/>
<stop offset="0.8" stop-color="#BE912D"/>
<stop offset="0.89" stop-color="#A56C0B"/>
<stop offset="0.9" stop-color="#B68522"/>
<stop offset="0.93" stop-color="#D2AF49"/>
<stop offset="0.96" stop-color="#E7CD65"/>
<stop offset="0.98" stop-color="#F3DF76"/>
<stop offset="1" stop-color="#F8E67D"/>
</linearGradient>
<linearGradient id="paint12_linear_23_1797" x1="121.593" y1="-27.3458" x2="121.593" y2="160.353" gradientUnits="userSpaceOnUse">
<stop stop-color="#F8E67D"/>
<stop offset="0.05" stop-color="#D4B14B"/>
<stop offset="0.13" stop-color="#A56C0B"/>
<stop offset="0.17" stop-color="#B68522"/>
<stop offset="0.26" stop-color="#D2AF49"/>
<stop offset="0.34" stop-color="#E7CD65"/>
<stop offset="0.4" stop-color="#F3DF76"/>
<stop offset="0.45" stop-color="#F8E67D"/>
<stop offset="0.52" stop-color="#F4E077"/>
<stop offset="0.6" stop-color="#E9D068"/>
<stop offset="0.7" stop-color="#D7B550"/>
<stop offset="0.8" stop-color="#BE912D"/>
<stop offset="0.89" stop-color="#A56C0B"/>
<stop offset="0.9" stop-color="#B68522"/>
<stop offset="0.93" stop-color="#D2AF49"/>
<stop offset="0.96" stop-color="#E7CD65"/>
<stop offset="0.98" stop-color="#F3DF76"/>
<stop offset="1" stop-color="#F8E67D"/>
</linearGradient>
<linearGradient id="paint13_linear_23_1797" x1="142.058" y1="-27.3456" x2="142.058" y2="160.353" gradientUnits="userSpaceOnUse">
<stop stop-color="#F8E67D"/>
<stop offset="0.05" stop-color="#D4B14B"/>
<stop offset="0.13" stop-color="#A56C0B"/>
<stop offset="0.17" stop-color="#B68522"/>
<stop offset="0.26" stop-color="#D2AF49"/>
<stop offset="0.34" stop-color="#E7CD65"/>
<stop offset="0.4" stop-color="#F3DF76"/>
<stop offset="0.45" stop-color="#F8E67D"/>
<stop offset="0.52" stop-color="#F4E077"/>
<stop offset="0.6" stop-color="#E9D068"/>
<stop offset="0.7" stop-color="#D7B550"/>
<stop offset="0.8" stop-color="#BE912D"/>
<stop offset="0.89" stop-color="#A56C0B"/>
<stop offset="0.9" stop-color="#B68522"/>
<stop offset="0.93" stop-color="#D2AF49"/>
<stop offset="0.96" stop-color="#E7CD65"/>
<stop offset="0.98" stop-color="#F3DF76"/>
<stop offset="1" stop-color="#F8E67D"/>
</linearGradient>
<linearGradient id="paint14_linear_23_1797" x1="130.53" y1="-27.3457" x2="130.53" y2="160.353" gradientUnits="userSpaceOnUse">
<stop stop-color="#F8E67D"/>
<stop offset="0.05" stop-color="#D4B14B"/>
<stop offset="0.13" stop-color="#A56C0B"/>
<stop offset="0.17" stop-color="#B68522"/>
<stop offset="0.26" stop-color="#D2AF49"/>
<stop offset="0.34" stop-color="#E7CD65"/>
<stop offset="0.4" stop-color="#F3DF76"/>
<stop offset="0.45" stop-color="#F8E67D"/>
<stop offset="0.52" stop-color="#F4E077"/>
<stop offset="0.6" stop-color="#E9D068"/>
<stop offset="0.7" stop-color="#D7B550"/>
<stop offset="0.8" stop-color="#BE912D"/>
<stop offset="0.89" stop-color="#A56C0B"/>
<stop offset="0.9" stop-color="#B68522"/>
<stop offset="0.93" stop-color="#D2AF49"/>
<stop offset="0.96" stop-color="#E7CD65"/>
<stop offset="0.98" stop-color="#F3DF76"/>
<stop offset="1" stop-color="#F8E67D"/>
</linearGradient>
<linearGradient id="paint15_linear_23_1797" x1="171.175" y1="-27.3459" x2="171.175" y2="160.353" gradientUnits="userSpaceOnUse">
<stop stop-color="#F8E67D"/>
<stop offset="0.05" stop-color="#D4B14B"/>
<stop offset="0.13" stop-color="#A56C0B"/>
<stop offset="0.17" stop-color="#B68522"/>
<stop offset="0.26" stop-color="#D2AF49"/>
<stop offset="0.34" stop-color="#E7CD65"/>
<stop offset="0.4" stop-color="#F3DF76"/>
<stop offset="0.45" stop-color="#F8E67D"/>
<stop offset="0.52" stop-color="#F4E077"/>
<stop offset="0.6" stop-color="#E9D068"/>
<stop offset="0.7" stop-color="#D7B550"/>
<stop offset="0.8" stop-color="#BE912D"/>
<stop offset="0.89" stop-color="#A56C0B"/>
<stop offset="0.9" stop-color="#B68522"/>
<stop offset="0.93" stop-color="#D2AF49"/>
<stop offset="0.96" stop-color="#E7CD65"/>
<stop offset="0.98" stop-color="#F3DF76"/>
<stop offset="1" stop-color="#F8E67D"/>
</linearGradient>
<linearGradient id="paint16_linear_23_1797" x1="159.204" y1="-27.3459" x2="159.204" y2="160.353" gradientUnits="userSpaceOnUse">
<stop stop-color="#F8E67D"/>
<stop offset="0.05" stop-color="#D4B14B"/>
<stop offset="0.13" stop-color="#A56C0B"/>
<stop offset="0.17" stop-color="#B68522"/>
<stop offset="0.26" stop-color="#D2AF49"/>
<stop offset="0.34" stop-color="#E7CD65"/>
<stop offset="0.4" stop-color="#F3DF76"/>
<stop offset="0.45" stop-color="#F8E67D"/>
<stop offset="0.52" stop-color="#F4E077"/>
<stop offset="0.6" stop-color="#E9D068"/>
<stop offset="0.7" stop-color="#D7B550"/>
<stop offset="0.8" stop-color="#BE912D"/>
<stop offset="0.89" stop-color="#A56C0B"/>
<stop offset="0.9" stop-color="#B68522"/>
<stop offset="0.93" stop-color="#D2AF49"/>
<stop offset="0.96" stop-color="#E7CD65"/>
<stop offset="0.98" stop-color="#F3DF76"/>
<stop offset="1" stop-color="#F8E67D"/>
</linearGradient>
<linearGradient id="paint17_linear_23_1797" x1="25.4538" y1="-27.3458" x2="25.4538" y2="160.353" gradientUnits="userSpaceOnUse">
<stop stop-color="#F8E67D"/>
<stop offset="0.05" stop-color="#D4B14B"/>
<stop offset="0.13" stop-color="#A56C0B"/>
<stop offset="0.17" stop-color="#B68522"/>
<stop offset="0.26" stop-color="#D2AF49"/>
<stop offset="0.34" stop-color="#E7CD65"/>
<stop offset="0.4" stop-color="#F3DF76"/>
<stop offset="0.45" stop-color="#F8E67D"/>
<stop offset="0.52" stop-color="#F4E077"/>
<stop offset="0.6" stop-color="#E9D068"/>
<stop offset="0.7" stop-color="#D7B550"/>
<stop offset="0.8" stop-color="#BE912D"/>
<stop offset="0.89" stop-color="#A56C0B"/>
<stop offset="0.9" stop-color="#B68522"/>
<stop offset="0.93" stop-color="#D2AF49"/>
<stop offset="0.96" stop-color="#E7CD65"/>
<stop offset="0.98" stop-color="#F3DF76"/>
<stop offset="1" stop-color="#F8E67D"/>
</linearGradient>
<linearGradient id="paint18_linear_23_1797" x1="35.5219" y1="-27.3457" x2="35.5219" y2="160.353" gradientUnits="userSpaceOnUse">
<stop stop-color="#F8E67D"/>
<stop offset="0.05" stop-color="#D4B14B"/>
<stop offset="0.13" stop-color="#A56C0B"/>
<stop offset="0.17" stop-color="#B68522"/>
<stop offset="0.26" stop-color="#D2AF49"/>
<stop offset="0.34" stop-color="#E7CD65"/>
<stop offset="0.4" stop-color="#F3DF76"/>
<stop offset="0.45" stop-color="#F8E67D"/>
<stop offset="0.52" stop-color="#F4E077"/>
<stop offset="0.6" stop-color="#E9D068"/>
<stop offset="0.7" stop-color="#D7B550"/>
<stop offset="0.8" stop-color="#BE912D"/>
<stop offset="0.89" stop-color="#A56C0B"/>
<stop offset="0.9" stop-color="#B68522"/>
<stop offset="0.93" stop-color="#D2AF49"/>
<stop offset="0.96" stop-color="#E7CD65"/>
<stop offset="0.98" stop-color="#F3DF76"/>
<stop offset="1" stop-color="#F8E67D"/>
</linearGradient>
<linearGradient id="paint19_linear_23_1797" x1="46.9074" y1="-27.3458" x2="46.9074" y2="160.353" gradientUnits="userSpaceOnUse">
<stop stop-color="#F8E67D"/>
<stop offset="0.05" stop-color="#D4B14B"/>
<stop offset="0.13" stop-color="#A56C0B"/>
<stop offset="0.17" stop-color="#B68522"/>
<stop offset="0.26" stop-color="#D2AF49"/>
<stop offset="0.34" stop-color="#E7CD65"/>
<stop offset="0.4" stop-color="#F3DF76"/>
<stop offset="0.45" stop-color="#F8E67D"/>
<stop offset="0.52" stop-color="#F4E077"/>
<stop offset="0.6" stop-color="#E9D068"/>
<stop offset="0.7" stop-color="#D7B550"/>
<stop offset="0.8" stop-color="#BE912D"/>
<stop offset="0.89" stop-color="#A56C0B"/>
<stop offset="0.9" stop-color="#B68522"/>
<stop offset="0.93" stop-color="#D2AF49"/>
<stop offset="0.96" stop-color="#E7CD65"/>
<stop offset="0.98" stop-color="#F3DF76"/>
<stop offset="1" stop-color="#F8E67D"/>
</linearGradient>
<linearGradient id="paint20_linear_23_1797" x1="62.5018" y1="-27.3459" x2="62.5018" y2="160.353" gradientUnits="userSpaceOnUse">
<stop stop-color="#F8E67D"/>
<stop offset="0.05" stop-color="#D4B14B"/>
<stop offset="0.13" stop-color="#A56C0B"/>
<stop offset="0.17" stop-color="#B68522"/>
<stop offset="0.26" stop-color="#D2AF49"/>
<stop offset="0.34" stop-color="#E7CD65"/>
<stop offset="0.4" stop-color="#F3DF76"/>
<stop offset="0.45" stop-color="#F8E67D"/>
<stop offset="0.52" stop-color="#F4E077"/>
<stop offset="0.6" stop-color="#E9D068"/>
<stop offset="0.7" stop-color="#D7B550"/>
<stop offset="0.8" stop-color="#BE912D"/>
<stop offset="0.89" stop-color="#A56C0B"/>
<stop offset="0.9" stop-color="#B68522"/>
<stop offset="0.93" stop-color="#D2AF49"/>
<stop offset="0.96" stop-color="#E7CD65"/>
<stop offset="0.98" stop-color="#F3DF76"/>
<stop offset="1" stop-color="#F8E67D"/>
</linearGradient>
<linearGradient id="paint21_linear_23_1797" x1="74.8243" y1="-27.3456" x2="74.8243" y2="160.353" gradientUnits="userSpaceOnUse">
<stop stop-color="#F8E67D"/>
<stop offset="0.05" stop-color="#D4B14B"/>
<stop offset="0.13" stop-color="#A56C0B"/>
<stop offset="0.17" stop-color="#B68522"/>
<stop offset="0.26" stop-color="#D2AF49"/>
<stop offset="0.34" stop-color="#E7CD65"/>
<stop offset="0.4" stop-color="#F3DF76"/>
<stop offset="0.45" stop-color="#F8E67D"/>
<stop offset="0.52" stop-color="#F4E077"/>
<stop offset="0.6" stop-color="#E9D068"/>
<stop offset="0.7" stop-color="#D7B550"/>
<stop offset="0.8" stop-color="#BE912D"/>
<stop offset="0.89" stop-color="#A56C0B"/>
<stop offset="0.9" stop-color="#B68522"/>
<stop offset="0.93" stop-color="#D2AF49"/>
<stop offset="0.96" stop-color="#E7CD65"/>
<stop offset="0.98" stop-color="#F3DF76"/>
<stop offset="1" stop-color="#F8E67D"/>
</linearGradient>
<linearGradient id="paint22_linear_23_1797" x1="85.8658" y1="-27.3457" x2="85.8658" y2="160.353" gradientUnits="userSpaceOnUse">
<stop stop-color="#F8E67D"/>
<stop offset="0.05" stop-color="#D4B14B"/>
<stop offset="0.13" stop-color="#A56C0B"/>
<stop offset="0.17" stop-color="#B68522"/>
<stop offset="0.26" stop-color="#D2AF49"/>
<stop offset="0.34" stop-color="#E7CD65"/>
<stop offset="0.4" stop-color="#F3DF76"/>
<stop offset="0.45" stop-color="#F8E67D"/>
<stop offset="0.52" stop-color="#F4E077"/>
<stop offset="0.6" stop-color="#E9D068"/>
<stop offset="0.7" stop-color="#D7B550"/>
<stop offset="0.8" stop-color="#BE912D"/>
<stop offset="0.89" stop-color="#A56C0B"/>
<stop offset="0.9" stop-color="#B68522"/>
<stop offset="0.93" stop-color="#D2AF49"/>
<stop offset="0.96" stop-color="#E7CD65"/>
<stop offset="0.98" stop-color="#F3DF76"/>
<stop offset="1" stop-color="#F8E67D"/>
</linearGradient>
<linearGradient id="paint23_linear_23_1797" x1="93.8954" y1="-27.3455" x2="93.8954" y2="160.353" gradientUnits="userSpaceOnUse">
<stop stop-color="#F8E67D"/>
<stop offset="0.05" stop-color="#D4B14B"/>
<stop offset="0.13" stop-color="#A56C0B"/>
<stop offset="0.17" stop-color="#B68522"/>
<stop offset="0.26" stop-color="#D2AF49"/>
<stop offset="0.34" stop-color="#E7CD65"/>
<stop offset="0.4" stop-color="#F3DF76"/>
<stop offset="0.45" stop-color="#F8E67D"/>
<stop offset="0.52" stop-color="#F4E077"/>
<stop offset="0.6" stop-color="#E9D068"/>
<stop offset="0.7" stop-color="#D7B550"/>
<stop offset="0.8" stop-color="#BE912D"/>
<stop offset="0.89" stop-color="#A56C0B"/>
<stop offset="0.9" stop-color="#B68522"/>
<stop offset="0.93" stop-color="#D2AF49"/>
<stop offset="0.96" stop-color="#E7CD65"/>
<stop offset="0.98" stop-color="#F3DF76"/>
<stop offset="1" stop-color="#F8E67D"/>
</linearGradient>
<linearGradient id="paint24_linear_23_1797" x1="101.321" y1="-27.3457" x2="101.321" y2="160.353" gradientUnits="userSpaceOnUse">
<stop stop-color="#F8E67D"/>
<stop offset="0.05" stop-color="#D4B14B"/>
<stop offset="0.13" stop-color="#A56C0B"/>
<stop offset="0.17" stop-color="#B68522"/>
<stop offset="0.26" stop-color="#D2AF49"/>
<stop offset="0.34" stop-color="#E7CD65"/>
<stop offset="0.4" stop-color="#F3DF76"/>
<stop offset="0.45" stop-color="#F8E67D"/>
<stop offset="0.52" stop-color="#F4E077"/>
<stop offset="0.6" stop-color="#E9D068"/>
<stop offset="0.7" stop-color="#D7B550"/>
<stop offset="0.8" stop-color="#BE912D"/>
<stop offset="0.89" stop-color="#A56C0B"/>
<stop offset="0.9" stop-color="#B68522"/>
<stop offset="0.93" stop-color="#D2AF49"/>
<stop offset="0.96" stop-color="#E7CD65"/>
<stop offset="0.98" stop-color="#F3DF76"/>
<stop offset="1" stop-color="#F8E67D"/>
</linearGradient>
<linearGradient id="paint25_linear_23_1797" x1="119.195" y1="-27.3458" x2="119.195" y2="160.353" gradientUnits="userSpaceOnUse">
<stop stop-color="#F8E67D"/>
<stop offset="0.05" stop-color="#D4B14B"/>
<stop offset="0.13" stop-color="#A56C0B"/>
<stop offset="0.17" stop-color="#B68522"/>
<stop offset="0.26" stop-color="#D2AF49"/>
<stop offset="0.34" stop-color="#E7CD65"/>
<stop offset="0.4" stop-color="#F3DF76"/>
<stop offset="0.45" stop-color="#F8E67D"/>
<stop offset="0.52" stop-color="#F4E077"/>
<stop offset="0.6" stop-color="#E9D068"/>
<stop offset="0.7" stop-color="#D7B550"/>
<stop offset="0.8" stop-color="#BE912D"/>
<stop offset="0.89" stop-color="#A56C0B"/>
<stop offset="0.9" stop-color="#B68522"/>
<stop offset="0.93" stop-color="#D2AF49"/>
<stop offset="0.96" stop-color="#E7CD65"/>
<stop offset="0.98" stop-color="#F3DF76"/>
<stop offset="1" stop-color="#F8E67D"/>
</linearGradient>
<linearGradient id="paint26_linear_23_1797" x1="130.94" y1="-27.3456" x2="130.94" y2="160.353" gradientUnits="userSpaceOnUse">
<stop stop-color="#F8E67D"/>
<stop offset="0.05" stop-color="#D4B14B"/>
<stop offset="0.13" stop-color="#A56C0B"/>
<stop offset="0.17" stop-color="#B68522"/>
<stop offset="0.26" stop-color="#D2AF49"/>
<stop offset="0.34" stop-color="#E7CD65"/>
<stop offset="0.4" stop-color="#F3DF76"/>
<stop offset="0.45" stop-color="#F8E67D"/>
<stop offset="0.52" stop-color="#F4E077"/>
<stop offset="0.6" stop-color="#E9D068"/>
<stop offset="0.7" stop-color="#D7B550"/>
<stop offset="0.8" stop-color="#BE912D"/>
<stop offset="0.89" stop-color="#A56C0B"/>
<stop offset="0.9" stop-color="#B68522"/>
<stop offset="0.93" stop-color="#D2AF49"/>
<stop offset="0.96" stop-color="#E7CD65"/>
<stop offset="0.98" stop-color="#F3DF76"/>
<stop offset="1" stop-color="#F8E67D"/>
</linearGradient>
<linearGradient id="paint27_linear_23_1797" x1="141.568" y1="-27.3458" x2="141.568" y2="160.353" gradientUnits="userSpaceOnUse">
<stop stop-color="#F8E67D"/>
<stop offset="0.05" stop-color="#D4B14B"/>
<stop offset="0.13" stop-color="#A56C0B"/>
<stop offset="0.17" stop-color="#B68522"/>
<stop offset="0.26" stop-color="#D2AF49"/>
<stop offset="0.34" stop-color="#E7CD65"/>
<stop offset="0.4" stop-color="#F3DF76"/>
<stop offset="0.45" stop-color="#F8E67D"/>
<stop offset="0.52" stop-color="#F4E077"/>
<stop offset="0.6" stop-color="#E9D068"/>
<stop offset="0.7" stop-color="#D7B550"/>
<stop offset="0.8" stop-color="#BE912D"/>
<stop offset="0.89" stop-color="#A56C0B"/>
<stop offset="0.9" stop-color="#B68522"/>
<stop offset="0.93" stop-color="#D2AF49"/>
<stop offset="0.96" stop-color="#E7CD65"/>
<stop offset="0.98" stop-color="#F3DF76"/>
<stop offset="1" stop-color="#F8E67D"/>
</linearGradient>
<linearGradient id="paint28_linear_23_1797" x1="152.931" y1="-27.3458" x2="152.931" y2="160.353" gradientUnits="userSpaceOnUse">
<stop stop-color="#F8E67D"/>
<stop offset="0.05" stop-color="#D4B14B"/>
<stop offset="0.13" stop-color="#A56C0B"/>
<stop offset="0.17" stop-color="#B68522"/>
<stop offset="0.26" stop-color="#D2AF49"/>
<stop offset="0.34" stop-color="#E7CD65"/>
<stop offset="0.4" stop-color="#F3DF76"/>
<stop offset="0.45" stop-color="#F8E67D"/>
<stop offset="0.52" stop-color="#F4E077"/>
<stop offset="0.6" stop-color="#E9D068"/>
<stop offset="0.7" stop-color="#D7B550"/>
<stop offset="0.8" stop-color="#BE912D"/>
<stop offset="0.89" stop-color="#A56C0B"/>
<stop offset="0.9" stop-color="#B68522"/>
<stop offset="0.93" stop-color="#D2AF49"/>
<stop offset="0.96" stop-color="#E7CD65"/>
<stop offset="0.98" stop-color="#F3DF76"/>
<stop offset="1" stop-color="#F8E67D"/>
</linearGradient>
<clipPath id="clip0_23_1797">
<rect width="179" height="143" fill="white"/>
</clipPath>
</defs>
</svg>
