<svg width="174" height="161" viewBox="0 0 174 161" fill="none" xmlns="http://www.w3.org/2000/svg">
<path d="M84.5942 117.41C116.991 117.41 143.255 91.127 143.255 58.7051C143.255 26.2832 116.991 0 84.5942 0C52.1969 0 25.9338 26.2832 25.9338 58.7051C25.9338 91.127 52.1969 117.41 84.5942 117.41Z" fill="#353F00"/>
<path d="M81.2115 22.783H87.9768V92.0401C87.9768 94.5667 85.9252 96.6198 83.4006 96.6198H81.2115V22.783Z" fill="white"/>
<path d="M121.523 79.6166V81.8074C121.523 84.3339 119.471 86.3871 116.947 86.3871H70.475V84.1963C70.475 81.6697 72.5266 79.6166 75.0512 79.6166H121.523Z" fill="white"/>
<path d="M82.6416 60.7253C82.6416 60.7253 69.6279 60.2078 66.7293 45.6155C66.6578 45.2632 66.9163 44.9275 67.2738 44.9054C69.969 44.7238 80.0399 45.1311 82.6416 60.7308V60.7253Z" fill="white"/>
<path d="M86.8438 37.4634C86.8438 37.4634 99.8574 36.946 102.756 22.3537C102.828 22.0014 102.569 21.6656 102.212 21.6436C99.5164 21.462 89.4454 21.8693 86.8438 37.4689V37.4634Z" fill="white"/>
<path d="M73.1371 31.3715C75.3643 29.8647 75.6762 26.432 73.8337 23.7045C71.9912 20.9769 68.692 19.9873 66.4648 21.4941C64.2376 23.0009 63.9258 26.4335 65.7683 29.1611C67.6108 31.8886 70.91 32.8783 73.1371 31.3715Z" fill="white"/>
<path d="M101.79 51.602C104.516 49.758 105.504 46.4564 103.999 44.2275C102.493 41.9986 99.0631 41.6865 96.3376 43.5304C93.6122 45.3743 92.6233 48.676 94.129 50.9049C95.6346 53.1338 99.0646 53.4459 101.79 51.602Z" fill="white"/>
<path d="M110.792 67.2481C108.317 72.125 105.941 74.0185 105.941 74.0185H95.8862C99.0269 72.5378 101.502 70.303 103.444 67.5948C103.526 67.4792 103.609 67.3637 103.686 67.2481C113.108 53.6465 109.62 28.882 109.62 28.882H115.792C117.612 48.8026 114.109 60.7143 110.792 67.2481Z" fill="white"/>
<path d="M127.524 74.0185V67.248H104.885V74.0185H127.524Z" fill="white"/>
<path d="M58.3909 67.2481C60.866 72.125 63.2421 74.0185 63.2421 74.0185H73.2966C70.156 72.5378 67.6808 70.303 65.7392 67.5948C65.6567 67.4792 65.5742 67.3637 65.4972 67.2481C56.0753 53.6465 59.5624 28.882 59.5624 28.882H53.3911C51.5705 48.8026 55.0742 60.7143 58.3909 67.2481Z" fill="white"/>
<path d="M64.2982 74.013V67.2426H41.6591V74.013H64.2982Z" fill="white"/>
<path d="M84.5942 113.397C54.4582 113.397 29.9435 88.864 29.9435 58.705C29.9435 28.5461 54.4582 4.0127 84.5942 4.0127C114.73 4.0127 139.245 28.5461 139.245 58.705C139.245 88.864 114.73 113.397 84.5942 113.397ZM84.5942 5.36679C55.2062 5.36679 31.2965 29.2947 31.2965 58.705C31.2965 88.1154 55.2062 112.043 84.5942 112.043C113.982 112.043 137.892 88.1154 137.892 58.705C137.892 29.2947 113.982 5.36679 84.5942 5.36679Z" fill="white"/>
<path d="M12.9586 143.92H0V126.85H5.14275V139.83H12.9586V143.92Z" fill="#353F00"/>
<path d="M28.8104 143.92H15.9508V126.85H28.6014V130.274H21.0935V133.401H28.2549V136.835H21.0935V140.479H28.8104V143.914V143.92Z" fill="#353F00"/>
<path d="M45.1187 143.92H32.2591V126.85H44.9097V130.274H37.4018V133.401H44.5632V136.835H37.4018V140.479H45.1187V143.914V143.92Z" fill="#353F00"/>
<path d="M67.0923 143.92H62.5161L53.6661 134.413V143.92H48.5729V126.85H53.1381L61.9605 136.307V126.85H67.0923V143.92Z" fill="#353F00"/>
<path d="M97.1073 135.371C97.1073 136.962 96.7388 138.432 96.0072 139.769C95.2757 141.107 94.1811 142.169 92.7291 142.962C91.277 143.749 89.5059 144.145 87.4213 144.145C85.3367 144.145 83.5271 143.733 82.0695 142.912C80.6065 142.092 79.5229 141.013 78.8134 139.676C78.1038 138.338 77.7463 136.907 77.7463 135.377C77.7463 133.847 78.0983 132.404 78.8024 131.072C79.5064 129.74 80.5955 128.661 82.0585 127.847C83.5216 127.032 85.3092 126.619 87.4213 126.619C88.9944 126.619 90.4024 126.856 91.6345 127.324C92.8666 127.792 93.8841 128.425 94.6817 129.228C95.4792 130.026 96.0787 130.962 96.4912 132.025C96.9038 133.087 97.1073 134.204 97.1073 135.382V135.371ZM91.8655 135.371C91.8655 134.733 91.772 134.144 91.585 133.615C91.398 133.087 91.112 132.625 90.727 132.234C90.3474 131.843 89.8799 131.54 89.3299 131.32C88.7799 131.105 88.1418 130.995 87.4213 130.995C86.0407 130.995 84.9572 131.397 84.1706 132.201C83.3841 133.004 82.9881 134.061 82.9881 135.366C82.9881 136.67 83.3841 137.727 84.1761 138.536C84.9682 139.345 86.0462 139.747 87.4213 139.747C88.3618 139.747 89.1704 139.56 89.8359 139.186C90.5014 138.812 91.0075 138.294 91.3485 137.634C91.6895 136.973 91.8655 136.213 91.8655 135.36V135.371Z" fill="#353F00"/>
<path d="M113.273 143.92H100.314V126.85H105.457V139.83H113.273V143.92Z" fill="#353F00"/>
<path d="M121.429 143.92H116.287V126.85H121.429V143.92Z" fill="#353F00"/>
<path d="M142.429 126.85L134.735 144.145H131.335L123.789 126.85H129.141L133.041 136.703L137.05 126.85H142.418H142.429Z" fill="#353F00"/>
<path d="M157.627 143.92H144.767V126.85H157.418V130.274H149.91V133.401H157.071V136.835H149.91V140.479H157.627V143.914V143.92Z" fill="#353F00"/>
<path d="M173 138.96C173 140.028 172.725 140.953 172.18 141.729C171.636 142.511 170.871 143.105 169.898 143.523C168.919 143.936 167.802 144.145 166.537 144.145C166.185 144.145 165.751 144.123 165.239 144.079C164.728 144.035 164.046 143.909 163.198 143.705C162.351 143.501 161.466 143.199 160.547 142.791V138.602C161.411 139.136 162.258 139.582 163.088 139.934C163.919 140.287 164.816 140.463 165.767 140.463C166.647 140.463 167.214 140.32 167.472 140.028C167.731 139.736 167.857 139.461 167.857 139.208C167.857 138.745 167.637 138.36 167.192 138.046C166.752 137.733 166.103 137.402 165.261 137.067C164.326 136.67 163.507 136.241 162.802 135.779C162.098 135.316 161.521 134.733 161.075 134.034C160.63 133.335 160.404 132.509 160.404 131.557C160.404 130.604 160.63 129.806 161.081 129.063C161.532 128.32 162.219 127.726 163.149 127.285C164.079 126.845 165.206 126.619 166.548 126.619C167.5 126.619 168.38 126.713 169.188 126.894C169.997 127.082 170.662 127.285 171.19 127.516C171.713 127.748 172.076 127.929 172.274 128.056V132.058C171.575 131.557 170.8 131.111 169.942 130.714C169.084 130.318 168.165 130.125 167.192 130.125C166.554 130.125 166.086 130.247 165.8 130.494C165.514 130.742 165.371 131.045 165.371 131.408C165.371 131.744 165.514 132.036 165.8 132.283C166.086 132.531 166.598 132.828 167.34 133.18C168.655 133.797 169.705 134.353 170.492 134.843C171.278 135.333 171.894 135.905 172.345 136.549C172.796 137.193 173.016 137.997 173.016 138.955L173 138.96Z" fill="#353F00"/>
<path d="M40.097 149.881V160.857H39.3984L31.06 151.263V160.857H30.213V149.881H30.9335L39.2499 159.475V149.881H40.097Z" fill="#353F00"/>
<path d="M51.9996 149.881H52.8466V155.87C52.8466 157.51 52.4176 158.776 51.565 159.663C50.7125 160.554 49.6069 161 48.2539 161C46.9008 161 45.8007 160.56 44.9482 159.679C44.0957 158.798 43.6666 157.593 43.6666 156.063V149.881H44.5247V156.035C44.5247 157.345 44.8712 158.369 45.5642 159.107C46.2573 159.844 47.1538 160.213 48.2539 160.213C49.3539 160.213 50.267 159.839 50.96 159.096C51.653 158.347 51.9996 157.29 51.9996 155.919V149.887V149.881Z" fill="#353F00"/>
<path d="M64.2981 149.881V150.591H60.1839V160.862H59.3259V150.591H55.2117V149.881H64.2981Z" fill="#353F00"/>
<path d="M75.0182 149.881H75.8652V155.87C75.8652 157.51 75.4362 158.776 74.5837 159.663C73.7311 160.554 72.6256 161 71.2725 161C69.9194 161 68.8194 160.56 67.9668 159.679C67.1143 158.798 66.6853 157.593 66.6853 156.063V149.881H67.5433V156.035C67.5433 157.345 67.8898 158.369 68.5829 159.107C69.2759 159.844 70.1724 160.213 71.2725 160.213C72.3726 160.213 73.2856 159.839 73.9786 159.096C74.6717 158.347 75.0182 157.29 75.0182 155.919V149.887V149.881Z" fill="#353F00"/>
<path d="M79.4404 149.881H82.251C83.4281 149.881 84.3301 150.134 84.9517 150.646C85.5732 151.158 85.8867 151.846 85.8867 152.716C85.8867 153.982 85.1882 154.874 83.7966 155.385C84.1596 155.556 84.6437 156.118 85.2542 157.059L87.7348 160.851H86.7338L84.8252 157.84C84.1871 156.833 83.6921 156.206 83.3346 155.958C82.9771 155.71 82.4601 155.584 81.7725 155.584H80.2874V160.846H79.4404V149.87V149.881ZM80.2929 150.591V154.89H82.1135C83.0376 154.89 83.7471 154.703 84.2366 154.329C84.7262 153.954 84.9682 153.426 84.9682 152.738C84.9682 152.05 84.7207 151.538 84.2201 151.158C83.7251 150.778 83.0101 150.591 82.075 150.591H80.2874H80.2929Z" fill="#353F00"/>
<path d="M94.2746 149.804L99.3459 160.857H98.4548L96.7223 157.064H91.3595L89.6324 160.857H88.7414L93.8126 149.804H94.2801H94.2746ZM96.3977 156.354L94.0326 151.186L91.6785 156.354H96.3977Z" fill="#353F00"/>
<path d="M102.806 149.881V160.152H108.229V160.862H101.953V149.887H102.8L102.806 149.881Z" fill="#353F00"/>
<path d="M121.88 149.738C123.503 149.738 124.878 150.283 126.006 151.378C127.133 152.468 127.7 153.8 127.7 155.374C127.7 156.949 127.139 158.27 126.006 159.36C124.878 160.45 123.503 161 121.88 161C120.258 161 118.894 160.455 117.772 159.36C116.65 158.27 116.089 156.938 116.089 155.374C116.089 153.811 116.65 152.474 117.772 151.378C118.894 150.288 120.263 149.738 121.88 149.738ZM121.913 160.213C123.278 160.213 124.433 159.745 125.373 158.809C126.314 157.874 126.781 156.729 126.781 155.369C126.781 154.009 126.314 152.859 125.373 151.923C124.433 150.987 123.283 150.52 121.913 150.52C120.544 150.52 119.383 150.987 118.432 151.923C117.48 152.859 117.007 154.009 117.007 155.369C117.007 156.729 117.48 157.874 118.432 158.809C119.383 159.745 120.544 160.213 121.913 160.213Z" fill="#353F00"/>
<path d="M131.896 149.881V160.857H131.049V149.881H131.896Z" fill="#353F00"/>
<path d="M136.544 149.881V160.152H141.967V160.862H135.692V149.887H136.539L136.544 149.881Z" fill="#353F00"/>
</svg>
