<svg width="115" height="173" viewBox="0 0 115 173" fill="none" xmlns="http://www.w3.org/2000/svg">
<path d="M82.7796 75.0099C82.7796 82.6476 79.1574 89.4442 73.5354 93.8362C73.1807 94.1265 72.7958 94.4169 72.4185 94.6476C72.0638 94.9082 71.679 95.1687 71.3016 95.3995C67.5587 97.7221 63.144 99.062 58.4049 99.062C53.6658 99.062 49.2135 97.7295 45.478 95.3995C45.0931 95.1687 44.7158 94.9082 44.3611 94.6476C43.9763 94.4169 43.599 94.1265 43.2443 93.8362C37.6223 89.4516 34 82.6551 34 75.0099V63.5906C54.7298 63.5012 63.9213 55.5136 66.9851 52C68.7812 55.6625 73.6712 63.6501 82.8023 65.7122V75.0099H82.7796Z" fill="white"/>
<path d="M46.2168 79.1589C46.2168 80.072 44.9118 80.795 43.3047 80.795C41.6976 80.795 40.3669 80.0784 40.3669 79.1589C40.3669 78.2394 41.6719 77.5228 43.3047 77.5228C44.9375 77.5228 46.2168 78.2394 46.2168 79.1589Z" fill="#E5978B"/>
<path d="M75.318 79.1589C75.318 80.072 74.0131 80.795 72.3803 80.795C70.7474 80.795 69.4682 80.0784 69.4682 79.1589C69.4682 78.2394 70.7732 77.5228 72.3803 77.5228C73.9873 77.5228 75.318 78.2394 75.318 79.1589Z" fill="#E5978B"/>
<path d="M88.0848 61.6441C84.3242 56.7169 80.885 52.7599 77.5744 49.4941C72.1039 44.1483 66.7619 40.6353 61.6963 39.0499C60.4171 38.6314 59.0864 38.4285 57.7557 38.4285C48.801 38.4285 40.1227 47.6805 35.4557 52.633C28.0823 60.5026 22.1875 69.6088 17.9191 79.7042C15.8363 84.6504 13.9335 89.9518 15.6884 95.5385C17.4434 101.132 22.2389 105.361 30.2616 108.456C34.2472 109.99 38.5413 111.176 43.1055 111.994C43.4076 112.07 43.7354 112.14 44.0569 112.191C44.3847 112.242 44.7061 112.292 45.034 112.337C45.9854 112.508 46.9625 112.635 47.9717 112.73C48.6017 112.831 49.2253 112.901 49.881 112.977C50.9095 113.079 51.9638 113.148 53.018 113.224C54.8758 113.326 56.7529 113.396 58.585 113.396C62.7763 113.396 66.8133 113.072 70.6511 112.432C70.9789 112.381 71.3003 112.33 71.6282 112.261C71.956 112.21 72.2581 112.134 72.5796 112.089C76.1409 111.373 79.5286 110.409 82.7171 109.147C94.706 104.448 100.729 97.3648 100.601 88.1381C100.472 78.734 94.0503 69.5263 88.0848 61.6377V61.6441ZM46.8468 95.2214C46.5189 95.0248 46.1975 94.8029 45.8954 94.5809C45.5675 94.3844 45.2461 94.137 44.944 93.8897C40.1548 90.1547 37.0692 84.3651 37.0692 77.8525V68.1249C54.728 68.0488 62.5577 61.2446 65.1676 58.2515C66.6976 61.3714 70.8632 68.1756 78.6415 69.9322V77.8525C78.6415 84.3587 75.5559 90.1483 70.7668 93.8897C70.4646 94.137 70.1368 94.3844 69.8154 94.5809C69.5132 94.8029 69.1854 95.0248 68.864 95.2214C65.6755 97.1999 61.9149 98.3413 57.8779 98.3413C53.8408 98.3413 50.0481 97.2062 46.8661 95.2214H46.8468Z" fill="#E5978B"/>
<path d="M89.2805 60.7056C85.5713 55.8164 82.0614 51.777 78.5515 48.359C72.856 42.842 67.2633 39.1894 61.9149 37.5153C60.4492 37.0587 58.99 36.8431 57.4471 36.8431C47.7403 36.8431 38.6763 46.4122 33.7971 51.555C26.2374 59.5895 20.1947 68.8542 15.8363 79.0891C13.702 84.086 11.5935 89.9264 13.5413 96.0204C15.4698 102.108 20.5804 106.674 29.1623 109.965C33.2893 111.55 37.802 112.774 42.649 113.63C42.9704 113.706 43.2726 113.77 43.504 113.776C43.864 113.859 44.224 113.909 44.494 113.928C45.5804 114.119 46.6025 114.264 47.5153 114.353L47.7917 114.385C48.3574 114.448 48.9103 114.512 49.431 114.55C50.4788 114.677 51.4945 114.746 52.5487 114.829C54.3487 114.943 56.2257 115 58.2764 115C62.532 115 66.6719 114.67 70.5353 114.03C70.8696 114.004 71.236 113.922 71.461 113.859C71.8917 113.827 72.2581 113.757 72.4895 113.675C76.1794 112.996 79.7793 111.975 83.1992 110.644C95.9403 105.653 102.336 98.0687 102.208 88.1001C102.06 78.214 95.4517 68.7717 89.2676 60.6992L89.2805 60.7056ZM98.9873 88.1508C99.0837 96.6736 93.3689 103.243 81.9971 107.682C78.9372 108.874 75.6652 109.813 72.181 110.491C71.911 110.58 71.6217 110.618 71.281 110.675C70.966 110.745 70.6575 110.789 70.3296 110.84C66.569 111.487 62.5191 111.823 58.2893 111.823C56.6115 111.823 54.7537 111.76 52.7737 111.626C51.7002 111.557 50.6459 111.481 49.5724 111.354C48.936 111.309 48.3188 111.233 47.6696 111.132C46.5703 111.024 45.6254 110.897 44.7447 110.739C44.4297 110.694 44.1211 110.644 43.7097 110.561C43.414 110.536 43.1247 110.472 42.8162 110.396C38.4641 109.623 34.2728 108.475 30.358 106.991C22.7339 104.068 18.2533 100.174 16.6462 95.0819C15.0199 89.9645 16.8262 84.9929 18.8254 80.3383C23.0296 70.4395 28.8666 61.4855 36.2528 53.654C40.7655 48.8917 49.1674 40.0265 57.46 40.0265C58.6107 40.0265 59.7871 40.2104 60.9506 40.5655C65.7912 42.0621 70.9467 45.461 76.2759 50.6546C79.5158 53.7808 82.9228 57.6871 86.6963 62.608C92.5782 70.3127 98.8716 79.273 98.9937 88.1572L98.9873 88.1508Z" fill="#005186"/>
<path d="M79.76 68.2263C70.3296 66.5902 66.3119 56.1778 66.2669 56.0763C66.1383 55.7275 65.8169 55.5056 65.4633 55.4549C65.084 55.4295 64.7369 55.6007 64.5633 55.9241C64.4862 56.0256 57.8907 66.4444 36.1178 66.2161C35.8414 66.2415 35.6164 66.3176 35.4428 66.5141C35.2692 66.6854 35.1664 66.9073 35.1664 67.18V77.8461C35.1664 85.4684 39.0555 92.1965 44.9504 96.255C45.2525 96.4769 45.5804 96.6735 45.9018 96.8764C46.2039 97.073 46.5317 97.2506 46.8532 97.4218C50.1124 99.2291 53.8794 100.244 57.865 100.244C61.8506 100.244 65.5919 99.2291 68.8511 97.4218C69.1789 97.2506 69.5003 97.073 69.8025 96.8764C70.1303 96.6798 70.4517 96.4833 70.7539 96.255C76.6487 92.1965 80.5379 85.4684 80.5379 77.8461V69.1585C80.5379 68.6892 80.21 68.2897 79.76 68.22V68.2263ZM78.6286 77.8524C78.6286 84.3586 75.543 90.1483 70.7539 93.8897C70.4517 94.137 70.1239 94.3843 69.8025 94.5809C69.5003 94.8028 69.1725 95.0248 68.8511 95.2213C65.6626 97.1998 61.902 98.3413 57.865 98.3413C53.828 98.3413 50.0352 97.2062 46.8532 95.2213C46.5253 95.0248 46.2039 94.8028 45.9018 94.5809C45.5739 94.3843 45.2525 94.137 44.9504 93.8897C40.1612 90.1546 37.0756 84.365 37.0756 77.8524V68.1248C54.7344 68.0487 62.5641 61.2445 65.174 58.2514C66.704 61.3713 70.8696 68.1756 78.6479 69.9321V77.8524H78.6286Z" fill="#005186" stroke="#005186" stroke-width="1.87" stroke-miterlimit="10"/>
<path d="M51.5009 73.4199C51.5009 74.9038 50.2731 76.115 48.7431 76.115C47.2132 76.115 46.011 74.9038 46.011 73.4199C46.011 71.936 47.2389 70.6995 48.7431 70.6995C50.2473 70.6995 51.5009 71.9107 51.5009 73.4199Z" fill="#005186"/>
<path d="M69.6868 73.4199C69.6868 74.9038 68.4589 76.115 66.929 76.115C65.399 76.115 64.1969 74.9038 64.1969 73.4199C64.1969 71.936 65.4248 70.6995 66.929 70.6995C68.4332 70.6995 69.6868 71.9107 69.6868 73.4199Z" fill="#005186"/>
<path d="M75.768 14.1347C75.3245 14.1347 74.8873 14.1664 74.4566 14.2172C72.1424 6.98172 65.579 1.75647 57.8329 1.75647C50.0867 1.75647 43.5233 6.98807 41.2091 14.2299C40.7591 14.1728 40.3027 14.1411 39.8398 14.1411C33.45 14.1411 28.2752 19.5185 28.2752 26.1579C28.2752 32.7973 33.4564 38.1747 39.8398 38.1747C42.919 38.1747 45.7154 36.9128 47.7853 34.8709C50.6331 36.9445 54.0915 38.1747 57.8329 38.1747C61.5742 38.1747 65.0069 36.9572 67.8483 34.8963C69.9182 36.9191 72.7017 38.1747 75.768 38.1747C82.1578 38.1747 87.3327 32.7973 87.3327 26.1579C87.3327 19.5185 82.1514 14.1411 75.768 14.1411V14.1347Z" fill="#F2E1CF"/>
<path d="M75.7552 12.3783H75.6266C72.6502 4.82575 65.7205 0 57.8264 0C49.9324 0 43.0026 4.82575 40.0262 12.3783H39.8205C32.4986 12.3783 26.5266 18.5547 26.5266 26.158C26.5266 33.7612 32.505 39.9377 39.8205 39.9377C42.7454 39.9377 45.6125 38.9167 47.9203 37.0777C53.8987 40.8064 61.7349 40.8318 67.7068 37.1031C70.0082 38.9421 72.856 39.9377 75.7552 39.9377C83.1028 39.9377 89.049 33.7612 89.049 26.158C89.049 18.5547 83.0964 12.3783 75.7552 12.3783ZM75.7552 36.4119C73.2738 36.4119 70.8632 35.4163 69.0311 33.6027C68.7225 33.2983 68.279 33.1208 67.8418 33.1208C67.4818 33.1208 67.1411 33.2476 66.8326 33.4505C64.1712 35.391 61.0663 36.4119 57.8328 36.4119C54.5994 36.4119 51.4687 35.3656 48.8074 33.4251C48.1324 32.9432 47.1746 32.9939 46.5832 33.6027C44.7447 35.391 42.3662 36.4119 39.8334 36.4119C34.4271 36.4119 30.0044 31.7954 30.0044 26.1516C30.0044 20.5079 34.4271 15.8914 39.8334 15.8914C40.1934 15.8914 40.5855 15.9167 40.9969 15.9675C41.8005 16.0689 42.5976 15.587 42.8611 14.769C45.0082 8.03446 51.038 3.5131 57.8393 3.5131C64.6405 3.5131 70.6703 8.02812 72.8174 14.769C73.0745 15.5616 73.8524 16.0689 74.6559 15.9675C75.0673 15.9167 75.4337 15.8914 75.768 15.8914C81.2 15.8914 85.6227 20.4825 85.6227 26.1516C85.6227 31.8208 81.2 36.4119 75.768 36.4119H75.7552Z" fill="#005186"/>
<path d="M73.2352 34.4271C64.5826 25.9615 51.0766 25.9615 42.424 34.4271L33.1736 55.1252C49.1224 49.2341 66.5304 49.2341 82.4792 55.1252L73.2288 34.4271H73.2352Z" fill="#F2E1CF"/>
<path d="M84.1121 54.5101L74.8745 33.8627C74.7974 33.5837 74.6431 33.3554 74.4374 33.1461C65.1226 24.0336 50.5367 24.0336 41.2219 33.1461C41.0162 33.3491 40.8877 33.5773 40.8105 33.812L31.5472 54.5608C31.3158 55.2013 31.4958 55.9115 31.9329 56.3744C32.4215 56.8564 33.1222 57.0149 33.7714 56.7803C49.2896 51.0667 66.389 51.0667 81.8879 56.7803C82.0679 56.8564 82.2736 56.8817 82.4857 56.8817C82.9485 56.8817 83.3921 56.7042 83.7264 56.3744C84.1635 55.9178 84.3499 55.2013 84.1121 54.5101ZM79.5351 52.2589C72.496 50.0648 65.2062 48.9424 57.8329 48.9424C50.4595 48.9424 43.1633 50.0648 36.1307 52.2589L43.9154 35.4417C51.7259 28.0414 63.9398 28.0414 71.776 35.4417L79.5351 52.2589Z" fill="#005186"/>
<path d="M50.6652 30.3433C50.4852 31.1613 49.8102 31.7194 48.981 31.7194C48.8267 31.7194 48.6981 31.7194 48.5696 31.6686C43.5747 30.4701 42.1283 24.9849 42.0769 24.7503C41.8455 23.8054 42.3855 22.8352 43.2919 22.6069C43.729 22.4801 44.1983 22.5308 44.584 22.7591C44.9954 22.9874 45.3104 23.3995 45.4132 23.8561C45.4389 23.8815 46.4482 27.5278 49.3988 28.2443C50.3052 28.4472 50.8966 29.3921 50.6652 30.337V30.3433Z" fill="#005186"/>
<path d="M73.5309 24.7503C73.4795 24.9785 72.0074 30.4638 67.0125 31.6686C66.884 31.7194 66.7554 31.7194 66.6268 31.7194C65.7976 31.7194 65.1033 31.155 64.9169 30.3433C64.7112 29.3985 65.3026 28.4536 66.209 28.2507C69.1853 27.5341 70.1689 23.8878 70.1689 23.8625C70.2974 23.3805 70.606 22.9937 71.0239 22.7654C71.4096 22.5371 71.8788 22.4864 72.316 22.6132C73.2224 22.8415 73.7623 23.8117 73.5309 24.7566V24.7503Z" fill="#005186"/>
<path d="M68.234 82.9001C67.6104 82.3041 66.6076 82.3167 65.9647 82.9509C65.2062 83.7435 64.3255 84.3967 63.3548 84.8977C62.5834 85.2908 61.7799 85.5825 60.8863 85.7854C58.09 86.4576 55.7565 85.9693 55.7308 85.963C55.3193 85.8552 54.8694 85.9313 54.5094 86.1596C54.143 86.3942 53.8922 86.762 53.8151 87.2186C53.7315 87.6054 53.8151 88.0239 54.0401 88.3664C54.2651 88.7088 54.6251 88.9561 55.0429 89.0449C55.9108 89.2224 56.9522 89.3239 57.9614 89.3239C59.5749 89.3239 62.0113 89.0829 64.4219 87.9288C64.9683 87.6815 65.5405 87.3581 66.164 86.9396C66.5626 86.6859 66.9676 86.3752 67.4754 85.9376C67.7583 85.684 68.0154 85.4303 68.3304 85.1133C68.6132 84.7962 68.7611 84.403 68.7482 83.9908C68.7354 83.566 68.5554 83.1728 68.234 82.8938V82.9001Z" fill="#005186"/>
<path d="M61.9247 171.82C61.3056 171.82 60.8378 171.57 60.5077 171.07C60.033 170.39 59.7992 169.079 59.7992 167.132C59.7992 165.543 59.9505 163.761 60.26 161.787C60.5696 159.817 60.9857 157.944 61.5119 156.176C62.0382 154.408 62.6297 153.032 63.2866 152.048C63.7028 151.389 64.1912 150.869 64.7414 150.493C65.2986 150.118 65.8455 149.932 66.3923 149.932C67.0286 149.932 67.5926 150.206 68.081 150.75C68.5728 151.295 68.9271 152.13 69.1472 153.255L69.3088 154.141C69.326 154.158 69.3329 154.195 69.3329 154.249C69.3329 154.34 69.3088 154.415 69.2538 154.479C69.1988 154.543 69.1266 154.57 69.0337 154.57H68.9787C68.8892 154.57 68.8205 154.526 68.7757 154.438C68.7276 154.35 68.6898 154.215 68.6519 154.036L68.4903 153.259C68.0535 151.474 67.3622 150.581 66.4164 150.581C66.1997 150.581 66.0381 150.598 65.9246 150.635C64.7621 150.994 63.7956 152.14 63.0252 154.077C62.2514 156.014 61.6736 158.028 61.2953 160.117C60.769 163.011 60.5042 165.421 60.5042 167.351C60.5042 168.423 60.5936 169.278 60.7759 169.924C60.9617 170.566 61.2299 170.952 61.5945 171.073C61.6667 171.11 61.794 171.127 61.9728 171.127C62.7914 171.127 63.7853 170.546 64.9616 169.386C66.1309 168.227 67.5995 166.574 69.3604 164.431C70.6123 162.947 71.5857 161.838 72.277 161.098C72.9683 160.354 73.5598 159.871 74.0516 159.637C74.1067 159.583 74.1789 159.556 74.2683 159.556C74.3577 159.556 74.4334 159.573 74.4987 159.61C74.5641 159.648 74.595 159.702 74.595 159.773C74.6088 159.789 74.6191 159.817 74.6191 159.854C74.6191 159.925 74.5985 159.986 74.5503 160.043C74.5056 160.097 74.4472 160.131 74.3749 160.151C74.2477 160.188 74.1101 160.276 73.9657 160.418C73.8762 160.489 73.6286 160.722 73.2296 161.115L72.9855 161.355C72.1153 162.284 70.8806 163.687 69.2779 165.56C67.7887 167.345 66.5918 168.704 65.6804 169.633C64.7724 170.563 63.8919 171.212 63.039 171.587C62.6572 171.749 62.2823 171.827 61.9178 171.827L61.9247 171.82Z" fill="#005186"/>
<path d="M91.3857 154.567C91.3857 154.746 91.2757 154.854 91.059 154.891C89.8415 154.908 88.7409 154.979 87.7607 155.104C86.7771 155.229 85.4151 155.425 83.6714 155.692C82.7462 155.838 82.165 155.926 81.9276 155.96C80.9303 156.122 80.3077 156.2 80.0739 156.2L79.9122 157.136C79.84 157.511 79.7918 157.822 79.7746 158.072C79.5201 159.607 79.3275 161.216 79.19 162.893C79.0524 164.573 78.9836 166.047 78.9836 167.314C78.9836 168.136 79.0146 168.805 79.0799 169.322C79.1418 169.839 79.2381 170.134 79.3654 170.208C79.4376 170.279 79.4754 170.367 79.4754 170.475C79.4754 170.583 79.4307 170.691 79.3378 170.799C79.2484 170.908 79.1487 170.958 79.0386 170.958C78.8942 170.958 78.7566 170.86 78.6294 170.664C78.5021 170.468 78.4127 170.154 78.3577 169.728C78.2682 168.748 78.2201 167.889 78.2201 167.155C78.2201 164.836 78.5021 161.743 79.0661 157.89C77.9209 160.675 76.7412 163.336 75.5237 165.871C75.3414 166.246 75.1453 166.432 74.9252 166.432C74.798 166.432 74.6982 166.351 74.626 166.192C74.5538 166.033 74.5297 165.817 74.5469 165.55L74.8186 163.167C74.9459 161.811 75.0181 161.006 75.0353 160.756C74.4712 161.344 74.0207 161.632 73.6733 161.615C73.491 161.615 73.3466 161.544 73.2365 161.399C73.1265 161.257 73.1093 161.104 73.1815 160.946C73.3294 160.587 73.5873 160.202 73.9588 159.793C74.3337 159.384 74.6742 159.113 74.9803 158.988C75.2004 158.88 75.393 158.914 75.5546 159.083C75.7163 159.252 75.7644 159.428 75.6922 159.604C75.7472 159.695 75.7816 159.82 75.8022 159.979C75.8194 160.766 75.7094 161.845 75.4721 163.221C75.3276 164.113 75.2382 164.765 75.2004 165.178C76.1255 163.322 77.3912 160.384 78.987 156.365C77.7351 156.527 76.7721 156.605 76.1015 156.605C75.7919 156.605 75.5821 156.578 75.4721 156.524C75.362 156.47 75.3104 156.382 75.3104 156.257C75.3104 156.132 75.362 156.037 75.4583 155.976C75.5581 155.916 75.6716 155.919 75.8022 155.99C75.8745 156.044 77.037 155.936 79.2897 155.669L79.5339 155.054C79.5511 154.895 79.6783 154.168 79.9157 152.883L80.0532 152.295L80.1083 152.133C80.1633 151.92 80.2905 151.812 80.4866 151.812C80.6138 151.812 80.7239 151.866 80.8168 151.974C80.8718 152.028 80.8993 152.099 80.8993 152.19C80.8993 152.282 80.8718 152.43 80.8168 152.643C80.7617 152.789 80.662 153.215 80.5175 153.928C80.5554 154.002 80.5554 154.08 80.5175 154.168L80.4075 154.489C80.3903 154.543 80.3146 154.891 80.1874 155.534C80.6413 155.479 81.8142 155.3 83.7058 154.996C85.3394 154.746 86.6395 154.567 87.5991 154.459C88.5621 154.35 89.7074 154.29 91.0349 154.273C91.2688 154.273 91.3892 154.371 91.3892 154.567H91.3857ZM74.5331 160.354C74.7773 160.067 74.8908 159.888 74.8736 159.817C74.8014 159.817 74.6398 159.945 74.3818 160.205C74.1273 160.466 74.0276 160.621 74.0826 160.675C74.1376 160.746 74.289 160.638 74.5331 160.354Z" fill="#005186"/>
<path d="M82.0377 163.221C81.7075 163.221 81.4599 163.055 81.2914 162.724C81.1194 162.392 81.03 161.977 81.03 161.476C81.03 160.675 81.2123 159.935 81.5768 159.252C81.938 158.573 82.4126 158.234 82.9938 158.234C83.1933 158.234 83.3618 158.295 83.4994 158.42C83.6335 158.545 83.7023 158.715 83.7023 158.931C83.7023 159.127 83.6576 159.313 83.5648 159.492C83.4031 159.867 83.1761 160.188 82.8872 160.455C82.5949 160.722 82.2681 160.912 81.9036 161.017C81.8486 161.446 81.8245 161.696 81.8245 161.767C81.8245 162.034 81.8692 162.25 81.9586 162.413C82.048 162.572 82.2475 162.541 82.5467 162.318C82.8459 162.095 83.2759 161.723 83.8399 161.206C84.3317 160.739 84.741 160.378 85.0643 160.121C85.3945 159.864 85.6559 159.735 85.8553 159.735C85.9448 159.735 86.0204 159.762 86.0755 159.817C86.1305 159.871 86.1546 159.935 86.1546 160.006C86.1546 160.148 86.0927 160.246 85.962 160.3C85.7281 160.408 85.5183 160.53 85.336 160.675C85.1537 160.817 84.9164 161.033 84.6275 161.317L83.919 162.014C83.41 162.48 83.0592 162.781 82.8666 162.923C82.674 163.068 82.4917 163.156 82.306 163.19C82.2509 163.207 82.1615 163.217 82.0343 163.217L82.0377 163.221ZM82.9388 159.124C82.7944 159.195 82.6361 159.364 82.4607 159.631C82.2888 159.898 82.1925 160.114 82.1753 160.273C82.6086 159.935 82.8666 159.549 82.9388 159.124Z" fill="#005186"/>
<path d="M86.072 167.321C86.072 166.516 86.2096 165.026 86.4813 162.849C86.4985 162.632 86.5501 162.217 86.6326 161.591C86.7117 160.966 86.7461 160.557 86.7255 160.361C86.3437 160.415 86.1374 160.442 86.0995 160.442C85.6971 160.442 85.4529 160.29 85.3635 159.986C85.3257 159.877 85.3085 159.718 85.3085 159.506C85.3085 159.039 85.4701 158.6 85.8003 158.18C86.127 157.761 86.4538 157.552 86.7805 157.552C87.0006 157.552 87.1692 157.626 87.2998 157.768C87.4271 157.913 87.489 158.089 87.489 158.305C87.489 158.485 87.4443 158.644 87.3549 158.785C87.262 158.931 87.0729 159.188 86.7805 159.563C87.0901 159.6 87.293 159.664 87.3961 159.762C87.4959 159.86 87.544 160.09 87.544 160.445C87.544 160.662 87.4821 161.453 87.3549 162.828L87.2173 163.981C87.2173 164.018 87.176 164.431 87.0935 165.225C87.0109 166.02 86.9697 166.642 86.9697 167.088C87.0969 166.783 87.2758 166.256 87.5165 165.509C88.0083 164.025 88.4555 162.788 88.8647 161.797C89.274 160.807 89.6867 160.131 90.1063 159.776C90.1957 159.688 90.2886 159.641 90.378 159.641C90.4502 159.641 90.5156 159.668 90.5706 159.722C90.6257 159.776 90.6497 159.837 90.6497 159.908C90.6497 159.999 90.6257 160.07 90.5706 160.124C90.2611 160.445 89.9722 160.962 89.697 161.679C89.4253 162.396 89.1089 163.359 88.7444 164.573C88.3454 165.911 88.0118 166.912 87.7366 167.575C87.4649 168.234 87.1726 168.592 86.8665 168.646C86.3403 168.737 86.0755 168.298 86.0755 167.334L86.072 167.321ZM86.7564 158.424L86.8115 158.238C86.6636 158.292 86.5191 158.431 86.3747 158.654C86.2302 158.877 86.1477 159.08 86.1305 159.255C86.4194 158.897 86.6292 158.623 86.7599 158.424H86.7564Z" fill="#005186"/>
<path d="M104.985 159.871C104.985 159.979 104.895 160.094 104.713 160.219L104.658 160.246C104.4 160.408 104.128 160.645 103.826 160.956C103.523 161.267 103.21 161.622 102.883 162.014C102.557 162.409 102.295 162.71 102.092 162.923C101.456 163.69 100.902 164.309 100.431 164.772C99.9565 165.239 99.5507 165.469 99.2067 165.469C98.9866 165.469 98.8181 165.381 98.6874 165.201C98.5601 165.022 98.4982 164.765 98.4982 164.424C98.4982 164.083 98.5429 163.694 98.6324 163.302C98.6702 163.014 98.7596 162.649 98.9075 162.203C99.0519 161.757 99.1414 161.463 99.1792 161.317C99.4715 160.388 99.6607 159.712 99.7536 159.282C99.6057 159.391 99.4612 159.522 99.3168 159.685C99.0416 159.952 98.8181 160.229 98.6324 160.513C98.3263 160.959 97.8826 161.649 97.2979 162.575L97.2704 162.656V162.737C97.2704 162.896 97.1878 162.977 97.0262 162.977C96.9161 162.977 96.813 162.94 96.7132 162.869C96.6169 162.798 96.5378 162.7 96.4828 162.575C96.3934 162.308 96.3487 162.075 96.3487 161.879C96.3487 161.574 96.4278 161.064 96.5894 160.351C96.7201 159.671 96.782 159.279 96.782 159.171C96.5653 159.242 96.2145 159.509 95.733 159.972C95.2481 160.438 94.5361 161.196 93.5938 162.25C92.4141 163.552 91.6471 164.339 91.3032 164.607C90.9558 164.84 90.6669 164.955 90.4296 164.955C90.1029 164.955 89.8587 164.752 89.697 164.339C89.532 163.93 89.4529 163.41 89.4529 162.784C89.4529 162.159 89.5216 161.507 89.6558 160.885C89.7933 160.259 89.9516 159.857 90.1338 159.678C90.1889 159.604 90.2714 159.57 90.378 159.57C90.5087 159.57 90.6016 159.607 90.6635 159.678C90.7288 159.749 90.7598 159.83 90.7598 159.918C90.7598 160.134 90.6704 160.249 90.4846 160.266C90.2508 160.783 90.1304 161.544 90.1304 162.544C90.1304 163.045 90.1751 163.464 90.2542 163.802C90.3368 164.14 90.4434 164.275 90.5672 164.204C90.8011 164.096 91.0659 163.897 91.3582 163.599C91.6471 163.305 92.0014 162.923 92.421 162.46L92.9369 161.899C94.3401 160.273 95.365 159.238 96.0185 158.792C96.1457 158.701 96.2902 158.613 96.4553 158.525C96.5825 158.454 96.7201 158.417 96.8646 158.417C97.1707 158.417 97.3736 158.579 97.463 158.9C97.5008 159.046 97.518 159.167 97.518 159.276C97.518 159.347 97.5008 159.472 97.463 159.651L97.3529 160.347C97.2807 160.722 97.2326 160.973 97.2154 161.098C97.1775 161.277 97.1603 161.409 97.1603 161.5C97.377 161.142 97.549 160.875 97.6762 160.695C97.8379 160.462 98.1027 160.134 98.4673 159.705C98.6289 159.489 98.8387 159.276 99.0967 159.059C99.2583 158.88 99.4406 158.748 99.6401 158.657C99.8602 158.569 100.012 158.525 100.104 158.525C100.287 158.525 100.376 158.667 100.376 158.954C100.376 159.293 100.266 159.884 100.049 160.722C99.812 161.527 99.5644 162.528 99.3133 163.724C99.2239 164.154 99.193 164.492 99.2308 164.742V164.796L99.2858 164.769C99.358 164.752 99.5128 164.661 99.7501 164.502C100.128 164.197 100.82 163.447 101.821 162.25C102.656 161.287 103.286 160.594 103.712 160.175C104.139 159.756 104.462 159.546 104.679 159.546C104.806 159.546 104.899 159.607 104.954 159.735C104.971 159.773 104.978 159.816 104.978 159.867L104.985 159.871ZM90.5672 158.238V158.211C90.5672 158.103 90.5981 158.018 90.66 157.954C90.7254 157.893 90.8011 157.859 90.8939 157.859C90.9661 157.859 91.0384 157.886 91.1106 157.94C91.2207 158.011 91.2722 158.126 91.2722 158.289C91.2722 158.414 91.2413 158.515 91.1794 158.596C91.114 158.677 91.0281 158.718 90.918 158.718C90.7735 158.718 90.6772 158.681 90.6325 158.61C90.5844 158.539 90.5637 158.431 90.5637 158.289V158.234L90.5672 158.238Z" fill="#005186"/>
<path d="M104.658 173C104.514 173 104.379 172.943 104.259 172.828C104.142 172.709 104.084 172.554 104.084 172.358C104.084 172.25 104.08 171.986 104.073 171.567C104.063 171.148 104.115 170.661 104.221 170.106C104.331 169.552 104.503 168.947 104.737 168.284L105.012 167.588C105.122 167.301 105.215 166.919 105.298 166.435C105.38 165.952 105.504 165.07 105.666 163.782C105.683 163.623 105.755 163.072 105.882 162.135C106.01 161.199 106.075 160.587 106.075 160.3C105.948 160.459 105.848 160.567 105.776 160.621C105.411 161.013 105.067 161.304 104.741 161.49C104.414 161.679 104.152 161.784 103.953 161.811C103.75 161.838 103.468 161.862 103.107 161.879H103.052C102.921 161.879 102.825 161.835 102.753 161.743C102.68 161.655 102.639 161.557 102.639 161.449C102.639 161.145 103.069 160.682 103.922 160.057C104.778 159.431 105.511 159.019 106.13 158.826C106.257 158.772 106.395 158.772 106.539 158.826C106.556 158.826 106.625 158.843 106.746 158.88C106.866 158.917 106.942 159.022 106.976 159.201L107.004 159.441C107.004 159.566 106.99 159.712 106.959 159.884C106.935 160.053 106.907 160.192 106.89 160.3C106.852 160.459 106.835 160.591 106.835 160.685C106.835 160.78 106.828 160.871 106.811 160.942C106.722 161.672 106.567 162.825 106.347 164.397C106.309 164.613 106.292 164.765 106.292 164.853C106.292 164.816 106.563 164.367 107.096 163.501C107.63 162.636 108.2 161.818 108.802 161.05C109.397 160.283 109.92 159.81 110.357 159.631H110.491C110.563 159.631 110.629 159.658 110.684 159.712C110.739 159.766 110.766 159.827 110.766 159.898C110.766 160.006 110.711 160.087 110.601 160.138C110.037 160.405 109.311 161.233 108.424 162.616C107.533 163.998 106.825 165.235 106.295 166.327C106.257 166.415 106.192 166.564 106.092 166.77C105.992 166.973 105.903 167.422 105.831 168.109C105.759 168.795 105.659 169.721 105.532 170.881C105.442 171.81 105.287 172.436 105.071 172.757C104.961 172.919 104.827 172.997 104.661 172.997L104.658 173ZM105.366 159.898C105.239 159.952 104.988 160.121 104.617 160.408C104.245 160.695 104.015 160.892 103.922 160.996C104.414 160.817 104.895 160.452 105.366 159.898Z" fill="#005186"/>
<path d="M11.9963 145.663C11.9963 138.838 16.4055 133.706 23.5524 133.706C27.1499 133.706 29.9907 134.852 31.9649 136.796C34.9055 133.956 37.6913 130.272 39.9716 126.983C41.3404 125.039 42.5064 123.298 43.4178 122H43.8752V138.54C45.3438 135.599 48.1846 133.906 51.5792 133.757C58.929 133.46 62.3236 138.239 62.3236 145.064C62.3236 152.437 58.1174 157.42 50.3617 157.42C47.4727 157.42 44.9895 156.473 43.2149 154.232L40.0713 157.021V127.879C37.031 132.212 33.0242 137.543 28.3123 140.285C23.0399 143.374 19.4424 141.481 18.531 138.939C18.1767 137.891 18.2765 136.745 18.8852 135.751C16.7047 137.546 15.8449 140.785 15.8449 143.871C15.8449 148.752 17.7709 156.825 24.0545 156.825C29.5299 156.825 31.4043 152.44 31.4043 147.759C31.4043 145.119 30.9469 142.529 29.9838 140.038L32.8213 137.746C34.5444 140.088 35.2047 142.779 35.2047 145.666C35.2047 152.691 30.8437 157.423 23.5971 157.423C16.3504 157.423 11.9894 152.691 11.9894 145.666L11.9963 145.663ZM19.1432 138.54C19.8035 140.981 22.9952 142.823 28.1129 139.835C28.5703 139.537 29.0243 139.237 29.4817 138.888C28.216 136.346 26.1869 134.406 23.0949 134.406C22.0803 134.406 21.1689 134.555 20.4088 134.852C19.1913 135.799 18.7855 137.242 19.1432 138.537V138.54ZM43.8786 153.735C45.0961 155.828 47.4762 156.872 49.808 156.872C56.1948 156.872 58.2721 150.896 58.2721 145.612C58.2721 141.126 57.0546 134.453 50.8226 134.453C46.4134 134.453 43.8786 138.888 43.8786 142.874V153.735Z" fill="#005186"/>
<path d="M65.1714 156.872V156.723C66.186 156.723 67.4516 156.176 67.4516 153.684V139.237C67.4516 137.841 67.4 137.492 65.7285 137.492H65.474V137.391L70.5435 134.254H70.8462V137.841C72.6725 135.15 75.1041 133.855 78.8563 133.757C84.5346 133.608 87.3721 136.546 87.4718 140.582L87.6231 153.684C87.6747 156.176 89.1433 156.723 90.0066 156.723V156.872H81.4909V156.723C82.5054 156.723 83.8227 156.176 83.8227 153.684L83.6714 140.832C83.6714 139.338 83.5716 134.355 78.1478 134.355C74.2442 134.355 71.2555 138.091 71.2555 141.728L71.3071 153.684C71.3071 156.176 72.8272 156.723 73.6389 156.723V156.872H65.1748H65.1714Z" fill="#005186"/>
<path d="M102.23 144.071C106.587 142.326 108.314 141.13 108.262 137.942C108.211 135.701 106.591 133.757 102.839 134.257C99.5438 134.703 96.4002 137.895 94.0684 141.731V137.648C96.0941 135.058 99.7948 133.862 102.887 133.764C108.41 133.615 111.705 135.954 111.705 141.684V152.944C111.705 154.239 111.908 155.584 113.683 155.533C114.089 155.533 114.594 155.385 115 154.986V155.236C114.391 156.281 112.974 157.129 111.2 157.129C108.716 157.129 108.056 154.939 108.008 154.039C105.979 156.23 103.802 157.528 99.0348 157.426C97.3117 157.376 95.7399 156.93 94.7769 156.132C93.7623 155.283 93.2567 154.09 93.2051 152.792C93.1535 150.848 94.1165 148.756 95.6367 147.562C97.917 145.768 100.149 144.922 102.226 144.074L102.23 144.071ZM101.418 156.723C104.156 156.821 107.905 154.631 107.905 152.339V142.178C103.241 143.82 97.2085 146.46 97.2085 151.893C97.2085 155.131 99.2342 156.676 101.415 156.727L101.418 156.723Z" fill="#005186"/>
<path d="M0 157.278C1.01116 157.278 2.73081 156.233 2.73081 154.1V125.982C2.73081 123.846 1.01116 122.805 0 122.805V122.656H9.24829V122.805C8.23713 122.805 6.56907 123.849 6.56907 125.982V154.097C6.56907 155.787 7.67997 156.879 9.65069 156.879H17.4854C21.8327 156.879 24.763 153.701 26.1765 151.366L24.5601 157.427H0V157.278Z" fill="#005186"/>
</svg>
