<svg width="174" height="75" viewBox="0 0 174 75" fill="none" xmlns="http://www.w3.org/2000/svg">
<path d="M125.361 50.9507L132.001 57.5905L156.156 33.4357L149.516 26.7959L125.361 50.9507Z" fill="#00C8F3"/>
<path d="M106.391 50.9504L113.031 57.5901L137.185 33.4353L130.546 26.7956L106.391 50.9504Z" fill="#00C8F3"/>
<path d="M87.4376 50.9472L94.0774 57.5869L118.232 33.4321L111.592 26.7924L87.4376 50.9472Z" fill="#00C8F3"/>
<path d="M68.4844 50.9539L75.1241 57.5936L99.2789 33.4389L92.6392 26.7991L68.4844 50.9539Z" fill="#00C8F3"/>
<path d="M132.01 47.9V57.58H49.52V50.95L52.57 47.9H132.01Z" fill="#00C8F3"/>
<path d="M47.56 28.35L13.29 62.62H0L40.91 21.71L47.56 28.35Z" fill="#00C8F3"/>
<path d="M30.6542 50.9538L37.294 57.5935L61.4487 33.4387L54.809 26.799L30.6542 50.9538Z" fill="#00C8F3"/>
<path d="M0.0299988 43.04H9.42L9.42 32.51H0.0299988L0.0299988 43.04Z" fill="#00C8F3"/>
<path d="M0.0299988 29.53H9.42L9.42 19H0.0299988L0.0299988 29.53Z" fill="#00C8F3"/>
<path d="M94.6047 24.8329L101.244 31.4727L108.69 24.0268L102.051 17.3871L94.6047 24.8329Z" fill="#00C8F3"/>
<path d="M113.558 24.8262L120.198 31.4659L127.644 24.0201L121.004 17.3804L113.558 24.8262Z" fill="#00C8F3"/>
<path d="M132.521 24.8295L139.161 31.4692L146.607 24.0234L139.967 17.3837L132.521 24.8295Z" fill="#00C8F3"/>
<path d="M107.11 6.64L65.86 47.9L56.18 57.58L56.16 57.59L49.52 50.95L52.57 47.9L100.47 0L107.11 6.64Z" fill="#00C8F3"/>
<path d="M149.584 26.874L142.944 33.5137L167.056 57.626L173.696 50.9863L149.584 26.874Z" fill="#00C8F3"/>
<path d="M132.01 47.9V57.58H167.1V47.9H132.01Z" fill="#00C8F3"/>
<path d="M13.35 53.16H22.74L22.74 19H13.35L13.35 53.16Z" fill="#00C8F3"/>
<path d="M13.34 18.99V28.38L47.55 28.38V18.99H13.34Z" fill="#00C8F3"/>
<path d="M59.19 71.3699H53.88C53.5 71.3699 53.07 71.3399 52.6 71.2899C52.13 71.2399 51.66 71.0899 51.21 70.8599C50.24 70.2699 49.68 69.3599 49.53 68.1299C49.52 68.0099 49.51 67.8799 49.51 67.7599C49.51 66.7499 49.87 65.8299 50.61 64.9799C51.55 64.0099 52.59 63.5299 53.76 63.5299H57.11V70.0099H59.19V71.3699ZM55.77 70.0099V64.8599H53.76C52.99 64.8599 52.27 65.1999 51.62 65.8799C51.11 66.4599 50.85 67.0799 50.85 67.7599L50.87 67.9899C50.97 68.7699 51.31 69.3399 51.87 69.6999C52.28 69.9099 52.88 70.0099 53.66 70.0099H55.77ZM53.56 62.3599C53.33 62.3599 53.14 62.2799 52.98 62.1099C52.82 61.9499 52.74 61.7499 52.74 61.5199C52.74 61.2899 52.82 61.0899 52.98 60.9299C53.14 60.7699 53.33 60.6899 53.56 60.6899C53.79 60.6899 53.99 60.7699 54.15 60.9299C54.31 61.0899 54.39 61.2899 54.39 61.5199C54.39 61.7499 54.31 61.9399 54.15 62.1099C53.99 62.2699 53.79 62.3599 53.56 62.3599ZM56.19 62.3599C55.95 62.3599 55.76 62.2799 55.6 62.1099C55.44 61.9499 55.36 61.7499 55.36 61.5199C55.36 61.2899 55.44 61.0899 55.6 60.9299C55.76 60.7699 55.96 60.6899 56.19 60.6899C56.42 60.6899 56.61 60.7699 56.77 60.9299C56.93 61.0899 57.01 61.2899 57.01 61.5199C57.01 61.7499 56.93 61.9399 56.77 62.1099C56.61 62.2699 56.42 62.3599 56.19 62.3599Z" fill="#00C8F3"/>
<path d="M64.01 71.3699H58.27V70.0099H60.38V64.33H61.74V70.0099H64.01V71.3699ZM59.87 74.39C59.64 74.39 59.45 74.31 59.29 74.14C59.13 73.98 59.05 73.78 59.05 73.55C59.05 73.31 59.13 73.12 59.29 72.96C59.45 72.8 59.64 72.72 59.87 72.72C60.1 72.72 60.3 72.8 60.46 72.96C60.62 73.12 60.7 73.32 60.7 73.55C60.7 73.78 60.62 73.97 60.46 74.14C60.3 74.31 60.1 74.39 59.87 74.39ZM62.49 74.39C62.25 74.39 62.06 74.31 61.9 74.14C61.74 73.98 61.66 73.78 61.66 73.55C61.66 73.31 61.74 73.12 61.9 72.96C62.06 72.8 62.26 72.72 62.49 72.72C62.72 72.72 62.91 72.8 63.07 72.96C63.23 73.12 63.31 73.32 63.31 73.55C63.31 73.78 63.23 73.97 63.07 74.14C62.91 74.31 62.72 74.39 62.49 74.39Z" fill="#00C8F3"/>
<path d="M73 71.3699H70.05V70.2799L69.7 70.5299C69.13 71.0999 68.38 71.3799 67.43 71.3799H63.23V70.0199L65.14 69.9899V64.0499H66.48V70.0299H67.91C68.5 70.0299 69 69.8199 69.41 69.4099C69.83 68.9899 70.03 68.4899 70.03 67.9099V64.0499H71.36V70.0299H72.98C73.4 70.0299 73.76 69.8799 74.06 69.5799C74.36 69.2799 74.51 68.9199 74.51 68.4999V64.0399H75.85V68.4999C75.85 69.2899 75.57 69.9699 75.01 70.5299C74.45 71.0899 73.77 71.3699 72.98 71.3699H73Z" fill="#00C8F3"/>
<path d="M86 71.3699H77.18L76.78 70.0099H82.89V68.2499C82.89 67.4499 82.61 66.7599 82.04 66.1999C81.47 65.6399 80.8 65.3499 80 65.3499C79.39 65.3499 78.85 65.5099 78.38 65.8399L78.29 65.8999L77.4 64.8999L77.49 64.8399C78.22 64.2899 79.06 64.0199 80 64.0199C81.16 64.0199 82.15 64.4299 82.98 65.2499C83.8 66.0699 84.21 67.0699 84.21 68.2399V69.9999H86V71.3599V71.3699Z" fill="#00C8F3"/>
<path d="M90.67 71.3699H84.93V70.0099H87.04V64.33H88.4V70.0099H90.67V71.3699ZM87.61 62.36C87.37 62.36 87.18 62.2799 87.02 62.1199C86.86 61.9599 86.78 61.7699 86.78 61.5399C86.78 61.3099 86.86 61.11 87.02 60.95C87.18 60.79 87.38 60.71 87.61 60.71C87.84 60.71 88.03 60.79 88.19 60.95C88.35 61.11 88.43 61.3099 88.43 61.5399C88.43 61.7699 88.35 61.9599 88.19 62.1199C88.03 62.2799 87.84 62.36 87.61 62.36Z" fill="#00C8F3"/>
<path d="M104.39 71.3699H89.75V70L91.66 70.02V69.7899C91.72 68.7599 92.11 67.8399 92.83 67.0099L93.29 66.52H92.98C93.03 65.29 93.53 64.24 94.46 63.39C95.32 62.6 96.35 62.2 97.53 62.2H98.24C99.49 62.2 100.57 62.64 101.46 63.53C102.35 64.42 102.79 65.49 102.79 66.75V70.02H104.38V71.38L104.39 71.3699ZM97.15 70.0099V66.88H96.19C95.37 66.88 94.61 67.24 93.91 67.96C93.43 68.51 93.16 69.1099 93.11 69.7599L93.06 70.0099H97.15ZM101.36 70.0099V66.72C101.36 65.87 101.05 65.13 100.44 64.52C99.83 63.91 99.1 63.6 98.24 63.6H97.53C96.37 63.6 95.45 64.15 94.77 65.25L94.54 65.7299C95.28 65.5199 95.83 65.42 96.19 65.42H98.6V70H101.36V70.0099Z" fill="#00C8F3"/>
<path d="M106.67 71.3699H103.54L103.52 70.0099H106.33L106.35 60.8899H107.72L107.74 70.3099C107.74 70.5999 107.63 70.8499 107.42 71.0499C107.21 71.2599 106.96 71.3599 106.67 71.3599V71.3699Z" fill="#00C8F3"/>
<path d="M110.34 71.3699H109V60.8999H110.34V71.3699Z" fill="#00C8F3"/>
<path d="M125.46 71.3699H117.95C116.76 71.3699 115.74 70.9499 114.9 70.1099C114.06 69.2699 113.64 68.2499 113.64 67.0599V65.4699H114.98V67.0599C114.98 67.8799 115.27 68.5799 115.85 69.1599C116.43 69.7399 117.13 70.0199 117.94 70.0199H125.39V64.3399H126.75V70.0799C126.75 70.4399 126.62 70.7499 126.37 70.9999C126.12 71.2499 125.81 71.3799 125.45 71.3799L125.46 71.3699ZM119.33 64.2099C119.1 64.2099 118.91 64.1299 118.75 63.9599C118.59 63.7999 118.51 63.5999 118.51 63.3699C118.51 63.1399 118.59 62.9399 118.75 62.7799C118.91 62.6199 119.1 62.5399 119.33 62.5399C119.56 62.5399 119.76 62.6199 119.92 62.7799C120.08 62.9399 120.16 63.1399 120.16 63.3699C120.16 63.5999 120.08 63.7899 119.92 63.9599C119.76 64.1199 119.56 64.2099 119.33 64.2099ZM121.96 64.2099C121.72 64.2099 121.53 64.1299 121.37 63.9599C121.21 63.7999 121.13 63.5999 121.13 63.3699C121.13 63.1399 121.21 62.9399 121.37 62.7799C121.53 62.6199 121.73 62.5399 121.96 62.5399C122.19 62.5399 122.38 62.6199 122.54 62.7799C122.7 62.9399 122.78 63.1399 122.78 63.3699C122.78 63.5999 122.7 63.7899 122.54 63.9599C122.38 64.1199 122.19 64.2099 121.96 64.2099Z" fill="#00C8F3"/>
<path d="M130.61 71.3699H128.87C128.58 71.3699 128.33 71.2699 128.12 71.0599C127.91 70.8499 127.8 70.6099 127.8 70.3199L127.82 60.8999H129.19L129.21 70.0199H130.63L130.61 71.3799V71.3699Z" fill="#00C8F3"/>
<path d="M136.04 71.37H129.96L129.94 70.01H131.93C131.44 69.27 131.19 68.47 131.19 67.62C131.19 66.59 131.55 65.72 132.26 65C132.97 64.28 133.86 63.9 134.92 63.86H135.41C136.26 63.9 137.05 64.28 137.76 65C138.47 65.72 138.83 66.61 138.83 67.68C138.83 69.53 137.99 70.74 136.32 71.3C136.2 71.34 136.1 71.36 136.03 71.36L136.04 71.37ZM135.05 70.01C135.82 69.96 136.4 69.73 136.79 69.32C137.27 68.85 137.51 68.28 137.51 67.62C137.51 67.04 137.25 66.5 136.74 66C136.23 65.5 135.65 65.24 135.01 65.24C134.37 65.24 133.8 65.49 133.28 66C132.77 66.5 132.51 67.04 132.51 67.62C132.51 68.28 132.75 68.84 133.23 69.32C133.63 69.73 134.23 69.96 135.03 70.01H135.05Z" fill="#00C8F3"/>
<path d="M149.26 71.3699H140.44L140.04 70.0099H146.15V68.2499C146.15 67.4499 145.87 66.7599 145.3 66.1999C144.73 65.6399 144.06 65.3499 143.26 65.3499C142.65 65.3499 142.11 65.5099 141.64 65.8399L141.55 65.8999L140.66 64.8999L140.75 64.8399C141.48 64.2899 142.32 64.0199 143.26 64.0199C144.42 64.0199 145.41 64.4299 146.24 65.2499C147.07 66.0699 147.47 67.0699 147.47 68.2399V69.9999H149.26V71.3599V71.3699Z" fill="#00C8F3"/>
<path d="M159.44 71.3699H148.03L148.01 70.0099H155.71V68.2499C155.71 67.4499 155.43 66.7599 154.86 66.1999C154.29 65.6399 153.62 65.3499 152.82 65.3499C152.21 65.3499 151.67 65.5099 151.2 65.8399L151.11 65.8999L150.22 64.8999L150.31 64.8399C151.04 64.2899 151.88 64.0199 152.82 64.0199C153.98 64.0199 154.97 64.4299 155.8 65.2499C156.62 66.0699 157.03 67.0699 157.03 68.2399V69.9999H159.44V71.3599V71.3699ZM153.02 62.6699C152.78 62.6699 152.59 62.5899 152.43 62.4299C152.27 62.2699 152.19 62.0799 152.19 61.8499C152.19 61.6199 152.27 61.4199 152.43 61.2599C152.59 61.0999 152.79 61.0199 153.02 61.0199C153.25 61.0199 153.44 61.0999 153.6 61.2599C153.76 61.4199 153.84 61.6199 153.84 61.8499C153.84 62.0799 153.76 62.2699 153.6 62.4299C153.44 62.5899 153.25 62.6699 153.02 62.6699Z" fill="#00C8F3"/>
<path d="M163.69 71.3699H158.58L158.56 70.0099H160.53V60.8899H161.87V70.0099H163.67V71.3699H163.69Z" fill="#00C8F3"/>
<path d="M166.04 71.3699H162.91L162.89 70.0099H165.7L165.72 60.8899H167.09L167.11 70.3099C167.11 70.5999 167 70.8499 166.79 71.0499C166.58 71.2599 166.33 71.3599 166.04 71.3599V71.3699Z" fill="#00C8F3"/>
</svg>
