<svg width="181" height="130" viewBox="0 0 181 130" fill="none" xmlns="http://www.w3.org/2000/svg">
<path d="M9.61715 117.934L3.40286 108.72H0V128.563H3.16791V113.473L9.47131 122.581L16.0745 113.416V128.563H19.3315V108.72H15.9854L9.61715 117.934Z" fill="#02E8CA"/>
<path d="M29.8722 108.427H26.5585V111.252H29.8722V108.427Z" fill="#02E8CA"/>
<path d="M26.6477 113.717V128.563H29.7832L29.7589 113.717H26.6477Z" fill="#02E8CA"/>
<path d="M46.838 114.116C46.6355 114.019 46.4167 113.937 46.1899 113.856C45.6146 113.669 45.0556 113.522 44.5047 113.424C43.9537 113.327 43.4919 113.278 43.1111 113.278C40.7777 113.278 39.0439 113.962 37.9015 115.329C36.7591 116.696 36.1838 118.56 36.1838 120.92C36.1838 122.589 36.3945 123.948 36.8077 124.998C37.2209 126.048 37.788 126.87 38.4929 127.456C39.2059 128.042 39.9918 128.449 40.8587 128.677C41.7256 128.905 42.6169 129.019 43.5243 129.019C44.2535 129.019 44.9908 128.946 45.7443 128.807C46.4978 128.669 47.1864 128.457 47.8184 128.164C48.4504 127.879 48.9608 127.505 49.3416 127.049C49.7224 126.593 49.9168 126.056 49.9168 125.446V107.393H46.838V114.124V114.116ZM46.838 125.112C46.838 125.47 46.5221 125.755 45.8901 125.975C45.2581 126.195 44.4966 126.3 43.6134 126.3C42.4872 126.3 41.6122 126.064 40.9965 125.584C40.3726 125.104 39.9432 124.469 39.7082 123.663C39.4733 122.858 39.3517 121.962 39.3517 120.969C39.3517 119.879 39.4976 118.959 39.7974 118.218C40.0971 117.478 40.5508 116.908 41.1747 116.525C41.7986 116.143 42.5926 115.947 43.5567 115.947C44.0914 115.947 44.6424 116.021 45.2176 116.159C45.7929 116.297 46.3357 116.517 46.8461 116.81V125.112H46.838Z" fill="#02E8CA"/>
<path d="M66.8905 114.116C66.688 114.019 66.4692 113.937 66.2424 113.856C65.6671 113.669 65.1081 113.522 64.5571 113.424C64.0062 113.327 63.5363 113.278 63.1636 113.278C60.8302 113.278 59.0964 113.962 57.954 115.329C56.8116 116.696 56.2363 118.56 56.2363 120.92C56.2363 122.589 56.447 123.948 56.8602 124.998C57.2734 126.048 57.8405 126.87 58.5454 127.456C59.2584 128.042 60.0443 128.449 60.9112 128.677C61.7781 128.905 62.6694 129.019 63.5768 129.019C64.306 129.019 65.0433 128.946 65.7968 128.807C66.5502 128.669 67.2389 128.457 67.8709 128.164C68.5028 127.879 69.0133 127.505 69.3941 127.049C69.783 126.593 69.9693 126.056 69.9693 125.446V107.393H66.8905V114.124V114.116ZM66.8905 125.112C66.8905 125.47 66.5746 125.755 65.9426 125.975C65.3106 126.195 64.549 126.3 63.6659 126.3C62.5397 126.3 61.6647 126.064 61.0489 125.584C60.4251 125.104 59.9957 124.469 59.7607 123.663C59.5258 122.858 59.4042 121.962 59.4042 120.969C59.4042 119.879 59.5501 118.959 59.8498 118.218C60.1496 117.478 60.6033 116.908 61.2272 116.525C61.8511 116.143 62.6451 115.947 63.6092 115.947C64.1439 115.947 64.6949 116.021 65.2701 116.159C65.8454 116.297 66.3882 116.517 66.8986 116.81V125.112H66.8905Z" fill="#02E8CA"/>
<path d="M80.1213 107.979H77.0425V128.563H80.1213V107.979Z" fill="#02E8CA"/>
<path d="M99.3557 117.331C98.9101 116.053 98.1971 115.052 97.2087 114.344C96.2202 113.628 94.932 113.27 93.3278 113.27C91.1564 113.27 89.4631 113.937 88.2478 115.28C87.0325 116.615 86.4248 118.585 86.4248 121.181C86.4248 122.866 86.7165 124.29 87.2998 125.462C87.8832 126.634 88.7096 127.513 89.7872 128.107C90.8647 128.701 92.1287 129.003 93.5951 129.003C94.6808 129.003 95.6531 128.905 96.5281 128.718C97.395 128.531 98.1728 128.286 98.8696 127.985V125.096C98.5131 125.275 98.0918 125.462 97.5975 125.649C97.1033 125.837 96.5686 125.991 95.9852 126.113C95.4019 126.235 94.778 126.292 94.1056 126.292C92.6067 126.292 91.4724 125.861 90.7027 124.998C90.0302 124.241 89.6494 123.175 89.5684 121.8H100.004C100.02 120.09 99.8094 118.601 99.3638 117.323L99.3557 117.331ZM91.2293 116.322C91.7803 115.996 92.4527 115.834 93.2467 115.834C94.4701 115.834 95.3695 116.184 95.9447 116.892C96.4146 117.478 96.7144 118.349 96.836 119.496H89.6494C89.7223 118.918 89.8277 118.414 89.9816 117.99C90.2652 117.209 90.6865 116.656 91.2374 116.322H91.2293Z" fill="#02E8CA"/>
<path d="M117.52 128.563H130.459V125.796H120.777V120.025H129.212V117.226H120.81V111.488H130.459V108.72H117.52V128.563Z" fill="#02E8CA"/>
<path d="M148.414 114.898C148.025 114.507 147.587 114.206 147.093 113.978C146.599 113.75 146.072 113.579 145.505 113.473C144.946 113.368 144.387 113.311 143.836 113.311C142.71 113.311 141.616 113.424 140.563 113.652C139.509 113.88 138.699 114.181 138.148 114.556V117.47C138.724 116.989 139.453 116.623 140.336 116.355C141.227 116.086 142.086 115.956 142.912 115.956C144.079 115.956 144.97 116.2 145.61 116.68C146.242 117.168 146.558 117.934 146.558 118.983V120.4C146.331 120.261 146.08 120.131 145.805 120.009C145.319 119.797 144.776 119.635 144.176 119.521C143.577 119.399 142.896 119.342 142.151 119.342C141.025 119.342 140.06 119.521 139.25 119.879C138.44 120.237 137.816 120.774 137.387 121.482C136.949 122.198 136.739 123.11 136.739 124.217C136.739 125.153 136.909 125.926 137.257 126.553C137.605 127.18 138.067 127.668 138.651 128.026C139.234 128.384 139.882 128.636 140.587 128.783C141.292 128.929 142.037 129.003 142.807 129.003C144.111 129.003 145.278 128.905 146.299 128.718C147.328 128.531 148.138 128.172 148.746 127.643C149.345 127.114 149.645 126.366 149.645 125.397V118.259C149.645 117.502 149.54 116.851 149.321 116.298C149.102 115.744 148.802 115.272 148.422 114.881L148.414 114.898ZM145.74 126.333C145.189 126.496 144.33 126.569 143.163 126.569C142.613 126.569 142.086 126.488 141.584 126.317C141.081 126.146 140.66 125.877 140.328 125.511C139.996 125.145 139.825 124.665 139.825 124.07C139.825 123.281 140.117 122.679 140.7 122.288C141.284 121.889 142.135 121.694 143.261 121.694C144.111 121.694 144.897 121.8 145.626 122.003C145.975 122.101 146.291 122.215 146.574 122.337V125.234C146.574 125.812 146.299 126.178 145.748 126.333H145.74Z" fill="#02E8CA"/>
<path d="M165.371 121.034C164.917 120.717 164.423 120.473 163.888 120.302C163.354 120.131 162.843 119.968 162.349 119.813C161.814 119.659 161.32 119.496 160.85 119.341C160.38 119.187 160.008 118.967 159.724 118.69C159.44 118.413 159.295 118.039 159.295 117.559C159.295 117.005 159.554 116.582 160.064 116.297C160.575 116.012 161.223 115.866 161.993 115.866C162.819 115.866 163.548 116.004 164.18 116.281C164.812 116.558 165.485 116.883 166.198 117.266L166.165 114.588C165.533 114.254 164.885 113.961 164.229 113.725C163.564 113.489 162.714 113.359 161.669 113.343C161.037 113.343 160.388 113.424 159.732 113.595C159.068 113.766 158.468 114.035 157.925 114.401C157.383 114.767 156.945 115.247 156.605 115.825C156.273 116.411 156.102 117.119 156.102 117.949C156.102 118.706 156.232 119.341 156.499 119.854C156.767 120.367 157.123 120.79 157.569 121.116C158.015 121.441 158.501 121.702 159.035 121.889C159.57 122.076 160.105 122.239 160.631 122.377C161.142 122.556 161.636 122.735 162.114 122.914C162.592 123.093 162.981 123.313 163.281 123.565C163.589 123.826 163.743 124.184 163.743 124.64C163.743 125.177 163.5 125.625 163.022 125.975C162.535 126.333 161.871 126.512 161.02 126.512C160.348 126.512 159.74 126.439 159.197 126.3C158.655 126.162 158.136 125.966 157.642 125.722C157.148 125.478 156.645 125.193 156.135 124.876V127.822C156.848 128.156 157.569 128.441 158.314 128.669C159.06 128.897 159.959 129.01 161.02 129.01C161.985 129.01 162.924 128.848 163.832 128.538C164.739 128.221 165.476 127.716 166.036 127.025C166.595 126.333 166.886 125.429 166.911 124.314C166.911 123.484 166.765 122.809 166.481 122.296C166.198 121.783 165.825 121.36 165.371 121.05V121.034Z" fill="#02E8CA"/>
<path d="M177.386 109.469H174.186V113.636H171.788V116.224H174.186V124.729C174.186 126.121 174.575 127.171 175.353 127.879C176.131 128.595 177.192 128.954 178.537 128.954C178.934 128.954 179.347 128.913 179.793 128.831C180.238 128.75 180.635 128.636 180.992 128.473V125.706C180.757 125.844 180.465 125.958 180.133 126.048C179.801 126.137 179.461 126.178 179.128 126.178C178.456 126.178 177.994 126.007 177.751 125.657C177.508 125.307 177.378 124.786 177.378 124.094V116.216H180.992V113.628H177.378V109.46L177.386 109.469Z" fill="#02E8CA"/>
<path d="M53.741 84.0832C53.6195 83.3263 53.498 82.6344 53.3764 81.9996L50.9944 82.3984C51.1484 83.1553 51.2861 83.896 51.3995 84.6204C51.513 85.3447 51.6021 85.9959 51.6588 86.5656C51.7236 87.1353 51.7479 87.583 51.7479 87.8923V93.0036H48.0777C47.7455 93.0036 47.4214 92.9304 47.1054 92.7757C46.911 92.6862 46.7003 92.5478 46.4816 92.3932C46.7165 91.5874 46.8462 90.5863 46.8462 89.3654V83.3344H44.3831V89.3654C44.3831 90.3828 44.3183 91.156 44.1968 91.6851C44.0753 92.2141 43.8646 92.5641 43.5648 92.735C43.2651 92.9141 42.8194 92.9955 42.228 92.9955H39.5057V84.6448H37.067V92.9955H17.9056V88.9178C17.9056 88.1446 17.8084 87.347 17.6139 86.533C17.4195 85.7191 17.0954 84.9622 16.6336 84.2785C16.1718 83.5948 15.5398 83.0414 14.7296 82.6182C13.9275 82.1949 12.9147 81.9833 11.6913 81.9833C10.6057 81.9833 9.64962 82.1542 8.82321 82.4879C7.9968 82.8216 7.2433 83.2693 6.57083 83.8309C5.89836 84.3925 5.2745 85.0192 4.69926 85.711C4.54532 85.8982 4.38328 86.0935 4.22934 86.2889V76.3755H1.79062V92.9873H0.0324707V95.1767H42.2361C43.338 95.1767 44.2211 94.9895 44.8855 94.6233C45.0394 94.5419 45.1771 94.4361 45.3068 94.3303C45.6066 94.5338 45.9144 94.6965 46.2304 94.8186C46.83 95.0547 47.4457 95.1767 48.0777 95.1767H54.1866V87.8841C54.1866 87.4609 54.1461 86.9074 54.057 86.2238C53.9679 85.5401 53.8626 84.8238 53.741 84.0669V84.0832ZM4.22934 89.2434C4.39138 89.0317 4.56152 88.812 4.73977 88.5841C5.13677 88.0713 5.57428 87.5667 6.0604 87.0539C6.54653 86.5412 7.07316 86.0773 7.6322 85.6459C8.19125 85.2145 8.807 84.8727 9.47137 84.6041C10.1357 84.3436 10.8406 84.2053 11.5941 84.2053C12.4529 84.2053 13.1659 84.3762 13.7412 84.718C14.3164 85.0599 14.7539 85.5808 15.0375 86.2726C15.3292 86.9644 15.4669 87.8516 15.4669 88.9178V92.9955H4.22934V89.2352V89.2434Z" fill="#02E8CA"/>
<path d="M65.3676 98.2206C64.7275 98.7496 63.7148 99.0101 62.3131 99.0101C61.8756 99.0101 61.349 98.9857 60.7413 98.9287C60.1255 98.8799 59.364 98.7985 58.4322 98.6927L58.0676 100.67C58.8859 100.85 59.6475 100.98 60.3362 101.077C61.0249 101.175 61.6892 101.224 62.3131 101.224C63.6418 101.224 64.7842 101.02 65.7484 100.605C66.7125 100.19 67.4498 99.588 67.9764 98.7903C68.5031 97.9927 68.7623 97.0323 68.7623 95.9091V82.0076H63.2043C61.6811 82.0076 60.4901 82.2436 59.6151 82.7157C58.7401 83.1877 58.1162 83.9203 57.7435 84.9051C57.3708 85.8899 57.1764 87.1352 57.1764 88.6409C57.1764 90.1466 57.3627 91.3675 57.7435 92.3442C58.1162 93.3209 58.7401 94.0371 59.6151 94.501C60.4901 94.965 61.6892 95.201 63.2043 95.201H66.3236V95.9417C66.3236 96.9428 66.0076 97.7078 65.3676 98.2287V98.2206ZM63.2043 93.0116C62.2645 93.0116 61.5272 92.8976 61.0168 92.6698C60.4982 92.4419 60.1417 92.0186 59.9311 91.3919C59.7204 90.7734 59.6151 89.8536 59.6151 88.6409C59.6151 87.4282 59.7204 86.4759 59.9311 85.8329C60.1417 85.1899 60.5063 84.7667 61.033 84.547C61.5596 84.3272 62.2807 84.2214 63.2124 84.2214H66.3317V93.0197H63.2124L63.2043 93.0116Z" fill="#02E8CA"/>
<path d="M83.4189 93.0118H78.2255V80.1033H75.7868V93.0118H71.752V95.1931H85.8495V76.3918H83.4189V93.0118Z" fill="#02E8CA"/>
<path d="M74.2634 78.288H79.7404V76.7579H76.6454C76.6454 76.7579 76.6292 76.7334 76.6211 76.7172C76.532 76.5137 76.4915 76.3021 76.4915 76.0742C76.4915 75.7079 76.6049 75.4068 76.8318 75.1789C77.0586 74.951 77.3827 74.837 77.804 74.837C77.9418 74.837 78.0795 74.8533 78.2253 74.8777C78.3712 74.9021 78.5089 74.9591 78.6466 75.0486L79.3839 73.7545C79.1571 73.6162 78.8978 73.5022 78.598 73.4127C78.2983 73.3232 78.0066 73.2825 77.7068 73.2825C77.1964 73.2825 76.7265 73.4046 76.2808 73.6487C75.8352 73.8929 75.4787 74.2266 75.2033 74.6498C74.9359 75.0731 74.7982 75.5451 74.7982 76.0742C74.7982 76.3102 74.8387 76.5381 74.8954 76.7579H74.2715V78.288H74.2634Z" fill="#02E8CA"/>
<path d="M92.8253 76.3918H90.3866V95.1931H92.8253V76.3918Z" fill="#02E8CA"/>
<path d="M116.281 77.3196H113.818V79.8752H116.281V77.3196Z" fill="#02E8CA"/>
<path d="M119.878 77.3196H117.415V79.8752H119.878V77.3196Z" fill="#02E8CA"/>
<path d="M121.118 99.645C121.742 98.7985 122.049 97.773 122.049 96.5603V81.9995H116.491C114.968 81.9995 113.777 82.2437 112.902 82.7239C112.027 83.2041 111.403 83.9366 111.031 84.9133C110.658 85.89 110.463 87.119 110.463 88.6166C110.463 90.1142 110.65 91.3676 111.031 92.3443C111.403 93.321 112.027 94.0372 112.902 94.5011C113.777 94.965 114.976 95.2011 116.491 95.2011H119.611V96.5684C119.611 97.6347 119.23 98.4811 118.468 99.0997C117.707 99.7183 116.637 100.019 115.26 100.019H109.151C108.227 100.019 107.417 99.8729 106.728 99.5718C106.04 99.2706 105.497 98.8474 105.116 98.2939C104.735 97.7405 104.541 97.0731 104.541 96.2836C104.541 95.901 104.581 95.3394 104.662 94.6151C104.743 93.8907 104.857 93.0279 105.019 92.035C105.173 91.042 105.343 89.9514 105.521 88.7549L103.107 88.4131C103.001 89.0642 102.888 89.7805 102.767 90.5618C102.645 91.3432 102.532 92.1082 102.442 92.8652C102.345 93.6221 102.264 94.3139 102.191 94.9488C102.118 95.5836 102.086 96.0801 102.086 96.4464C102.086 97.5695 102.402 98.5625 103.026 99.4334C103.658 100.304 104.508 100.98 105.578 101.476C106.655 101.965 107.846 102.217 109.159 102.217H115.268C116.491 102.217 117.618 102.005 118.647 101.574C119.676 101.143 120.502 100.508 121.126 99.6613L121.118 99.645ZM116.491 93.0117C115.552 93.0117 114.814 92.8977 114.288 92.6698C113.761 92.4419 113.405 92.0106 113.21 91.3757C113.016 90.7409 112.918 89.8212 112.918 88.6084C112.918 87.3957 113.016 86.476 113.21 85.8412C113.405 85.2063 113.761 84.7831 114.288 84.5552C114.814 84.3273 115.543 84.2133 116.491 84.2133H119.611V93.0117H116.491Z" fill="#02E8CA"/>
<path d="M160.348 77.0754H157.933V79.6311H160.348V77.0754Z" fill="#02E8CA"/>
<path d="M156.443 77.0754H154.028V79.6311H156.443V77.0754Z" fill="#02E8CA"/>
<path d="M158.306 73.657H156.102V76.001H158.306V73.657Z" fill="#02E8CA"/>
<path d="M174.138 76.3919H171.699V93.0038H165.776V87.8924C165.776 87.4692 165.736 86.9157 165.647 86.2321C165.557 85.5484 165.452 84.8321 165.331 84.0752C165.209 83.3183 165.088 82.6265 164.966 81.9916L162.584 82.3904C162.738 83.1474 162.876 83.888 162.989 84.6124C163.103 85.3368 163.192 85.9879 163.248 86.5576C163.305 87.1274 163.338 87.575 163.338 87.8843V92.9956H159.667C159.335 92.9956 159.011 92.9224 158.695 92.7677C158.501 92.6782 158.29 92.5398 158.071 92.3852C158.306 91.5794 158.436 90.5783 158.436 89.3575V83.3264H155.973V89.3575C155.973 90.3748 155.908 91.1481 155.786 91.6771C155.665 92.2061 155.454 92.5561 155.154 92.727C154.855 92.9061 154.409 92.9875 153.818 92.9875H151.095V84.6368H148.657V92.9875H129.52V81.9835H127.057V95.6001C127.057 96.6663 126.813 97.5047 126.335 98.0988C125.857 98.693 125.225 98.9941 124.431 98.9941C124.294 98.9941 124.115 98.986 123.897 98.9697C123.678 98.9534 123.435 98.9371 123.176 98.9209L122.965 101.11C123.224 101.127 123.483 101.151 123.735 101.175C123.986 101.2 124.229 101.216 124.456 101.216C125.452 101.216 126.327 100.98 127.073 100.508C127.826 100.036 128.418 99.3767 128.855 98.5302C129.293 97.6837 129.511 96.7152 129.511 95.6083V95.185H153.81C154.911 95.185 155.795 94.9978 156.459 94.6316C156.613 94.5502 156.751 94.4444 156.88 94.3386C157.18 94.542 157.488 94.7048 157.804 94.8269C158.403 95.0629 159.019 95.185 159.651 95.185H174.121V76.3838L174.138 76.3919Z" fill="#02E8CA"/>
<path d="M181 76.3918H178.561V95.1931H181V76.3918Z" fill="#02E8CA"/>
<path d="M129.819 61.9286C130.046 61.6274 130.16 61.2856 130.16 60.903V58.2741C130.16 57.8346 130.046 57.4684 129.819 57.1672C129.592 56.8661 129.333 56.7114 129.041 56.7114H103.836L100.352 62.3762H129.041C129.333 62.3762 129.592 62.2297 129.819 61.9286Z" fill="#02E8CA"/>
<path d="M95.588 22.2834C95.7096 23.545 95.8392 24.7821 95.904 25.6855H128.766C129.131 25.6855 129.447 25.539 129.738 25.2379C130.022 24.9367 130.168 24.5949 130.168 24.2124V21.5835C130.168 21.1439 130.022 20.7777 129.738 20.4765C129.455 20.1754 129.131 20.0208 128.766 20.0208H93.9757C94.6563 20.2893 95.4584 20.8998 95.588 22.2834Z" fill="#02E8CA"/>
<path d="M58.829 60.2682L68.9566 15.9184L75.6732 49.492C75.8677 50.4769 76.5239 51.3477 77.4638 51.6814C78.9303 52.1942 80.4534 51.4291 80.9801 50.0536L86.7406 34.7685L89.6493 59.9589C89.7789 61.0902 90.5891 62.0343 91.691 62.3192C91.926 62.3762 92.1528 62.4087 92.3878 62.4087C93.2628 62.4087 94.0973 61.9936 94.6239 61.2611L107.717 43.0296H122.9C123.694 43.0296 124.342 42.3785 124.342 41.5809V38.9438C124.342 38.1462 123.694 37.495 122.9 37.495H106.307C105.424 37.495 104.589 37.9183 104.071 38.6427L94.308 52.2349L90.9294 22.918C90.8079 21.8843 90.1759 20.9402 89.2118 20.5658C87.7129 19.9879 86.133 20.753 85.6064 22.161L79.2219 39.0903L71.8329 2.21218C71.5736 0.934345 70.4636 0.00649074 69.1673 -0.0097874H69.1268C67.8466 -0.0260655 66.7367 0.852954 66.445 2.10637L56.2526 46.7492L49.1066 39.5054L53.4493 60.2356C53.7166 61.5053 54.8266 62.4087 56.1149 62.4087H56.1392C57.4274 62.4087 58.5374 61.5134 58.8209 60.26L58.829 60.2682Z" fill="#02E8CA"/>
</svg>
