<svg width="164" height="102" viewBox="0 0 164 102" fill="none" xmlns="http://www.w3.org/2000/svg">
<path d="M97.1793 0C91.2798 0 85.954 2.44148 82.1723 6.36596C78.3812 2.43671 73.0506 0 67.1558 0H46.3688V21.0339C46.3688 22.4883 46.8708 25.7595 46.9378 26.0217C48.9648 33.8755 55.4715 39.9363 63.575 41.3239C63.9001 41.3811 65.6785 41.5766 65.8841 41.5862V30.0654C63.771 29.8461 61.9782 28.9448 60.5296 27.3808C58.842 25.5544 58.0006 23.2989 58.0006 20.6047V11.7734H68.2124C70.6315 11.8307 72.5868 12.7605 74.0784 14.5535C75.5175 16.294 76.268 18.3874 76.3111 20.8193L76.3684 41.5862H88.0336V20.8193C88.0767 18.3874 88.8272 16.2988 90.2663 14.5535C91.7579 12.7605 93.7085 11.8354 96.1323 11.7734H106.344V20.6047C106.344 23.2989 105.503 25.5544 103.815 27.3808C102.357 28.9448 100.578 29.8461 98.4558 30.0654V41.5862C98.6614 41.5766 100.449 41.3811 100.774 41.3239C108.878 39.9363 115.385 33.8755 117.412 26.0217C117.479 25.7595 117.981 22.4835 117.981 21.0339V0H97.1937H97.1793Z" fill="#F0EAD7"/>
<path d="M46.3951 101.037H37.4167V71.6437L26.5595 101.037H19.7516L9.36289 71.6437V101.037H0.384521V58.5255H12.1214L23.1555 90.3458L34.9498 58.5255H46.3951V101.037Z" fill="#F0EAD7"/>
<path d="M91.7602 101.037H83.2503L64.1749 73.8324V101.037H55.1965V58.5255H63.7064L82.8392 85.7918V58.5255H91.7602V101.037Z" fill="#F0EAD7"/>
<path d="M105.142 100.126C102.909 98.8719 101.092 97.1933 99.682 95.0857C98.2717 92.9827 97.4924 90.7129 97.3346 88.2858L106.256 85.3722V86.6454C106.256 88.3478 106.834 89.8021 107.986 91.0181C109.138 92.2341 110.558 92.8397 112.241 92.8397C113.924 92.8397 115.282 92.2341 116.439 91.0181C117.591 89.8021 118.169 88.3478 118.169 86.6454V58.5303H127.267V86.4022C127.267 89.2347 126.593 91.8478 125.24 94.2369C123.892 96.6259 122.061 98.519 119.752 99.9162C117.443 101.313 114.938 102.01 112.241 102.01C109.736 102.01 107.37 101.38 105.142 100.126Z" fill="#F0EAD7"/>
<path d="M163.42 101.037H135.486V58.5255H144.583V92.3485H163.425V101.032L163.42 101.037Z" fill="#F0EAD7"/>
</svg>
