<svg width="175" height="93" viewBox="0 0 175 93" fill="none" xmlns="http://www.w3.org/2000/svg">
<path d="M31.0887 59.0057V41.9812H35.2864C40.394 41.9812 44.8404 41.137 48.6317 39.4485C52.417 37.7661 55.3226 35.3366 57.3426 32.1601C59.3626 28.9835 60.3756 25.2604 60.3756 20.9906C60.3756 16.7208 59.3626 12.9308 57.3426 9.77861C55.3226 6.63245 52.417 4.21513 48.6317 2.53272C44.8404 0.84424 40.394 0 35.2864 0H26.8121V9.27449H34.7829C39.5508 9.27449 43.1723 10.2888 45.6412 12.3113C48.11 14.3339 49.3475 17.2249 49.3475 20.9906C49.3475 24.7563 48.11 27.6473 45.6412 29.6699C43.1723 31.6985 39.5508 32.7067 34.7829 32.7067H20.1394V48.0427C20.1394 54.0982 25.0408 59.0057 31.0887 59.0057Z" fill="#29A6E0"/>
<path d="M118.252 0C115.255 0 112.823 2.43554 112.823 5.43593V39.9526L82.1589 2.25333C81.0003 0.826019 79.2593 0 77.4213 0C74.0485 0 71.3127 2.73922 71.3127 6.11618V53.5698C71.3127 56.5701 73.7452 59.0057 76.7419 59.0057C79.7385 59.0057 82.171 56.5701 82.171 53.5698V19.0531L112.835 56.7524C113.994 58.1797 115.735 59.0057 117.573 59.0057C120.945 59.0057 123.681 56.2665 123.681 52.8895V5.43593C123.681 2.43554 121.249 0 118.252 0Z" fill="#FFB90B"/>
<path d="M139.993 59.0057C143.014 59.0057 145.464 56.5519 145.464 53.5272V41.9812H149.917C155.024 41.9812 159.471 41.137 163.256 39.4485C167.047 37.7661 169.953 35.3366 171.973 32.1601C173.993 28.9835 175 25.2604 175 20.9906C175 16.7208 173.993 12.9308 171.973 9.77861C169.953 6.63245 167.047 4.21513 163.256 2.53272C159.471 0.84424 155.024 0 149.917 0H139.993C136.972 0 134.521 2.45376 134.521 5.47845V53.5272C134.521 56.5519 136.972 59.0057 139.993 59.0057ZM145.464 9.27449H149.407C154.181 9.27449 157.803 10.2888 160.272 12.3113C162.74 14.3339 163.972 17.2249 163.972 20.9906C163.972 24.7563 162.74 27.6473 160.272 29.6699C157.803 31.6985 154.181 32.7067 149.407 32.7067H145.464V9.27449Z" fill="#FF2032"/>
<path d="M21.292 73.7464H24.2037C25.5867 73.7464 26.6786 73.4184 27.4611 72.7625C28.2497 72.1065 28.638 71.1955 28.638 70.0354C28.638 68.8753 28.2497 67.9643 27.4611 67.3083C26.6786 66.6402 25.5928 66.3123 24.2037 66.3123H20.1394V77.178H21.292V73.7464ZM21.292 67.3083H24.1733C25.2531 67.3083 26.072 67.5391 26.6422 68.0129C27.2064 68.4866 27.4915 69.1608 27.4915 70.0415C27.4915 70.9222 27.2064 71.566 26.6422 72.0336C26.072 72.5074 25.2531 72.7382 24.1733 72.7382H21.292V67.3083Z" fill="black"/>
<path d="M38.5559 67.3083V66.3123H31.1189V77.178H38.7864V76.182H32.2654V72.1491H37.8765V71.1712H32.2654V67.3083H38.5559Z" fill="black"/>
<path d="M42.4322 66.3123H41.4919V77.178H42.6384V68.3591L49.6083 77.178H50.5546V66.3123H49.4264V75.1251L42.4322 66.3123Z" fill="black"/>
<path d="M56.5297 67.8246C57.2394 67.4359 58.028 67.2416 58.9137 67.2416C60.2361 67.2416 61.3219 67.6667 62.1833 68.511L62.8991 67.7821C62.4259 67.2719 61.8375 66.8771 61.146 66.616C60.4544 66.3487 59.6901 66.2212 58.8712 66.2212C57.7732 66.2212 56.7966 66.4581 55.9231 66.9379C55.0556 67.4116 54.3762 68.0737 53.8788 68.9179C53.3814 69.7621 53.1327 70.7036 53.1327 71.7543C53.1327 72.805 53.3814 73.7465 53.8788 74.5846C54.3762 75.4289 55.0556 76.0848 55.9231 76.5646C56.7966 77.0384 57.7672 77.2813 58.853 77.2813C59.6173 77.2813 60.3452 77.1659 61.0428 76.9291C61.7344 76.6922 62.3349 76.346 62.8384 75.9026V71.7604H61.7404V75.4228C60.964 75.9816 60.0177 76.267 58.9015 76.267C58.0219 76.267 57.2334 76.0666 56.5297 75.6718C55.826 75.2831 55.274 74.7425 54.8737 74.0562C54.4733 73.376 54.267 72.6046 54.267 71.7604C54.267 70.9161 54.4733 70.1387 54.8737 69.4524C55.274 68.7661 55.8321 68.2255 56.5358 67.8368L56.5297 67.8246Z" fill="black"/>
<path d="M70.4513 77.2692C71.8586 77.2692 72.9444 76.8683 73.727 76.0605C74.5095 75.2588 74.8977 74.0805 74.8977 72.5378V66.3184H73.7755V72.4953C73.7755 73.7525 73.4965 74.6939 72.9262 75.3195C72.356 75.939 71.531 76.2488 70.4452 76.2488C69.3594 76.2488 68.5465 75.939 67.9763 75.3195C67.4061 74.6939 67.1271 73.7525 67.1271 72.4953V66.3184H65.9806V72.5378C65.9806 74.0805 66.3688 75.2588 67.1574 76.0605C67.9399 76.8683 69.0318 77.2692 70.4452 77.2692H70.4513Z" fill="black"/>
<path d="M79.502 66.3123H78.3555V77.178H79.502V66.3123Z" fill="black"/>
<path d="M92.1011 66.3123H90.9728V75.1251L83.9787 66.3123H83.0323V77.178H84.1788V68.3591L91.1609 77.178H92.1011V66.3123Z" fill="black"/>
<path d="M108.771 77.178V66.3123H107.636V75.1251L100.642 66.3123H99.6958V77.178H100.848V68.3591L107.824 77.178H108.771Z" fill="black"/>
<path d="M112.21 66.3123V72.5317C112.21 74.0744 112.598 75.2527 113.387 76.0544C114.176 76.8622 115.267 77.2631 116.675 77.2631C118.082 77.2631 119.174 76.8622 119.957 76.0544C120.733 75.2527 121.121 74.0744 121.121 72.5317V66.3123H120.005V72.4892C120.005 73.7464 119.72 74.6878 119.15 75.3134C118.586 75.9329 117.755 76.2427 116.669 76.2427C115.583 76.2427 114.77 75.9329 114.2 75.3134C113.636 74.6878 113.351 73.7464 113.351 72.4892V66.3123H112.204H112.21Z" fill="black"/>
<path d="M129.511 73.6796L131.992 77.178H133.247L130.596 73.4488C131.391 73.1937 132.004 72.7746 132.428 72.1855C132.859 71.6024 133.071 70.8857 133.071 70.0354C133.071 68.8753 132.683 67.9643 131.894 67.3083C131.112 66.6402 130.026 66.3123 128.637 66.3123H124.573V77.178H125.719V73.7282H128.637C128.94 73.7282 129.231 73.71 129.504 73.6796H129.511ZM125.725 72.7503V67.3083H128.613C129.693 67.3083 130.511 67.5391 131.082 68.0129C131.646 68.4866 131.931 69.1608 131.931 70.0415C131.931 70.9222 131.646 71.566 131.082 72.0397C130.511 72.5135 129.693 72.7564 128.613 72.7564H125.725V72.7503Z" fill="black"/>
<path d="M141.03 76.8744C141.637 76.6132 142.092 76.2549 142.383 75.8054C142.68 75.356 142.826 74.8518 142.826 74.3113C142.826 73.6493 142.656 73.1209 142.316 72.7321C141.97 72.3434 141.558 72.058 141.066 71.8636C140.575 71.6753 139.932 71.4749 139.137 71.2805C138.464 71.1105 137.93 70.9647 137.53 70.8189C137.136 70.6792 136.802 70.4788 136.535 70.2176C136.268 69.9504 136.141 69.6042 136.141 69.173C136.141 68.5899 136.383 68.1222 136.863 67.7517C137.342 67.3873 138.058 67.199 139.01 67.199C139.507 67.199 140.011 67.2719 140.533 67.4238C141.042 67.5695 141.534 67.7942 141.988 68.0979L142.377 67.1808C141.946 66.8771 141.424 66.6463 140.836 66.4763C140.241 66.3001 139.629 66.2151 139.016 66.2151C138.13 66.2151 137.384 66.3548 136.784 66.616C136.183 66.8832 135.74 67.2476 135.449 67.6971C135.158 68.1465 135.019 68.6506 135.019 69.1973C135.019 69.8714 135.194 70.3998 135.534 70.7946C135.88 71.1833 136.298 71.4749 136.784 71.6692C137.269 71.8636 137.918 72.058 138.731 72.2645C139.41 72.4345 139.944 72.5864 140.326 72.7261C140.715 72.8658 141.036 73.0662 141.297 73.3213C141.564 73.5824 141.691 73.9226 141.691 74.3599C141.691 74.9308 141.449 75.3985 140.963 75.7507C140.478 76.1091 139.75 76.2852 138.773 76.2852C138.082 76.2852 137.409 76.1638 136.76 75.9208C136.104 75.6779 135.589 75.362 135.188 74.9672L134.74 75.8479C135.14 76.2731 135.716 76.6132 136.45 76.8744C137.19 77.1355 137.967 77.2631 138.767 77.2631C139.653 77.2631 140.405 77.1295 141.018 76.8683L141.03 76.8744Z" fill="black"/>
<path d="M152.768 67.3083V66.3123H145.325V77.178H152.998V76.182H146.471V72.1491H152.088V71.1712H146.471V67.3083H152.768Z" fill="black"/>
<path d="M163.547 72.1855C163.978 71.6024 164.19 70.8857 164.19 70.0354C164.19 68.8753 163.802 67.9643 163.014 67.3083C162.225 66.6402 161.145 66.3123 159.756 66.3123H155.692V77.178H156.838V73.7282H159.756C160.059 73.7282 160.344 73.71 160.623 73.6796L163.105 77.178H164.354L161.709 73.4488C162.504 73.1937 163.117 72.7746 163.541 72.1855H163.547ZM159.726 72.7503H156.838V67.3083H159.726C160.799 67.3083 161.624 67.5391 162.195 68.0129C162.759 68.4866 163.044 69.1608 163.044 70.0415C163.044 70.9222 162.759 71.566 162.195 72.0397C161.624 72.5135 160.799 72.7564 159.726 72.7564V72.7503Z" fill="black"/>
<path d="M169.334 77.178H170.469V73.4245L174.812 66.3123H173.665L169.947 72.4102L166.222 66.3123H164.997L169.334 73.4245V77.178Z" fill="black"/>
<path d="M25.0711 82.0977L20.1333 92.9027H21.3223L22.6143 90.0177H28.6258L29.9179 92.9027H31.125L26.1872 82.0977H25.0589H25.0711ZM23.0389 89.0945L25.6292 83.2881L28.2194 89.0945H23.0389Z" fill="black"/>
<path d="M42.0015 90.868L35.0497 82.0977H34.1095V92.9027H35.2499V84.1384L42.1834 92.9027H43.1297V82.0977H42.0015V90.868Z" fill="black"/>
<path d="M55.2437 82.784C54.3702 82.3224 53.3632 82.0977 52.2288 82.0977H47.8309V92.9027H52.2288C53.3632 92.9027 54.3762 92.678 55.2437 92.2164C56.1232 91.7609 56.7966 91.1231 57.2819 90.3093C57.7611 89.4893 58.0037 88.554 58.0037 87.5032C58.0037 86.4525 57.7611 85.5171 57.2819 84.6972C56.7966 83.8833 56.1172 83.2395 55.2437 82.7901V82.784ZM56.2931 89.793C55.9049 90.4611 55.3529 90.9774 54.6431 91.3539C53.9273 91.7305 53.1084 91.9127 52.1621 91.9127H48.9714V83.0816H52.1621C53.1084 83.0816 53.9334 83.2699 54.6431 83.6464C55.3529 84.023 55.8988 84.5393 56.2931 85.2074C56.6813 85.8694 56.8815 86.6347 56.8815 87.4971C56.8815 88.3596 56.6874 89.1249 56.2931 89.7869V89.793Z" fill="black"/>
<path d="M74.2548 83.0816C73.4723 82.4256 72.3925 82.0977 71.0155 82.0977H66.9816V92.9027H68.122V89.4893H71.0155C72.3925 89.4893 73.4723 89.1674 74.2548 88.5114C75.0373 87.8616 75.4255 86.9566 75.4255 85.8026C75.4255 84.6486 75.0373 83.7436 74.2548 83.0816ZM73.4419 87.7887C72.8717 88.2624 72.0589 88.4932 70.9912 88.4932H68.122V83.0877H70.9912C72.0589 83.0877 72.8717 83.3245 73.4419 83.7922C74 84.266 74.2851 84.9341 74.2851 85.8087C74.2851 86.6833 74 87.3271 73.4419 87.7948V87.7887Z" fill="black"/>
<path d="M86.8843 87.9405C87.315 87.3575 87.5212 86.6468 87.5212 85.8026C87.5212 84.6486 87.133 83.7436 86.3566 83.0816C85.574 82.4256 84.4943 82.0977 83.1173 82.0977H79.0773V92.9027H80.2177V89.4772H83.1173C83.4145 89.4772 83.7057 89.4589 83.9787 89.4286L86.4475 92.8966H87.6972L85.0584 89.1917C85.847 88.9305 86.4597 88.5175 86.8843 87.9345V87.9405ZM83.0869 88.5054H80.2177V83.0816H83.0869C84.1546 83.0816 84.9735 83.3185 85.5376 83.7861C86.1018 84.2599 86.3808 84.928 86.3808 85.8026C86.3808 86.6772 86.1018 87.321 85.5376 87.7948C84.9735 88.2685 84.1546 88.5114 83.0869 88.5114V88.5054Z" fill="black"/>
<path d="M92.5561 87.9041H98.1369V86.9262H92.5561V83.0816H98.8102V82.0977H91.4156V92.9027H99.0407V91.9127H92.5561V87.9041Z" fill="black"/>
<path d="M108.164 87.6186C107.679 87.4303 107.036 87.236 106.247 87.0356C105.574 86.8716 105.046 86.7258 104.652 86.58C104.258 86.4403 103.93 86.2399 103.663 85.9848C103.396 85.7176 103.275 85.3714 103.275 84.9402C103.275 84.3632 103.511 83.8955 103.991 83.525C104.47 83.1606 105.18 82.9723 106.126 82.9723C106.623 82.9723 107.127 83.0452 107.636 83.197C108.152 83.3488 108.637 83.5736 109.092 83.8712L109.48 82.9601C109.05 82.6625 108.534 82.4317 107.946 82.2556C107.351 82.0855 106.751 82.0005 106.132 82.0005C105.252 82.0005 104.512 82.1402 103.912 82.4014C103.317 82.6686 102.875 83.0269 102.583 83.4764C102.298 83.9258 102.153 84.4178 102.153 84.9705C102.153 85.6386 102.322 86.167 102.662 86.5557C103.008 86.9445 103.42 87.236 103.906 87.4303C104.391 87.6186 105.034 87.8191 105.853 88.0256C106.526 88.1896 107.06 88.3414 107.436 88.4811C107.818 88.6269 108.14 88.8212 108.401 89.0763C108.662 89.3314 108.789 89.6715 108.789 90.1088C108.789 90.6737 108.546 91.1353 108.067 91.4876C107.588 91.8398 106.86 92.022 105.895 92.022C105.204 92.022 104.537 91.9006 103.888 91.6576C103.245 91.4208 102.723 91.1049 102.335 90.7101L101.886 91.5908C102.286 92.016 102.85 92.35 103.584 92.6112C104.318 92.8663 105.089 92.9999 105.895 92.9999C106.775 92.9999 107.521 92.8663 108.128 92.6051C108.728 92.3439 109.183 91.9917 109.474 91.5422C109.766 91.0928 109.911 90.6008 109.911 90.0481C109.911 89.3921 109.741 88.8698 109.402 88.4811C109.062 88.0924 108.643 87.8069 108.158 87.6186H108.164Z" fill="black"/>
<path d="M115.989 83.61C116.687 83.2213 117.463 83.0209 118.313 83.0209C119.605 83.0209 120.666 83.4521 121.503 84.3024L122.231 83.5797C121.758 83.0695 121.182 82.6747 120.502 82.4074C119.823 82.1402 119.083 82.0066 118.282 82.0066C117.209 82.0066 116.244 82.2435 115.383 82.7172C114.521 83.191 113.848 83.8469 113.357 84.6851C112.871 85.5293 112.629 86.4707 112.629 87.5033C112.629 88.5358 112.871 89.4833 113.357 90.3214C113.848 91.1596 114.521 91.8156 115.383 92.2893C116.238 92.7631 117.202 92.9999 118.27 92.9999C119.071 92.9999 119.811 92.8602 120.496 92.5869C121.182 92.3197 121.758 91.9249 122.237 91.4086L121.509 90.6859C120.678 91.5483 119.611 91.9796 118.319 91.9796C117.469 91.9796 116.693 91.7852 115.995 91.3904C115.298 91.0017 114.746 90.4672 114.351 89.787C113.957 89.1067 113.757 88.3475 113.757 87.5033C113.757 86.659 113.951 85.8998 114.351 85.2196C114.746 84.5454 115.298 84.0109 115.995 83.6161L115.989 83.61Z" fill="black"/>
<path d="M133.745 86.9141H126.993V82.0977H125.853V92.9027H126.993V87.9162H133.745V92.9027H134.873V82.0977H133.745V86.9141Z" fill="black"/>
<path d="M147.181 82.7111C146.326 82.2374 145.355 82.0005 144.294 82.0005C143.232 82.0005 142.255 82.2434 141.388 82.7172C140.521 83.1909 139.841 83.8469 139.356 84.685C138.864 85.5232 138.622 86.4586 138.622 87.4972C138.622 88.5358 138.864 89.4772 139.356 90.3032C139.841 91.1414 140.521 91.7973 141.388 92.2711C142.255 92.7509 143.226 92.9878 144.294 92.9878C145.361 92.9878 146.326 92.7509 147.181 92.2771C148.042 91.8034 148.716 91.1474 149.207 90.3093C149.698 89.465 149.947 88.5297 149.947 87.4911C149.947 86.4525 149.698 85.5111 149.207 84.6729C148.71 83.8347 148.042 83.1788 147.181 82.705V82.7111ZM148.224 89.793C147.836 90.4793 147.296 91.0138 146.605 91.4025C145.913 91.7912 145.143 91.9795 144.288 91.9795C143.432 91.9795 142.662 91.7912 141.97 91.4025C141.279 91.0138 140.727 90.4793 140.339 89.793C139.944 89.1128 139.744 88.3475 139.744 87.5032C139.744 86.659 139.944 85.8937 140.339 85.2135C140.727 84.5271 141.279 83.9927 141.97 83.6039C142.662 83.2152 143.438 83.0269 144.288 83.0269C145.137 83.0269 145.907 83.2152 146.605 83.6039C147.29 83.9927 147.83 84.5271 148.224 85.2135C148.613 85.8937 148.813 86.659 148.813 87.5032C148.813 88.3475 148.619 89.1128 148.224 89.793Z" fill="black"/>
<path d="M161.309 82.7111C160.447 82.2374 159.483 82.0005 158.421 82.0005C157.36 82.0005 156.383 82.2434 155.516 82.7172C154.642 83.1909 153.969 83.8469 153.484 84.685C152.992 85.5232 152.75 86.4586 152.75 87.4972C152.75 88.5358 152.992 89.4772 153.484 90.3032C153.969 91.1414 154.648 91.7973 155.516 92.2711C156.383 92.7509 157.348 92.9878 158.421 92.9878C159.495 92.9878 160.447 92.7509 161.309 92.2771C162.164 91.8034 162.844 91.1474 163.335 90.3093C163.826 89.465 164.075 88.5297 164.075 87.4911C164.075 86.4525 163.826 85.5111 163.335 84.6729C162.838 83.8347 162.164 83.1788 161.309 82.705V82.7111ZM162.346 89.793C161.958 90.4793 161.418 91.0138 160.727 91.4025C160.041 91.7912 159.271 91.9795 158.415 91.9795C157.56 91.9795 156.79 91.7912 156.098 91.4025C155.4 91.0138 154.855 90.4793 154.46 89.793C154.066 89.1128 153.866 88.3475 153.866 87.5032C153.866 86.659 154.06 85.8937 154.46 85.2135C154.855 84.5271 155.4 83.9927 156.098 83.6039C156.79 83.2152 157.56 83.0269 158.415 83.0269C159.271 83.0269 160.035 83.2152 160.727 83.6039C161.418 83.9927 161.958 84.5271 162.346 85.2135C162.734 85.8937 162.935 86.659 162.935 87.5032C162.935 88.3475 162.74 89.1128 162.346 89.793Z" fill="black"/>
<path d="M168.964 82.0977H167.824V92.9027H175V91.9127H168.964V82.0977Z" fill="black"/>
<path d="M26.2419 27.8173C29.281 27.8173 31.7438 25.3514 31.7438 22.3085C31.7438 19.6725 29.8876 17.4678 27.4126 16.9272C27.4248 17.073 27.4308 17.2188 27.4308 17.3645C27.4308 20.4075 24.968 22.8734 21.9289 22.8734C21.5225 22.8734 21.1282 22.8309 20.7521 22.7458C20.9765 25.5883 23.3423 27.8173 26.2358 27.8173H26.2419Z" fill="#29A6E0"/>
<path d="M0 32.7067C11.9502 29.3419 14.9407 32.7067 14.9407 32.7067V22.1143C5.72637 24.1064 0 32.7067 0 32.7067Z" fill="#FFB90B"/>
</svg>
