<svg width="135" height="162" viewBox="0 0 135 162" fill="none" xmlns="http://www.w3.org/2000/svg">
<path d="M70.9279 27.1078L59.3078 15.4359C58.2272 14.3505 56.4774 14.3505 55.3968 15.4359L41.6784 29.2154C41.5962 29.298 41.4849 29.345 41.3688 29.345C41.2526 29.345 41.1414 29.298 41.0591 29.2154L33.5355 21.6582C32.3146 20.4319 30.3341 20.4319 29.1132 21.6582L21.4605 29.345H10.8452C10.1565 29.345 9.59848 29.9055 9.59848 30.5973C9.59848 31.289 10.1565 31.8495 10.8452 31.8495H46.9764H68.9748C71.4392 31.8495 72.673 28.8574 70.9295 27.1078H70.9279Z" fill="white"/>
<path d="M41.2768 36.5912H24.8441C23.3168 36.5912 22.0782 37.8353 22.0782 39.3695V58.8578C22.0782 58.9744 22.0314 59.0862 21.9492 59.1688C21.8669 59.2515 21.7557 59.2984 21.6395 59.2984H10.9984C9.27107 59.2984 7.87118 60.7046 7.87118 62.4396V73.3113L0.365266 80.849C-0.121796 81.3383 -0.121796 82.1304 0.365266 82.6197C0.852327 83.1089 1.64098 83.1089 2.12804 82.6197L27.6762 56.9576L43.2315 41.3329C44.9733 39.5833 43.7396 36.5912 41.2768 36.5912Z" fill="white"/>
<path d="M26.9876 64.3577L15.3674 76.0296C14.2869 77.115 14.2869 78.8727 15.3674 79.9581L29.0858 93.7376C29.168 93.8203 29.2148 93.932 29.2148 94.0487C29.2148 94.1653 29.168 94.2771 29.0858 94.3597L21.5621 101.917C20.3413 103.143 20.3413 105.133 21.5621 106.359L29.2148 114.046V124.708C29.2148 125.4 29.7728 125.961 30.4615 125.961C31.1502 125.961 31.7082 125.4 31.7082 124.708V88.416V66.3195C31.7082 63.8441 28.7294 62.6049 26.9876 64.3561V64.3577Z" fill="white"/>
<path d="M36.4288 94.141V110.647C36.4288 112.181 37.6674 113.425 39.1947 113.425H58.5966C58.7127 113.425 58.824 113.472 58.9062 113.555C58.9885 113.638 59.0352 113.749 59.0352 113.866V124.555C59.0352 126.29 60.4351 127.696 62.1624 127.696H72.9858L80.4917 135.235C80.9788 135.724 81.7675 135.724 82.2545 135.235C82.7416 134.746 82.7416 133.954 82.2545 133.464L56.7064 107.802L41.151 92.1776C39.4092 90.4281 36.4304 91.6673 36.4304 94.141H36.4288Z" fill="white"/>
<path d="M64.072 108.494L75.6921 120.166C76.7727 121.251 78.5225 121.251 79.6031 120.166L93.3215 106.386C93.4037 106.304 93.515 106.257 93.6311 106.257C93.7472 106.257 93.8585 106.304 93.9408 106.386L101.464 113.944C102.685 115.17 104.666 115.17 105.887 113.944L113.539 106.257H124.155C124.843 106.257 125.401 105.696 125.401 105.005C125.401 104.313 124.843 103.752 124.155 103.752H88.0235H66.025C63.5607 103.752 62.3269 106.744 64.0703 108.494H64.072Z" fill="white"/>
<path d="M93.723 99.0107H110.156C111.683 99.0107 112.922 97.7665 112.922 96.2324V76.7441C112.922 76.6274 112.968 76.5156 113.051 76.433C113.133 76.3504 113.244 76.3034 113.36 76.3034H124.001C125.729 76.3034 127.129 74.8973 127.129 73.1623V62.2906L134.635 54.7512C135.122 54.262 135.122 53.4698 134.635 52.9806C134.148 52.4913 133.359 52.4913 132.872 52.9806L107.324 78.6427L91.7683 94.2674C90.0265 96.017 91.2603 99.0091 93.723 99.0091V99.0107Z" fill="white"/>
<path d="M108.012 71.2442L119.632 59.5723C120.713 58.4869 120.713 56.7292 119.632 55.6438L105.914 41.8643C105.832 41.7816 105.785 41.6699 105.785 41.5532C105.785 41.4366 105.832 41.3248 105.914 41.2422L113.438 33.685C114.659 32.4587 114.659 30.4693 113.438 29.243L105.785 21.5562V10.8935C105.785 10.2017 105.227 9.64124 104.538 9.64124C103.85 9.64124 103.292 10.2017 103.292 10.8935V47.1859V69.2824C103.292 71.7577 106.271 72.997 108.012 71.2458V71.2442Z" fill="white"/>
<path d="M98.5711 41.461V24.955C98.5711 23.4209 97.3325 22.1767 95.8052 22.1767H76.4033C76.2872 22.1767 76.1759 22.1297 76.0937 22.0471C76.0114 21.9645 75.9647 21.8527 75.9647 21.7361V11.0475C75.9647 9.31245 74.5648 7.90631 72.8375 7.90631H62.014L54.5081 0.366925C54.0211 -0.122308 53.2324 -0.122308 52.7454 0.366925C52.2583 0.856159 52.2583 1.64833 52.7454 2.13756L78.2935 27.7997L93.8488 43.4244C95.5907 45.1739 98.5695 43.9347 98.5695 41.461H98.5711Z" fill="white"/>
<path d="M25.9924 161.534H22.2298V140.936H29.1067C33.6403 140.936 36.5078 142.423 36.5078 146.635C36.5078 149.732 34.6579 151.404 32.9613 152.086C33.7935 152.396 34.1951 152.922 34.6579 153.975L38.0496 161.532H34.0402L31.0792 155.028C30.6485 154.067 30.1228 153.418 29.0438 153.418H25.9908V161.532L25.9924 161.534ZM29.0761 150.476C31.2969 150.476 32.6839 149.267 32.6839 146.914C32.6839 144.281 31.0792 143.939 28.1503 143.939H25.9924V150.474H29.0761V150.476Z" fill="white"/>
<path d="M51.8325 158.561L52.1099 161.535H48.9343L48.7182 159.894L48.594 159.864C47.6376 161.257 46.0652 161.939 44.3701 161.939C40.0221 161.939 38.3254 158.841 38.3254 154.412C38.3254 148.961 41.0397 145.491 46.3426 145.491C47.3602 145.491 49.6117 145.739 51.8325 146.575V158.561ZM48.1924 148.587C47.7312 148.37 46.8361 148.184 45.8797 148.184C42.9493 148.184 41.9639 150.941 41.9639 154.286C41.9639 156.857 42.5799 159.303 45.1701 159.303C47.0812 159.303 48.1924 157.941 48.1924 156.609V148.587Z" fill="white"/>
<path d="M54.9758 161.534V140.008H58.6449V147.255C59.6932 146.047 61.235 145.49 62.8075 145.49C66.0444 145.49 67.7733 147.286 67.7733 150.941V161.534H64.1026V151.592C64.1026 149.795 63.7332 148.339 61.7285 148.339C59.9706 148.339 58.6449 149.826 58.6449 151.406V161.534H54.9758Z" fill="white"/>
<path d="M72.7987 139.418C74.0631 139.418 74.926 140.348 74.926 141.493C74.926 142.638 74.0309 143.538 72.7987 143.538C71.5036 143.538 70.6714 142.671 70.6714 141.493C70.6714 140.315 71.5359 139.418 72.7987 139.418ZM70.9795 161.534V145.955H74.6486V161.534H70.9795Z" fill="white"/>
<path d="M81.4932 140.038V156.454C81.4932 158.373 81.8948 159.086 83.1576 159.086C83.7753 159.086 84.4527 158.869 85.101 158.59L85.9026 161.067C85.0704 161.594 83.5592 161.997 82.2335 161.997C78.0709 161.997 77.8242 159.549 77.8242 157.226V140.037H81.4932V140.038Z" fill="white"/>
<path d="M99.5629 158.561L99.8403 161.535H96.6647L96.4486 159.894L96.3244 159.864C95.3681 161.257 93.7956 161.939 92.1006 161.939C87.7525 161.939 86.0558 158.841 86.0558 154.412C86.0558 148.961 88.7701 145.491 94.073 145.491C95.0907 145.491 97.3421 145.739 99.5629 146.575V158.561ZM95.9245 148.587C95.4632 148.37 94.5681 148.184 93.6117 148.184C90.6813 148.184 89.6959 150.941 89.6959 154.286C89.6959 156.857 90.312 159.303 92.9021 159.303C94.8133 159.303 95.9245 157.941 95.9245 156.609V148.587Z" fill="white"/>
<path d="M102.706 161.534V140.008H106.375V147.255C107.424 146.047 108.965 145.49 110.538 145.49C113.775 145.49 115.504 147.286 115.504 150.941V161.534H111.833V151.592C111.833 149.795 111.464 148.339 109.459 148.339C107.701 148.339 106.375 149.826 106.375 151.406V161.534H102.706Z" fill="white"/>
</svg>
