<svg width="139" height="166" viewBox="0 0 139 166" fill="none" xmlns="http://www.w3.org/2000/svg">
<path d="M73.0125 27.7772L61.1054 15.8171C59.9982 14.7049 58.2051 14.7049 57.0979 15.8171L43.0408 29.9368C42.9565 30.0215 42.8424 30.0696 42.7235 30.0696C42.6045 30.0696 42.4904 30.0215 42.4062 29.9368L34.6967 22.193C33.4457 20.9364 31.4163 20.9364 30.1653 22.193L22.3236 30.0696H11.4462C10.7405 30.0696 10.1687 30.644 10.1687 31.3528C10.1687 32.0616 10.7405 32.636 11.4462 32.636H48.4696H71.0112C73.5364 32.636 74.8006 29.57 73.0141 27.7772H73.0125Z" fill="white"/>
<path d="M42.6293 37.4946H25.7909C24.2259 37.4946 22.9566 38.7695 22.9566 40.3415V60.3111C22.9566 60.4306 22.9087 60.5451 22.8244 60.6298C22.7402 60.7144 22.6261 60.7626 22.5071 60.7626H11.6032C9.83328 60.7626 8.39881 62.2034 8.39881 63.9813V75.1214L0.707568 82.8453C0.20848 83.3466 0.20848 84.1583 0.707568 84.6596C1.20666 85.1609 2.01478 85.1609 2.51387 84.6596L28.6929 58.3639L44.6323 42.3534C46.4171 40.5606 45.1528 37.4946 42.6293 37.4946Z" fill="white"/>
<path d="M27.9871 65.9468L16.0801 77.907C14.9728 79.0192 14.9728 80.8202 16.0801 81.9324L30.1372 96.0522C30.2214 96.1369 30.2694 96.2514 30.2694 96.3709C30.2694 96.4904 30.2214 96.605 30.1372 96.6896L22.4277 104.433C21.1767 105.69 21.1767 107.729 22.4277 108.985L30.2694 116.862V127.788C30.2694 128.497 30.8412 129.071 31.5468 129.071C32.2525 129.071 32.8243 128.497 32.8243 127.788V90.5992V67.9571C32.8243 65.4206 29.7719 64.1507 27.9871 65.9452V65.9468Z" fill="white"/>
<path d="M37.6615 96.4656V113.379C37.6615 114.951 38.9307 116.226 40.4957 116.226H60.3766C60.4956 116.226 60.6096 116.274 60.6939 116.359C60.7782 116.443 60.8261 116.558 60.8261 116.678V127.63C60.8261 129.408 62.2606 130.849 64.0305 130.849H75.1212L82.8124 138.574C83.3115 139.076 84.1197 139.076 84.6187 138.574C85.1178 138.073 85.1178 137.261 84.6187 136.76L58.4398 110.464L42.5003 94.4537C40.7155 92.6609 37.6632 93.9308 37.6632 96.4656H37.6615Z" fill="white"/>
<path d="M65.9873 111.173L77.8943 123.133C79.0016 124.245 80.7946 124.245 81.9019 123.133L95.959 109.013C96.0433 108.929 96.1573 108.881 96.2763 108.881C96.3953 108.881 96.5093 108.929 96.5936 109.013L104.303 116.757C105.554 118.014 107.583 118.014 108.834 116.757L116.676 108.881H127.554C128.259 108.881 128.831 108.306 128.831 107.597C128.831 106.889 128.259 106.314 127.554 106.314H90.5302H67.9886C65.4634 106.314 64.1991 109.38 65.9856 111.173H65.9873Z" fill="white"/>
<path d="M96.3704 101.455H113.209C114.774 101.455 116.043 100.181 116.043 98.6085V78.639C116.043 78.5194 116.091 78.4049 116.175 78.3202C116.26 78.2356 116.374 78.1874 116.493 78.1874H127.397C129.166 78.1874 130.601 76.7466 130.601 74.9687V63.8286L138.292 56.1031C138.791 55.6017 138.791 54.79 138.292 54.2887C137.793 53.7874 136.985 53.7874 136.486 54.2887L110.307 80.5844L94.3675 96.595C92.5826 98.3877 93.8469 101.454 96.3704 101.454V101.455Z" fill="white"/>
<path d="M111.013 73.0033L122.92 61.0432C124.027 59.931 124.027 58.1299 122.92 57.0177L108.863 42.8979C108.778 42.8133 108.73 42.6987 108.73 42.5792C108.73 42.4597 108.778 42.3452 108.863 42.2605L116.572 34.5167C117.823 33.2601 117.823 31.2216 116.572 29.965L108.73 22.0884V11.1624C108.73 10.4536 108.159 9.87927 107.453 9.87927C106.747 9.87927 106.175 10.4536 106.175 11.1624V48.351V70.9931C106.175 73.5295 109.228 74.7994 111.013 73.005V73.0033Z" fill="white"/>
<path d="M101.338 42.4847V25.5712C101.338 23.9992 100.069 22.7243 98.5041 22.7243H78.6232C78.5042 22.7243 78.3901 22.6762 78.3059 22.5915C78.2216 22.5068 78.1736 22.3923 78.1736 22.2728V11.3202C78.1736 9.54239 76.7392 8.10153 74.9692 8.10153H63.8786L56.1873 0.375985C55.6882 -0.125329 54.8801 -0.125329 54.381 0.375985C53.8819 0.877299 53.8819 1.68903 54.381 2.19034L80.56 28.4861L96.4994 44.4966C98.2843 46.2894 101.337 45.0195 101.337 42.4847H101.338Z" fill="white"/>
<path d="M26.9675 165.522H23.1119V144.416H30.1587C34.8041 144.416 37.7425 145.94 37.7425 150.256C37.7425 153.429 35.8469 155.143 34.1084 155.841C34.9611 156.158 35.3726 156.698 35.8469 157.777L39.3224 165.521H35.214L32.1798 158.856C31.7386 157.872 31.1998 157.206 30.0942 157.206H26.9658V165.521L26.9675 165.522ZM30.1273 154.191C32.4029 154.191 33.8242 152.953 33.8242 150.541C33.8242 147.844 32.1798 147.493 29.1787 147.493H26.9675V154.19H30.1273V154.191Z" fill="white"/>
<path d="M53.4456 162.476L53.7298 165.524H50.4758L50.2544 163.843L50.1271 163.811C49.1471 165.239 47.5359 165.937 45.799 165.937C41.3435 165.937 39.605 162.764 39.605 158.225C39.605 152.639 42.3863 149.084 47.8201 149.084C48.8629 149.084 51.1699 149.338 53.4456 150.194V162.476ZM49.7156 152.256C49.243 152.033 48.3258 151.843 47.3458 151.843C44.343 151.843 43.3333 154.668 43.3333 158.096C43.3333 160.73 43.9646 163.237 46.6187 163.237C48.577 163.237 49.7156 161.841 49.7156 160.476V152.256Z" fill="white"/>
<path d="M56.6665 165.522V143.465H60.4262V150.891C61.5004 149.653 63.0803 149.082 64.6916 149.082C68.0084 149.082 69.78 150.923 69.78 154.668V165.522H66.0186V155.335C66.0186 153.494 65.6402 152.002 63.586 152.002C61.7846 152.002 60.4262 153.526 60.4262 155.144V165.522H56.6665Z" fill="white"/>
<path d="M74.9295 142.86C76.2252 142.86 77.1093 143.813 77.1093 144.987C77.1093 146.161 76.1921 147.082 74.9295 147.082C73.6025 147.082 72.7498 146.194 72.7498 144.987C72.7498 143.78 73.6356 142.86 74.9295 142.86ZM73.0654 165.523V149.558H76.8251V165.523H73.0654Z" fill="white"/>
<path d="M83.8387 143.496V160.317C83.8387 162.284 84.2502 163.014 85.5442 163.014C86.1771 163.014 86.8712 162.792 87.5355 162.506L88.3569 165.044C87.5042 165.584 85.9557 165.997 84.5972 165.997C80.3318 165.997 80.079 163.489 80.079 161.109V143.495H83.8387V143.496Z" fill="white"/>
<path d="M102.355 162.476L102.639 165.524H99.3848L99.1633 163.843L99.0361 163.811C98.0561 165.239 96.4448 165.937 94.7079 165.937C90.2525 165.937 88.5139 162.764 88.5139 158.225C88.5139 152.639 91.2953 149.084 96.729 149.084C97.7718 149.084 100.079 149.338 102.355 150.194V162.476ZM98.6262 152.256C98.1536 152.033 97.2364 151.843 96.2564 151.843C93.2536 151.843 92.2439 154.668 92.2439 158.096C92.2439 160.73 92.8752 163.237 95.5292 163.237C97.4876 163.237 98.6262 161.841 98.6262 160.476V152.256Z" fill="white"/>
<path d="M105.575 165.522V143.465H109.335V150.891C110.409 149.653 111.989 149.082 113.601 149.082C116.917 149.082 118.689 150.923 118.689 154.668V165.522H114.928V155.335C114.928 153.494 114.549 152.002 112.495 152.002C110.694 152.002 109.335 153.526 109.335 155.144V165.522H105.575Z" fill="white"/>
</svg>
