<svg width="174" height="115" viewBox="0 0 174 115" fill="none" xmlns="http://www.w3.org/2000/svg">
<path d="M133.286 23.8922L139.471 0H167.815L174 23.8922H158.257L153.65 4.2817L149.042 23.8922H133.299H133.286Z" fill="#81BE83"/>
<path d="M2.33173 92.5253V92.1894C10.1088 83.619 13.9974 75.8252 13.9974 68.808C13.9974 66.919 13.746 65.023 13.2504 63.1271C12.7477 61.2381 11.8611 58.9503 10.5835 56.2777C9.30597 53.6052 7.55368 50.156 5.33365 45.9233C1.77323 39.137 0 32.6794 0 26.5577C0 22.4369 0.942465 18.0153 2.83438 13.2789C4.71931 8.54241 7.49783 4.12078 11.163 0H42.3272V0.335819C38.2152 4.90436 35.2691 8.99716 33.4959 12.6142C31.7157 16.2313 30.8291 19.9393 30.8291 23.7173C30.8291 26.5018 31.3317 29.2303 32.33 31.9028C33.3284 34.5754 34.941 38.0246 37.1611 42.2573C40.163 47.7144 42.2434 52.143 43.4092 55.5361C44.5751 58.9363 45.1615 62.4134 45.1615 65.9745C45.1615 70.76 44.3796 75.2445 42.8298 79.4213C41.273 83.5981 38.7179 87.9707 35.1644 92.5322H2.33173V92.5253Z" fill="#283D53"/>
<path d="M54.663 92.5253V0H116.489C126.046 14.2513 130.821 28.8945 130.821 43.9224C130.821 49.8272 130.207 55.837 128.985 61.9587C127.763 68.0804 126.095 73.8173 123.987 79.1624C121.871 84.5076 119.372 88.9642 116.489 92.5253H54.663ZM83.4954 87.1801C89.7157 82.9474 94.414 77.0216 97.5765 69.3957C100.746 61.7698 102.324 53.7801 102.324 45.4266C102.324 39.6407 101.542 34.0717 99.992 28.7266C98.4352 23.3814 96.271 18.7079 93.4925 14.6991C90.714 10.6903 87.384 7.90575 83.4954 6.34559V87.1801Z" fill="#283D53"/>
<path d="M7.9726 114.067C7.1558 114.067 6.40881 113.927 5.71767 113.654C5.02652 113.381 4.43312 112.996 3.92349 112.5C3.42084 112.003 3.02291 111.422 2.74366 110.751C2.45743 110.079 2.31781 109.344 2.31781 108.554C2.31781 107.763 2.45743 107.029 2.74366 106.357C3.02989 105.685 3.42084 105.105 3.93047 104.608C4.4401 104.111 5.04049 103.726 5.73163 103.453C6.42277 103.181 7.17674 103.041 7.98656 103.041C8.79638 103.041 9.50847 103.174 10.1926 103.432C10.8768 103.691 11.4632 104.09 11.9379 104.615L11.2119 105.342C10.7721 104.888 10.2764 104.559 9.74583 104.356C9.20828 104.153 8.63582 104.055 8.01449 104.055C7.36523 104.055 6.76485 104.167 6.20635 104.391C5.64785 104.615 5.16615 104.93 4.75426 105.335C4.34236 105.741 4.02123 106.217 3.79085 106.763C3.56047 107.308 3.44179 107.903 3.44179 108.554C3.44179 109.204 3.56047 109.799 3.79085 110.345C4.02123 110.89 4.34236 111.359 4.75426 111.772C5.16615 112.178 5.64785 112.493 6.20635 112.716C6.76485 112.94 7.36523 113.052 8.01449 113.052C8.66374 113.052 9.20828 112.947 9.74583 112.744C10.2834 112.542 10.7721 112.206 11.2119 111.751L11.9379 112.479C11.4632 113.003 10.8838 113.402 10.1926 113.668C9.50149 113.934 8.76148 114.074 7.96562 114.074L7.9726 114.067Z" fill="#283D53"/>
<path d="M18.8773 114.067C18.0605 114.067 17.3065 113.927 16.6154 113.654C15.9173 113.381 15.3169 112.996 14.8072 112.493C14.2976 111.996 13.8997 111.408 13.6204 110.744C13.3412 110.079 13.1946 109.344 13.1946 108.554C13.1946 107.763 13.3342 107.029 13.6204 106.364C13.9067 105.699 14.2976 105.119 14.8072 104.615C15.3169 104.111 15.9173 103.726 16.6084 103.453C17.2995 103.181 18.0535 103.041 18.8773 103.041C19.7011 103.041 20.4411 103.181 21.1322 103.453C21.8234 103.726 22.4238 104.111 22.9334 104.608C23.443 105.105 23.8409 105.685 24.1202 106.357C24.4064 107.029 24.546 107.763 24.546 108.554C24.546 109.344 24.4064 110.079 24.1202 110.751C23.834 111.422 23.443 112.003 22.9334 112.5C22.4238 112.996 21.8234 113.381 21.1322 113.654C20.4411 113.927 19.6871 114.067 18.8773 114.067ZM18.8773 113.045C19.5265 113.045 20.1269 112.933 20.6785 112.709C21.23 112.486 21.7047 112.171 22.1166 111.765C22.5285 111.359 22.8426 110.883 23.066 110.338C23.2894 109.792 23.4081 109.197 23.4081 108.547C23.4081 107.896 23.2964 107.301 23.066 106.756C22.8356 106.21 22.5215 105.741 22.1166 105.328C21.7117 104.923 21.23 104.608 20.6785 104.384C20.1269 104.16 19.5265 104.048 18.8773 104.048C18.228 104.048 17.6277 104.16 17.0692 104.384C16.5107 104.608 16.029 104.923 15.624 105.328C15.2191 105.734 14.898 106.21 14.6676 106.756C14.4372 107.301 14.3186 107.896 14.3186 108.547C14.3186 109.197 14.4372 109.778 14.6676 110.324C14.898 110.869 15.2191 111.345 15.624 111.758C16.029 112.164 16.5107 112.479 17.0692 112.702C17.6277 112.926 18.228 113.038 18.8773 113.038V113.045Z" fill="#283D53"/>
<path d="M27.1082 113.976V103.139H28.0506L35.5135 112.548H35.0179V103.139H36.1488V113.976H35.2064L27.7644 104.566H28.2601V113.976H27.1151H27.1082Z" fill="#283D53"/>
<path d="M41.7687 113.976V104.132H37.9709V103.139H46.7114V104.132H42.9137V113.976H41.7687Z" fill="#283D53"/>
<path d="M48.5335 113.976V103.139H52.5826C53.4972 103.139 54.286 103.285 54.9493 103.579C55.6055 103.873 56.1151 104.3 56.4712 104.846C56.8272 105.391 57.0017 106.063 57.0017 106.854C57.0017 107.644 56.8272 108.274 56.4712 108.826C56.1151 109.379 55.6055 109.799 54.9493 110.093C54.293 110.387 53.5041 110.534 52.5826 110.534H49.1688L49.6784 110.009V113.969H48.5335V113.976ZM49.6784 110.107L49.1688 109.568H52.5547C53.6368 109.568 54.4536 109.33 55.0191 108.854C55.5776 108.379 55.8638 107.714 55.8638 106.861C55.8638 106.007 55.5845 105.321 55.0191 104.846C54.4606 104.37 53.6368 104.132 52.5547 104.132H49.1688L49.6784 103.593V110.114V110.107ZM55.9196 113.976L53.1411 110.044H54.3768L57.1693 113.976H55.9196Z" fill="#283D53"/>
<path d="M57.9721 113.976L62.9148 103.139H64.0458L68.9885 113.976H67.7807L63.2359 103.803H63.6967L59.1589 113.976H57.9721ZM59.9199 111.079L60.2619 110.149H66.545L66.8871 111.079H59.9199Z" fill="#283D53"/>
<path d="M75.3204 114.067C74.5036 114.067 73.7566 113.927 73.0655 113.654C72.3744 113.381 71.781 112.996 71.2713 112.5C70.7687 112.003 70.3708 111.422 70.0915 110.751C69.8053 110.079 69.6656 109.344 69.6656 108.554C69.6656 107.763 69.8053 107.029 70.0915 106.357C70.3777 105.685 70.7687 105.105 71.2783 104.608C71.7879 104.111 72.3883 103.726 73.0795 103.453C73.7706 103.181 74.5246 103.041 75.3344 103.041C76.1442 103.041 76.8563 103.174 77.5405 103.432C78.2246 103.691 78.8111 104.09 79.2858 104.615L78.5597 105.342C78.1199 104.888 77.6242 104.559 77.0937 104.356C76.5561 104.153 75.9837 104.055 75.3623 104.055C74.7131 104.055 74.1127 104.167 73.5542 104.391C72.9957 104.615 72.514 104.93 72.1021 105.335C71.6902 105.741 71.3691 106.217 71.1387 106.763C70.9083 107.308 70.7896 107.903 70.7896 108.554C70.7896 109.204 70.9083 109.799 71.1387 110.345C71.3691 110.89 71.6902 111.359 72.1021 111.772C72.514 112.178 72.9957 112.493 73.5542 112.716C74.1127 112.94 74.7131 113.052 75.3623 113.052C76.0116 113.052 76.5561 112.947 77.0937 112.744C77.6312 112.542 78.1199 112.206 78.5597 111.751L79.2858 112.479C78.8111 113.003 78.2316 113.402 77.5405 113.668C76.8493 113.934 76.1093 114.074 75.3135 114.074L75.3204 114.067Z" fill="#283D53"/>
<path d="M83.691 113.976V104.132H79.8932V103.139H88.6337V104.132H84.8359V113.976H83.691Z" fill="#283D53"/>
<path d="M90.4557 113.976V103.139H91.6007V113.976H90.4557Z" fill="#283D53"/>
<path d="M95.1192 113.976V103.139H96.0617L103.525 112.548H103.029V103.139H104.16V113.976H103.217L95.7754 104.566H96.2711V113.976H95.1262H95.1192Z" fill="#283D53"/>
<path d="M112.419 114.067C111.595 114.067 110.834 113.927 110.143 113.654C109.445 113.381 108.844 112.996 108.335 112.5C107.825 112.003 107.427 111.422 107.148 110.751C106.862 110.079 106.722 109.344 106.722 108.554C106.722 107.763 106.862 107.029 107.148 106.357C107.434 105.685 107.832 105.105 108.342 104.608C108.858 104.111 109.459 103.726 110.157 103.453C110.855 103.181 111.609 103.041 112.433 103.041C113.256 103.041 114.01 103.167 114.695 103.425C115.379 103.684 115.965 104.076 116.447 104.601L115.735 105.328C115.281 104.874 114.785 104.552 114.234 104.356C113.682 104.16 113.103 104.062 112.475 104.062C111.804 104.062 111.19 104.174 110.631 104.398C110.073 104.622 109.584 104.937 109.165 105.342C108.747 105.748 108.425 106.224 108.195 106.77C107.965 107.315 107.846 107.91 107.846 108.561C107.846 109.211 107.965 109.792 108.195 110.338C108.425 110.883 108.754 111.359 109.165 111.772C109.584 112.178 110.073 112.493 110.631 112.716C111.19 112.94 111.804 113.052 112.461 113.052C113.075 113.052 113.661 112.961 114.213 112.772C114.764 112.584 115.274 112.269 115.735 111.828L116.384 112.695C115.867 113.15 115.267 113.493 114.576 113.724C113.885 113.955 113.166 114.074 112.412 114.074L112.419 114.067ZM115.295 112.556V108.561H116.391V112.695L115.295 112.556Z" fill="#283D53"/>
</svg>
