<svg width="175" height="72" viewBox="0 0 175 72" fill="none" xmlns="http://www.w3.org/2000/svg">
<path d="M16.0942 64.6034C15.4031 64.6034 14.814 64.8443 14.3269 65.3287C13.8424 65.8104 13.5976 66.3937 13.5976 67.0758C13.5976 67.1721 13.6001 67.2406 13.6078 67.2837H12.6514V64.6136H8.93578C8.13502 64.6136 7.53062 64.824 7.12513 65.2424C6.71965 65.6608 6.51563 66.277 6.51563 67.0834C6.51563 67.1747 6.51818 67.2406 6.52584 67.2837H6.30652V65.2932H4.96766V67.2837H3.86596V64.5958H2.35369V68.3259C2.35369 68.5744 2.17517 68.7874 1.81559 68.9675C1.45856 69.1475 1.06838 69.2337 0.650146 69.221L1.18824 70.5422L1.37951 70.5523C2.11907 70.5878 2.70817 70.4306 3.1468 70.0781C3.58289 69.7256 3.82006 69.2388 3.85576 68.615H14.1357C14.633 69.2362 15.2858 69.5481 16.0942 69.5481C16.7802 69.5481 17.3668 69.3072 17.8513 68.8229C18.3359 68.3411 18.5807 67.7579 18.5807 67.0758C18.5807 66.3937 18.3384 65.8104 17.8513 65.3287C17.3668 64.8469 16.7802 64.6034 16.0942 64.6034ZM11.3126 67.2837H7.94375C7.931 67.2 7.9259 67.1341 7.9259 67.0834C7.9259 66.3658 8.28293 66.0057 8.99954 66.0057L11.3126 65.9956V67.2812V67.2837ZM16.0942 68.1535C15.3725 68.1535 15.0104 67.7934 15.0104 67.0758C15.0104 66.3582 15.3725 65.9981 16.0942 65.9981C16.8159 65.9981 17.1781 66.3582 17.1781 67.0758C17.1781 67.7934 16.8159 68.1535 16.0942 68.1535Z" fill="#124B84"/>
<path d="M25.8616 64.5576H24.3876V65.8965H25.8616V64.5576Z" fill="#124B84"/>
<path d="M26.3181 67.2836H22.5208C22.5081 67.1872 22.503 67.1188 22.503 67.0757C22.503 66.3099 22.888 65.927 23.6582 65.927C23.7424 65.927 23.8061 65.9295 23.8495 65.9371V64.6058H23.6582C22.9722 64.6058 22.3857 64.8467 21.9011 65.3311C21.4166 65.8129 21.1718 66.3961 21.1718 67.0782C21.1718 67.6513 21.3528 68.1635 21.7175 68.6174H27.7896V64.6058H26.3155V67.2861L26.3181 67.2836Z" fill="#124B84"/>
<path d="M25.8616 62.6761H24.3876V64.015H25.8616V62.6761Z" fill="#124B84"/>
<path d="M34.647 62.5038H33.173V63.8427H34.647V62.5038Z" fill="#124B84"/>
<path d="M40.3111 64.6034C39.6199 64.6034 39.0308 64.8443 38.5438 65.3286C38.0337 65.8358 37.7914 66.419 37.8144 67.0757L37.8246 67.2837H36.8785V64.6034H33.1628C32.8058 64.6034 32.4436 64.6972 32.079 64.8849V62.5038H30.7401V67.2837H29.7838V62.5038H28.4628V68.6149H42.2569C42.6139 68.156 42.795 67.6437 42.795 67.0757C42.795 66.3936 42.5527 65.8104 42.0656 65.3286C41.5811 64.8468 40.9945 64.6034 40.3085 64.6034H40.3111ZM35.5396 67.2837H32.1708C32.158 67.2 32.1529 67.129 32.1529 67.0757C32.1529 66.3581 32.5151 65.998 33.2368 65.998L35.5396 65.9879V67.2837ZM41.3668 67.2837H39.2451C39.2323 67.1873 39.2272 67.1188 39.2272 67.0757C39.2272 66.3581 39.5893 65.998 40.3111 65.998C41.0328 65.998 41.3949 66.3581 41.3949 67.0757C41.3949 67.1417 41.3847 67.2127 41.3668 67.2837Z" fill="#124B84"/>
<path d="M41.1117 62.5038H39.6377V63.8427H41.1117V62.5038Z" fill="#124B84"/>
<path d="M54.0592 64.6034C53.3681 64.6034 52.779 64.8443 52.2919 65.3286C51.8074 65.8104 51.5626 66.3936 51.5626 67.0757C51.5626 67.1721 51.5651 67.2405 51.5728 67.2836H50.6164V67.2659C50.6164 66.5305 50.3563 65.9017 49.8335 65.3818C49.3184 64.8569 48.6834 64.5932 47.9311 64.5932C47.0563 64.5932 46.3499 64.9431 45.8093 65.643L46.8115 66.495C47.0844 66.102 47.4567 65.9067 47.9311 65.9067C48.8466 65.9067 49.3056 66.3606 49.3056 67.2634V67.2811H44.8453V62.5012H43.5243V68.6124H52.1007C52.5979 69.2336 53.2508 69.5455 54.0592 69.5455C54.7452 69.5455 55.3318 69.3046 55.8163 68.8203C56.3009 68.3385 56.5457 67.7553 56.5457 67.0732C56.5457 66.3911 56.3034 65.8078 55.8163 65.326C55.3318 64.8443 54.7452 64.6008 54.0592 64.6008V64.6034ZM54.0592 68.1534C53.3375 68.1534 52.9754 67.7933 52.9754 67.0757C52.9754 66.3581 53.3375 65.998 54.0592 65.998C54.7809 65.998 55.1431 66.3581 55.1431 67.0757C55.1431 67.7933 54.7809 68.1534 54.0592 68.1534Z" fill="#124B84"/>
<path d="M66.1115 69.5658H64.6375V70.9047H66.1115V69.5658Z" fill="#124B84"/>
<path d="M68.0879 69.5658H66.6139V70.9047H68.0879V69.5658Z" fill="#124B84"/>
<path d="M77.1003 64.5956C76.2205 64.5956 75.509 64.9456 74.9709 65.6454L75.9732 66.4975C76.246 66.1044 76.6235 65.9092 77.1029 65.9092C78.0133 65.9092 78.4673 66.3631 78.4673 67.2658V67.2835H74.0146C74.0197 67.2354 74.0248 67.1669 74.0248 67.0756C74.0248 66.3935 73.7825 65.8103 73.2954 65.3285C72.8109 64.8467 72.2218 64.6033 71.5281 64.6033C70.8345 64.6033 70.2556 64.8442 69.771 65.3285C69.2865 65.8103 69.0417 66.3935 69.0417 67.0756C69.0417 67.1669 69.0442 67.2354 69.0519 67.2835H67.05V64.6033H65.5759V67.2835H60.9958C60.9779 67.2176 60.9677 67.1517 60.9677 67.0832C60.9677 66.3656 61.3298 66.0055 62.0515 66.0055C62.3193 66.0055 62.559 66.0968 62.7707 66.2768L63.4899 65.0546C63.064 64.7579 62.5845 64.6109 62.0515 64.6109C61.3655 64.6109 60.779 64.8518 60.2944 65.3361C59.8099 65.8179 59.5651 66.4011 59.5651 67.0832C59.5651 67.3317 59.6084 67.5878 59.6926 67.8515C59.0805 68.3536 58.772 68.9901 58.772 69.761C58.772 69.8446 58.7745 69.908 58.7822 69.9511H60.1924C60.1797 69.8675 60.1746 69.8041 60.1746 69.761C60.1746 68.9952 60.5367 68.6123 61.2584 68.6123H69.5798C70.0771 69.2335 70.7274 69.5454 71.5281 69.5454C72.3289 69.5454 72.9869 69.2335 73.4867 68.6123H79.4236C79.6608 68.2015 79.7781 67.7527 79.7781 67.2633C79.7781 66.5279 79.5179 65.899 78.9952 65.3792C78.48 64.8543 77.8476 64.5906 77.1003 64.5906V64.5956ZM71.5281 68.1533C70.8115 68.1533 70.4545 67.7932 70.4545 67.0756C70.4545 66.358 70.8115 65.9979 71.5281 65.9979C72.2447 65.9979 72.612 66.358 72.612 67.0756C72.612 67.7932 72.2498 68.1533 71.5281 68.1533Z" fill="#124B84"/>
<path d="M77.7915 69.5658H76.3175V70.9047H77.7915V69.5658Z" fill="#124B84"/>
<path d="M87.388 70.6613H85.9139V72.0001H87.388V70.6613Z" fill="#124B84"/>
<path d="M85.4115 70.6613H83.9375V72.0001H85.4115V70.6613Z" fill="#124B84"/>
<path d="M91.7487 64.6034C91.0576 64.6034 90.4685 64.8443 89.9814 65.3286C89.4714 65.8358 89.2291 66.419 89.2521 67.0757L89.2623 67.2837H86.3678C86.4035 67.7858 86.5794 68.2295 86.8957 68.6149H83.9094C83.8966 68.5186 83.8915 68.4501 83.8915 68.407C83.8915 67.6412 84.2766 67.2583 85.0468 67.2583C85.1309 67.2583 85.1947 67.2609 85.238 67.2685V65.9372L85.0468 65.9271C84.3965 65.8915 83.8125 66.1324 83.2897 66.6523C82.8051 67.1341 82.5603 67.7198 82.5603 68.4095C82.5603 68.9776 82.7388 69.4898 83.0984 69.9487H88.3799V69.0333C88.3799 68.9116 88.3595 68.7747 88.3161 68.6175H93.6971C94.0541 68.1585 94.2352 67.6463 94.2352 67.0783C94.2352 66.3962 93.9929 65.8129 93.5058 65.3312C93.0213 64.8494 92.4347 64.6059 91.7487 64.6059V64.6034ZM92.8045 67.2837H90.6827C90.67 67.1873 90.6649 67.1189 90.6649 67.0757C90.6649 66.3581 91.027 65.9981 91.7487 65.9981C92.4704 65.9981 92.8326 66.3581 92.8326 67.0757C92.8326 67.1417 92.8224 67.2127 92.8045 67.2837Z" fill="#124B84"/>
<path d="M92.5496 62.5038H91.0756V63.8427H92.5496V62.5038Z" fill="#124B84"/>
<path d="M100.435 63.0464H98.9607V64.3853H100.435V63.0464Z" fill="#124B84"/>
<path d="M105.012 69.5658H103.538V70.9047H105.012V69.5658Z" fill="#124B84"/>
<path d="M105.806 67.2837H102.383V64.6034H101.08V67.3547C101.08 67.7782 100.96 68.0977 100.721 68.3183C100.481 68.5389 100.142 68.6479 99.7055 68.6479C98.7823 68.6479 98.3208 68.189 98.3208 67.271C98.3208 66.9819 98.4075 66.7131 98.586 66.4646L97.6653 65.5416C97.2344 66.0437 97.0201 66.6193 97.0201 67.271C97.0201 68.0064 97.2803 68.6352 97.8031 69.1551C98.331 69.68 98.966 69.9437 99.7055 69.9437C100.731 69.9437 101.506 69.4999 102.026 68.6124H107.28V64.5933H105.806V67.2812V67.2837Z" fill="#124B84"/>
<path d="M106.989 69.5658H105.515V70.9047H106.989V69.5658Z" fill="#124B84"/>
<path d="M109.667 63.726H108.346V66.812H109.667V63.726Z" fill="#124B84"/>
<path d="M113.652 62.5139H112.178V63.8528H113.652V62.5139Z" fill="#124B84"/>
<path d="M112.179 67.2837H111.952H111.587H111.289V62.5038H109.968V67.2837H108.009V68.6149H111.587H111.952H113.655V64.5958H112.179V67.2837Z" fill="#124B84"/>
<path d="M116.603 64.6034H116.093C115.535 64.6034 115.096 64.7758 114.777 65.1232C114.458 65.4706 114.3 65.9905 114.3 66.6853C114.3 66.9617 114.346 67.2431 114.438 67.5271C114.53 67.8111 114.68 68.0622 114.894 68.2828C115.106 68.5034 115.354 68.6124 115.631 68.6124H116.506C116.379 68.7925 116.162 68.9421 115.856 69.0562C115.55 69.1703 115.231 69.2261 114.905 69.2185L115.443 70.5396L115.634 70.5497C116.412 70.5852 117.019 70.4103 117.46 70.0248C117.901 69.6394 118.121 69.1094 118.121 68.44V64.5933H116.608V64.6034H116.603ZM116.603 67.2837C116.167 67.2837 115.879 67.2304 115.739 67.1214C115.598 67.0124 115.529 66.8475 115.529 66.6244C115.529 66.4012 115.601 66.2466 115.744 66.1401C115.887 66.0336 116.172 65.9829 116.603 65.9829V67.2862V67.2837Z" fill="#124B84"/>
<path d="M119.523 61.0863C119.732 60.9747 119.959 60.9189 120.201 60.9189V60.5031C119.674 60.5031 119.296 60.6298 119.072 60.8834C118.847 61.137 118.735 61.4387 118.735 61.7887C118.735 61.8724 118.748 61.9484 118.771 62.0144H120.237V61.6162H119.209C119.209 61.3753 119.314 61.1978 119.523 61.0863Z" fill="#124B84"/>
<path d="M120.166 62.5215H118.845V68.6149H120.166V62.5215Z" fill="#124B84"/>
<path d="M129.551 62.5038H128.077V63.8427H129.551V62.5038Z" fill="#124B84"/>
<path d="M136.714 62.5038H135.24V63.8427H136.714V62.5038Z" fill="#124B84"/>
<path d="M135.75 60.6019H134.276V61.9408H135.75V60.6019Z" fill="#124B84"/>
<path d="M134.738 62.5038H133.264V63.8427H134.738V62.5038Z" fill="#124B84"/>
<path d="M146.566 67.2836H145.602V62.5037H144.273V67.2836H143.327V67.0832C143.327 65.7672 142.684 64.9659 141.396 64.6743L143.281 63.7056L142.562 62.3033L138.601 64.5931H138.573V65.9954L140.84 66.0055C141.557 66.0055 141.914 66.3656 141.914 67.0832C141.914 67.1187 141.909 67.1872 141.896 67.2836H137.627V64.5957H136.298V67.2836H135.597V64.8847H134.276L134.266 67.2836H133.537L133.526 65.3183H132.205V67.2836H131.259C131.264 67.2354 131.269 67.1669 131.269 67.0756C131.269 66.3935 131.027 65.8103 130.54 65.3285C130.055 64.8467 129.469 64.6033 128.783 64.6033C128.097 64.6033 127.51 64.8442 127.026 65.3285C126.516 65.8356 126.274 66.4189 126.296 67.0756L126.307 67.2836H123.93C123.917 67.1872 123.912 67.1187 123.912 67.0756C123.912 66.3098 124.297 65.9269 125.067 65.9269C125.151 65.9269 125.215 65.9295 125.259 65.9371V64.6058H125.067C124.381 64.6058 123.795 64.8467 123.31 65.331C122.826 65.8128 122.581 66.396 122.581 67.0782C122.581 67.6462 122.759 68.1584 123.119 68.6174H147.881V62.5062H146.56V67.2861L146.566 67.2836ZM129.851 67.2836H127.722C127.709 67.1872 127.704 67.1187 127.704 67.0756C127.704 66.358 128.066 65.9979 128.788 65.9979C129.51 65.9979 129.872 66.358 129.872 67.0756C129.872 67.1187 129.867 67.1872 129.854 67.2836H129.851Z" fill="#124B84"/>
<path d="M154.986 62.5038H153.512V63.8427H154.986V62.5038Z" fill="#124B84"/>
<path d="M153.074 62.5038H151.6V63.8427H153.074V62.5038Z" fill="#124B84"/>
<path d="M153.268 64.6034C152.551 64.6034 151.941 64.8544 151.437 65.354C150.932 65.8561 150.682 66.4621 150.682 67.1746C150.682 67.7046 150.83 68.1864 151.128 68.6149H155.397C155.695 68.1864 155.843 67.7071 155.843 67.1746C155.843 66.4621 155.591 65.8561 155.088 65.354C154.583 64.8519 153.977 64.6034 153.268 64.6034ZM154.497 67.2837H152.031V67.1746C152.031 66.3531 152.444 65.9423 153.27 65.9423C154.096 65.9423 154.499 66.3531 154.499 67.1746V67.2837H154.497Z" fill="#124B84"/>
<path d="M158.11 68.3259C158.11 68.5744 157.932 68.7874 157.572 68.9675C157.215 69.1475 156.825 69.2337 156.407 69.221L156.945 70.5422L157.136 70.5523C157.914 70.5878 158.521 70.4128 158.962 70.0274C159.403 69.642 159.623 69.112 159.623 68.4426V64.5958H158.11V68.3259Z" fill="#124B84"/>
<path d="M161.614 64.6034H161.423V65.9346C161.466 65.9296 161.53 65.9245 161.614 65.9245C162.385 65.9245 162.77 66.3074 162.77 67.0732C162.77 67.1163 162.765 67.1848 162.752 67.2811H160.349V68.6124H163.563C163.92 68.1534 164.101 67.6412 164.101 67.0732C164.101 66.3911 163.859 65.8078 163.371 65.3261C162.887 64.8443 162.3 64.6008 161.614 64.6008V64.6034Z" fill="#124B84"/>
<path d="M168.515 69.5658H167.041V70.9047H168.515V69.5658Z" fill="#124B84"/>
<path d="M173.623 65.3286C173.139 64.8468 172.552 64.6034 171.866 64.6034C171.18 64.6034 170.586 64.8443 170.099 65.3286C169.614 65.8104 169.37 66.3936 169.37 67.0757C169.37 67.1721 169.372 67.2406 169.38 67.2837H168.434V64.6034H167.105V67.2837H166.149V62.5038H164.828V68.6149H169.908C170.405 69.2362 171.058 69.5481 171.866 69.5481C172.552 69.5481 173.139 69.3072 173.623 68.8229C174.108 68.3411 174.353 67.7578 174.353 67.0757C174.353 66.3936 174.11 65.8104 173.623 65.3286ZM171.866 68.1534C171.145 68.1534 170.782 67.7933 170.782 67.0757C170.782 66.3581 171.145 65.998 171.866 65.998C172.588 65.998 172.95 66.3581 172.95 67.0757C172.95 67.7933 172.588 68.1534 171.866 68.1534Z" fill="#124B84"/>
<path d="M31.5919 18.5187V35.0188C31.2348 34.9478 30.6636 34.9123 29.8781 34.9123C25.1679 34.9123 21.5619 36.9003 19.0652 40.8738H31.5919V56.6284H2.15223C1.15255 53.6489 0.65271 50.6314 0.65271 47.5809C0.65271 39.5628 3.5064 32.7138 9.21632 27.0363C14.9262 21.3587 21.8118 18.5212 29.8781 18.5212H31.5919V18.5187Z" fill="#124B84"/>
<path d="M129.956 27.0032C133.031 27.0032 135.523 24.5249 135.523 21.4677C135.523 18.4105 133.031 15.9321 129.956 15.9321C126.881 15.9321 124.389 18.4105 124.389 21.4677C124.389 24.5249 126.881 27.0032 129.956 27.0032Z" fill="#124B84"/>
<path d="M144.997 27.0032C148.072 27.0032 150.564 24.5249 150.564 21.4677C150.564 18.4105 148.072 15.9321 144.997 15.9321C141.923 15.9321 139.43 18.4105 139.43 21.4677C139.43 24.5249 141.923 27.0032 144.997 27.0032Z" fill="#124B84"/>
<path d="M160.041 27.0032C163.116 27.0032 165.608 24.5249 165.608 21.4677C165.608 18.4105 163.116 15.9321 160.041 15.9321C156.966 15.9321 154.474 18.4105 154.474 21.4677C154.474 24.5249 156.966 27.0032 160.041 27.0032Z" fill="#124B84"/>
<path d="M130.466 30.5254V53.5043C134.399 53.5043 137.586 50.3346 137.586 46.4245V30.5254H152.411V53.5043C156.343 53.5043 159.531 50.3346 159.531 46.4245V30.5254H174.353V56.6284H115.644V30.5254H130.466Z" fill="#124B84"/>
<path d="M68.7612 0C60.6949 0 53.8093 2.84004 48.0994 8.51758C44.0496 12.5418 41.4382 17.1543 40.26 22.3551C39.7755 24.4928 39.5358 26.7268 39.5358 29.0622V56.6283H55.3828V29.7671C55.3828 15.5796 71.722 16.4291 72.0816 16.5001V0H68.7637H68.7612Z" fill="#00B885"/>
<path d="M85.5264 17.2964C73.3006 17.2964 63.3829 27.1224 63.3242 39.2661V56.6309H78.169V39.2661C78.169 35.2267 81.4639 32.0595 85.5238 32.0595C89.5837 32.0595 92.8761 35.2241 92.8761 39.2661V56.6309H107.698V39.2661C107.698 27.0717 97.7827 17.2964 85.5238 17.2964H85.5264Z" fill="#00B885"/>
<path d="M85.5135 13.7718C88.5882 13.7718 91.0806 11.2934 91.0806 8.23622C91.0806 5.17903 88.5882 2.70068 85.5135 2.70068C82.4389 2.70068 79.9464 5.17903 79.9464 8.23622C79.9464 11.2934 82.4389 13.7718 85.5135 13.7718Z" fill="#124B84"/>
</svg>
