<svg width="91" height="131" viewBox="0 0 91 131" fill="none" xmlns="http://www.w3.org/2000/svg">
<path d="M55.8734 81.3076V45.4451C55.8734 42.2135 58.129 39.3162 61.3154 38.7988C65.2855 38.1541 68.7424 41.1031 68.9294 44.9039C68.9373 45.0153 68.9373 45.1307 68.9373 45.2422V81.3076H55.8695H55.8734Z" fill="url(#paint0_linear_78_11)"/>
<path d="M68.9413 45.2422V83.7433C68.9413 86.9749 66.6858 89.8722 63.4993 90.3896C59.5292 91.0344 56.0724 88.0853 55.8854 84.2845C55.8774 84.1731 55.8774 84.0577 55.8774 83.9462V45.2422H68.9453H68.9413Z" fill="url(#paint1_linear_78_11)"/>
<path d="M68.9334 44.9002C68.7464 31.3886 57.1941 20.5594 43.4221 21.5743C31.7744 22.4339 22.3663 31.89 21.5548 43.547C20.5921 57.3969 31.5755 68.9743 45.2162 68.9743C49.0471 68.9743 52.6711 68.0629 55.8774 66.4391C63.6187 62.5349 68.9453 54.4956 68.9453 45.2385C68.9453 45.127 68.9453 45.0116 68.9373 44.9002H68.9334ZM46.6006 55.8209C39.639 56.7084 33.7515 50.8182 34.6426 43.8455C35.2473 39.0936 39.0861 35.257 43.8398 34.66C50.8094 33.7844 56.677 39.6786 55.782 46.6433C55.1733 51.3873 51.3424 55.2159 46.6006 55.8209Z" fill="url(#paint2_linear_78_11)"/>
<path d="M90.4228 45.2386V83.7397C90.4228 87.0111 88.1076 89.9363 84.8694 90.4059C80.8317 90.991 77.3629 87.8787 77.3629 83.9426V45.7719C77.3629 29.0207 63.7181 14.0366 46.9984 13.1252C28.4686 12.1143 13.0656 26.9114 13.0656 45.2346C13.0656 63.5578 27.3746 77.2883 45.0054 77.3998C48.2475 77.4197 51.1634 79.6683 51.6646 82.8721C52.3051 86.9554 49.1704 90.4696 45.2122 90.4696C19.5737 90.4696 -1.14798 69.0102 0.0494104 43.0934C1.11951 19.9427 19.8919 1.14183 43.0323 0.0513555C68.9493 -1.17046 90.4228 19.5685 90.4228 45.2306V45.2386Z" fill="url(#paint3_linear_78_11)"/>
<path d="M7.05188 129.431H5.51518L5.22267 130.126H4.68642L6.03236 127.048H6.56014L7.89336 130.126H7.34439L7.05188 129.431ZM6.85688 128.968L6.28247 127.6L5.70806 128.968H6.85688Z" fill="#493B65"/>
<path d="M10.3627 126.862V130.126H9.86246V129.726C9.69713 129.998 9.41734 130.148 9.04853 130.148C8.38298 130.148 7.93787 129.66 7.93787 128.947C7.93787 128.234 8.38722 127.763 9.04005 127.763C9.41522 127.763 9.69289 127.917 9.86246 128.189V126.859H10.3627V126.862ZM9.86246 128.964C9.86246 128.51 9.56995 128.193 9.15239 128.193C8.73483 128.193 8.44233 128.514 8.43809 128.964C8.44233 129.409 8.73059 129.726 9.15239 129.726C9.57419 129.726 9.86246 129.409 9.86246 128.964Z" fill="#493B65"/>
<path d="M11.2805 127.784L11.9248 129.628L12.5607 127.784H13.0609L12.1728 130.124H11.6535L10.7569 127.784H11.2805Z" fill="#493B65"/>
<path d="M15.3628 129.148H13.612C13.6904 129.508 13.9639 129.733 14.3306 129.733C14.5828 129.733 14.8138 129.636 14.9834 129.461L15.2483 129.748C15.0215 129.998 14.6909 130.144 14.2903 130.144C13.576 130.144 13.1054 129.664 13.1054 128.96C13.1054 128.255 13.5887 127.772 14.2776 127.767C15.0915 127.767 15.4222 128.305 15.3628 129.148ZM14.9262 128.78C14.9092 128.401 14.6612 128.172 14.2818 128.172C13.9024 128.172 13.6544 128.405 13.6014 128.78H14.9262Z" fill="#493B65"/>
<path d="M17.1878 127.767V128.251C16.7215 128.225 16.4247 128.502 16.3866 128.902V130.124H15.8863V127.784H16.3866V128.251C16.5434 127.934 16.8211 127.767 17.1878 127.767Z" fill="#493B65"/>
<path d="M18.911 129.975C18.7287 130.084 18.5358 130.146 18.3408 130.146C17.9932 130.146 17.6922 129.942 17.6922 129.463V128.249H17.3658V127.87H17.6922V127.228H18.1882V127.87H18.8728V128.249H18.1882V129.371C18.1882 129.613 18.2794 129.688 18.4362 129.688C18.5401 129.688 18.6503 129.653 18.7838 129.587L18.911 129.975Z" fill="#493B65"/>
<path d="M19.9136 127.116C19.9136 127.292 19.7864 127.425 19.6211 127.425C19.4557 127.425 19.3286 127.292 19.3286 127.116C19.3286 126.941 19.4557 126.808 19.6211 126.808C19.7864 126.808 19.9136 126.937 19.9136 127.116ZM19.869 127.784V130.124H19.3731V127.784H19.869Z" fill="#493B65"/>
<path d="M21.2638 128.168C21.0687 128.168 20.9246 128.234 20.9246 128.401C20.9246 128.831 22.1561 128.6 22.1519 129.448C22.1519 129.928 21.7301 130.144 21.2638 130.144C20.9246 130.144 20.5622 130.03 20.3311 129.818L20.5092 129.459C20.7084 129.638 21.0327 129.75 21.2849 129.75C21.499 129.75 21.6644 129.675 21.6644 129.499C21.6644 129.02 20.4456 129.287 20.4498 128.444C20.4498 127.969 20.8589 127.767 21.304 127.767C21.5965 127.767 21.906 127.855 22.1137 128.005L21.9314 128.38C21.7258 128.251 21.4694 128.172 21.2659 128.172L21.2638 128.168Z" fill="#493B65"/>
<path d="M23.1968 127.116C23.1968 127.292 23.0696 127.425 22.9043 127.425C22.739 127.425 22.6118 127.292 22.6118 127.116C22.6118 126.941 22.739 126.808 22.9043 126.808C23.0696 126.808 23.1968 126.937 23.1968 127.116ZM23.1544 127.784V130.124H22.6584V127.784H23.1544Z" fill="#493B65"/>
<path d="M26.1113 128.669V130.124H25.611V128.81C25.611 128.459 25.4012 128.243 25.0536 128.243C24.6699 128.247 24.4304 128.515 24.3965 128.881V130.124H23.8963V127.784H24.3965V128.234C24.5618 127.909 24.8586 127.767 25.2507 127.767C25.7912 127.767 26.1134 128.11 26.1134 128.669H26.1113Z" fill="#493B65"/>
<path d="M28.871 127.784V129.895C28.871 130.567 28.3962 130.991 27.6692 130.991C27.3067 130.991 26.9888 130.878 26.7069 130.683L26.9209 130.317C27.1393 130.48 27.3661 130.572 27.648 130.572C28.0888 130.572 28.375 130.313 28.375 129.908V129.613C28.2181 129.867 27.9574 130.009 27.6077 130.009C26.9803 130.009 26.5627 129.551 26.5627 128.878C26.5627 128.206 26.976 127.769 27.5907 127.765C27.9489 127.761 28.2139 127.906 28.375 128.161V127.782H28.871V127.784ZM28.375 128.893C28.375 128.471 28.1016 128.176 27.7094 128.176C27.3173 128.176 27.0396 128.476 27.0354 128.893C27.0396 129.315 27.3088 129.615 27.7094 129.615C28.11 129.615 28.375 129.315 28.375 128.893Z" fill="#493B65"/>
<path d="M32.133 130.124V129.838C31.9677 130.045 31.7027 130.146 31.3657 130.146C30.8655 130.146 30.5518 129.833 30.5518 129.42C30.5518 129.007 30.8697 128.72 31.4272 128.716H32.1288V128.645C32.1288 128.35 31.9423 128.174 31.5756 128.174C31.353 128.174 31.122 128.253 30.8909 128.412L30.6853 128.061C31.0075 127.868 31.2428 127.765 31.6837 127.765C32.2793 127.765 32.6163 128.073 32.6205 128.587L32.6248 130.122H32.133V130.124ZM32.1288 129.302V129.086H31.5014C31.175 129.086 31.0224 129.174 31.0224 129.399C31.0224 129.611 31.1919 129.745 31.4717 129.745C31.8299 129.745 32.1033 129.557 32.1288 129.302Z" fill="#493B65"/>
<path d="M35.3866 127.784V129.895C35.3866 130.567 34.9118 130.991 34.1848 130.991C33.8223 130.991 33.5044 130.878 33.2225 130.683L33.4366 130.317C33.6549 130.48 33.8817 130.572 34.1636 130.572C34.6045 130.572 34.8906 130.313 34.8906 129.908V129.613C34.7338 129.867 34.473 130.009 34.1233 130.009C33.4959 130.009 33.0784 129.551 33.0784 128.878C33.0784 128.206 33.4917 127.769 34.1064 127.765C34.4646 127.761 34.7295 127.906 34.8906 128.161V127.782H35.3866V127.784ZM34.8906 128.893C34.8906 128.471 34.6172 128.176 34.2251 128.176C33.8329 128.176 33.5553 128.476 33.551 128.893C33.5553 129.315 33.8245 129.615 34.2251 129.615C34.6257 129.615 34.8906 129.315 34.8906 128.893Z" fill="#493B65"/>
<path d="M38.1209 129.148H36.3701C36.4485 129.508 36.7219 129.733 37.0886 129.733C37.3409 129.733 37.5719 129.636 37.7415 129.461L38.0064 129.748C37.7796 129.998 37.4489 130.144 37.0483 130.144C36.334 130.144 35.8635 129.664 35.8635 128.96C35.8635 128.255 36.3468 127.772 37.0356 127.767C37.8496 127.767 38.1802 128.305 38.1209 129.148ZM37.6863 128.78C37.6694 128.401 37.4214 128.172 37.042 128.172C36.6626 128.172 36.4146 128.405 36.3616 128.78H37.6863Z" fill="#493B65"/>
<path d="M40.8615 128.669V130.124H40.3613V128.81C40.3613 128.459 40.1514 128.243 39.8038 128.243C39.4202 128.247 39.1807 128.515 39.1467 128.881V130.124H38.6465V127.784H39.1467V128.234C39.3121 127.909 39.6088 127.767 40.0009 127.767C40.5414 127.767 40.8636 128.11 40.8636 128.669H40.8615Z" fill="#493B65"/>
<path d="M42.5042 128.21C42.1036 128.21 41.8153 128.514 41.8153 128.958C41.8153 129.401 42.1036 129.705 42.5042 129.705C42.7967 129.705 43.032 129.608 43.1888 129.422L43.4686 129.705C43.2587 129.981 42.9239 130.139 42.4851 130.139C41.7962 130.139 41.3172 129.66 41.3172 128.955C41.3172 128.251 41.7962 127.763 42.4851 127.763C42.9027 127.763 43.2291 127.9 43.4432 128.146L43.1697 128.472C43.0086 128.305 42.7861 128.204 42.5084 128.208L42.5042 128.21Z" fill="#493B65"/>
<path d="M44.1447 131C43.9349 131 43.7696 130.938 43.6085 130.803L43.8226 130.411C43.9307 130.491 44.0176 130.525 44.1235 130.525C44.2762 130.525 44.397 130.441 44.4754 130.266L44.5538 130.09L43.5958 127.784H44.1129L44.8061 129.557L45.4504 127.784H45.9506L44.8972 130.446C44.7531 130.816 44.4924 131 44.1447 131Z" fill="#493B65"/>
<path d="M27.6034 124.973C24.1718 124.973 21.3803 122.154 21.3803 118.688C21.3803 115.221 24.1718 112.402 27.6034 112.402C31.0351 112.402 33.8266 115.221 33.8266 118.688C33.8266 122.154 31.0351 124.973 27.6034 124.973ZM27.6034 115.164C25.6789 115.164 24.1146 116.746 24.1146 118.688C24.1146 120.629 25.681 122.212 27.6034 122.212C29.5259 122.212 31.0923 120.629 31.0923 118.688C31.0923 116.746 29.5259 115.164 27.6034 115.164Z" fill="#493B65"/>
<path d="M27.6034 120.435C26.6517 120.435 25.876 119.651 25.876 118.69C25.876 117.728 26.6517 116.945 27.6034 116.945C28.5551 116.945 29.3309 117.728 29.3309 118.69C29.3309 119.651 28.5551 120.435 27.6034 120.435Z" fill="#493B65"/>
<path d="M50.0287 120.434H35.588V118.69C35.588 114.087 31.8808 110.342 27.3237 110.342C26.5691 110.342 25.9565 109.723 25.9565 108.961C25.9565 108.199 26.5691 107.58 27.3237 107.58C33.0487 107.58 37.7648 112.021 38.2735 117.67H50.0287C51.2581 117.67 52.2585 116.66 52.2585 115.418C52.2585 114.177 51.2581 113.166 50.0287 113.166H43.2863C42.5317 113.166 41.9192 112.547 41.9192 111.785C41.9192 111.023 42.5317 110.404 43.2863 110.404H50.0287C52.7651 110.404 54.9907 112.652 54.9907 115.416C54.9907 118.18 52.7651 120.428 50.0287 120.428V120.434Z" fill="#493B65"/>
<path d="M67.5344 124.973C66.7799 124.973 66.1673 124.355 66.1673 123.592V98.3809C66.1673 97.6187 66.7799 97 67.5344 97C68.289 97 68.9016 97.6187 68.9016 98.3809V123.595C68.9016 124.357 68.289 124.975 67.5344 124.975V124.973Z" fill="#493B65"/>
<path d="M63.0388 124.973C62.2842 124.973 61.6716 124.354 61.6716 123.592V102.969C61.6716 102.207 62.2842 101.588 63.0388 101.588C63.7934 101.588 64.4059 102.207 64.4059 102.969V123.594C64.4059 124.357 63.7934 124.975 63.0388 124.975V124.973Z" fill="#493B65"/>
<path d="M88.6329 130.893C87.8783 130.893 87.2657 130.165 87.2657 129.403V115.401C87.2657 111.657 84.2495 108.608 80.5424 108.608C76.8352 108.608 73.8169 111.655 73.8169 115.401C73.8169 119.148 76.8331 122.194 80.5424 122.194C81.297 122.194 81.9095 122.813 81.9095 123.575C81.9095 124.337 81.297 124.956 80.5424 124.956C75.3282 124.956 71.0848 120.672 71.0848 115.403C71.0848 110.135 75.3261 105.851 80.5424 105.851C85.7587 105.851 89.9979 110.135 89.9979 115.403V129.405C89.9979 130.167 89.3853 130.895 88.6307 130.895L88.6329 130.893Z" fill="#493B65"/>
<path d="M59.4842 115.26C59.5266 117.842 58.5643 120.278 56.7712 122.119C54.978 123.961 52.585 124.975 50.0266 124.975H17.546C16.7914 124.975 16.181 124.357 16.181 123.594V115.401C16.181 111.657 13.1648 108.61 9.45762 108.61C5.75045 108.61 2.73215 111.657 2.73215 115.401C2.73215 119.146 5.74833 122.194 9.45762 122.194C10.2122 122.194 10.8226 122.813 10.8226 123.573C10.8226 124.333 10.2101 124.954 9.45762 124.954C4.24342 124.952 0 120.666 0 115.399C0 110.132 4.24342 105.848 9.45762 105.848C14.6718 105.848 18.9131 110.132 18.9131 115.399V122.214H50.0266C51.8431 122.214 53.5473 121.492 54.8233 120.184C56.0971 118.874 56.7818 117.142 56.7521 115.305C56.6906 111.625 53.6151 108.629 49.8952 108.629H39.8526C39.098 108.629 38.4876 108.011 38.4876 107.249C38.4876 106.486 39.098 105.87 39.8526 105.87H49.8952C55.0967 105.87 59.3973 110.081 59.4842 115.26Z" fill="#493B65"/>
<path d="M9.45762 120.411C6.72122 120.411 4.49565 118.163 4.49565 115.399C4.49565 112.635 6.72122 110.387 9.45762 110.387C12.194 110.387 14.4196 112.635 14.4196 115.399C14.4196 118.163 12.194 120.411 9.45762 120.411ZM9.45762 113.147C8.22825 113.147 7.22781 114.157 7.22781 115.399C7.22781 116.641 8.22825 117.651 9.45762 117.651C10.687 117.651 11.6874 116.641 11.6874 115.399C11.6874 114.157 10.687 113.147 9.45762 113.147Z" fill="#493B65"/>
<path d="M7.50124 104.014C8.40729 104.014 9.1418 103.272 9.1418 102.357C9.1418 101.441 8.40729 100.699 7.50124 100.699C6.59518 100.699 5.86067 101.441 5.86067 102.357C5.86067 103.272 6.59518 104.014 7.50124 104.014Z" fill="#493B65"/>
<path d="M11.414 104.014C12.3201 104.014 13.0546 103.272 13.0546 102.357C13.0546 101.441 12.3201 100.699 11.414 100.699C10.5079 100.699 9.77344 101.441 9.77344 102.357C9.77344 103.272 10.5079 104.014 11.414 104.014Z" fill="#493B65"/>
<path d="M11.6874 123.595V115.446C11.6874 114.712 12.2364 114.07 12.9634 114.022C13.7583 113.971 14.4196 114.607 14.4196 115.399V123.595C14.4196 124.357 13.807 124.975 13.0524 124.975C12.2979 124.975 11.6853 124.357 11.6853 123.595H11.6874Z" fill="#493B65"/>
<path d="M48.6658 130.122C49.5719 130.122 50.3064 129.38 50.3064 128.465C50.3064 127.55 49.5719 126.808 48.6658 126.808C47.7598 126.808 47.0253 127.55 47.0253 128.465C47.0253 129.38 47.7598 130.122 48.6658 130.122Z" fill="#493B65"/>
<path d="M80.5424 120.411C77.806 120.411 75.5804 118.163 75.5804 115.399C75.5804 112.635 77.806 110.387 80.5424 110.387C83.2788 110.387 85.5043 112.635 85.5043 115.399C85.5043 118.163 83.2788 120.411 80.5424 120.411ZM80.5424 113.147C79.313 113.147 78.3126 114.157 78.3126 115.399C78.3126 116.641 79.313 117.651 80.5424 117.651C81.7717 117.651 82.7722 116.641 82.7722 115.399C82.7722 114.157 81.7717 113.147 80.5424 113.147Z" fill="#493B65"/>
<path d="M82.7722 129.512V115.446C82.7722 114.712 83.3212 114.07 84.0482 114.022C84.843 113.971 85.5044 114.607 85.5044 115.399V129.512C85.5044 130.274 84.8918 130.893 84.1372 130.893C83.3826 130.893 82.7701 130.274 82.7701 129.512H82.7722Z" fill="#493B65"/>
<defs>
<linearGradient id="paint0_linear_78_11" x1="40.1562" y1="48.3425" x2="71.8885" y2="66.9516" gradientUnits="userSpaceOnUse">
<stop stop-color="#664F8C"/>
<stop offset="0.99" stop-color="#3D3356"/>
</linearGradient>
<linearGradient id="paint1_linear_78_11" x1="85.6531" y1="80.1057" x2="52.5282" y2="60.6812" gradientUnits="userSpaceOnUse">
<stop stop-color="#664F8C"/>
<stop offset="0.99" stop-color="#3D3356"/>
</linearGradient>
<linearGradient id="paint2_linear_78_11" x1="-15.8309" y1="9.41582" x2="209.494" y2="141.533" gradientUnits="userSpaceOnUse">
<stop stop-color="#664F8C"/>
<stop offset="0.99" stop-color="#3D3356"/>
</linearGradient>
<linearGradient id="paint3_linear_78_11" x1="-17.7643" y1="8.28567" x2="227.328" y2="151.989" gradientUnits="userSpaceOnUse">
<stop stop-color="#664F8C"/>
<stop offset="0.99" stop-color="#3D3356"/>
</linearGradient>
</defs>
</svg>
