<svg width="189" height="86" viewBox="0 0 189 86" fill="none" xmlns="http://www.w3.org/2000/svg">
<path d="M120.447 62.857C118.884 62.857 117.311 62.2627 116.123 61.065C113.736 58.6786 113.736 54.8018 116.123 52.4063L132.919 35.6101C135.314 33.2146 139.182 33.2146 141.577 35.6101C143.964 38.0057 143.964 41.8733 141.577 44.2688L124.781 61.065C123.584 62.2627 122.02 62.857 120.457 62.857H120.447Z" fill="#F6C661"/>
<path d="M145.546 62.8571C143.982 62.8571 142.41 62.2628 141.221 61.065C138.834 58.6695 138.834 54.8019 141.221 52.4063L168.925 24.7023C171.311 22.3159 175.188 22.3159 177.584 24.7023C179.97 27.0978 179.97 30.9654 177.584 33.3609L149.88 61.065C148.682 62.2628 147.118 62.8571 145.555 62.8571H145.546Z" fill="#F6C661"/>
<path d="M95.2303 62.857C93.6668 62.857 92.0941 62.2627 90.9055 61.065C88.5191 58.6786 88.5191 54.8018 90.9055 52.4063L107.702 35.6101C110.097 33.2146 113.965 33.2146 116.36 35.6101C118.747 38.0057 118.747 41.8733 116.36 44.2688L99.5642 61.065C98.3664 62.2627 96.8029 62.857 95.2394 62.857H95.2303Z" fill="#F6C661"/>
<path d="M43.5983 64.0458C46.9816 64.0458 49.7243 61.3031 49.7243 57.9198C49.7243 54.5365 46.9816 51.7938 43.5983 51.7938C40.215 51.7938 37.4723 54.5365 37.4723 57.9198C37.4723 61.3031 40.215 64.0458 43.5983 64.0458Z" fill="#F6C661"/>
<path d="M33.6505 73.9937C37.0337 73.9937 39.7764 71.251 39.7764 67.8677C39.7764 64.4844 37.0337 61.7417 33.6505 61.7417C30.2672 61.7417 27.5245 64.4844 27.5245 67.8677C27.5245 71.251 30.2672 73.9937 33.6505 73.9937Z" fill="#F6C661"/>
<path d="M160.65 43.7294C156.6 43.7294 152.549 42.1842 149.468 39.1029C143.306 32.9404 143.306 22.9011 149.468 16.7385L161.546 4.66029C164.536 1.67044 168.504 0.0246582 172.729 0.0246582C176.953 0.0246582 180.921 1.67044 183.911 4.66029C190.073 10.8228 190.073 20.8621 183.911 27.0247L171.832 39.1029C168.751 42.1842 164.701 43.7294 160.65 43.7294ZM172.729 12.2675C171.778 12.2675 170.882 12.6424 170.205 13.3098L158.127 25.3881C156.737 26.7778 156.737 29.0454 158.127 30.4351C159.517 31.8249 161.784 31.8249 163.174 30.4351L175.252 18.3569C176.642 16.9671 176.642 14.6996 175.252 13.3098C174.575 12.6332 173.679 12.2675 172.729 12.2675Z" fill="#F6C661"/>
<path d="M56.1703 85.3221C55.7406 85.3221 55.3931 85.2215 55.128 85.0112C54.8628 84.8009 54.6525 84.4718 54.4879 84.0238L49.4774 69.8426C49.3037 69.3305 49.3403 68.9008 49.5872 68.5442C49.834 68.1968 50.2546 68.0139 50.8489 68.0139C51.2787 68.0139 51.617 68.1145 51.8547 68.3156C52.0924 68.5168 52.2844 68.8277 52.4307 69.2665L56.7463 82.0762H55.7863L60.2939 69.2848C60.4494 68.8551 60.6505 68.5351 60.8974 68.3248C61.1351 68.1145 61.446 68.0139 61.83 68.0139C62.214 68.0139 62.5157 68.1145 62.7443 68.3248C62.9638 68.5351 63.1558 68.8642 63.3203 69.3123L67.6908 82.0762H66.8496L71.2384 69.2665C71.3847 68.8551 71.5767 68.5351 71.8144 68.3339C72.0521 68.1236 72.3813 68.0231 72.8019 68.0231C73.3139 68.0231 73.6888 68.1968 73.9265 68.5534C74.1642 68.9008 74.2008 69.3397 74.0179 69.8517L68.9526 84.0512C68.788 84.4809 68.5869 84.8009 68.3308 85.0112C68.0748 85.2215 67.7274 85.3221 67.2977 85.3221C66.8679 85.3221 66.5205 85.2215 66.2645 85.0112C66.0085 84.8009 65.7982 84.4718 65.6427 84.0238L61.4643 72.1192H62.0128L57.7887 84.042C57.6241 84.4718 57.4229 84.7918 57.1761 85.0021C56.9292 85.2124 56.5909 85.313 56.152 85.313L56.1703 85.3221Z" fill="#F6C661"/>
<path d="M75.6546 85.3221C75.2706 85.3221 74.9597 85.2307 74.7311 85.057C74.5026 84.8832 74.3563 84.6455 74.3105 84.3529C74.2648 84.0603 74.3105 83.722 74.4751 83.3563L80.8114 69.3214C81.0217 68.8551 81.2686 68.526 81.5703 68.3248C81.8629 68.1236 82.2103 68.0231 82.5943 68.0231C82.9784 68.0231 83.2984 68.1236 83.5909 68.3248C83.8835 68.526 84.1395 68.8551 84.3498 69.3214L90.7044 83.3563C90.8781 83.722 90.9421 84.0603 90.8964 84.3621C90.8507 84.6638 90.7135 84.9015 90.485 85.0661C90.2655 85.2307 89.9638 85.3221 89.5981 85.3221C89.15 85.3221 88.8026 85.2124 88.5557 85.0021C88.3089 84.7918 88.0894 84.4535 87.8974 84.0055L86.3339 80.3848L87.6323 81.2259H77.5107L78.809 80.3848L77.273 84.0055C77.0627 84.4718 76.8524 84.801 76.6238 85.0112C76.3952 85.2215 76.0843 85.3221 75.6637 85.3221H75.6546ZM82.5395 71.5524L79.1839 79.5436L78.5622 78.7755H86.5716L85.9682 79.5436L82.5852 71.5524H82.5395Z" fill="#F6C661"/>
<path d="M98.979 85.3769C98.275 85.3769 97.571 85.3221 96.867 85.2215C96.1629 85.1209 95.4955 84.9563 94.8737 84.746C94.252 84.5266 93.6851 84.2614 93.1914 83.9414C92.9079 83.7494 92.7068 83.5208 92.5879 83.2465C92.4782 82.9722 92.4416 82.7071 92.4782 82.4419C92.5148 82.1768 92.6245 81.9482 92.7891 81.747C92.9536 81.5459 93.1731 81.427 93.4291 81.3722C93.6851 81.3265 93.9685 81.3996 94.2703 81.5916C94.9743 82.0122 95.7149 82.3139 96.5012 82.5059C97.2875 82.6979 98.1104 82.7894 98.9699 82.7894C100.232 82.7894 101.155 82.5791 101.731 82.1493C102.307 81.7288 102.591 81.1802 102.591 80.5036C102.591 79.9458 102.389 79.5069 101.978 79.1869C101.567 78.8669 100.872 78.6018 99.8751 78.3915L97.2327 77.8429C95.7149 77.5229 94.5811 76.9834 93.8405 76.2245C93.0999 75.4656 92.7251 74.4599 92.7251 73.2164C92.7251 72.4301 92.8805 71.7169 93.2005 71.0769C93.5205 70.4368 93.9685 69.8882 94.5537 69.4219C95.1389 68.9556 95.8338 68.599 96.6384 68.3522C97.443 68.1053 98.339 67.9773 99.3174 67.9773C100.296 67.9773 101.192 68.0962 102.051 68.3339C102.911 68.5716 103.688 68.9282 104.383 69.3854C104.639 69.5591 104.812 69.7785 104.895 70.0345C104.986 70.2905 105.004 70.5466 104.959 70.7934C104.913 71.0403 104.794 71.2506 104.62 71.4334C104.447 71.6072 104.227 71.7169 103.962 71.7443C103.697 71.7809 103.395 71.6986 103.066 71.5066C102.472 71.1683 101.877 70.9306 101.265 70.7843C100.661 70.638 100.003 70.5648 99.2991 70.5648C98.595 70.5648 97.9276 70.6654 97.4064 70.8757C96.8761 71.086 96.4738 71.3786 96.1904 71.7535C95.9069 72.1283 95.7698 72.5764 95.7698 73.0884C95.7698 73.6644 95.9618 74.1216 96.3458 74.469C96.7298 74.8165 97.3881 75.0816 98.3116 75.2736L100.927 75.8222C102.508 76.1605 103.688 76.6817 104.465 77.404C105.242 78.1263 105.626 79.0864 105.626 80.2841C105.626 81.0522 105.471 81.747 105.16 82.3688C104.849 82.9905 104.401 83.53 103.816 83.978C103.231 84.426 102.536 84.7735 101.713 85.0112C100.899 85.2489 99.9757 85.3678 98.9516 85.3678L98.979 85.3769Z" fill="#F6C661"/>
<path d="M114.111 85.3769C113.407 85.3769 112.703 85.3221 111.999 85.2215C111.295 85.1209 110.628 84.9563 110.006 84.746C109.384 84.5266 108.817 84.2614 108.323 83.9414C108.04 83.7494 107.839 83.5208 107.72 83.2465C107.61 82.9722 107.574 82.7071 107.61 82.4419C107.647 82.1768 107.757 81.9482 107.921 81.747C108.086 81.5459 108.305 81.427 108.561 81.3722C108.817 81.3265 109.101 81.3996 109.402 81.5916C110.106 82.0122 110.847 82.3139 111.633 82.5059C112.42 82.6979 113.243 82.7894 114.102 82.7894C115.364 82.7894 116.287 82.5791 116.863 82.1493C117.439 81.7288 117.723 81.1802 117.723 80.5036C117.723 79.9458 117.522 79.5069 117.11 79.1869C116.699 78.8669 116.004 78.6018 115.007 78.3915L112.365 77.8429C110.847 77.5229 109.713 76.9834 108.973 76.2245C108.232 75.4656 107.857 74.4599 107.857 73.2164C107.857 72.4301 108.013 71.7169 108.333 71.0769C108.653 70.4368 109.101 69.8882 109.686 69.4219C110.271 68.9556 110.966 68.599 111.77 68.3522C112.575 68.1053 113.471 67.9773 114.449 67.9773C115.428 67.9773 116.324 68.0962 117.183 68.3339C118.043 68.5716 118.82 68.9282 119.515 69.3854C119.771 69.5591 119.945 69.7785 120.027 70.0345C120.118 70.2905 120.137 70.5466 120.091 70.7934C120.045 71.0403 119.926 71.2506 119.753 71.4334C119.579 71.6072 119.359 71.7169 119.094 71.7443C118.829 71.7809 118.527 71.6986 118.198 71.5066C117.604 71.1683 117.01 70.9306 116.397 70.7843C115.794 70.638 115.135 70.5648 114.431 70.5648C113.727 70.5648 113.06 70.6654 112.539 70.8757C112.008 71.086 111.606 71.3786 111.322 71.7535C111.039 72.1283 110.902 72.5764 110.902 73.0884C110.902 73.6644 111.094 74.1216 111.478 74.469C111.862 74.8165 112.52 75.0816 113.444 75.2736L116.059 75.8222C117.64 76.1605 118.82 76.6817 119.597 77.404C120.374 78.1263 120.758 79.0864 120.758 80.2841C120.758 81.0522 120.603 81.747 120.292 82.3688C119.981 82.9905 119.533 83.53 118.948 83.978C118.363 84.426 117.668 84.7735 116.845 85.0112C116.031 85.2489 115.108 85.3678 114.084 85.3678L114.111 85.3769Z" fill="#F6C661"/>
<path d="M124.955 85.3221C124.461 85.3221 124.077 85.185 123.812 84.9015C123.547 84.6181 123.419 84.2341 123.419 83.7403V69.6048C123.419 69.0928 123.547 68.6997 123.812 68.4254C124.077 68.1511 124.452 68.0139 124.955 68.0139C125.458 68.0139 125.833 68.1511 126.098 68.4254C126.363 68.6997 126.491 69.0928 126.491 69.6048V83.7403C126.491 84.2341 126.363 84.6272 126.107 84.9015C125.851 85.185 125.467 85.3221 124.955 85.3221Z" fill="#F6C661"/>
<path d="M131.748 85.13C131.255 85.13 130.871 84.9929 130.596 84.7094C130.322 84.426 130.185 84.042 130.185 83.5482V69.7054C130.185 69.1933 130.313 68.8093 130.578 68.5442C130.843 68.279 131.218 68.151 131.721 68.151C132.224 68.151 132.599 68.279 132.864 68.5442C133.129 68.8093 133.257 69.1933 133.257 69.7054V82.5151H166.383C166.813 82.5151 167.151 82.6248 167.38 82.8534C167.608 83.0819 167.727 83.3928 167.727 83.8134C167.727 84.234 167.608 84.554 167.38 84.7826C167.151 85.0112 166.813 85.13 166.383 85.13H131.748Z" fill="#F6C661"/>
<path d="M66.3102 62.8571C60.2025 62.8571 54.7531 59.209 52.4124 53.5676C50.0718 47.9262 51.3518 41.4893 55.6766 37.1737L75.81 17.0403C76.5415 16.3088 76.6421 15.4493 76.6329 15.0013C76.6329 14.5533 76.4958 13.703 75.7369 12.9989C74.6305 11.9749 72.9208 12.0115 71.851 13.0721L26.4822 58.4501C23.6386 61.2936 19.8624 62.8571 15.8485 62.8571C9.74085 62.8571 4.29147 59.209 1.95079 53.5676C-0.38988 47.9262 0.890176 41.4893 5.21494 37.1737L15.6108 26.7778C18.0064 24.3823 21.874 24.3823 24.2695 26.7778C26.6559 29.1642 26.6559 33.041 24.2695 35.4365L13.8736 45.8324C12.7216 46.9844 12.9958 48.2371 13.2701 48.8862C13.5353 49.5354 14.2302 50.6143 15.8577 50.6143C16.6074 50.6143 17.3115 50.3217 17.8326 49.7914L63.1923 4.42257C68.9252 -1.31025 78.0867 -1.49312 84.0481 4.01112C87.0837 6.8181 88.7934 10.6308 88.8757 14.7636C88.958 18.8963 87.3945 22.7731 84.4687 25.6989L64.3352 45.8324C63.1832 46.9844 63.4575 48.2371 63.7318 48.8862C63.9969 49.5354 64.6918 50.6143 66.3193 50.6143C67.0691 50.6143 67.7731 50.3217 68.2943 49.7914L82.4755 35.6102C84.871 33.2147 88.7386 33.2147 91.1341 35.6102C93.5205 38.0058 93.5205 41.8733 91.1341 44.2689L76.9529 58.4501C74.1094 61.2936 70.3332 62.8571 66.3193 62.8571H66.3102Z" fill="#F6C661"/>
</svg>
