<svg width="186" height="79" viewBox="0 0 186 79" fill="none" xmlns="http://www.w3.org/2000/svg">
<path fill-rule="evenodd" clip-rule="evenodd" d="M179.203 0.956065C182.422 0.956065 185.024 3.51921 185.024 6.68316C185.024 9.8471 182.42 12.4102 179.203 12.4102C175.985 12.4102 173.38 9.8471 173.38 6.68316C173.38 3.51921 175.995 0.956065 179.203 0.956065ZM179.203 0C182.951 0 186 2.99096 186 6.68316C186 10.3754 182.951 13.3663 179.203 13.3663C175.454 13.3663 172.417 10.3754 172.417 6.68316C172.417 2.99096 175.454 0 179.203 0Z" fill="#4F9F53"/>
<path d="M177.624 6.29808H179.517C179.927 6.29808 180.241 6.25716 180.458 6.17532C180.686 6.09533 180.856 5.96327 180.976 5.78285C181.097 5.60242 181.157 5.40712 181.157 5.19507C181.157 4.8863 181.038 4.62962 180.808 4.43059C180.591 4.22971 180.23 4.13298 179.734 4.13298H177.624M176.745 9.9568V3.40942H179.698C180.289 3.40942 180.735 3.46895 181.049 3.58613C181.363 3.70331 181.602 3.91164 181.784 4.20739C181.977 4.50499 182.061 4.83422 182.061 5.19321C182.061 5.65822 181.917 6.05069 181.603 6.36876C181.301 6.68683 180.832 6.88958 180.192 6.977C180.42 7.08674 180.602 7.19648 180.723 7.30251C180.976 7.53315 181.217 7.82518 181.447 8.17301L182.605 9.9568H181.509L180.63 8.59338C180.364 8.19905 180.16 7.89772 179.99 7.6894C179.822 7.48107 179.676 7.33599 179.545 7.25229C179.412 7.17044 179.279 7.11278 179.147 7.0793C179.038 7.05884 178.881 7.04954 178.653 7.04954H177.628V9.9568H176.749H176.745Z" fill="#4F9F53"/>
<path d="M27.7616 51.4749H9.5469L23.437 31.3064H14.3933L0.847318 50.9764C0.596675 51.3503 0.469482 51.6628 0.469482 52.098V58.4482C0.469482 59.0081 0.847318 59.382 1.40846 59.382H27.7634C28.3283 59.382 28.7043 59.0081 28.7043 58.4482V52.4087C28.7043 51.8488 28.3283 51.4749 27.7634 51.4749H27.7616Z" fill="#4F9F53"/>
<path d="M33.5039 23.71H40.5762C41.1411 23.71 41.5171 23.3361 41.5171 22.7762V16.7404C41.5171 16.1805 41.1411 15.8066 40.5762 15.8066H33.5039C32.9409 15.8066 32.565 16.1805 32.565 16.7404V22.7762C32.565 23.3361 32.9409 23.71 33.5039 23.71Z" fill="#4F9F53"/>
<path d="M27.7635 15.8066H0.938978C0.420395 15.8066 0 16.2247 0 16.7404V22.7762C0 23.2919 0.420395 23.71 0.938978 23.71H27.7635C28.282 23.71 28.7024 23.2919 28.7024 22.7762V16.7404C28.7024 16.2247 28.282 15.8066 27.7635 15.8066Z" fill="#4F9F53"/>
<path d="M46.399 15.8066H46.2755C45.7668 15.8066 45.3553 16.2159 45.3553 16.7218V22.7986C45.3553 23.3045 45.7668 23.7137 46.2755 23.7137C55.1659 23.7137 59.6719 28.6317 59.6719 37.5971C59.6719 38.1012 59.6588 38.5904 59.6289 39.0684C59.15 47.0945 54.6665 51.4749 46.2755 51.4749H41.5189V32.2402C41.5189 31.6803 41.143 31.3064 40.5781 31.3064H33.5058C32.9428 31.3064 32.5668 31.6803 32.5668 32.2402V58.4464C32.5668 58.7254 32.6585 58.9598 32.825 59.1216C32.9652 59.2667 33.1635 59.356 33.4011 59.3746C33.4347 59.3764 33.4703 59.3801 33.5039 59.3801H46.399C60.4556 59.3801 68.1152 50.6137 68.71 39.0684C68.7362 38.5829 68.7493 38.0937 68.7493 37.5971C68.7493 25.332 61.0485 15.8085 46.399 15.8085V15.8066Z" fill="#4F9F53"/>
<path d="M178.469 31.2413C177.77 28.4048 176.575 25.8305 174.893 23.6282C171.182 18.7548 165.107 15.7043 156.807 15.7043H113.334L110.19 23.6282H156.684C163.219 23.6282 167.391 26.2806 169.151 31.2413C169.79 33.0419 170.112 35.1493 170.112 37.5432C170.112 46.5254 165.593 51.4563 156.684 51.4563H151.916V31.2413H142.944V58.4445C142.944 59.0063 143.319 59.3802 143.884 59.3802H156.807C171.491 59.3802 179.208 49.8344 179.208 37.5432C179.208 35.3409 178.96 33.2279 178.468 31.2413H178.469Z" fill="#4F9F53"/>
<path d="M138.411 31.2414H114.862V56.3502C114.862 59.0063 115.238 59.3802 115.803 59.3802H138.14C138.705 59.3802 139.081 59.0063 139.081 58.4446V52.392C139.081 51.8302 138.705 51.4564 138.14 51.4564H123.835V39.1298H138.14C138.705 39.1298 139.081 38.756 139.081 38.1942V32.1416C139.081 31.6766 138.825 31.3399 138.413 31.2395L138.411 31.2414Z" fill="#4F9F53"/>
<path d="M99.8179 49.0866L86.5712 15.7043H76.4781V58.4445C76.4781 59.0063 76.8559 59.3802 77.4189 59.3802H84.5099C85.0748 59.3802 85.4508 59.0063 85.4508 58.4445V32.4262L95.5551 58.6306C95.7421 59.129 96.1817 59.3802 96.683 59.3802H102.957C103.458 59.3802 103.897 59.1309 104.084 58.6306L114.864 31.2413H106.963L99.8197 49.0866H99.8179Z" fill="#4F9F53"/>
<path d="M0 78.5722V70.9869C0 70.84 0.0654666 70.7562 0.215105 70.7562H0.909051C1.07365 70.7562 1.14099 70.8213 1.14099 71.0018L1.17466 71.9206C1.5712 71.1655 2.28011 70.5591 3.46973 70.5591C4.59201 70.5591 5.43373 71.0836 5.8471 72.1345C6.26048 71.264 7.01989 70.5591 8.38908 70.5591C10.0557 70.5591 11.0639 71.6416 11.0639 73.7602V78.5703C11.0639 78.7191 10.9984 78.801 10.8488 78.801H10.0893C9.94157 78.801 9.87424 78.7191 9.87424 78.5703V73.8923C9.87424 72.4805 9.29626 71.6602 8.12534 71.6602C6.95442 71.6602 6.12767 72.4973 6.12767 73.8923V78.5703C6.12767 78.7191 6.06221 78.801 5.91257 78.801H5.15316C5.00539 78.801 4.93805 78.7191 4.93805 78.5703V73.8923C4.93805 72.4805 4.27778 71.6602 3.10499 71.6602C1.9322 71.6602 1.18962 72.4973 1.18962 73.8923V78.5703C1.18962 78.7191 1.12416 78.801 0.974517 78.801H0.215105C0.0673371 78.801 0 78.7191 0 78.5703V78.5722Z" fill="#4F9F53"/>
<path d="M13.155 74.7478C13.155 72.3836 14.8067 70.5608 17.2158 70.5608C19.625 70.5608 20.9961 72.3985 20.9961 74.3702C20.9961 74.9617 20.8801 75.2072 20.4013 75.2072H14.3091C14.4737 76.7994 15.5642 77.9973 17.5282 77.9973C18.5196 77.9973 19.2285 77.7015 19.8551 77.2253C19.9374 77.1602 20.0365 77.1602 20.102 77.2421L20.3826 77.6197C20.4985 77.7666 20.4331 77.8503 20.3171 77.9638C19.5914 78.6539 18.5514 78.998 17.4272 78.998C14.7861 78.998 13.1513 77.0933 13.1513 74.7459L13.155 74.7478ZM19.9411 74.2883C19.8757 72.6961 18.8357 71.6117 17.2009 71.6117C15.5661 71.6117 14.4775 72.6459 14.3129 74.2883H19.943H19.9411Z" fill="#4F9F53"/>
<path d="M22.6795 74.7814C22.6795 72.3838 24.2975 70.5628 26.658 70.5628C28.0777 70.5628 29.1514 71.2361 29.7443 72.2871V67.2966C29.7443 67.1478 29.8098 67.0659 29.9594 67.0659H30.7188C30.8666 67.0659 30.9339 67.1478 30.9339 67.2966V78.574C30.9339 78.7228 30.8685 78.8047 30.7188 78.8047H30.008C29.8603 78.8047 29.7929 78.7228 29.7929 78.574L29.7593 77.2608C29.1645 78.3434 28.1076 79 26.6561 79C24.2956 79 22.6776 77.1939 22.6776 74.7814H22.6795ZM26.8226 77.9007C28.5565 77.9007 29.7611 76.6694 29.7611 74.8149C29.7611 72.9604 28.5565 71.6621 26.8226 71.6621C25.0887 71.6621 23.8355 72.9251 23.8355 74.7814C23.8355 76.6377 25.0906 77.9007 26.8226 77.9007Z" fill="#4F9F53"/>
<path d="M33.2758 67.9344C33.2758 67.5084 33.605 67.1792 34.0183 67.1792C34.4317 67.1792 34.7609 67.5084 34.7609 67.9344C34.7609 68.3603 34.4317 68.6728 34.0183 68.6728C33.605 68.6728 33.2758 68.3454 33.2758 67.9344ZM33.4254 70.9886C33.4254 70.8416 33.4909 70.7579 33.6405 70.7579H34.3999C34.5477 70.7579 34.615 70.8398 34.615 70.9886V78.5739C34.615 78.7227 34.5496 78.8045 34.3999 78.8045H33.6405C33.4927 78.8045 33.4254 78.7227 33.4254 78.5739V70.9886Z" fill="#4F9F53"/>
<path d="M36.6931 74.7813C36.6931 72.3689 38.5093 70.5627 40.9036 70.5627C42.1904 70.5627 43.2304 71.0724 43.9244 71.9094C44.0235 72.0415 44.0572 72.1401 43.958 72.2368L43.5297 72.6311C43.3819 72.7799 43.2491 72.713 43.15 72.6144C42.6375 72.0731 42.0109 71.662 40.9541 71.662C39.1715 71.662 37.8509 72.9418 37.8509 74.7813C37.8509 76.6209 39.1715 77.9006 40.9709 77.9006C42.0277 77.9006 42.6543 77.4896 43.15 76.965C43.266 76.8497 43.3969 76.7846 43.5465 76.9316L43.9767 77.3259C44.0759 77.4245 44.0422 77.5231 43.9431 77.6533C43.2491 78.4903 42.2091 78.9999 40.9054 78.9999C38.5112 78.9999 36.695 77.1938 36.695 74.7813H36.6931Z" fill="#4F9F53"/>
<path d="M45.3927 74.7813C45.3927 72.3837 47.0106 70.5627 49.3712 70.5627C50.8245 70.5627 51.8813 71.2677 52.4743 72.3354L52.508 70.9887C52.508 70.8418 52.5734 70.7581 52.7231 70.7581H53.4338C53.5816 70.7581 53.6489 70.8399 53.6489 70.9887V78.574C53.6489 78.7228 53.5835 78.8046 53.4338 78.8046H52.7231C52.5753 78.8046 52.508 78.7228 52.508 78.574L52.4743 77.2608C51.8795 78.3433 50.8227 78.9999 49.3712 78.9999C47.0106 78.9999 45.3927 77.1938 45.3927 74.7813ZM49.5358 77.9006C51.2697 77.9006 52.4743 76.6693 52.4743 74.8148C52.4743 72.9604 51.2697 71.662 49.5358 71.662C47.8018 71.662 46.5486 72.925 46.5486 74.7813C46.5486 76.6377 47.8037 77.9006 49.5358 77.9006Z" fill="#4F9F53"/>
<path d="M56.1385 78.5721V67.2946C56.1385 67.1458 56.204 67.064 56.3537 67.064H57.1131C57.2608 67.064 57.3282 67.1458 57.3282 67.2946V78.5721C57.3282 78.7209 57.2627 78.8027 57.1131 78.8027H56.3537C56.2059 78.8027 56.1385 78.7209 56.1385 78.5721Z" fill="#4F9F53"/>
<path d="M62.7077 74.7813C62.7077 72.3837 64.3256 70.5627 66.6862 70.5627C68.1395 70.5627 69.1963 71.2677 69.7893 72.3354L69.823 70.9887C69.823 70.8418 69.8884 70.7581 70.0381 70.7581H70.7488C70.8966 70.7581 70.9639 70.8399 70.9639 70.9887V78.574C70.9639 78.7228 70.8985 78.8046 70.7488 78.8046H70.0381C69.8903 78.8046 69.823 78.7228 69.823 78.574L69.7893 77.2608C69.1945 78.3433 68.1377 78.9999 66.6862 78.9999C64.3256 78.9999 62.7077 77.1938 62.7077 74.7813ZM66.8508 77.9006C68.5847 77.9006 69.7893 76.6693 69.7893 74.8148C69.7893 72.9604 68.5847 71.662 66.8508 71.662C65.1168 71.662 63.8636 72.925 63.8636 74.7813C63.8636 76.6377 65.1187 77.9006 66.8508 77.9006Z" fill="#4F9F53"/>
<path d="M73.4536 78.5722V70.9869C73.4536 70.84 73.519 70.7562 73.6687 70.7562H74.3626C74.5272 70.7562 74.5945 70.8213 74.5945 71.0018L74.6432 72.036C75.1052 71.2157 75.9806 70.5591 77.3179 70.5591C79.0837 70.5591 80.2733 71.7086 80.2733 73.8421V78.5703C80.2733 78.7191 80.2078 78.801 80.0582 78.801H79.2819C79.1342 78.801 79.0837 78.7191 79.0837 78.5703V73.9574C79.0837 72.5289 78.3243 71.6584 76.9869 71.6584C75.6495 71.6584 74.6432 72.5289 74.6432 73.9574V78.5703C74.6432 78.7191 74.5777 78.801 74.4281 78.801H73.6687C73.5209 78.801 73.4536 78.7191 73.4536 78.5703V78.5722Z" fill="#4F9F53"/>
<path d="M82.3495 74.7814C82.3495 72.3838 83.9675 70.5628 86.328 70.5628C87.7477 70.5628 88.8214 71.2361 89.4143 72.2871V67.2966C89.4143 67.1478 89.4798 67.0659 89.6294 67.0659H90.3888C90.5366 67.0659 90.6039 67.1478 90.6039 67.2966V78.574C90.6039 78.7228 90.5385 78.8047 90.3888 78.8047H89.6799C89.5303 78.8047 89.4648 78.7228 89.4648 78.574L89.4311 77.2608C88.8363 78.3434 87.7814 79 86.328 79C83.9675 79 82.3495 77.1939 82.3495 74.7814ZM86.4926 77.9007C88.2265 77.9007 89.4311 76.6694 89.4311 74.8149C89.4311 72.9604 88.2265 71.6621 86.4926 71.6621C84.7587 71.6621 83.5055 72.9251 83.5055 74.7814C83.5055 76.6377 84.7606 77.9007 86.4926 77.9007Z" fill="#4F9F53"/>
<path d="M96.3968 78.5721V67.2946C96.3968 67.1458 96.4623 67.064 96.6119 67.064H97.3713C97.5191 67.064 97.5864 67.1458 97.5864 67.2946V72.0396C98.0484 71.2193 98.9238 70.5627 100.261 70.5627C102.027 70.5627 103.217 71.7122 103.217 73.8457V78.5739C103.217 78.7228 103.151 78.8046 103.001 78.8046H102.225C102.076 78.8046 102.027 78.7228 102.027 78.5739V73.961C102.027 72.5325 101.268 71.662 99.9301 71.662C98.5927 71.662 97.5864 72.5325 97.5864 73.961V78.5739C97.5864 78.7228 97.5209 78.8046 97.3713 78.8046H96.6119C96.4623 78.8046 96.3968 78.7228 96.3968 78.5739V78.5721Z" fill="#4F9F53"/>
<path d="M105.293 74.7478C105.293 72.3836 106.944 70.5608 109.354 70.5608C111.763 70.5608 113.134 72.3985 113.134 74.3702C113.134 74.9617 113.018 75.2072 112.539 75.2072H106.447C106.611 76.7994 107.702 77.9973 109.666 77.9973C110.657 77.9973 111.366 77.7015 111.993 77.2253C112.075 77.1602 112.174 77.1602 112.24 77.2421L112.52 77.6197C112.636 77.7666 112.569 77.8503 112.455 77.9638C111.729 78.6539 110.689 78.998 109.567 78.998C106.926 78.998 105.291 77.0933 105.291 74.7459L105.293 74.7478ZM112.079 74.2883C112.013 72.6961 110.973 71.6117 109.339 71.6117C107.704 71.6117 106.615 72.6459 106.451 74.2883H112.081H112.079Z" fill="#4F9F53"/>
<path d="M114.817 74.7813C114.817 72.3837 116.435 70.5627 118.796 70.5627C120.249 70.5627 121.306 71.2677 121.899 72.3354L121.933 70.9887C121.933 70.8418 121.998 70.7581 122.148 70.7581H122.857C123.006 70.7581 123.072 70.8399 123.072 70.9887V78.574C123.072 78.7228 123.006 78.8046 122.857 78.8046H122.148C122 78.8046 121.933 78.7228 121.933 78.574L121.899 77.2608C121.304 78.3433 120.247 78.9999 118.796 78.9999C116.435 78.9999 114.817 77.1938 114.817 74.7813ZM118.96 77.9006C120.694 77.9006 121.899 76.6693 121.899 74.8148C121.899 72.9604 120.694 71.662 118.96 71.662C117.226 71.662 115.973 72.925 115.973 74.7813C115.973 76.6377 117.228 77.9006 118.96 77.9006Z" fill="#4F9F53"/>
<path d="M125.563 78.5721V67.2946C125.563 67.1458 125.629 67.064 125.778 67.064H126.538C126.687 67.064 126.753 67.1458 126.753 67.2946V78.5721C126.753 78.7209 126.687 78.8027 126.538 78.8027H125.778C125.63 78.8027 125.563 78.7209 125.563 78.5721Z" fill="#4F9F53"/>
<path d="M129.888 77.1623V71.744H128.831C128.681 71.744 128.599 71.6621 128.599 71.5133V70.9888C128.599 70.8418 128.681 70.7581 128.831 70.7581H129.888V68.8535C129.888 68.7046 129.953 68.6228 130.103 68.6228H130.862C131.012 68.6228 131.077 68.7046 131.077 68.8535V70.7581H132.446C132.596 70.7581 132.678 70.84 132.678 70.9888V71.5133C132.678 71.6621 132.596 71.744 132.446 71.744H131.077V76.9967C131.077 77.6199 131.324 77.8505 131.82 77.8505C131.953 77.8505 132.183 77.8338 132.33 77.817C132.579 77.7835 132.645 77.8672 132.645 78.0309V78.5387C132.645 78.8177 132.033 78.8996 131.605 78.8996C130.482 78.8996 129.888 78.3416 129.888 77.1586V77.1623Z" fill="#4F9F53"/>
<path d="M134.691 78.5721V67.2946C134.691 67.1458 134.756 67.064 134.906 67.064H135.666C135.813 67.064 135.881 67.1458 135.881 67.2946V72.0396C136.343 71.2193 137.218 70.5627 138.555 70.5627C140.321 70.5627 141.511 71.7122 141.511 73.8457V78.5739C141.511 78.7228 141.445 78.8046 141.296 78.8046H140.519C140.37 78.8046 140.321 78.7228 140.321 78.5739V73.961C140.321 72.5325 139.562 71.662 138.224 71.662C136.887 71.662 135.881 72.5325 135.881 73.961V78.5739C135.881 78.7228 135.815 78.8046 135.666 78.8046H134.906C134.756 78.8046 134.691 78.7228 134.691 78.5739V78.5721Z" fill="#4F9F53"/>
<path d="M146.888 74.7813C146.888 72.3689 148.705 70.5627 151.099 70.5627C152.386 70.5627 153.426 71.0724 154.12 71.9094C154.219 72.0415 154.252 72.1401 154.153 72.2368L153.725 72.6311C153.575 72.7799 153.444 72.713 153.345 72.6144C152.835 72.0731 152.206 71.662 151.149 71.662C149.367 71.662 148.046 72.9418 148.046 74.7813C148.046 76.6209 149.367 77.9006 151.166 77.9006C152.223 77.9006 152.85 77.4896 153.345 76.965C153.461 76.8497 153.594 76.7846 153.742 76.9316L154.17 77.3259C154.269 77.4245 154.236 77.5231 154.136 77.6533C153.443 78.4903 152.403 78.9999 151.099 78.9999C148.705 78.9999 146.888 77.1938 146.888 74.7813Z" fill="#4F9F53"/>
<path d="M155.588 74.7813C155.588 72.3837 157.206 70.5627 159.566 70.5627C161.02 70.5627 162.077 71.2677 162.67 72.3354L162.703 70.9887C162.703 70.8418 162.769 70.7581 162.918 70.7581H163.627C163.777 70.7581 163.842 70.8399 163.842 70.9887V78.574C163.842 78.7228 163.777 78.8046 163.627 78.8046H162.918C162.771 78.8046 162.703 78.7228 162.703 78.574L162.67 77.2608C162.075 78.3433 161.018 78.9999 159.566 78.9999C157.206 78.9999 155.588 77.1938 155.588 74.7813ZM159.731 77.9006C161.465 77.9006 162.67 76.6693 162.67 74.8148C162.67 72.9604 161.465 71.662 159.731 71.662C157.997 71.662 156.744 72.925 156.744 74.7813C156.744 76.6377 157.999 77.9006 159.731 77.9006Z" fill="#4F9F53"/>
<path d="M166.332 78.5722V70.9869C166.332 70.84 166.397 70.7562 166.547 70.7562H167.241C167.406 70.7562 167.473 70.8213 167.473 71.0018L167.507 71.9206C167.821 71.1655 168.365 70.5591 169.371 70.5591C169.703 70.5591 169.966 70.6242 170.114 70.7228C170.213 70.7879 170.247 70.8548 170.247 71.0018V71.5765C170.247 71.757 170.131 71.7904 169.949 71.7402C169.734 71.6751 169.536 71.6584 169.371 71.6584C167.918 71.6584 167.523 72.9381 167.523 73.8421V78.5703C167.523 78.7191 167.458 78.801 167.308 78.801H166.549C166.401 78.801 166.334 78.7191 166.334 78.5703L166.332 78.5722Z" fill="#4F9F53"/>
<path d="M171.367 74.7478C171.367 72.3836 173.019 70.5608 175.428 70.5608C177.837 70.5608 179.208 72.3985 179.208 74.3702C179.208 74.9617 179.092 75.2072 178.613 75.2072H172.521C172.686 76.7994 173.776 77.9973 175.74 77.9973C176.732 77.9973 177.441 77.7015 178.067 77.2253C178.15 77.1602 178.249 77.1602 178.314 77.2421L178.595 77.6197C178.711 77.7666 178.643 77.8503 178.529 77.9638C177.804 78.6539 176.764 78.998 175.641 78.998C173 78.998 171.365 77.0933 171.365 74.7459L171.367 74.7478ZM178.151 74.2883C178.086 72.6961 177.046 71.6117 175.411 71.6117C173.776 71.6117 172.688 72.6459 172.523 74.2883H178.153H178.151Z" fill="#4F9F53"/>
</svg>
